<?xml version="1.0" encoding="UTF-8" standalone="no"?><svg xmlns="http://www.w3.org/2000/svg" xmlns:xlink="http://www.w3.org/1999/xlink" contentScriptType="application/ecmascript" contentStyleType="text/css" height="736px" preserveAspectRatio="none" style="width:1900px;height:736px;" version="1.1" viewBox="0 0 1900 736" width="1900px" zoomAndPan="magnify"><defs><filter height="300%" id="f1fp1uq3k3er52" width="300%" x="-1" y="-1"><feGaussianBlur result="blurOut" stdDeviation="4.0"/><feColorMatrix in="blurOut" result="blurOut2" type="matrix" values="0 0 0 0 0 0 0 0 0 0 0 0 0 0 0 0 0 0 .4 0"/><feOffset dx="8.0" dy="8.0" in="blurOut2" result="blurOut3"/><feBlend in="SourceGraphic" in2="blurOut3" mode="normal"/></filter></defs><g><!--MD5=[6d6f6ff3a1051d953e520dc7f1aa6c60]
class BatchConfigurer--><rect fill="#DDEEE8" filter="url(#f1fp1uq3k3er52)" height="198.4375" id="BatchConfigurer" style="stroke: #225C4D; stroke-width: 3.0;" width="650" x="12" y="16"/><ellipse cx="232.5" cy="48" fill="#B4A7E5" rx="22" ry="22" style="stroke: #225C4D; stroke-width: 2.0;"/><path d="M224.3438,39.5313 L224.3438,35.2188 L239.125,35.2188 L239.125,39.5313 L234.1875,39.5313 L234.1875,55.6875 L239.125,55.6875 L239.125,60 L224.3438,60 L224.3438,55.6875 L229.2813,55.6875 L229.2813,39.5313 L224.3438,39.5313 Z "/><text fill="#000000" font-family="sans-serif" font-size="24" font-style="italic" lengthAdjust="spacingAndGlyphs" textLength="192" x="273.5" y="56.3086">BatchConfigurer</text><line style="stroke: #225C4D; stroke-width: 3.0;" x1="14" x2="660" y1="80" y2="80"/><line style="stroke: #225C4D; stroke-width: 3.0;" x1="14" x2="660" y1="96" y2="96"/><text fill="#000000" font-family="sans-serif" font-size="22" lengthAdjust="spacingAndGlyphs" textLength="342" x="24" y="124.4209">getJobLauncher(): JobLauncher</text><text fill="#000000" font-family="sans-serif" font-size="22" lengthAdjust="spacingAndGlyphs" textLength="374" x="24" y="150.0303">getJobRepository(): JobRepository</text><text fill="#000000" font-family="sans-serif" font-size="22" lengthAdjust="spacingAndGlyphs" textLength="322" x="24" y="175.6396">getJobExplorer(): JobExplorer</text><text fill="#000000" font-family="sans-serif" font-size="22" lengthAdjust="spacingAndGlyphs" textLength="626" x="24" y="201.249">getTransactionManager(): PlatformTransactionManager</text><!--MD5=[81c1678f3b146417d42d9549aee5a5c0]
class DataSource--><rect fill="#DDEEE8" filter="url(#f1fp1uq3k3er52)" height="96" id="DataSource" style="stroke: #225C4D; stroke-width: 3.0;" width="204" x="1675" y="67"/><ellipse cx="1705" cy="99" fill="#B4A7E5" rx="22" ry="22" style="stroke: #225C4D; stroke-width: 2.0;"/><path d="M1696.8438,90.5313 L1696.8438,86.2188 L1711.625,86.2188 L1711.625,90.5313 L1706.6875,90.5313 L1706.6875,106.6875 L1711.625,106.6875 L1711.625,111 L1696.8438,111 L1696.8438,106.6875 L1701.7813,106.6875 L1701.7813,90.5313 L1696.8438,90.5313 Z "/><text fill="#000000" font-family="sans-serif" font-size="24" font-style="italic" lengthAdjust="spacingAndGlyphs" textLength="140" x="1733" y="107.3086">DataSource</text><line style="stroke: #225C4D; stroke-width: 3.0;" x1="1677" x2="1877" y1="131" y2="131"/><line style="stroke: #225C4D; stroke-width: 3.0;" x1="1677" x2="1877" y1="147" y2="147"/><!--MD5=[ab5a9db233ea6184a0fb7442d6f052df]
class PlatformTransactionManager--><rect fill="#DDEEE8" filter="url(#f1fp1uq3k3er52)" height="96" id="PlatformTransactionManager" style="stroke: #225C4D; stroke-width: 3.0;" width="400" x="153" y="368"/><ellipse cx="183" cy="400" fill="#B4A7E5" rx="22" ry="22" style="stroke: #225C4D; stroke-width: 2.0;"/><path d="M174.8438,391.5313 L174.8438,387.2188 L189.625,387.2188 L189.625,391.5313 L184.6875,391.5313 L184.6875,407.6875 L189.625,407.6875 L189.625,412 L174.8438,412 L174.8438,407.6875 L179.7813,407.6875 L179.7813,391.5313 L174.8438,391.5313 Z "/><text fill="#000000" font-family="sans-serif" font-size="24" font-style="italic" lengthAdjust="spacingAndGlyphs" textLength="336" x="211" y="408.3086">PlatformTransactionManager</text><line style="stroke: #225C4D; stroke-width: 3.0;" x1="155" x2="551" y1="432" y2="432"/><line style="stroke: #225C4D; stroke-width: 3.0;" x1="155" x2="551" y1="448" y2="448"/><!--MD5=[823a33a1e2936c4f8586a296997820bf]
class JobRepository--><rect fill="#DDEEE8" filter="url(#f1fp1uq3k3er52)" height="96" id="JobRepository" style="stroke: #225C4D; stroke-width: 3.0;" width="228" x="753" y="368"/><ellipse cx="783" cy="400" fill="#B4A7E5" rx="22" ry="22" style="stroke: #225C4D; stroke-width: 2.0;"/><path d="M774.8438,391.5313 L774.8438,387.2188 L789.625,387.2188 L789.625,391.5313 L784.6875,391.5313 L784.6875,407.6875 L789.625,407.6875 L789.625,412 L774.8438,412 L774.8438,407.6875 L779.7813,407.6875 L779.7813,391.5313 L774.8438,391.5313 Z "/><text fill="#000000" font-family="sans-serif" font-size="24" font-style="italic" lengthAdjust="spacingAndGlyphs" textLength="164" x="811" y="408.3086">JobRepository</text><line style="stroke: #225C4D; stroke-width: 3.0;" x1="755" x2="979" y1="432" y2="432"/><line style="stroke: #225C4D; stroke-width: 3.0;" x1="755" x2="979" y1="448" y2="448"/><!--MD5=[a4205bda420981d2c1fd8440c95409ff]
class JobLauncher--><rect fill="#DDEEE8" filter="url(#f1fp1uq3k3er52)" height="96" id="JobLauncher" style="stroke: #225C4D; stroke-width: 3.0;" width="212" x="1181" y="368"/><ellipse cx="1211" cy="400" fill="#B4A7E5" rx="22" ry="22" style="stroke: #225C4D; stroke-width: 2.0;"/><path d="M1202.8438,391.5313 L1202.8438,387.2188 L1217.625,387.2188 L1217.625,391.5313 L1212.6875,391.5313 L1212.6875,407.6875 L1217.625,407.6875 L1217.625,412 L1202.8438,412 L1202.8438,407.6875 L1207.7813,407.6875 L1207.7813,391.5313 L1202.8438,391.5313 Z "/><text fill="#000000" font-family="sans-serif" font-size="24" font-style="italic" lengthAdjust="spacingAndGlyphs" textLength="148" x="1239" y="408.3086">JobLauncher</text><line style="stroke: #225C4D; stroke-width: 3.0;" x1="1183" x2="1391" y1="432" y2="432"/><line style="stroke: #225C4D; stroke-width: 3.0;" x1="1183" x2="1391" y1="448" y2="448"/><!--MD5=[fa2d4961db2455a353c19bd8fa716f61]
class JobExplorer--><rect fill="#DDEEE8" filter="url(#f1fp1uq3k3er52)" height="96" id="JobExplorer" style="stroke: #225C4D; stroke-width: 3.0;" width="202" x="1594" y="368"/><ellipse cx="1624" cy="400" fill="#B4A7E5" rx="22" ry="22" style="stroke: #225C4D; stroke-width: 2.0;"/><path d="M1615.8438,391.5313 L1615.8438,387.2188 L1630.625,387.2188 L1630.625,391.5313 L1625.6875,391.5313 L1625.6875,407.6875 L1630.625,407.6875 L1630.625,412 L1615.8438,412 L1615.8438,407.6875 L1620.7813,407.6875 L1620.7813,391.5313 L1615.8438,391.5313 Z "/><text fill="#000000" font-family="sans-serif" font-size="24" font-style="italic" lengthAdjust="spacingAndGlyphs" textLength="138" x="1652" y="408.3086">JobExplorer</text><line style="stroke: #225C4D; stroke-width: 3.0;" x1="1596" x2="1794" y1="432" y2="432"/><line style="stroke: #225C4D; stroke-width: 3.0;" x1="1596" x2="1794" y1="448" y2="448"/><!--MD5=[96185ed96464398a3f041d09df321efb]
class DefaultBatchConfigurer--><rect fill="#DDEEE8" filter="url(#f1fp1uq3k3er52)" height="172.8281" id="DefaultBatchConfigurer" style="stroke: #225C4D; stroke-width: 3.0;" width="462" x="862" y="29"/><ellipse cx="939.7" cy="61" fill="#ADD1B2" rx="22" ry="22" style="stroke: #225C4D; stroke-width: 2.0;"/><path d="M945.6375,72.2813 Q944.4813,72.875 943.2,73.1563 Q941.9188,73.4688 940.5125,73.4688 Q935.5125,73.4688 932.8563,70.1875 Q930.2313,66.875 930.2313,60.625 Q930.2313,54.375 932.8563,51.0625 Q935.5125,47.75 940.5125,47.75 Q941.9188,47.75 943.2,48.0625 Q944.5125,48.375 945.6375,48.9688 L945.6375,54.4063 Q944.3875,53.25 943.2,52.7188 Q942.0125,52.1563 940.7625,52.1563 Q938.075,52.1563 936.7,54.3125 Q935.325,56.4375 935.325,60.625 Q935.325,64.8125 936.7,66.9688 Q938.075,69.0938 940.7625,69.0938 Q942.0125,69.0938 943.2,68.5625 Q944.3875,68 945.6375,66.8438 L945.6375,72.2813 Z "/><text fill="#000000" font-family="sans-serif" font-size="24" lengthAdjust="spacingAndGlyphs" textLength="292" x="978.3" y="69.3086">DefaultBatchConfigurer</text><line style="stroke: #225C4D; stroke-width: 3.0;" x1="864" x2="1322" y1="93" y2="93"/><line style="stroke: #225C4D; stroke-width: 3.0;" x1="864" x2="1322" y1="109" y2="109"/><polygon fill="#FFFF44" points="884,121,892,129,884,137,876,129" style="stroke: #B38D22; stroke-width: 2.0;"/><text fill="#000000" font-family="sans-serif" font-size="22" lengthAdjust="spacingAndGlyphs" textLength="410" x="902" y="137.4209">createJobRepository(): JobRepository</text><polygon fill="#FFFF44" points="884,146.6094,892,154.6094,884,162.6094,876,154.6094" style="stroke: #B38D22; stroke-width: 2.0;"/><text fill="#000000" font-family="sans-serif" font-size="22" lengthAdjust="spacingAndGlyphs" textLength="378" x="902" y="163.0303">createJobLauncher(): JobLauncher</text><polygon fill="#FFFF44" points="884,172.2188,892,180.2188,884,188.2188,876,180.2188" style="stroke: #B38D22; stroke-width: 2.0;"/><text fill="#000000" font-family="sans-serif" font-size="22" lengthAdjust="spacingAndGlyphs" textLength="358" x="902" y="188.6396">createJobExplorer(): JobExplorer</text><!--MD5=[335e5525099ed5f393117dc587398b5e]
class StepBuilderFactory--><rect fill="#DDEEE8" filter="url(#f1fp1uq3k3er52)" height="96" id="StepBuilderFactory" style="stroke: #225C4D; stroke-width: 3.0;" width="300" x="387" y="618"/><ellipse cx="417" cy="650" fill="#ADD1B2" rx="22" ry="22" style="stroke: #225C4D; stroke-width: 2.0;"/><path d="M422.9375,661.2813 Q421.7813,661.875 420.5,662.1563 Q419.2188,662.4688 417.8125,662.4688 Q412.8125,662.4688 410.1563,659.1875 Q407.5313,655.875 407.5313,649.625 Q407.5313,643.375 410.1563,640.0625 Q412.8125,636.75 417.8125,636.75 Q419.2188,636.75 420.5,637.0625 Q421.8125,637.375 422.9375,637.9688 L422.9375,643.4063 Q421.6875,642.25 420.5,641.7188 Q419.3125,641.1563 418.0625,641.1563 Q415.375,641.1563 414,643.3125 Q412.625,645.4375 412.625,649.625 Q412.625,653.8125 414,655.9688 Q415.375,658.0938 418.0625,658.0938 Q419.3125,658.0938 420.5,657.5625 Q421.6875,657 422.9375,655.8438 L422.9375,661.2813 Z "/><text fill="#000000" font-family="sans-serif" font-size="24" lengthAdjust="spacingAndGlyphs" textLength="236" x="445" y="658.3086">StepBuilderFactory</text><line style="stroke: #225C4D; stroke-width: 3.0;" x1="389" x2="685" y1="682" y2="682"/><line style="stroke: #225C4D; stroke-width: 3.0;" x1="389" x2="685" y1="698" y2="698"/><!--MD5=[01ec445a9beb2b4d43502b609268987e]
class JobBuilderFactory--><rect fill="#DDEEE8" filter="url(#f1fp1uq3k3er52)" height="96" id="JobBuilderFactory" style="stroke: #225C4D; stroke-width: 3.0;" width="280" x="1069" y="618"/><ellipse cx="1099" cy="650" fill="#ADD1B2" rx="22" ry="22" style="stroke: #225C4D; stroke-width: 2.0;"/><path d="M1104.9375,661.2813 Q1103.7813,661.875 1102.5,662.1563 Q1101.2188,662.4688 1099.8125,662.4688 Q1094.8125,662.4688 1092.1563,659.1875 Q1089.5313,655.875 1089.5313,649.625 Q1089.5313,643.375 1092.1563,640.0625 Q1094.8125,636.75 1099.8125,636.75 Q1101.2188,636.75 1102.5,637.0625 Q1103.8125,637.375 1104.9375,637.9688 L1104.9375,643.4063 Q1103.6875,642.25 1102.5,641.7188 Q1101.3125,641.1563 1100.0625,641.1563 Q1097.375,641.1563 1096,643.3125 Q1094.625,645.4375 1094.625,649.625 Q1094.625,653.8125 1096,655.9688 Q1097.375,658.0938 1100.0625,658.0938 Q1101.3125,658.0938 1102.5,657.5625 Q1103.6875,657 1104.9375,655.8438 L1104.9375,661.2813 Z "/><text fill="#000000" font-family="sans-serif" font-size="24" lengthAdjust="spacingAndGlyphs" textLength="216" x="1127" y="658.3086">JobBuilderFactory</text><line style="stroke: #225C4D; stroke-width: 3.0;" x1="1071" x2="1347" y1="682" y2="682"/><line style="stroke: #225C4D; stroke-width: 3.0;" x1="1071" x2="1347" y1="698" y2="698"/><!--MD5=[e6adf30ef65042d954f51f4ba562e286]
reverse link BatchConfigurer to DefaultBatchConfigurer--><path d="M703.06,115 C755.98,115 808.9,115 861.82,115 " fill="none" id="BatchConfigurer&lt;-DefaultBatchConfigurer" style="stroke: #225C4D; stroke-width: 2.0; stroke-dasharray: 7.0,7.0;"/><polygon fill="none" points="702.58,129,662.58,115,702.58,101,702.58,129" style="stroke: #225C4D; stroke-width: 2.0;"/><!--MD5=[ff8938cd6c816cc501a3d9e46bc1874e]
link DefaultBatchConfigurer to DataSource--><path d="M1348.58,115 C1348.58,115 1564.74,115 1648.56,115 " fill="none" id="DefaultBatchConfigurer-DataSource" style="stroke: #225C4D; stroke-width: 2.0;"/><polygon fill="#225C4D" points="1674.72,115,1656.72,107,1664.72,115,1656.72,123,1674.72,115" style="stroke: #225C4D; stroke-width: 2.0;"/><line style="stroke: #225C4D; stroke-width: 2.0;" x1="1664.72" x2="1648.72" y1="115" y2="115"/><polygon fill="#FFFFFF" points="1324.58,115,1336.58,123,1348.58,115,1336.58,107,1324.58,115" style="stroke: #225C4D; stroke-width: 2.0;"/><text fill="#000000" font-family="sans-serif" font-size="26" lengthAdjust="spacingAndGlyphs" textLength="148" x="1425.5" y="101.1338">dataSource</text><!--MD5=[90a527e8519d64deb3bcd727e682facb]
link DefaultBatchConfigurer to PlatformTransactionManager--><path d="M839.0519,198.7062 C839.0519,198.7062 702.34,247.66 639,274 C579.9,298.58 515.76,329.56 463.24,356.12 " fill="none" id="DefaultBatchConfigurer-PlatformTransactionManager" style="stroke: #225C4D; stroke-width: 2.0;"/><polygon fill="#225C4D" points="439.98,367.98,459.6492,366.9213,448.8866,363.4333,452.3746,352.6707,439.98,367.98" style="stroke: #225C4D; stroke-width: 2.0;"/><line style="stroke: #225C4D; stroke-width: 2.0;" x1="448.8866" x2="463.14" y1="363.4333" y2="356.17"/><polygon fill="#FFFFFF" points="861.74,190.88,847.7872,187.2304,839.0519,198.7062,853.0047,202.3558,861.74,190.88" style="stroke: #225C4D; stroke-width: 2.0;"/><text fill="#000000" font-family="sans-serif" font-size="26" lengthAdjust="spacingAndGlyphs" textLength="256" x="641" y="300.1338">transactionManager</text><!--MD5=[9ac56330ebc38c4b39a9cea2eb6103e9]
link DefaultBatchConfigurer to JobRepository--><path d="M1012.122,220.4528 C1012.122,220.4528 983.76,257.2 971,274 C953.1,297.56 933.7,323.56 916.56,346.66 " fill="none" id="DefaultBatchConfigurer-JobRepository" style="stroke: #225C4D; stroke-width: 2.0;"/><polygon fill="#225C4D" points="900.94,367.78,918.0721,358.0593,906.8836,359.738,905.2049,348.5495,900.94,367.78" style="stroke: #225C4D; stroke-width: 2.0;"/><line style="stroke: #225C4D; stroke-width: 2.0;" x1="906.8836" x2="916.4" y1="359.738" y2="346.87"/><polygon fill="#FFFFFF" points="1026.82,201.48,1013.1467,206.0671,1012.122,220.4528,1025.7953,215.8658,1026.82,201.48" style="stroke: #225C4D; stroke-width: 2.0;"/><text fill="#000000" font-family="sans-serif" font-size="26" lengthAdjust="spacingAndGlyphs" textLength="172" x="973" y="300.1338">jobRepository</text><!--MD5=[7cb641aaa0a104cd72717f799104bdf3]
link DefaultBatchConfigurer to JobLauncher--><path d="M1161.2097,221.4101 C1161.2097,221.4101 1218.64,309.34 1242.28,345.54 " fill="none" id="DefaultBatchConfigurer-JobLauncher" style="stroke: #225C4D; stroke-width: 2.0;"/><polygon fill="#225C4D" points="1256.52,367.34,1253.3873,347.893,1251.057,358.9641,1239.9859,356.6338,1256.52,367.34" style="stroke: #225C4D; stroke-width: 2.0;"/><line style="stroke: #225C4D; stroke-width: 2.0;" x1="1251.057" x2="1242.3" y1="358.9641" y2="345.57"/><polygon fill="#FFFFFF" points="1148.08,201.32,1147.9482,215.7416,1161.2097,221.4101,1161.3415,206.9885,1148.08,201.32" style="stroke: #225C4D; stroke-width: 2.0;"/><text fill="#000000" font-family="sans-serif" font-size="26" lengthAdjust="spacingAndGlyphs" textLength="156" x="1217" y="300.1338">jobLauncher</text><!--MD5=[d942bee6f694d5e54ed911d4035bd061]
link DefaultBatchConfigurer to JobExplorer--><path d="M1296.1833,211.6477 C1296.1833,211.6477 1384.22,253.8 1425,274 C1477.86,300.2 1536,330.18 1584.76,355.68 " fill="none" id="DefaultBatchConfigurer-JobExplorer" style="stroke: #225C4D; stroke-width: 2.0;"/><polygon fill="#225C4D" points="1607.86,367.78,1595.6393,352.3316,1599.0053,363.133,1588.204,366.499,1607.86,367.78" style="stroke: #225C4D; stroke-width: 2.0;"/><line style="stroke: #225C4D; stroke-width: 2.0;" x1="1599.0053" x2="1584.83" y1="363.133" y2="355.72"/><polygon fill="#FFFFFF" points="1274.5,201.36,1281.9124,213.7316,1296.1833,211.6477,1288.7709,199.2761,1274.5,201.36" style="stroke: #225C4D; stroke-width: 2.0;"/><text fill="#000000" font-family="sans-serif" font-size="26" lengthAdjust="spacingAndGlyphs" textLength="142" x="1493" y="300.1338">jobExplorer</text><!--MD5=[55034aeb3c4cb8846b681d19dd7d14a7]
reverse link JobRepository to StepBuilderFactory--><path d="M796.44,470.6 C737.72,514.36 654.94,576.08 598.8,617.94 " fill="none" id="JobRepository&lt;-StepBuilderFactory" style="stroke: #225C4D; stroke-width: 2.0;"/><polygon fill="#225C4D" points="804.92,464.28,785.7026,468.6032,796.8961,470.248,795.2513,481.4415,804.92,464.28" style="stroke: #225C4D; stroke-width: 2.0;"/><text fill="#000000" font-family="sans-serif" font-size="26" lengthAdjust="spacingAndGlyphs" textLength="172" x="725" y="550.1338">jobRepository</text><!--MD5=[3c8cd7077f0ceb6b067a165ed7b26774]
reverse link PlatformTransactionManager to StepBuilderFactory--><path d="M317.22,473.2 C304.48,500.28 296.84,532.48 313,558 C330.5,585.62 357.34,606.2 386.44,621.46 " fill="none" id="PlatformTransactionManager&lt;-StepBuilderFactory" style="stroke: #225C4D; stroke-width: 2.0;"/><polygon fill="#225C4D" points="321.72,464.22,306.4988,476.7226,317.2364,473.1586,320.8004,483.8962,321.72,464.22" style="stroke: #225C4D; stroke-width: 2.0;"/><text fill="#000000" font-family="sans-serif" font-size="26" lengthAdjust="spacingAndGlyphs" textLength="256" x="315" y="550.1338">transactionManager</text><!--MD5=[fbb12812a048cbdd34506490b337cbca]
reverse link JobRepository to JobBuilderFactory--><path d="M940.12,470.6 C1000.98,514.36 1086.78,576.08 1144.96,617.94 " fill="none" id="JobRepository&lt;-JobBuilderFactory" style="stroke: #225C4D; stroke-width: 2.0;"/><polygon fill="#225C4D" points="931.32,464.28,941.3004,481.2621,939.4515,470.1005,950.6132,468.2516,931.32,464.28" style="stroke: #225C4D; stroke-width: 2.0;"/><text fill="#000000" font-family="sans-serif" font-size="26" lengthAdjust="spacingAndGlyphs" textLength="172" x="1061" y="550.1338">jobRepository</text><!--MD5=[6b80bcb00df914e73cba7119ed72937d]
@startuml
skinparam class {
 BackgroundColor #DDEEE8
 BorderColor #225C4D
 ArrowColor #225C4D
 }
scale 2
skinparam nodesep 100

interface BatchConfigurer {
    getJobLauncher(): JobLauncher
    getJobRepository(): JobRepository
    getJobExplorer(): JobExplorer
    getTransactionManager(): PlatformTransactionManager
}
interface DataSource
interface PlatformTransactionManager
interface JobRepository
interface JobLauncher
interface JobExplorer

class DefaultBatchConfigurer {
    #createJobRepository(): JobRepository
    #createJobLauncher(): JobLauncher
    #createJobExplorer(): JobExplorer
}

BatchConfigurer <|. DefaultBatchConfigurer

DefaultBatchConfigurer o-> DataSource: dataSource
DefaultBatchConfigurer o- -> PlatformTransactionManager: transactionManager
DefaultBatchConfigurer o- -> JobRepository: jobRepository
DefaultBatchConfigurer o- -> JobLauncher: jobLauncher
DefaultBatchConfigurer o- -> JobExplorer: jobExplorer

JobRepository <- - StepBuilderFactory: jobRepository
PlatformTransactionManager <- - StepBuilderFactory: transactionManager

JobRepository <- - JobBuilderFactory: jobRepository
@enduml

PlantUML version 1.2019.12(Sun Nov 03 11:24:54 CET 2019)
(APACHE source distribution)
Java Runtime: OpenJDK Runtime Environment
JVM: OpenJDK 64-Bit Server VM
Java Version: 17.0.6+10-Debian-1deb11u1
Operating System: Linux
Default Encoding: UTF-8
Language: en
Country: DK
--></g></svg>