<?xml version="1.0" encoding="UTF-8" standalone="no"?><svg xmlns="http://www.w3.org/2000/svg" xmlns:xlink="http://www.w3.org/1999/xlink" contentScriptType="application/ecmascript" contentStyleType="text/css" height="566px" preserveAspectRatio="none" style="width:890px;height:566px;" version="1.1" viewBox="0 0 890 566" width="890px" zoomAndPan="magnify"><defs><filter height="300%" id="fa7b027ltom75" width="300%" x="-1" y="-1"><feGaussianBlur result="blurOut" stdDeviation="4.0"/><feColorMatrix in="blurOut" result="blurOut2" type="matrix" values="0 0 0 0 0 0 0 0 0 0 0 0 0 0 0 0 0 0 .4 0"/><feOffset dx="8.0" dy="8.0" in="blurOut2" result="blurOut3"/><feBlend in="SourceGraphic" in2="blurOut3" mode="normal"/></filter></defs><g><!--MD5=[f90aa14bed8e8e84a5ee92e7126a3c84]
class ItemReader--><rect fill="#DDEEE8" filter="url(#fa7b027ltom75)" height="96" id="ItemReader" style="stroke: #225C4D; stroke-width: 3.0;" width="202" x="274" y="16"/><ellipse cx="304" cy="48" fill="#B4A7E5" rx="22" ry="22" style="stroke: #225C4D; stroke-width: 2.0;"/><path d="M295.8438,39.5313 L295.8438,35.2188 L310.625,35.2188 L310.625,39.5313 L305.6875,39.5313 L305.6875,55.6875 L310.625,55.6875 L310.625,60 L295.8438,60 L295.8438,55.6875 L300.7813,55.6875 L300.7813,39.5313 L295.8438,39.5313 Z "/><text fill="#000000" font-family="sans-serif" font-size="24" font-style="italic" lengthAdjust="spacingAndGlyphs" textLength="138" x="332" y="56.3086">ItemReader</text><line style="stroke: #225C4D; stroke-width: 3.0;" x1="276" x2="474" y1="80" y2="80"/><line style="stroke: #225C4D; stroke-width: 3.0;" x1="276" x2="474" y1="96" y2="96"/><!--MD5=[2fbb5e2e3f57d0c06a725c10dc462a50]
class ItemWriter--><rect fill="#DDEEE8" filter="url(#fa7b027ltom75)" height="96" id="ItemWriter" style="stroke: #225C4D; stroke-width: 3.0;" width="192" x="279" y="448"/><ellipse cx="309" cy="480" fill="#B4A7E5" rx="22" ry="22" style="stroke: #225C4D; stroke-width: 2.0;"/><path d="M300.8438,471.5313 L300.8438,467.2188 L315.625,467.2188 L315.625,471.5313 L310.6875,471.5313 L310.6875,487.6875 L315.625,487.6875 L315.625,492 L300.8438,492 L300.8438,487.6875 L305.7813,487.6875 L305.7813,471.5313 L300.8438,471.5313 Z "/><text fill="#000000" font-family="sans-serif" font-size="24" font-style="italic" lengthAdjust="spacingAndGlyphs" textLength="128" x="337" y="488.3086">ItemWriter</text><line style="stroke: #225C4D; stroke-width: 3.0;" x1="281" x2="469" y1="512" y2="512"/><line style="stroke: #225C4D; stroke-width: 3.0;" x1="281" x2="469" y1="528" y2="528"/><!--MD5=[e873b9cf33adbd0fdfdcf803530782e0]
class ItemProcessor--><rect fill="#DDEEE8" filter="url(#fa7b027ltom75)" height="96" id="ItemProcessor" style="stroke: #225C4D; stroke-width: 3.0;" width="232" x="637" y="232"/><ellipse cx="667" cy="264" fill="#B4A7E5" rx="22" ry="22" style="stroke: #225C4D; stroke-width: 2.0;"/><path d="M658.8438,255.5313 L658.8438,251.2188 L673.625,251.2188 L673.625,255.5313 L668.6875,255.5313 L668.6875,271.6875 L673.625,271.6875 L673.625,276 L658.8438,276 L658.8438,271.6875 L663.7813,271.6875 L663.7813,255.5313 L658.8438,255.5313 Z "/><text fill="#000000" font-family="sans-serif" font-size="24" font-style="italic" lengthAdjust="spacingAndGlyphs" textLength="168" x="695" y="272.3086">ItemProcessor</text><line style="stroke: #225C4D; stroke-width: 3.0;" x1="639" x2="867" y1="296" y2="296"/><line style="stroke: #225C4D; stroke-width: 3.0;" x1="639" x2="867" y1="312" y2="312"/><!--MD5=[b8e0354e0f3f5cbf52553869b78c0afa]
class Job--><rect fill="#DDEEE8" filter="url(#fa7b027ltom75)" height="96" id="Job" style="stroke: #225C4D; stroke-width: 3.0;" width="102" x="12" y="232"/><ellipse cx="42" cy="264" fill="#ADD1B2" rx="22" ry="22" style="stroke: #225C4D; stroke-width: 2.0;"/><path d="M47.9375,275.2813 Q46.7813,275.875 45.5,276.1563 Q44.2188,276.4688 42.8125,276.4688 Q37.8125,276.4688 35.1563,273.1875 Q32.5313,269.875 32.5313,263.625 Q32.5313,257.375 35.1563,254.0625 Q37.8125,250.75 42.8125,250.75 Q44.2188,250.75 45.5,251.0625 Q46.8125,251.375 47.9375,251.9688 L47.9375,257.4063 Q46.6875,256.25 45.5,255.7188 Q44.3125,255.1563 43.0625,255.1563 Q40.375,255.1563 39,257.3125 Q37.625,259.4375 37.625,263.625 Q37.625,267.8125 39,269.9688 Q40.375,272.0938 43.0625,272.0938 Q44.3125,272.0938 45.5,271.5625 Q46.6875,271 47.9375,269.8438 L47.9375,275.2813 Z "/><text fill="#000000" font-family="sans-serif" font-size="24" lengthAdjust="spacingAndGlyphs" textLength="38" x="70" y="272.3086">Job</text><line style="stroke: #225C4D; stroke-width: 3.0;" x1="14" x2="112" y1="296" y2="296"/><line style="stroke: #225C4D; stroke-width: 3.0;" x1="14" x2="112" y1="312" y2="312"/><!--MD5=[5a2ba6e4c7f78036fecb159f353da9e9]
class Step--><rect fill="#DDEEE8" filter="url(#fa7b027ltom75)" height="96" id="Step" style="stroke: #225C4D; stroke-width: 3.0;" width="122" x="314" y="232"/><ellipse cx="344" cy="264" fill="#ADD1B2" rx="22" ry="22" style="stroke: #225C4D; stroke-width: 2.0;"/><path d="M349.9375,275.2813 Q348.7813,275.875 347.5,276.1563 Q346.2188,276.4688 344.8125,276.4688 Q339.8125,276.4688 337.1563,273.1875 Q334.5313,269.875 334.5313,263.625 Q334.5313,257.375 337.1563,254.0625 Q339.8125,250.75 344.8125,250.75 Q346.2188,250.75 347.5,251.0625 Q348.8125,251.375 349.9375,251.9688 L349.9375,257.4063 Q348.6875,256.25 347.5,255.7188 Q346.3125,255.1563 345.0625,255.1563 Q342.375,255.1563 341,257.3125 Q339.625,259.4375 339.625,263.625 Q339.625,267.8125 341,269.9688 Q342.375,272.0938 345.0625,272.0938 Q346.3125,272.0938 347.5,271.5625 Q348.6875,271 349.9375,269.8438 L349.9375,275.2813 Z "/><text fill="#000000" font-family="sans-serif" font-size="24" lengthAdjust="spacingAndGlyphs" textLength="58" x="372" y="272.3086">Step</text><line style="stroke: #225C4D; stroke-width: 3.0;" x1="316" x2="434" y1="296" y2="296"/><line style="stroke: #225C4D; stroke-width: 3.0;" x1="316" x2="434" y1="312" y2="312"/><!--MD5=[3d04ee141151ff04cbffcf04055f22a9]
link Job to Step--><path d="M114.18,280 C177.36,280 240.56,280 303.74,280 " fill="none" id="Job-&gt;Step" style="stroke: #225C4D; stroke-width: 2.0;"/><polygon fill="#225C4D" points="313.88,280,295.88,272,303.88,280,295.88,288,313.88,280" style="stroke: #225C4D; stroke-width: 2.0;"/><text fill="#000000" font-family="sans-serif" font-size="26" lengthAdjust="spacingAndGlyphs" textLength="48" x="250.186" y="271.3927">1..n</text><!--MD5=[b81f8bc9b904fb33e6986b02e63fd506]
reverse link ItemReader to Step--><path d="M375,122.26 C375,156.3 375,199.2 375,231.36 " fill="none" id="ItemReader&lt;-Step" style="stroke: #225C4D; stroke-width: 2.0;"/><polygon fill="#225C4D" points="375,112,367,130,375,122,383,130,375,112" style="stroke: #225C4D; stroke-width: 2.0;"/><text fill="#000000" font-family="sans-serif" font-size="26" lengthAdjust="spacingAndGlyphs" textLength="16" x="356.95" y="152.3116">1</text><!--MD5=[1fb4a4fc330b019cccc23c6e76fe9808]
link Step to ItemProcessor--><path d="M436.28,280 C499.7,280 563.1,280 626.52,280 " fill="none" id="Step-&gt;ItemProcessor" style="stroke: #225C4D; stroke-width: 2.0;"/><polygon fill="#225C4D" points="636.7,280,618.7,272,626.7,280,618.7,288,636.7,280" style="stroke: #225C4D; stroke-width: 2.0;"/><text fill="#000000" font-family="sans-serif" font-size="26" lengthAdjust="spacingAndGlyphs" textLength="48" x="573.3547" y="272.5077">0..1</text><!--MD5=[8d4267085d4bbdf7e78a901ac25ded90]
link Step to ItemWriter--><path d="M375,328 C375,360 375,402.9 375,437.06 " fill="none" id="Step-&gt;ItemWriter" style="stroke: #225C4D; stroke-width: 2.0;"/><polygon fill="#225C4D" points="375,447.36,383,429.36,375,437.36,367,429.36,375,447.36" style="stroke: #225C4D; stroke-width: 2.0;"/><text fill="#000000" font-family="sans-serif" font-size="26" lengthAdjust="spacingAndGlyphs" textLength="16" x="357.05" y="426.0139">1</text><!--MD5=[b4008b42827bbb7fdf4d9c67bab714ca]
@startuml
skinparam class {
 BackgroundColor #DDEEE8
 BorderColor #225C4D
 ArrowColor #225C4D
 }
scale 2
skinparam nodesep 100

interface ItemReader
interface ItemWriter
interface ItemProcessor

Job -> "1..n" Step
ItemReader "1" <- - Step
Step -> "0..1" ItemProcessor
Step - -> "1" ItemWriter
@enduml

PlantUML version 1.2019.12(Sun Nov 03 11:24:54 CET 2019)
(APACHE source distribution)
Java Runtime: OpenJDK Runtime Environment
JVM: OpenJDK 64-Bit Server VM
Java Version: 17.0.6+10-Debian-1deb11u1
Operating System: Linux
Default Encoding: UTF-8
Language: en
Country: DK
--></g></svg>