<?xml version="1.0" encoding="UTF-8" standalone="no"?><svg xmlns="http://www.w3.org/2000/svg" xmlns:xlink="http://www.w3.org/1999/xlink" contentScriptType="application/ecmascript" contentStyleType="text/css" height="566px" preserveAspectRatio="none" style="width:1972px;height:566px;" version="1.1" viewBox="0 0 1972 566" width="1972px" zoomAndPan="magnify"><defs><filter height="300%" id="f7v4zpi6fnrdc" width="300%" x="-1" y="-1"><feGaussianBlur result="blurOut" stdDeviation="4.0"/><feColorMatrix in="blurOut" result="blurOut2" type="matrix" values="0 0 0 0 0 0 0 0 0 0 0 0 0 0 0 0 0 0 .4 0"/><feOffset dx="8.0" dy="8.0" in="blurOut2" result="blurOut3"/><feBlend in="SourceGraphic" in2="blurOut3" mode="normal"/></filter></defs><g><!--MD5=[7fa27d7515fd28ae64a1c743985a4c75]
class Tasklet--><rect fill="#DDEEE8" filter="url(#f7v4zpi6fnrdc)" height="96" id="Tasklet" style="stroke: #225C4D; stroke-width: 3.0;" width="148" x="915" y="16"/><ellipse cx="945" cy="48" fill="#B4A7E5" rx="22" ry="22" style="stroke: #225C4D; stroke-width: 2.0;"/><path d="M936.8438,39.5313 L936.8438,35.2188 L951.625,35.2188 L951.625,39.5313 L946.6875,39.5313 L946.6875,55.6875 L951.625,55.6875 L951.625,60 L936.8438,60 L936.8438,55.6875 L941.7813,55.6875 L941.7813,39.5313 L936.8438,39.5313 Z "/><text fill="#000000" font-family="sans-serif" font-size="24" font-style="italic" lengthAdjust="spacingAndGlyphs" textLength="84" x="973" y="56.3086">Tasklet</text><line style="stroke: #225C4D; stroke-width: 3.0;" x1="917" x2="1061" y1="80" y2="80"/><line style="stroke: #225C4D; stroke-width: 3.0;" x1="917" x2="1061" y1="96" y2="96"/><!--MD5=[607d34f76403a7112c19a5b38e796e59]
class RepeatOperations--><rect fill="#DDEEE8" filter="url(#f7v4zpi6fnrdc)" height="96" id="RepeatOperations" style="stroke: #225C4D; stroke-width: 3.0;" width="274" x="12" y="232"/><ellipse cx="42" cy="264" fill="#B4A7E5" rx="22" ry="22" style="stroke: #225C4D; stroke-width: 2.0;"/><path d="M33.8438,255.5313 L33.8438,251.2188 L48.625,251.2188 L48.625,255.5313 L43.6875,255.5313 L43.6875,271.6875 L48.625,271.6875 L48.625,276 L33.8438,276 L33.8438,271.6875 L38.7813,271.6875 L38.7813,255.5313 L33.8438,255.5313 Z "/><text fill="#000000" font-family="sans-serif" font-size="24" font-style="italic" lengthAdjust="spacingAndGlyphs" textLength="210" x="70" y="272.3086">RepeatOperations</text><line style="stroke: #225C4D; stroke-width: 3.0;" x1="14" x2="284" y1="296" y2="296"/><line style="stroke: #225C4D; stroke-width: 3.0;" x1="14" x2="284" y1="312" y2="312"/><path d="M68,456 L68,536.5313 A0,0 0 0 0 68,536.5313 L230,536.5313 A0,0 0 0 0 230,536.5313 L230,476 L210,456 L157,456 L149,328 L141,456 L68,456 A0,0 0 0 0 68,456 " fill="#FBFB77" filter="url(#f7v4zpi6fnrdc)" style="stroke: #A80036; stroke-width: 2.0;"/><path d="M210,456 L210,476 L230,476 L210,456 " fill="#FBFB77" style="stroke: #A80036; stroke-width: 2.0;"/><text fill="#000000" font-family="sans-serif" font-size="26" lengthAdjust="spacingAndGlyphs" textLength="90" x="80" y="490.1338">Repeat</text><text fill="#000000" font-family="sans-serif" font-size="26" lengthAdjust="spacingAndGlyphs" textLength="120" x="80" y="520.3994">Template</text><!--MD5=[367815e00a99475f8ce66a36b1be030a]
class ChunkProvider--><rect fill="#DDEEE8" filter="url(#f7v4zpi6fnrdc)" height="96" id="ChunkProvider" style="stroke: #225C4D; stroke-width: 3.0;" width="250" x="594" y="16"/><ellipse cx="624" cy="48" fill="#B4A7E5" rx="22" ry="22" style="stroke: #225C4D; stroke-width: 2.0;"/><path d="M615.8438,39.5313 L615.8438,35.2188 L630.625,35.2188 L630.625,39.5313 L625.6875,39.5313 L625.6875,55.6875 L630.625,55.6875 L630.625,60 L615.8438,60 L615.8438,55.6875 L620.7813,55.6875 L620.7813,39.5313 L615.8438,39.5313 Z "/><text fill="#000000" font-family="sans-serif" font-size="24" font-style="italic" lengthAdjust="spacingAndGlyphs" textLength="170" x="652" y="56.3086">ChunkProvider</text><rect fill="#FFFFFF" height="31.9375" style="stroke: #000000; stroke-width: 2.0; stroke-dasharray: 2.0,2.0;" width="12" x="838" y="10"/><text fill="#000000" font-family="sans-serif" font-size="24" font-style="italic" lengthAdjust="spacingAndGlyphs" textLength="8" x="840" y="34.2773">I</text><line style="stroke: #225C4D; stroke-width: 3.0;" x1="596" x2="842" y1="80" y2="80"/><line style="stroke: #225C4D; stroke-width: 3.0;" x1="596" x2="842" y1="96" y2="96"/><!--MD5=[f763bb912e59dca0f8fbce405cf9c903]
class ChunkProcessor--><rect fill="#DDEEE8" filter="url(#f7v4zpi6fnrdc)" height="96" id="ChunkProcessor" style="stroke: #225C4D; stroke-width: 3.0;" width="268" x="1217" y="16"/><ellipse cx="1247" cy="48" fill="#B4A7E5" rx="22" ry="22" style="stroke: #225C4D; stroke-width: 2.0;"/><path d="M1238.8438,39.5313 L1238.8438,35.2188 L1253.625,35.2188 L1253.625,39.5313 L1248.6875,39.5313 L1248.6875,55.6875 L1253.625,55.6875 L1253.625,60 L1238.8438,60 L1238.8438,55.6875 L1243.7813,55.6875 L1243.7813,39.5313 L1238.8438,39.5313 Z "/><text fill="#000000" font-family="sans-serif" font-size="24" font-style="italic" lengthAdjust="spacingAndGlyphs" textLength="188" x="1275" y="56.3086">ChunkProcessor</text><rect fill="#FFFFFF" height="31.9375" style="stroke: #000000; stroke-width: 2.0; stroke-dasharray: 2.0,2.0;" width="12" x="1479" y="10"/><text fill="#000000" font-family="sans-serif" font-size="24" font-style="italic" lengthAdjust="spacingAndGlyphs" textLength="8" x="1481" y="34.2773">I</text><line style="stroke: #225C4D; stroke-width: 3.0;" x1="1219" x2="1483" y1="80" y2="80"/><line style="stroke: #225C4D; stroke-width: 3.0;" x1="1219" x2="1483" y1="96" y2="96"/><!--MD5=[7a3517b8671877737ac75afea9150f0b]
class ChunkOrientedTasklet--><rect fill="#DDEEE8" filter="url(#f7v4zpi6fnrdc)" height="96" id="ChunkOrientedTasklet" style="stroke: #225C4D; stroke-width: 3.0;" width="356" x="769" y="232"/><ellipse cx="799" cy="264" fill="#ADD1B2" rx="22" ry="22" style="stroke: #225C4D; stroke-width: 2.0;"/><path d="M804.9375,275.2813 Q803.7813,275.875 802.5,276.1563 Q801.2188,276.4688 799.8125,276.4688 Q794.8125,276.4688 792.1563,273.1875 Q789.5313,269.875 789.5313,263.625 Q789.5313,257.375 792.1563,254.0625 Q794.8125,250.75 799.8125,250.75 Q801.2188,250.75 802.5,251.0625 Q803.8125,251.375 804.9375,251.9688 L804.9375,257.4063 Q803.6875,256.25 802.5,255.7188 Q801.3125,255.1563 800.0625,255.1563 Q797.375,255.1563 796,257.3125 Q794.625,259.4375 794.625,263.625 Q794.625,267.8125 796,269.9688 Q797.375,272.0938 800.0625,272.0938 Q801.3125,272.0938 802.5,271.5625 Q803.6875,271 804.9375,269.8438 L804.9375,275.2813 Z "/><text fill="#000000" font-family="sans-serif" font-size="24" lengthAdjust="spacingAndGlyphs" textLength="276" x="827" y="272.3086">ChunkOrientedTasklet</text><rect fill="#FFFFFF" height="31.9375" style="stroke: #000000; stroke-width: 2.0; stroke-dasharray: 2.0,2.0;" width="12" x="1119" y="226"/><text fill="#000000" font-family="sans-serif" font-size="24" font-style="italic" lengthAdjust="spacingAndGlyphs" textLength="8" x="1121" y="250.2773">I</text><line style="stroke: #225C4D; stroke-width: 3.0;" x1="771" x2="1123" y1="296" y2="296"/><line style="stroke: #225C4D; stroke-width: 3.0;" x1="771" x2="1123" y1="312" y2="312"/><!--MD5=[6895f5fada2143601e9e39ea24a36399]
class SimpleChunkProvider--><rect fill="#DDEEE8" filter="url(#f7v4zpi6fnrdc)" height="96" id="SimpleChunkProvider" style="stroke: #225C4D; stroke-width: 3.0;" width="342" x="356" y="232"/><ellipse cx="386" cy="264" fill="#ADD1B2" rx="22" ry="22" style="stroke: #225C4D; stroke-width: 2.0;"/><path d="M391.9375,275.2813 Q390.7813,275.875 389.5,276.1563 Q388.2188,276.4688 386.8125,276.4688 Q381.8125,276.4688 379.1563,273.1875 Q376.5313,269.875 376.5313,263.625 Q376.5313,257.375 379.1563,254.0625 Q381.8125,250.75 386.8125,250.75 Q388.2188,250.75 389.5,251.0625 Q390.8125,251.375 391.9375,251.9688 L391.9375,257.4063 Q390.6875,256.25 389.5,255.7188 Q388.3125,255.1563 387.0625,255.1563 Q384.375,255.1563 383,257.3125 Q381.625,259.4375 381.625,263.625 Q381.625,267.8125 383,269.9688 Q384.375,272.0938 387.0625,272.0938 Q388.3125,272.0938 389.5,271.5625 Q390.6875,271 391.9375,269.8438 L391.9375,275.2813 Z "/><text fill="#000000" font-family="sans-serif" font-size="24" lengthAdjust="spacingAndGlyphs" textLength="262" x="414" y="272.3086">SimpleChunkProvider</text><rect fill="#FFFFFF" height="31.9375" style="stroke: #000000; stroke-width: 2.0; stroke-dasharray: 2.0,2.0;" width="12" x="692" y="226"/><text fill="#000000" font-family="sans-serif" font-size="24" font-style="italic" lengthAdjust="spacingAndGlyphs" textLength="8" x="694" y="250.2773">I</text><line style="stroke: #225C4D; stroke-width: 3.0;" x1="358" x2="696" y1="296" y2="296"/><line style="stroke: #225C4D; stroke-width: 3.0;" x1="358" x2="696" y1="312" y2="312"/><!--MD5=[63dbb8b40f8426ba93ef9d096552c109]
class FaultTolerantChunkProvider--><rect fill="#DDEEE8" filter="url(#f7v4zpi6fnrdc)" height="96" id="FaultTolerantChunkProvider" style="stroke: #225C4D; stroke-width: 3.0;" width="426" x="318" y="448"/><ellipse cx="348" cy="480" fill="#ADD1B2" rx="22" ry="22" style="stroke: #225C4D; stroke-width: 2.0;"/><path d="M353.9375,491.2813 Q352.7813,491.875 351.5,492.1563 Q350.2188,492.4688 348.8125,492.4688 Q343.8125,492.4688 341.1563,489.1875 Q338.5313,485.875 338.5313,479.625 Q338.5313,473.375 341.1563,470.0625 Q343.8125,466.75 348.8125,466.75 Q350.2188,466.75 351.5,467.0625 Q352.8125,467.375 353.9375,467.9688 L353.9375,473.4063 Q352.6875,472.25 351.5,471.7188 Q350.3125,471.1563 349.0625,471.1563 Q346.375,471.1563 345,473.3125 Q343.625,475.4375 343.625,479.625 Q343.625,483.8125 345,485.9688 Q346.375,488.0938 349.0625,488.0938 Q350.3125,488.0938 351.5,487.5625 Q352.6875,487 353.9375,485.8438 L353.9375,491.2813 Z "/><text fill="#000000" font-family="sans-serif" font-size="24" lengthAdjust="spacingAndGlyphs" textLength="346" x="376" y="488.3086">FaultTolerantChunkProvider</text><rect fill="#FFFFFF" height="31.9375" style="stroke: #000000; stroke-width: 2.0; stroke-dasharray: 2.0,2.0;" width="12" x="738" y="442"/><text fill="#000000" font-family="sans-serif" font-size="24" font-style="italic" lengthAdjust="spacingAndGlyphs" textLength="8" x="740" y="466.2773">I</text><line style="stroke: #225C4D; stroke-width: 3.0;" x1="320" x2="742" y1="512" y2="512"/><line style="stroke: #225C4D; stroke-width: 3.0;" x1="320" x2="742" y1="528" y2="528"/><!--MD5=[d4d4c9afdb3befad6e3075decfbba692]
class SimpleChunkProcessor--><rect fill="#DDEEE8" filter="url(#f7v4zpi6fnrdc)" height="96" id="SimpleChunkProcessor" style="stroke: #225C4D; stroke-width: 3.0;" width="398" x="1196" y="232"/><ellipse cx="1226" cy="264" fill="#ADD1B2" rx="22" ry="22" style="stroke: #225C4D; stroke-width: 2.0;"/><path d="M1231.9375,275.2813 Q1230.7813,275.875 1229.5,276.1563 Q1228.2188,276.4688 1226.8125,276.4688 Q1221.8125,276.4688 1219.1563,273.1875 Q1216.5313,269.875 1216.5313,263.625 Q1216.5313,257.375 1219.1563,254.0625 Q1221.8125,250.75 1226.8125,250.75 Q1228.2188,250.75 1229.5,251.0625 Q1230.8125,251.375 1231.9375,251.9688 L1231.9375,257.4063 Q1230.6875,256.25 1229.5,255.7188 Q1228.3125,255.1563 1227.0625,255.1563 Q1224.375,255.1563 1223,257.3125 Q1221.625,259.4375 1221.625,263.625 Q1221.625,267.8125 1223,269.9688 Q1224.375,272.0938 1227.0625,272.0938 Q1228.3125,272.0938 1229.5,271.5625 Q1230.6875,271 1231.9375,269.8438 L1231.9375,275.2813 Z "/><text fill="#000000" font-family="sans-serif" font-size="24" lengthAdjust="spacingAndGlyphs" textLength="286" x="1254" y="272.3086">SimpleChunkProcessor</text><rect fill="#FFFFFF" height="31.9375" style="stroke: #000000; stroke-width: 2.0; stroke-dasharray: 2.0,2.0;" width="44" x="1556" y="226"/><text fill="#000000" font-family="sans-serif" font-size="24" font-style="italic" lengthAdjust="spacingAndGlyphs" textLength="40" x="1558" y="250.2773">I, O</text><line style="stroke: #225C4D; stroke-width: 3.0;" x1="1198" x2="1592" y1="296" y2="296"/><line style="stroke: #225C4D; stroke-width: 3.0;" x1="1198" x2="1592" y1="312" y2="312"/><!--MD5=[cdf3b17061847a316f4eba3d87d6eb9e]
class FaultTolerantChunkProcessor--><rect fill="#DDEEE8" filter="url(#f7v4zpi6fnrdc)" height="96" id="FaultTolerantChunkProcessor" style="stroke: #225C4D; stroke-width: 3.0;" width="482" x="1128" y="448"/><ellipse cx="1158" cy="480" fill="#ADD1B2" rx="22" ry="22" style="stroke: #225C4D; stroke-width: 2.0;"/><path d="M1163.9375,491.2813 Q1162.7813,491.875 1161.5,492.1563 Q1160.2188,492.4688 1158.8125,492.4688 Q1153.8125,492.4688 1151.1563,489.1875 Q1148.5313,485.875 1148.5313,479.625 Q1148.5313,473.375 1151.1563,470.0625 Q1153.8125,466.75 1158.8125,466.75 Q1160.2188,466.75 1161.5,467.0625 Q1162.8125,467.375 1163.9375,467.9688 L1163.9375,473.4063 Q1162.6875,472.25 1161.5,471.7188 Q1160.3125,471.1563 1159.0625,471.1563 Q1156.375,471.1563 1155,473.3125 Q1153.625,475.4375 1153.625,479.625 Q1153.625,483.8125 1155,485.9688 Q1156.375,488.0938 1159.0625,488.0938 Q1160.3125,488.0938 1161.5,487.5625 Q1162.6875,487 1163.9375,485.8438 L1163.9375,491.2813 Z "/><text fill="#000000" font-family="sans-serif" font-size="24" lengthAdjust="spacingAndGlyphs" textLength="370" x="1186" y="488.3086">FaultTolerantChunkProcessor</text><rect fill="#FFFFFF" height="31.9375" style="stroke: #000000; stroke-width: 2.0; stroke-dasharray: 2.0,2.0;" width="44" x="1572" y="442"/><text fill="#000000" font-family="sans-serif" font-size="24" font-style="italic" lengthAdjust="spacingAndGlyphs" textLength="40" x="1574" y="466.2773">I, O</text><line style="stroke: #225C4D; stroke-width: 3.0;" x1="1130" x2="1608" y1="512" y2="512"/><line style="stroke: #225C4D; stroke-width: 3.0;" x1="1130" x2="1608" y1="528" y2="528"/><!--MD5=[f90aa14bed8e8e84a5ee92e7126a3c84]
class ItemReader--><rect fill="#DDEEE8" filter="url(#f7v4zpi6fnrdc)" height="96" id="ItemReader" style="stroke: #225C4D; stroke-width: 3.0;" width="218" x="306" y="16"/><ellipse cx="336" cy="48" fill="#B4A7E5" rx="22" ry="22" style="stroke: #225C4D; stroke-width: 2.0;"/><path d="M327.8438,39.5313 L327.8438,35.2188 L342.625,35.2188 L342.625,39.5313 L337.6875,39.5313 L337.6875,55.6875 L342.625,55.6875 L342.625,60 L327.8438,60 L327.8438,55.6875 L332.7813,55.6875 L332.7813,39.5313 L327.8438,39.5313 Z "/><text fill="#000000" font-family="sans-serif" font-size="24" font-style="italic" lengthAdjust="spacingAndGlyphs" textLength="138" x="364" y="56.3086">ItemReader</text><rect fill="#FFFFFF" height="31.9375" style="stroke: #000000; stroke-width: 2.0; stroke-dasharray: 2.0,2.0;" width="12" x="518" y="10"/><text fill="#000000" font-family="sans-serif" font-size="24" font-style="italic" lengthAdjust="spacingAndGlyphs" textLength="8" x="520" y="34.2773">I</text><line style="stroke: #225C4D; stroke-width: 3.0;" x1="308" x2="522" y1="80" y2="80"/><line style="stroke: #225C4D; stroke-width: 3.0;" x1="308" x2="522" y1="96" y2="96"/><!--MD5=[e873b9cf33adbd0fdfdcf803530782e0]
class ItemProcessor--><rect fill="#DDEEE8" filter="url(#f7v4zpi6fnrdc)" height="96" id="ItemProcessor" style="stroke: #225C4D; stroke-width: 3.0;" width="280" x="1665" y="232"/><ellipse cx="1695" cy="264" fill="#B4A7E5" rx="22" ry="22" style="stroke: #225C4D; stroke-width: 2.0;"/><path d="M1686.8438,255.5313 L1686.8438,251.2188 L1701.625,251.2188 L1701.625,255.5313 L1696.6875,255.5313 L1696.6875,271.6875 L1701.625,271.6875 L1701.625,276 L1686.8438,276 L1686.8438,271.6875 L1691.7813,271.6875 L1691.7813,255.5313 L1686.8438,255.5313 Z "/><text fill="#000000" font-family="sans-serif" font-size="24" font-style="italic" lengthAdjust="spacingAndGlyphs" textLength="168" x="1723" y="272.3086">ItemProcessor</text><rect fill="#FFFFFF" height="31.9375" style="stroke: #000000; stroke-width: 2.0; stroke-dasharray: 2.0,2.0;" width="44" x="1907" y="226"/><text fill="#000000" font-family="sans-serif" font-size="24" font-style="italic" lengthAdjust="spacingAndGlyphs" textLength="40" x="1909" y="250.2773">I, O</text><line style="stroke: #225C4D; stroke-width: 3.0;" x1="1667" x2="1943" y1="296" y2="296"/><line style="stroke: #225C4D; stroke-width: 3.0;" x1="1667" x2="1943" y1="312" y2="312"/><!--MD5=[2fbb5e2e3f57d0c06a725c10dc462a50]
class ItemWriter--><rect fill="#DDEEE8" filter="url(#f7v4zpi6fnrdc)" height="96" id="ItemWriter" style="stroke: #225C4D; stroke-width: 3.0;" width="216" x="1691" y="448"/><ellipse cx="1721" cy="480" fill="#B4A7E5" rx="22" ry="22" style="stroke: #225C4D; stroke-width: 2.0;"/><path d="M1712.8438,471.5313 L1712.8438,467.2188 L1727.625,467.2188 L1727.625,471.5313 L1722.6875,471.5313 L1722.6875,487.6875 L1727.625,487.6875 L1727.625,492 L1712.8438,492 L1712.8438,487.6875 L1717.7813,487.6875 L1717.7813,471.5313 L1712.8438,471.5313 Z "/><text fill="#000000" font-family="sans-serif" font-size="24" font-style="italic" lengthAdjust="spacingAndGlyphs" textLength="128" x="1749" y="488.3086">ItemWriter</text><rect fill="#FFFFFF" height="31.9375" style="stroke: #000000; stroke-width: 2.0; stroke-dasharray: 2.0,2.0;" width="20" x="1893" y="442"/><text fill="#000000" font-family="sans-serif" font-size="24" font-style="italic" lengthAdjust="spacingAndGlyphs" textLength="16" x="1895" y="466.2773">O</text><line style="stroke: #225C4D; stroke-width: 3.0;" x1="1693" x2="1905" y1="512" y2="512"/><line style="stroke: #225C4D; stroke-width: 3.0;" x1="1693" x2="1905" y1="528" y2="528"/><!--MD5=[69d2560477d88007888700c846ca98b5]
class SkipPolicy--><rect fill="#DDEEE8" filter="url(#f7v4zpi6fnrdc)" height="96" id="SkipPolicy" style="stroke: #225C4D; stroke-width: 3.0;" width="184" x="853" y="448"/><ellipse cx="883" cy="480" fill="#B4A7E5" rx="22" ry="22" style="stroke: #225C4D; stroke-width: 2.0;"/><path d="M874.8438,471.5313 L874.8438,467.2188 L889.625,467.2188 L889.625,471.5313 L884.6875,471.5313 L884.6875,487.6875 L889.625,487.6875 L889.625,492 L874.8438,492 L874.8438,487.6875 L879.7813,487.6875 L879.7813,471.5313 L874.8438,471.5313 Z "/><text fill="#000000" font-family="sans-serif" font-size="24" font-style="italic" lengthAdjust="spacingAndGlyphs" textLength="120" x="911" y="488.3086">SkipPolicy</text><line style="stroke: #225C4D; stroke-width: 3.0;" x1="855" x2="1035" y1="512" y2="512"/><line style="stroke: #225C4D; stroke-width: 3.0;" x1="855" x2="1035" y1="528" y2="528"/><!--MD5=[5683ac50f4d820bc81e5de392badf70e]
link ChunkProvider to ChunkOrientedTasklet--><path d="M788.2,130.34 C816.38,156.54 879.2614,215.0201 879.2614,215.0201 " fill="none" id="ChunkProvider-ChunkOrientedTasklet" style="stroke: #225C4D; stroke-width: 2.0;"/><polygon fill="#FFFFFF" points="896.84,231.36,893.4973,217.3305,879.2614,215.0201,882.6041,229.0496,896.84,231.36" style="stroke: #225C4D; stroke-width: 2.0;"/><polygon fill="#225C4D" points="768.48,112,776.2183,130.114,775.8048,118.8079,787.1109,118.3944,768.48,112" style="stroke: #225C4D; stroke-width: 2.0;"/><line style="stroke: #225C4D; stroke-width: 2.0;" x1="775.8048" x2="787.51" y1="118.8079" y2="129.7"/><text fill="#000000" font-family="sans-serif" font-size="26" lengthAdjust="spacingAndGlyphs" textLength="16" x="763.1093" y="152.3116">1</text><!--MD5=[691bbcdf7da3862ab7c958b93da4692f]
reverse link Tasklet to ChunkOrientedTasklet--><path d="M971.96,152.04 C966.58,179.16 960.86,208.08 956.24,231.36 " fill="none" id="Tasklet&lt;-ChunkOrientedTasklet" style="stroke: #225C4D; stroke-width: 2.0; stroke-dasharray: 7.0,7.0;"/><polygon fill="none" points="958.38,148.52,979.88,112,985.84,153.96,958.38,148.52" style="stroke: #225C4D; stroke-width: 2.0;"/><!--MD5=[bd73ea1dd61dcd958b4d4b97469911bd]
link ChunkProcessor to ChunkOrientedTasklet--><path d="M1239.48,124.52 C1183.12,154.1 1056.4312,220.5671 1056.4312,220.5671 " fill="none" id="ChunkProcessor-ChunkOrientedTasklet" style="stroke: #225C4D; stroke-width: 2.0;"/><polygon fill="#FFFFFF" points="1035.18,231.72,1049.5232,233.2273,1056.4312,220.5671,1042.088,219.0598,1035.18,231.72" style="stroke: #225C4D; stroke-width: 2.0;"/><polygon fill="#225C4D" points="1263.34,112,1243.684,113.281,1254.4853,116.647,1251.1193,127.4484,1263.34,112" style="stroke: #225C4D; stroke-width: 2.0;"/><line style="stroke: #225C4D; stroke-width: 2.0;" x1="1254.4853" x2="1240.31" y1="116.647" y2="124.08"/><text fill="#000000" font-family="sans-serif" font-size="26" lengthAdjust="spacingAndGlyphs" textLength="16" x="1222.8271" y="152.3116">1</text><!--MD5=[02960f7d27fd7c670de2a5f5483a7fbd]
reverse link ChunkProvider to SimpleChunkProvider--><path d="M649.76,142.46 C622.82,172.2 592.84,205.3 569.24,231.36 " fill="none" id="ChunkProvider&lt;-SimpleChunkProvider" style="stroke: #225C4D; stroke-width: 2.0; stroke-dasharray: 7.0,7.0;"/><polygon fill="none" points="640.12,132.26,677.34,112,660.86,151.04,640.12,132.26" style="stroke: #225C4D; stroke-width: 2.0;"/><!--MD5=[308bec9e01784f8495e2e92ea5a23e7d]
reverse link SimpleChunkProvider to FaultTolerantChunkProvider--><path d="M528.62,368.04 C529.14,395.16 529.68,424.08 530.12,447.36 " fill="none" id="SimpleChunkProvider&lt;-FaultTolerantChunkProvider" style="stroke: #225C4D; stroke-width: 2.0;"/><polygon fill="none" points="514.62,368.26,527.86,328,542.62,367.72,514.62,368.26" style="stroke: #225C4D; stroke-width: 2.0;"/><!--MD5=[1e1b82aff1f65c61f7aed5d4d06e710b]
reverse link ChunkProcessor to SimpleChunkProcessor--><path d="M1368.86,152.04 C1374.48,179.16 1380.48,208.08 1385.32,231.36 " fill="none" id="ChunkProcessor&lt;-SimpleChunkProcessor" style="stroke: #225C4D; stroke-width: 2.0; stroke-dasharray: 7.0,7.0;"/><polygon fill="none" points="1354.96,154.02,1360.54,112,1382.38,148.32,1354.96,154.02" style="stroke: #225C4D; stroke-width: 2.0;"/><!--MD5=[29b2a5d60c8dd6fd40c72390a1b21412]
reverse link SimpleChunkProcessor to FaultTolerantChunkProcessor--><path d="M1384.44,368.04 C1381.12,395.16 1377.58,424.08 1374.72,447.36 " fill="none" id="SimpleChunkProcessor&lt;-FaultTolerantChunkProcessor" style="stroke: #225C4D; stroke-width: 2.0;"/><polygon fill="none" points="1370.6,366,1389.36,328,1398.38,369.4,1370.6,366" style="stroke: #225C4D; stroke-width: 2.0;"/><!--MD5=[46d5681bc10ee7e2a6a490e86f7362a1]
link FaultTolerantChunkProvider to SkipPolicy--><path d="M768.46,496 C768.46,496 807.76,496 826.32,496 " fill="none" id="FaultTolerantChunkProvider-SkipPolicy" style="stroke: #225C4D; stroke-width: 2.0;"/><polygon fill="#225C4D" points="852.56,496,834.56,488,842.56,496,834.56,504,852.56,496" style="stroke: #225C4D; stroke-width: 2.0;"/><line style="stroke: #225C4D; stroke-width: 2.0;" x1="842.56" x2="826.56" y1="496" y2="496"/><polygon fill="#FFFFFF" points="744.46,496,756.46,504,768.46,496,756.46,488,744.46,496" style="stroke: #225C4D; stroke-width: 2.0;"/><text fill="#000000" font-family="sans-serif" font-size="26" lengthAdjust="spacingAndGlyphs" textLength="16" x="821.1801" y="487.8573">1</text><!--MD5=[0b6b79927f7389afac1548eb3a9dc19f]
link SkipPolicy to FaultTolerantChunkProcessor--><path d="M1064.44,496 C1076.64,496 1103.68,496 1103.68,496 " fill="none" id="SkipPolicy-FaultTolerantChunkProcessor" style="stroke: #225C4D; stroke-width: 2.0;"/><polygon fill="#FFFFFF" points="1127.68,496,1115.68,488,1103.68,496,1115.68,504,1127.68,496" style="stroke: #225C4D; stroke-width: 2.0;"/><polygon fill="#225C4D" points="1037.76,496,1055.7688,503.9802,1047.76,495.989,1055.7512,487.9802,1037.76,496" style="stroke: #225C4D; stroke-width: 2.0;"/><line style="stroke: #225C4D; stroke-width: 2.0;" x1="1047.76" x2="1063.75" y1="495.989" y2="496"/><text fill="#000000" font-family="sans-serif" font-size="26" lengthAdjust="spacingAndGlyphs" textLength="16" x="1053.1889" y="487.8573">2</text><!--MD5=[2d0bfbbb5e5ef5929127483462f118d2]
link ItemReader to SimpleChunkProvider--><path d="M451.92,135.88 C464.2,159.14 491.1549,210.1363 491.1549,210.1363 " fill="none" id="ItemReader-SimpleChunkProvider" style="stroke: #225C4D; stroke-width: 2.0;"/><polygon fill="#FFFFFF" points="502.36,231.36,503.832,217.0131,491.1549,210.1363,489.6829,224.4832,502.36,231.36" style="stroke: #225C4D; stroke-width: 2.0;"/><polygon fill="#225C4D" points="439.3,112,440.6292,131.6528,443.9688,120.8432,454.7784,124.1828,439.3,112" style="stroke: #225C4D; stroke-width: 2.0;"/><line style="stroke: #225C4D; stroke-width: 2.0;" x1="443.9688" x2="451.45" y1="120.8432" y2="134.99"/><text fill="#000000" font-family="sans-serif" font-size="26" lengthAdjust="spacingAndGlyphs" textLength="16" x="427.4769" y="152.3116">1</text><!--MD5=[f270d4aee8b6469178adc27d25a18592]
link RepeatOperations to SimpleChunkProvider--><path d="M312.4,280 C318.08,280 331.9,280 331.9,280 " fill="none" id="RepeatOperations-SimpleChunkProvider" style="stroke: #225C4D; stroke-width: 2.0;"/><polygon fill="#FFFFFF" points="355.9,280,343.9,272,331.9,280,343.9,288,355.9,280" style="stroke: #225C4D; stroke-width: 2.0;"/><polygon fill="#225C4D" points="286.32,280,304.32,288,296.32,280,304.32,272,286.32,280" style="stroke: #225C4D; stroke-width: 2.0;"/><line style="stroke: #225C4D; stroke-width: 2.0;" x1="296.32" x2="312.32" y1="280" y2="280"/><text fill="#000000" font-family="sans-serif" font-size="26" lengthAdjust="spacingAndGlyphs" textLength="16" x="302.2144" y="272.5077">1</text><!--MD5=[270012552a116e230dc08fc5b3953039]
link SimpleChunkProcessor to ItemProcessor--><path d="M1618.4,280 C1618.4,280 1632,280 1637.68,280 " fill="none" id="SimpleChunkProcessor-ItemProcessor" style="stroke: #225C4D; stroke-width: 2.0;"/><polygon fill="#225C4D" points="1664.32,280,1646.32,272,1654.32,280,1646.32,288,1664.32,280" style="stroke: #225C4D; stroke-width: 2.0;"/><line style="stroke: #225C4D; stroke-width: 2.0;" x1="1654.32" x2="1638.32" y1="280" y2="280"/><polygon fill="#FFFFFF" points="1594.4,280,1606.4,288,1618.4,280,1606.4,272,1594.4,280" style="stroke: #225C4D; stroke-width: 2.0;"/><text fill="#000000" font-family="sans-serif" font-size="26" lengthAdjust="spacingAndGlyphs" textLength="16" x="1632.9874" y="272.6006">1</text><!--MD5=[b37056112fbe93c87a9b96ee6f42efc1]
link SimpleChunkProcessor to ItemWriter--><path d="M1503.9112,339.1529 C1503.9112,339.1529 1631.08,405.88 1687.44,435.46 " fill="none" id="SimpleChunkProcessor-ItemWriter" style="stroke: #225C4D; stroke-width: 2.0;"/><polygon fill="#225C4D" points="1710.82,447.72,1698.5993,432.2716,1701.9653,443.073,1691.164,446.439,1710.82,447.72" style="stroke: #225C4D; stroke-width: 2.0;"/><line style="stroke: #225C4D; stroke-width: 2.0;" x1="1701.9653" x2="1687.79" y1="443.073" y2="435.64"/><polygon fill="#FFFFFF" points="1482.66,328,1489.568,340.6602,1503.9112,339.1529,1497.0032,326.4927,1482.66,328" style="stroke: #225C4D; stroke-width: 2.0;"/><text fill="#000000" font-family="sans-serif" font-size="26" lengthAdjust="spacingAndGlyphs" textLength="16" x="1670.1739" y="425.6723">1</text><!--MD5=[e48190ac3e388bda88cb1ab16d3254ac]
link SimpleChunkProvider to ChunkOrientedTasklet--><!--MD5=[0186f228a8f49946a5c33d9c65ce6088]
link ChunkOrientedTasklet to SimpleChunkProcessor--><!--MD5=[427a2aa27724aa82aa28f1f7de0e8d4b]
link ItemProcessor to ItemWriter--><!--MD5=[95dca0bf1e0f8f7e59e0ce0a07763032]
@startuml
skinparam class {
 BackgroundColor #DDEEE8
 BorderColor #225C4D
 ArrowColor #225C4D
 }
scale 2

interface Tasklet
interface RepeatOperations
note bottom: Repeat\nTemplate
interface ChunkProvider<I>
interface ChunkProcessor<I>

class ChunkOrientedTasklet<I>
class SimpleChunkProvider<I>
class FaultTolerantChunkProvider<I>
class SimpleChunkProcessor<I, O>
class FaultTolerantChunkProcessor<I, O>

interface ItemReader<I>
interface ItemProcessor<I, O>
interface ItemWriter<O>
interface SkipPolicy

ChunkProvider "1" <- -o ChunkOrientedTasklet
Tasklet <|.. ChunkOrientedTasklet
ChunkProcessor "1" <- -o ChunkOrientedTasklet

ChunkProvider <|.. SimpleChunkProvider
SimpleChunkProvider <|- - FaultTolerantChunkProvider
ChunkProcessor <|.. SimpleChunkProcessor
SimpleChunkProcessor <|- - FaultTolerantChunkProcessor

FaultTolerantChunkProvider o-> "1" SkipPolicy
SkipPolicy "2" <-o FaultTolerantChunkProcessor

ItemReader "1" <- -o SimpleChunkProvider
RepeatOperations "1" <-o SimpleChunkProvider
SimpleChunkProcessor o-> "1" ItemProcessor
SimpleChunkProcessor o- -> "1" ItemWriter

SimpleChunkProvider -[hidden]> ChunkOrientedTasklet
ChunkOrientedTasklet -[hidden]> SimpleChunkProcessor
ItemProcessor -[hidden]- ItemWriter
@enduml

PlantUML version 1.2019.12(Sun Nov 03 11:24:54 CET 2019)
(APACHE source distribution)
Java Runtime: OpenJDK Runtime Environment
JVM: OpenJDK 64-Bit Server VM
Java Version: 17.0.6+10-Debian-1deb11u1
Operating System: Linux
Default Encoding: UTF-8
Language: en
Country: DK
--></g></svg>