<?xml version="1.0" encoding="UTF-8" standalone="no"?><svg xmlns="http://www.w3.org/2000/svg" xmlns:xlink="http://www.w3.org/1999/xlink" contentScriptType="application/ecmascript" contentStyleType="text/css" height="618px" preserveAspectRatio="none" style="width:1994px;height:618px;" version="1.1" viewBox="0 0 1994 618" width="1994px" zoomAndPan="magnify"><defs><filter height="300%" id="fqa9yxv4e1jne" width="300%" x="-1" y="-1"><feGaussianBlur result="blurOut" stdDeviation="4.0"/><feColorMatrix in="blurOut" result="blurOut2" type="matrix" values="0 0 0 0 0 0 0 0 0 0 0 0 0 0 0 0 0 0 .4 0"/><feOffset dx="8.0" dy="8.0" in="blurOut2" result="blurOut3"/><feBlend in="SourceGraphic" in2="blurOut3" mode="normal"/></filter></defs><g><!--MD5=[e8550675d02dc25464275eb1420a3bff]
class LineMapper--><rect fill="#DDEEE8" filter="url(#fqa9yxv4e1jne)" height="121.6094" id="LineMapper" style="stroke: #225C4D; stroke-width: 3.0;" width="472" x="574" y="16"/><ellipse cx="721.5" cy="48" fill="#B4A7E5" rx="22" ry="22" style="stroke: #225C4D; stroke-width: 2.0;"/><path d="M713.3438,39.5313 L713.3438,35.2188 L728.125,35.2188 L728.125,39.5313 L723.1875,39.5313 L723.1875,55.6875 L728.125,55.6875 L728.125,60 L713.3438,60 L713.3438,55.6875 L718.2813,55.6875 L718.2813,39.5313 L713.3438,39.5313 Z "/><text fill="#000000" font-family="sans-serif" font-size="24" font-style="italic" lengthAdjust="spacingAndGlyphs" textLength="138" x="762.5" y="56.3086">LineMapper</text><rect fill="#FFFFFF" height="31.9375" style="stroke: #000000; stroke-width: 2.0; stroke-dasharray: 2.0,2.0;" width="18" x="1034" y="10"/><text fill="#000000" font-family="sans-serif" font-size="24" font-style="italic" lengthAdjust="spacingAndGlyphs" textLength="14" x="1036" y="34.2773">T</text><line style="stroke: #225C4D; stroke-width: 3.0;" x1="576" x2="1044" y1="80" y2="80"/><line style="stroke: #225C4D; stroke-width: 3.0;" x1="576" x2="1044" y1="96" y2="96"/><text fill="#000000" font-family="sans-serif" font-size="22" lengthAdjust="spacingAndGlyphs" textLength="448" x="586" y="124.4209">mapLine(line: String, lineNumber: int): T</text><!--MD5=[b0ba98dd093718daf1aa1f6d54fd54cb]
class LineTokenizer--><rect fill="#DDEEE8" filter="url(#fqa9yxv4e1jne)" height="121.6094" id="LineTokenizer" style="stroke: #225C4D; stroke-width: 3.0;" width="358" x="221" y="258"/><ellipse cx="311.5" cy="290" fill="#B4A7E5" rx="22" ry="22" style="stroke: #225C4D; stroke-width: 2.0;"/><path d="M303.3438,281.5313 L303.3438,277.2188 L318.125,277.2188 L318.125,281.5313 L313.1875,281.5313 L313.1875,297.6875 L318.125,297.6875 L318.125,302 L303.3438,302 L303.3438,297.6875 L308.2813,297.6875 L308.2813,281.5313 L303.3438,281.5313 Z "/><text fill="#000000" font-family="sans-serif" font-size="24" font-style="italic" lengthAdjust="spacingAndGlyphs" textLength="160" x="352.5" y="298.3086">LineTokenizer</text><line style="stroke: #225C4D; stroke-width: 3.0;" x1="223" x2="577" y1="322" y2="322"/><line style="stroke: #225C4D; stroke-width: 3.0;" x1="223" x2="577" y1="338" y2="338"/><text fill="#000000" font-family="sans-serif" font-size="22" lengthAdjust="spacingAndGlyphs" textLength="334" x="233" y="366.4209">tokenize(line: String): FieldSet</text><!--MD5=[e3e08a995cbddd2d8c203a917f540be8]
class FieldSetMapper--><rect fill="#DDEEE8" filter="url(#fqa9yxv4e1jne)" height="121.6094" id="FieldSetMapper" style="stroke: #225C4D; stroke-width: 3.0;" width="398" x="1041" y="258"/><ellipse cx="1127.7" cy="290" fill="#B4A7E5" rx="22" ry="22" style="stroke: #225C4D; stroke-width: 2.0;"/><path d="M1119.5438,281.5313 L1119.5438,277.2188 L1134.325,277.2188 L1134.325,281.5313 L1129.3875,281.5313 L1129.3875,297.6875 L1134.325,297.6875 L1134.325,302 L1119.5438,302 L1119.5438,297.6875 L1124.4813,297.6875 L1124.4813,281.5313 L1119.5438,281.5313 Z "/><text fill="#000000" font-family="sans-serif" font-size="24" font-style="italic" lengthAdjust="spacingAndGlyphs" textLength="186" x="1168.3" y="298.3086">FieldSetMapper</text><rect fill="#FFFFFF" height="31.9375" style="stroke: #000000; stroke-width: 2.0; stroke-dasharray: 2.0,2.0;" width="18" x="1427" y="252"/><text fill="#000000" font-family="sans-serif" font-size="24" font-style="italic" lengthAdjust="spacingAndGlyphs" textLength="14" x="1429" y="276.2773">T</text><line style="stroke: #225C4D; stroke-width: 3.0;" x1="1043" x2="1437" y1="322" y2="322"/><line style="stroke: #225C4D; stroke-width: 3.0;" x1="1043" x2="1437" y1="338" y2="338"/><text fill="#000000" font-family="sans-serif" font-size="22" lengthAdjust="spacingAndGlyphs" textLength="374" x="1053" y="366.4209">mapFieldSet(fieldSet: FieldSet): T</text><!--MD5=[4b1a6ebdf3bdb6dc9731fa042cdc4014]
class DefaultLineMapper--><rect fill="#DDEEE8" filter="url(#fqa9yxv4e1jne)" height="96" id="DefaultLineMapper" style="stroke: #225C4D; stroke-width: 3.0;" width="320" x="650" y="271"/><ellipse cx="680" cy="303" fill="#ADD1B2" rx="22" ry="22" style="stroke: #225C4D; stroke-width: 2.0;"/><path d="M685.9375,314.2813 Q684.7813,314.875 683.5,315.1563 Q682.2188,315.4688 680.8125,315.4688 Q675.8125,315.4688 673.1563,312.1875 Q670.5313,308.875 670.5313,302.625 Q670.5313,296.375 673.1563,293.0625 Q675.8125,289.75 680.8125,289.75 Q682.2188,289.75 683.5,290.0625 Q684.8125,290.375 685.9375,290.9688 L685.9375,296.4063 Q684.6875,295.25 683.5,294.7188 Q682.3125,294.1563 681.0625,294.1563 Q678.375,294.1563 677,296.3125 Q675.625,298.4375 675.625,302.625 Q675.625,306.8125 677,308.9688 Q678.375,311.0938 681.0625,311.0938 Q682.3125,311.0938 683.5,310.5625 Q684.6875,310 685.9375,308.8438 L685.9375,314.2813 Z "/><text fill="#000000" font-family="sans-serif" font-size="24" lengthAdjust="spacingAndGlyphs" textLength="234" x="708" y="311.3086">DefaultLineMapper</text><rect fill="#FFFFFF" height="31.9375" style="stroke: #000000; stroke-width: 2.0; stroke-dasharray: 2.0,2.0;" width="18" x="958" y="265"/><text fill="#000000" font-family="sans-serif" font-size="24" font-style="italic" lengthAdjust="spacingAndGlyphs" textLength="14" x="960" y="289.2773">T</text><line style="stroke: #225C4D; stroke-width: 3.0;" x1="652" x2="968" y1="335" y2="335"/><line style="stroke: #225C4D; stroke-width: 3.0;" x1="652" x2="968" y1="351" y2="351"/><!--MD5=[b3a696a6e72382929d667d776e062018]
class FlatFileItemReader--><rect fill="#DDEEE8" filter="url(#fqa9yxv4e1jne)" height="96" id="FlatFileItemReader" style="stroke: #225C4D; stroke-width: 3.0;" width="296" x="208" y="29"/><ellipse cx="238" cy="61" fill="#ADD1B2" rx="22" ry="22" style="stroke: #225C4D; stroke-width: 2.0;"/><path d="M243.9375,72.2813 Q242.7813,72.875 241.5,73.1563 Q240.2188,73.4688 238.8125,73.4688 Q233.8125,73.4688 231.1563,70.1875 Q228.5313,66.875 228.5313,60.625 Q228.5313,54.375 231.1563,51.0625 Q233.8125,47.75 238.8125,47.75 Q240.2188,47.75 241.5,48.0625 Q242.8125,48.375 243.9375,48.9688 L243.9375,54.4063 Q242.6875,53.25 241.5,52.7188 Q240.3125,52.1563 239.0625,52.1563 Q236.375,52.1563 235,54.3125 Q233.625,56.4375 233.625,60.625 Q233.625,64.8125 235,66.9688 Q236.375,69.0938 239.0625,69.0938 Q240.3125,69.0938 241.5,68.5625 Q242.6875,68 243.9375,66.8438 L243.9375,72.2813 Z "/><text fill="#000000" font-family="sans-serif" font-size="24" lengthAdjust="spacingAndGlyphs" textLength="232" x="266" y="69.3086">FlatFileItemReader</text><line style="stroke: #225C4D; stroke-width: 3.0;" x1="210" x2="502" y1="93" y2="93"/><line style="stroke: #225C4D; stroke-width: 3.0;" x1="210" x2="502" y1="109" y2="109"/><!--MD5=[05b77af67faf4d3c74c87f37f56d3396]
class DelimitedLineTokenizer--><rect fill="#DDEEE8" filter="url(#fqa9yxv4e1jne)" height="96" id="DelimitedLineTokenizer" style="stroke: #225C4D; stroke-width: 3.0;" width="348" x="12" y="500"/><ellipse cx="42" cy="532" fill="#ADD1B2" rx="22" ry="22" style="stroke: #225C4D; stroke-width: 2.0;"/><path d="M47.9375,543.2813 Q46.7813,543.875 45.5,544.1563 Q44.2188,544.4688 42.8125,544.4688 Q37.8125,544.4688 35.1563,541.1875 Q32.5313,537.875 32.5313,531.625 Q32.5313,525.375 35.1563,522.0625 Q37.8125,518.75 42.8125,518.75 Q44.2188,518.75 45.5,519.0625 Q46.8125,519.375 47.9375,519.9688 L47.9375,525.4063 Q46.6875,524.25 45.5,523.7188 Q44.3125,523.1563 43.0625,523.1563 Q40.375,523.1563 39,525.3125 Q37.625,527.4375 37.625,531.625 Q37.625,535.8125 39,537.9688 Q40.375,540.0938 43.0625,540.0938 Q44.3125,540.0938 45.5,539.5625 Q46.6875,539 47.9375,537.8438 L47.9375,543.2813 Z "/><text fill="#000000" font-family="sans-serif" font-size="24" lengthAdjust="spacingAndGlyphs" textLength="284" x="70" y="540.3086">DelimitedLineTokenizer</text><line style="stroke: #225C4D; stroke-width: 3.0;" x1="14" x2="358" y1="564" y2="564"/><line style="stroke: #225C4D; stroke-width: 3.0;" x1="14" x2="358" y1="580" y2="580"/><!--MD5=[f0da4b2dffb5b357f51ee69493108308]
class FixedLengthTokenizer--><rect fill="#DDEEE8" filter="url(#fqa9yxv4e1jne)" height="96" id="FixedLengthTokenizer" style="stroke: #225C4D; stroke-width: 3.0;" width="332" x="430" y="500"/><ellipse cx="460" cy="532" fill="#ADD1B2" rx="22" ry="22" style="stroke: #225C4D; stroke-width: 2.0;"/><path d="M465.9375,543.2813 Q464.7813,543.875 463.5,544.1563 Q462.2188,544.4688 460.8125,544.4688 Q455.8125,544.4688 453.1563,541.1875 Q450.5313,537.875 450.5313,531.625 Q450.5313,525.375 453.1563,522.0625 Q455.8125,518.75 460.8125,518.75 Q462.2188,518.75 463.5,519.0625 Q464.8125,519.375 465.9375,519.9688 L465.9375,525.4063 Q464.6875,524.25 463.5,523.7188 Q462.3125,523.1563 461.0625,523.1563 Q458.375,523.1563 457,525.3125 Q455.625,527.4375 455.625,531.625 Q455.625,535.8125 457,537.9688 Q458.375,540.0938 461.0625,540.0938 Q462.3125,540.0938 463.5,539.5625 Q464.6875,539 465.9375,537.8438 L465.9375,543.2813 Z "/><text fill="#000000" font-family="sans-serif" font-size="24" lengthAdjust="spacingAndGlyphs" textLength="268" x="488" y="540.3086">FixedLengthTokenizer</text><line style="stroke: #225C4D; stroke-width: 3.0;" x1="432" x2="760" y1="564" y2="564"/><line style="stroke: #225C4D; stroke-width: 3.0;" x1="432" x2="760" y1="580" y2="580"/><!--MD5=[5af751c4f0d40e54ff76e61f7c9263c3]
class BeanWrapperFieldSetMapper--><rect fill="#DDEEE8" filter="url(#fqa9yxv4e1jne)" height="96" id="BeanWrapperFieldSetMapper" style="stroke: #225C4D; stroke-width: 3.0;" width="428" x="1026" y="500"/><ellipse cx="1056" cy="532" fill="#ADD1B2" rx="22" ry="22" style="stroke: #225C4D; stroke-width: 2.0;"/><path d="M1061.9375,543.2813 Q1060.7813,543.875 1059.5,544.1563 Q1058.2188,544.4688 1056.8125,544.4688 Q1051.8125,544.4688 1049.1563,541.1875 Q1046.5313,537.875 1046.5313,531.625 Q1046.5313,525.375 1049.1563,522.0625 Q1051.8125,518.75 1056.8125,518.75 Q1058.2188,518.75 1059.5,519.0625 Q1060.8125,519.375 1061.9375,519.9688 L1061.9375,525.4063 Q1060.6875,524.25 1059.5,523.7188 Q1058.3125,523.1563 1057.0625,523.1563 Q1054.375,523.1563 1053,525.3125 Q1051.625,527.4375 1051.625,531.625 Q1051.625,535.8125 1053,537.9688 Q1054.375,540.0938 1057.0625,540.0938 Q1058.3125,540.0938 1059.5,539.5625 Q1060.6875,539 1061.9375,537.8438 L1061.9375,543.2813 Z "/><text fill="#000000" font-family="sans-serif" font-size="24" lengthAdjust="spacingAndGlyphs" textLength="364" x="1084" y="540.3086">BeanWrapperFieldSetMapper</text><line style="stroke: #225C4D; stroke-width: 3.0;" x1="1028" x2="1452" y1="564" y2="564"/><line style="stroke: #225C4D; stroke-width: 3.0;" x1="1028" x2="1452" y1="580" y2="580"/><!--MD5=[b47de053dec79ca56c40889664c2826b]
class DefaultPropertyEditorRegistrar--><rect fill="#DDEEE8" filter="url(#fqa9yxv4e1jne)" height="96" id="DefaultPropertyEditorRegistrar" style="stroke: #225C4D; stroke-width: 3.0;" width="448" x="1524" y="500"/><ellipse cx="1554" cy="532" fill="#ADD1B2" rx="22" ry="22" style="stroke: #225C4D; stroke-width: 2.0;"/><path d="M1559.9375,543.2813 Q1558.7813,543.875 1557.5,544.1563 Q1556.2188,544.4688 1554.8125,544.4688 Q1549.8125,544.4688 1547.1563,541.1875 Q1544.5313,537.875 1544.5313,531.625 Q1544.5313,525.375 1547.1563,522.0625 Q1549.8125,518.75 1554.8125,518.75 Q1556.2188,518.75 1557.5,519.0625 Q1558.8125,519.375 1559.9375,519.9688 L1559.9375,525.4063 Q1558.6875,524.25 1557.5,523.7188 Q1556.3125,523.1563 1555.0625,523.1563 Q1552.375,523.1563 1551,525.3125 Q1549.625,527.4375 1549.625,531.625 Q1549.625,535.8125 1551,537.9688 Q1552.375,540.0938 1555.0625,540.0938 Q1556.3125,540.0938 1557.5,539.5625 Q1558.6875,539 1559.9375,537.8438 L1559.9375,543.2813 Z "/><text fill="#000000" font-family="sans-serif" font-size="24" lengthAdjust="spacingAndGlyphs" textLength="384" x="1582" y="540.3086">DefaultPropertyEditorRegistrar</text><line style="stroke: #225C4D; stroke-width: 3.0;" x1="1526" x2="1970" y1="564" y2="564"/><line style="stroke: #225C4D; stroke-width: 3.0;" x1="1526" x2="1970" y1="580" y2="580"/><!--MD5=[3cf2ee7303635139d296e693ece25aa4]
link FlatFileItemReader to LineMapper--><path d="M504.08,77 C523.92,77 543.76,77 563.62,77 " fill="none" id="FlatFileItemReader-&gt;LineMapper" style="stroke: #225C4D; stroke-width: 2.0;"/><polygon fill="#225C4D" points="573.98,77,555.98,69,563.98,77,555.98,85,573.98,77" style="stroke: #225C4D; stroke-width: 2.0;"/><!--MD5=[238fbd064f312daa78fac3af2153a741]
reverse link LineMapper to DefaultLineMapper--><path d="M810,178.68 C810,210.74 810,244.74 810,271 " fill="none" id="LineMapper&lt;-DefaultLineMapper" style="stroke: #225C4D; stroke-width: 2.0; stroke-dasharray: 7.0,7.0;"/><polygon fill="none" points="796,178.44,810,138.44,824,178.44,796,178.44" style="stroke: #225C4D; stroke-width: 2.0;"/><!--MD5=[0bc220965109ca3983fa8c2eccbd5510]
reverse link LineTokenizer to DefaultLineMapper--><path d="M589.8,319 C609.76,319 629.7,319 649.64,319 " fill="none" id="LineTokenizer&lt;-DefaultLineMapper" style="stroke: #225C4D; stroke-width: 2.0;"/><polygon fill="#225C4D" points="579.38,319,597.38,327,589.38,319,597.38,311,579.38,319" style="stroke: #225C4D; stroke-width: 2.0;"/><!--MD5=[bf17bca46cbd785f0dd9255fc9e5948e]
link DefaultLineMapper to FieldSetMapper--><path d="M970.42,319 C990.44,319 1010.46,319 1030.5,319 " fill="none" id="DefaultLineMapper-&gt;FieldSetMapper" style="stroke: #225C4D; stroke-width: 2.0;"/><polygon fill="#225C4D" points="1040.96,319,1022.96,311,1030.96,319,1022.96,327,1040.96,319" style="stroke: #225C4D; stroke-width: 2.0;"/><!--MD5=[3a6f63e2520b9fa0da4a3d2c117a4380]
reverse link LineTokenizer to DelimitedLineTokenizer--><path d="M315.74,409.6 C286.58,440.26 255.06,473.4 230.38,499.34 " fill="none" id="LineTokenizer&lt;-DelimitedLineTokenizer" style="stroke: #225C4D; stroke-width: 2.0; stroke-dasharray: 7.0,7.0;"/><polygon fill="none" points="306.06,399.46,343.78,380.12,326.36,418.74,306.06,399.46" style="stroke: #225C4D; stroke-width: 2.0;"/><!--MD5=[151078c976c864649d1c2aa34953e4c4]
reverse link LineTokenizer to FixedLengthTokenizer--><path d="M478,410.54 C504.48,440.94 533,473.66 555.36,499.34 " fill="none" id="LineTokenizer&lt;-FixedLengthTokenizer" style="stroke: #225C4D; stroke-width: 2.0; stroke-dasharray: 7.0,7.0;"/><polygon fill="none" points="467.22,419.48,451.5,380.12,488.32,401.08,467.22,419.48" style="stroke: #225C4D; stroke-width: 2.0;"/><!--MD5=[06ba90c7d6d7c61be5e049056ff57ebb]
reverse link FieldSetMapper to BeanWrapperFieldSetMapper--><path d="M1240,420.22 C1240,447.76 1240,476.36 1240,499.34 " fill="none" id="FieldSetMapper&lt;-BeanWrapperFieldSetMapper" style="stroke: #225C4D; stroke-width: 2.0; stroke-dasharray: 7.0,7.0;"/><polygon fill="none" points="1226,420.12,1240,380.12,1254,420.12,1226,420.12" style="stroke: #225C4D; stroke-width: 2.0;"/><!--MD5=[4bfe262e44e0e55025def8dcab222b15]
link BeanWrapperFieldSetMapper to DefaultPropertyEditorRegistrar--><path d="M1454.32,548 C1464.08,548 1473.84,548 1483.6,548 " fill="none" id="BeanWrapperFieldSetMapper-&gt;DefaultPropertyEditorRegistrar" style="stroke: #225C4D; stroke-width: 2.0;"/><polygon fill="none" points="1483.72,534,1523.72,548,1483.72,562,1483.72,534" style="stroke: #225C4D; stroke-width: 2.0;"/><!--MD5=[af12ce8a4b3c6c117c9e5a86a07a7233]
@startuml
skinparam class {
 BackgroundColor #DDEEE8
 BorderColor #225C4D
 ArrowColor #225C4D
 }
scale 2

interface LineMapper<T> {
    mapLine(line: String, lineNumber: int): T
}

interface LineTokenizer {
    tokenize(line: String): FieldSet
}

interface FieldSetMapper<T> {
    mapFieldSet(fieldSet: FieldSet): T
}

class DefaultLineMapper<T>

FlatFileItemReader -> LineMapper
LineMapper <|.. DefaultLineMapper
LineTokenizer <- DefaultLineMapper
DefaultLineMapper -> FieldSetMapper
LineTokenizer <|.. DelimitedLineTokenizer
LineTokenizer <|.. FixedLengthTokenizer
FieldSetMapper <|.. BeanWrapperFieldSetMapper
BeanWrapperFieldSetMapper -|> DefaultPropertyEditorRegistrar
@enduml

PlantUML version 1.2019.12(Sun Nov 03 11:24:54 CET 2019)
(APACHE source distribution)
Java Runtime: OpenJDK Runtime Environment
JVM: OpenJDK 64-Bit Server VM
Java Version: 17.0.6+10-Debian-1deb11u1
Operating System: Linux
Default Encoding: UTF-8
Language: en
Country: DK
--></g></svg>