<?xml version="1.0" encoding="UTF-8" standalone="no"?><svg xmlns="http://www.w3.org/2000/svg" xmlns:xlink="http://www.w3.org/1999/xlink" contentScriptType="application/ecmascript" contentStyleType="text/css" height="849px" preserveAspectRatio="none" style="width:331px;height:849px;" version="1.1" viewBox="0 0 331 849" width="331.5px" zoomAndPan="magnify"><defs><filter height="300%" id="fzwgauwvpt5ti" width="300%" x="-1" y="-1"><feGaussianBlur result="blurOut" stdDeviation="3.0"/><feColorMatrix in="blurOut" result="blurOut2" type="matrix" values="0 0 0 0 0 0 0 0 0 0 0 0 0 0 0 0 0 0 .4 0"/><feOffset dx="6.0" dy="6.0" in="blurOut2" result="blurOut3"/><feBlend in="SourceGraphic" in2="blurOut3" mode="normal"/></filter></defs><g><ellipse cx="165" cy="30" fill="#000000" filter="url(#fzwgauwvpt5ti)" rx="15" ry="15" style="stroke: none; stroke-width: 1.5;"/><rect fill="#FEFECE" filter="url(#fzwgauwvpt5ti)" height="50.9531" rx="18.75" ry="18.75" style="stroke: #A80036; stroke-width: 2.25;" width="90" x="120" y="75"/><text fill="#000000" font-family="sans-serif" font-size="18" lengthAdjust="spacingAndGlyphs" textLength="60" x="135" y="106.708">step 1</text><rect fill="#000000" filter="url(#fzwgauwvpt5ti)" height="9" rx="3.75" ry="3.75" style="stroke: #000000; stroke-width: 1.5;" width="300" x="15" y="155.9531"/><rect fill="#FEFECE" filter="url(#fzwgauwvpt5ti)" height="50.9531" rx="18.75" ry="18.75" style="stroke: #A80036; stroke-width: 2.25;" width="120" x="33" y="194.9531"/><text fill="#000000" font-family="sans-serif" font-size="18" lengthAdjust="spacingAndGlyphs" textLength="90" x="48" y="226.6611">step 2a 1</text><rect fill="#FEFECE" filter="url(#fzwgauwvpt5ti)" height="50.9531" rx="18.75" ry="18.75" style="stroke: #A80036; stroke-width: 2.25;" width="120" x="33" y="298.4063"/><text fill="#000000" font-family="sans-serif" font-size="18" lengthAdjust="spacingAndGlyphs" textLength="90" x="48" y="330.1143">step 2a 2</text><rect fill="#FEFECE" filter="url(#fzwgauwvpt5ti)" height="50.9531" rx="18.75" ry="18.75" style="stroke: #A80036; stroke-width: 2.25;" width="102" x="195" y="246.6797"/><text fill="#000000" font-family="sans-serif" font-size="18" lengthAdjust="spacingAndGlyphs" textLength="72" x="210" y="278.3877">step 2b</text><rect fill="#000000" filter="url(#fzwgauwvpt5ti)" height="9" rx="3.75" ry="3.75" style="stroke: #000000; stroke-width: 1.5;" width="300" x="15" y="379.3594"/><rect fill="#FEFECE" filter="url(#fzwgauwvpt5ti)" height="50.9531" rx="18.75" ry="18.75" style="stroke: #A80036; stroke-width: 2.25;" width="90" x="120" y="418.3594"/><text fill="#000000" font-family="sans-serif" font-size="18" lengthAdjust="spacingAndGlyphs" textLength="60" x="135" y="450.0674">step 3</text><rect fill="#FEFECE" filter="url(#fzwgauwvpt5ti)" height="50.9531" rx="18.75" ry="18.75" style="stroke: #A80036; stroke-width: 2.25;" width="99" x="115.5" y="571.916"/><text fill="#000000" font-family="sans-serif" font-size="18" lengthAdjust="spacingAndGlyphs" textLength="69" x="130.5" y="603.624">step 3x</text><polygon fill="#FEFECE" filter="url(#fzwgauwvpt5ti)" points="137.25,499.3125,192.75,499.3125,210.75,517.3125,192.75,535.3125,137.25,535.3125,119.25,517.3125,137.25,499.3125" style="stroke: #A80036; stroke-width: 2.25;"/><text fill="#000000" font-family="sans-serif" font-size="16.5" lengthAdjust="spacingAndGlyphs" textLength="30" x="171" y="550.6282">yes</text><text fill="#000000" font-family="sans-serif" font-size="16.5" lengthAdjust="spacingAndGlyphs" textLength="55.5" x="137.25" y="523.0247">failed?</text><polygon fill="#FEFECE" filter="url(#fzwgauwvpt5ti)" points="165,652.8691,183,670.8691,165,688.8691,147,670.8691,165,652.8691" style="stroke: #A80036; stroke-width: 2.25;"/><rect fill="#FEFECE" filter="url(#fzwgauwvpt5ti)" height="50.9531" rx="18.75" ry="18.75" style="stroke: #A80036; stroke-width: 2.25;" width="90" x="120" y="718.8691"/><text fill="#000000" font-family="sans-serif" font-size="18" lengthAdjust="spacingAndGlyphs" textLength="60" x="135" y="750.5771">step 4</text><ellipse cx="165" cy="816.3223" fill="#FFFFFF" filter="url(#fzwgauwvpt5ti)" rx="16.5" ry="16.5" style="stroke: #000000; stroke-width: 1.5;"/><ellipse cx="165" cy="816.3223" fill="#000000" rx="9" ry="9" style="stroke: #7F7F7F; stroke-width: 1.5;"/><line style="stroke: #225C4D; stroke-width: 2.25;" x1="165" x2="165" y1="45" y2="75"/><polygon fill="#225C4D" points="159,60,165,75,171,60,165,66" style="stroke: #225C4D; stroke-width: 1.5;"/><line style="stroke: #225C4D; stroke-width: 2.25;" x1="93" x2="93" y1="245.9063" y2="298.4063"/><polygon fill="#225C4D" points="87,283.4063,93,298.4063,99,283.4063,93,289.4063" style="stroke: #225C4D; stroke-width: 1.5;"/><line style="stroke: #225C4D; stroke-width: 2.25;" x1="93" x2="93" y1="164.9531" y2="194.9531"/><polygon fill="#225C4D" points="87,179.9531,93,194.9531,99,179.9531,93,185.9531" style="stroke: #225C4D; stroke-width: 1.5;"/><line style="stroke: #225C4D; stroke-width: 2.25;" x1="246" x2="246" y1="164.9531" y2="246.6797"/><polygon fill="#225C4D" points="240,231.6797,246,246.6797,252,231.6797,246,237.6797" style="stroke: #225C4D; stroke-width: 1.5;"/><line style="stroke: #225C4D; stroke-width: 2.25;" x1="93" x2="93" y1="349.3594" y2="379.3594"/><polygon fill="#225C4D" points="87,364.3594,93,379.3594,99,364.3594,93,370.3594" style="stroke: #225C4D; stroke-width: 1.5;"/><line style="stroke: #225C4D; stroke-width: 2.25;" x1="246" x2="246" y1="297.6328" y2="379.3594"/><polygon fill="#225C4D" points="240,364.3594,246,379.3594,252,364.3594,246,370.3594" style="stroke: #225C4D; stroke-width: 1.5;"/><line style="stroke: #225C4D; stroke-width: 2.25;" x1="165" x2="165" y1="125.9531" y2="155.9531"/><polygon fill="#225C4D" points="159,140.9531,165,155.9531,171,140.9531,165,146.9531" style="stroke: #225C4D; stroke-width: 1.5;"/><line style="stroke: #225C4D; stroke-width: 2.25;" x1="165" x2="165" y1="388.3594" y2="418.3594"/><polygon fill="#225C4D" points="159,403.3594,165,418.3594,171,403.3594,165,409.3594" style="stroke: #225C4D; stroke-width: 1.5;"/><line style="stroke: #225C4D; stroke-width: 2.25;" x1="165" x2="165" y1="535.3125" y2="571.916"/><polygon fill="#225C4D" points="159,556.916,165,571.916,171,556.916,165,562.916" style="stroke: #225C4D; stroke-width: 1.5;"/><line style="stroke: #225C4D; stroke-width: 2.25;" x1="210.75" x2="229.5" y1="517.3125" y2="517.3125"/><polygon fill="#225C4D" points="223.5,582.3926,229.5,597.3926,235.5,582.3926,229.5,588.3926" style="stroke: #225C4D; stroke-width: 2.25;"/><line style="stroke: #225C4D; stroke-width: 2.25;" x1="229.5" x2="229.5" y1="517.3125" y2="670.8691"/><line style="stroke: #225C4D; stroke-width: 2.25;" x1="229.5" x2="183" y1="670.8691" y2="670.8691"/><polygon fill="#225C4D" points="198,664.8691,183,670.8691,198,676.8691,192,670.8691" style="stroke: #225C4D; stroke-width: 1.5;"/><line style="stroke: #225C4D; stroke-width: 2.25;" x1="165" x2="165" y1="622.8691" y2="652.8691"/><polygon fill="#225C4D" points="159,637.8691,165,652.8691,171,637.8691,165,643.8691" style="stroke: #225C4D; stroke-width: 1.5;"/><line style="stroke: #225C4D; stroke-width: 2.25;" x1="165" x2="165" y1="469.3125" y2="499.3125"/><polygon fill="#225C4D" points="159,484.3125,165,499.3125,171,484.3125,165,490.3125" style="stroke: #225C4D; stroke-width: 1.5;"/><line style="stroke: #225C4D; stroke-width: 2.25;" x1="165" x2="165" y1="688.8691" y2="718.8691"/><polygon fill="#225C4D" points="159,703.8691,165,718.8691,171,703.8691,165,709.8691" style="stroke: #225C4D; stroke-width: 1.5;"/><line style="stroke: #225C4D; stroke-width: 2.25;" x1="165" x2="165" y1="769.8223" y2="799.8223"/><polygon fill="#225C4D" points="159,784.8223,165,799.8223,171,784.8223,165,790.8223" style="stroke: #225C4D; stroke-width: 1.5;"/><!--MD5=[fb2019f6af36f6f3c69b984c7b8cdc32]
@startuml
skinparam class {
 BackgroundColor #DDEEE8
 BorderColor #225C4D
 ArrowColor #225C4D
 }
scale 1.5

start
:step 1;
fork
    :step 2a 1;
    :step 2a 2;
fork again
    :step 2b;
end fork
:step 3;
if (failed?) then (yes)
  :step 3x;
endif
:step 4;
stop
@enduml

PlantUML version 1.2019.12(Sun Nov 03 11:24:54 CET 2019)
(APACHE source distribution)
Java Runtime: OpenJDK Runtime Environment
JVM: OpenJDK 64-Bit Server VM
Java Version: 17.0.6+10-Debian-1deb11u1
Operating System: Linux
Default Encoding: UTF-8
Language: en
Country: DK
--></g></svg>