<?xml version="1.0" encoding="UTF-8" standalone="no"?><svg xmlns="http://www.w3.org/2000/svg" xmlns:xlink="http://www.w3.org/1999/xlink" contentScriptType="application/ecmascript" contentStyleType="text/css" height="810px" preserveAspectRatio="none" style="width:3051px;height:810px;" version="1.1" viewBox="0 0 3051 810" width="3051.6667px" zoomAndPan="magnify"><defs><filter height="300%" id="f18r6wx88bx2lc" width="300%" x="-1" y="-1"><feGaussianBlur result="blurOut" stdDeviation="3.3333333333333335"/><feColorMatrix in="blurOut" result="blurOut2" type="matrix" values="0 0 0 0 0 0 0 0 0 0 0 0 0 0 0 0 0 0 .4 0"/><feOffset dx="6.666666666666667" dy="6.666666666666667" in="blurOut2" result="blurOut3"/><feBlend in="SourceGraphic" in2="blurOut3" mode="normal"/></filter></defs><g><!--MD5=[bbe636785d2d9c0b92776279c5915541]
class JobBuilder--><rect fill="#DDEEE8" filter="url(#f18r6wx88bx2lc)" height="144.0234" id="JobBuilder" style="stroke: #225C4D; stroke-width: 2.5;" width="346.6667" x="145.8333" y="213.3333"/><ellipse cx="260.4167" cy="240" fill="#ADD1B2" rx="18.3333" ry="18.3333" style="stroke: #225C4D; stroke-width: 1.6666666666666667;"/><path d="M265.3646,249.401 Q264.401,249.8958 263.3333,250.1302 Q262.2656,250.3906 261.0938,250.3906 Q256.9271,250.3906 254.7135,247.6563 Q252.526,244.8958 252.526,239.6875 Q252.526,234.4792 254.7135,231.7188 Q256.9271,228.9583 261.0938,228.9583 Q262.2656,228.9583 263.3333,229.2188 Q264.4271,229.4792 265.3646,229.974 L265.3646,234.5052 Q264.3229,233.5417 263.3333,233.099 Q262.3438,232.6302 261.3021,232.6302 Q259.0625,232.6302 257.9167,234.4271 Q256.7708,236.1979 256.7708,239.6875 Q256.7708,243.1771 257.9167,244.974 Q259.0625,246.7448 261.3021,246.7448 Q262.3438,246.7448 263.3333,246.3021 Q264.3229,245.8333 265.3646,244.8698 L265.3646,249.401 Z "/><text fill="#000000" font-family="sans-serif" font-size="20" lengthAdjust="spacingAndGlyphs" textLength="103.3333" x="294.5833" y="246.9238">JobBuilder</text><line style="stroke: #225C4D; stroke-width: 2.5;" x1="147.5" x2="490.8333" y1="266.6667" y2="266.6667"/><line style="stroke: #225C4D; stroke-width: 2.5;" x1="147.5" x2="490.8333" y1="280" y2="280"/><text fill="#000000" font-family="sans-serif" font-size="18.3333" lengthAdjust="spacingAndGlyphs" textLength="298.3333" x="155.8333" y="303.6841">start(flow: Flow): JobFlowBuilder</text><text fill="#000000" font-family="sans-serif" font-size="18.3333" lengthAdjust="spacingAndGlyphs" textLength="326.6667" x="155.8333" y="325.0252">start(step: Step): SimpleJobBuilder</text><text fill="#000000" font-family="sans-serif" font-size="18.3333" lengthAdjust="spacingAndGlyphs" textLength="296.6667" x="155.8333" y="346.3664">flow(step: Step): JobFlowBuilder</text><!--MD5=[8ad9cb2573c9e1d87ebe0501f50c80f7]
class SimpleJobBuilder--><rect fill="#DDEEE8" filter="url(#f18r6wx88bx2lc)" height="229.388" id="SimpleJobBuilder" style="stroke: #225C4D; stroke-width: 2.5;" width="618.3333" x="10" y="563.3333"/><ellipse cx="226.25" cy="590" fill="#ADD1B2" rx="18.3333" ry="18.3333" style="stroke: #225C4D; stroke-width: 1.6666666666666667;"/><path d="M231.1979,599.401 Q230.2344,599.8958 229.1667,600.1302 Q228.099,600.3906 226.9271,600.3906 Q222.7604,600.3906 220.5469,597.6563 Q218.3594,594.8958 218.3594,589.6875 Q218.3594,584.4792 220.5469,581.7188 Q222.7604,578.9583 226.9271,578.9583 Q228.099,578.9583 229.1667,579.2188 Q230.2604,579.4792 231.1979,579.974 L231.1979,584.5052 Q230.1563,583.5417 229.1667,583.099 Q228.1771,582.6302 227.1354,582.6302 Q224.8958,582.6302 223.75,584.4271 Q222.6042,586.1979 222.6042,589.6875 Q222.6042,593.1771 223.75,594.974 Q224.8958,596.7448 227.1354,596.7448 Q228.1771,596.7448 229.1667,596.3021 Q230.1563,595.8333 231.1979,594.8698 L231.1979,599.401 Z "/><text fill="#000000" font-family="sans-serif" font-size="20" lengthAdjust="spacingAndGlyphs" textLength="171.6667" x="260.4167" y="596.9238">SimpleJobBuilder</text><line style="stroke: #225C4D; stroke-width: 2.5;" x1="11.6667" x2="626.6667" y1="616.6667" y2="616.6667"/><line style="stroke: #225C4D; stroke-width: 2.5;" x1="11.6667" x2="626.6667" y1="630" y2="630"/><text fill="#000000" font-family="sans-serif" font-size="18.3333" lengthAdjust="spacingAndGlyphs" textLength="476.6667" x="20" y="653.6841">split(taskExecutor: TaskExecutor): FlowJobBuilder&gt;</text><text fill="#000000" font-family="sans-serif" font-size="18.3333" lengthAdjust="spacingAndGlyphs" textLength="321.6667" x="20" y="675.0252">next(step: Step): SimpleJobBuilder</text><text fill="#000000" font-family="sans-serif" font-size="18.3333" lengthAdjust="spacingAndGlyphs" textLength="593.3333" x="20" y="696.3664">next(jobExecutionDecider: JobExecutionDecider): JobFlowBuilder</text><text fill="#000000" font-family="sans-serif" font-size="18.3333" lengthAdjust="spacingAndGlyphs" textLength="598.3333" x="20" y="717.7075">start(jobExecutionDecider: JobExecutionDecider): JobFlowBuilder</text><text fill="#000000" font-family="sans-serif" font-size="18.3333" lengthAdjust="spacingAndGlyphs" textLength="326.6667" x="20" y="739.0487">start(step: Step): SimpleJobBuilder</text><text fill="#000000" font-family="sans-serif" font-size="18.3333" lengthAdjust="spacingAndGlyphs" textLength="323.3333" x="20" y="760.3898">on(string: String): FlowJobBuilder&gt;</text><text fill="#000000" font-family="sans-serif" font-size="18.3333" lengthAdjust="spacingAndGlyphs" textLength="98.3333" x="20" y="781.731">build(): Job</text><!--MD5=[b6d7eb128d4a394a38a843ca3f5add57]
class FlowBuilder--><rect fill="#DDEEE8" filter="url(#f18r6wx88bx2lc)" height="357.4349" id="FlowBuilder" style="stroke: #225C4D; stroke-width: 2.5;" width="763.3333" x="1462.5" y="106.6667"/><ellipse cx="1768.75" cy="133.3333" fill="#ADD1B2" rx="18.3333" ry="18.3333" style="stroke: #225C4D; stroke-width: 1.6666666666666667;"/><path d="M1773.6979,142.7344 Q1772.7344,143.2292 1771.6667,143.4635 Q1770.599,143.724 1769.4271,143.724 Q1765.2604,143.724 1763.0469,140.9896 Q1760.8594,138.2292 1760.8594,133.0208 Q1760.8594,127.8125 1763.0469,125.0521 Q1765.2604,122.2917 1769.4271,122.2917 Q1770.599,122.2917 1771.6667,122.5521 Q1772.7604,122.8125 1773.6979,123.3073 L1773.6979,127.8385 Q1772.6563,126.875 1771.6667,126.4323 Q1770.6771,125.9635 1769.6354,125.9635 Q1767.3958,125.9635 1766.25,127.7604 Q1765.1042,129.5313 1765.1042,133.0208 Q1765.1042,136.5104 1766.25,138.3073 Q1767.3958,140.0781 1769.6354,140.0781 Q1770.6771,140.0781 1771.6667,139.6354 Q1772.6563,139.1667 1773.6979,138.2031 L1773.6979,142.7344 Z "/><text fill="#000000" font-family="sans-serif" font-size="20" lengthAdjust="spacingAndGlyphs" textLength="116.6667" x="1802.9167" y="140.2572">FlowBuilder</text><rect fill="#FFFFFF" height="26.6146" style="stroke: #000000; stroke-width: 1.6666666666666667; stroke-dasharray: 2.0,2.0;" width="16.6667" x="2214.1667" y="101.6667"/><text fill="#000000" font-family="sans-serif" font-size="20" font-style="italic" lengthAdjust="spacingAndGlyphs" textLength="13.3333" x="2215.8333" y="121.8978">Q</text><line style="stroke: #225C4D; stroke-width: 2.5;" x1="1464.1667" x2="2224.1667" y1="160" y2="160"/><line style="stroke: #225C4D; stroke-width: 2.5;" x1="1464.1667" x2="2224.1667" y1="173.3333" y2="173.3333"/><text fill="#000000" font-family="sans-serif" font-size="18.3333" lengthAdjust="spacingAndGlyphs" textLength="478.3333" x="1472.5" y="197.0174">split(taskExecutor: TaskExecutor): SplitBuilder&lt;Q&gt;</text><text fill="#000000" font-family="sans-serif" font-size="18.3333" lengthAdjust="spacingAndGlyphs" textLength="310" x="1472.5" y="218.3586">next(flow: Flow): FlowBuilder&lt;Q&gt;</text><text fill="#000000" font-family="sans-serif" font-size="18.3333" lengthAdjust="spacingAndGlyphs" textLength="738.3333" x="1472.5" y="239.6997">next(jobExecutionDecider: JobExecutionDecider): UnterminatedFlowBuilder&lt;Q&gt;</text><text fill="#000000" font-family="sans-serif" font-size="18.3333" lengthAdjust="spacingAndGlyphs" textLength="315" x="1472.5" y="261.0409">next(step: Step): FlowBuilder&lt;Q&gt;</text><text fill="#000000" font-family="sans-serif" font-size="18.3333" lengthAdjust="spacingAndGlyphs" textLength="315" x="1472.5" y="282.382">from(flow: Flow): FlowBuilder&lt;Q&gt;</text><text fill="#000000" font-family="sans-serif" font-size="18.3333" lengthAdjust="spacingAndGlyphs" textLength="743.3333" x="1472.5" y="303.7231">from(jobExecutionDecider: JobExecutionDecider): UnterminatedFlowBuilder&lt;Q&gt;</text><text fill="#000000" font-family="sans-serif" font-size="18.3333" lengthAdjust="spacingAndGlyphs" textLength="320" x="1472.5" y="325.0643">from(step: Step): FlowBuilder&lt;Q&gt;</text><text fill="#000000" font-family="sans-serif" font-size="18.3333" lengthAdjust="spacingAndGlyphs" textLength="75" x="1472.5" y="346.4054">end(): Q</text><text fill="#000000" font-family="sans-serif" font-size="18.3333" lengthAdjust="spacingAndGlyphs" textLength="320" x="1472.5" y="367.7466">start(step: Step): FlowBuilder&lt;Q&gt;</text><text fill="#000000" font-family="sans-serif" font-size="18.3333" lengthAdjust="spacingAndGlyphs" textLength="315" x="1472.5" y="389.0877">start(flow: Flow): FlowBuilder&lt;Q&gt;</text><text fill="#000000" font-family="sans-serif" font-size="18.3333" lengthAdjust="spacingAndGlyphs" textLength="743.3333" x="1472.5" y="410.4289">start(jobExecutionDecider: JobExecutionDecider): UnterminatedFlowBuilder&lt;Q&gt;</text><text fill="#000000" font-family="sans-serif" font-size="18.3333" lengthAdjust="spacingAndGlyphs" textLength="391.6667" x="1472.5" y="431.77">on(pattern: String): TransitionBuilder&lt;Q&gt;</text><text fill="#000000" font-family="sans-serif" font-size="18.3333" lengthAdjust="spacingAndGlyphs" textLength="85" x="1472.5" y="453.1112">build(): Q</text><!--MD5=[5dbce209ccf6ddcfdff495570cf8a066]
class SplitBuilder--><rect fill="#DDEEE8" filter="url(#f18r6wx88bx2lc)" height="101.3411" id="SplitBuilder" style="stroke: #225C4D; stroke-width: 2.5;" width="356.6667" x="2052.5" y="627.5"/><ellipse cx="2155.4167" cy="654.1667" fill="#ADD1B2" rx="18.3333" ry="18.3333" style="stroke: #225C4D; stroke-width: 1.6666666666666667;"/><path d="M2160.3646,663.5677 Q2159.401,664.0625 2158.3333,664.2969 Q2157.2656,664.5573 2156.0938,664.5573 Q2151.9271,664.5573 2149.7135,661.8229 Q2147.526,659.0625 2147.526,653.8542 Q2147.526,648.6458 2149.7135,645.8854 Q2151.9271,643.125 2156.0938,643.125 Q2157.2656,643.125 2158.3333,643.3854 Q2159.4271,643.6458 2160.3646,644.1406 L2160.3646,648.6719 Q2159.3229,647.7083 2158.3333,647.2656 Q2157.3438,646.7969 2156.3021,646.7969 Q2154.0625,646.7969 2152.9167,648.5938 Q2151.7708,650.3646 2151.7708,653.8542 Q2151.7708,657.3438 2152.9167,659.1406 Q2154.0625,660.9115 2156.3021,660.9115 Q2157.3438,660.9115 2158.3333,660.4688 Q2159.3229,660 2160.3646,659.0365 L2160.3646,663.5677 Z "/><text fill="#000000" font-family="sans-serif" font-size="20" lengthAdjust="spacingAndGlyphs" textLength="116.6667" x="2189.5833" y="661.0905">SplitBuilder</text><rect fill="#FFFFFF" height="26.6146" style="stroke: #000000; stroke-width: 1.6666666666666667; stroke-dasharray: 2.0,2.0;" width="16.6667" x="2397.5" y="622.5"/><text fill="#000000" font-family="sans-serif" font-size="20" font-style="italic" lengthAdjust="spacingAndGlyphs" textLength="13.3333" x="2399.1667" y="642.7311">Q</text><line style="stroke: #225C4D; stroke-width: 2.5;" x1="2054.1667" x2="2407.5" y1="680.8333" y2="680.8333"/><line style="stroke: #225C4D; stroke-width: 2.5;" x1="2054.1667" x2="2407.5" y1="694.1667" y2="694.1667"/><text fill="#000000" font-family="sans-serif" font-size="18.3333" lengthAdjust="spacingAndGlyphs" textLength="336.6667" x="2062.5" y="717.8507">add(flows: Flow...): FlowBuilder&lt;Q&gt;</text><!--MD5=[c9764cbceb8d7e7595b182454364c40a]
class TransitionBuilder--><rect fill="#DDEEE8" filter="url(#f18r6wx88bx2lc)" height="293.4115" id="TransitionBuilder" style="stroke: #225C4D; stroke-width: 2.5;" width="735" x="2293.3333" y="138.3333"/><ellipse cx="2556.25" cy="165" fill="#ADD1B2" rx="18.3333" ry="18.3333" style="stroke: #225C4D; stroke-width: 1.6666666666666667;"/><path d="M2561.1979,174.401 Q2560.2344,174.8958 2559.1667,175.1302 Q2558.099,175.3906 2556.9271,175.3906 Q2552.7604,175.3906 2550.5469,172.6563 Q2548.3594,169.8958 2548.3594,164.6875 Q2548.3594,159.4792 2550.5469,156.7188 Q2552.7604,153.9583 2556.9271,153.9583 Q2558.099,153.9583 2559.1667,154.2188 Q2560.2604,154.4792 2561.1979,154.974 L2561.1979,159.5052 Q2560.1563,158.5417 2559.1667,158.099 Q2558.1771,157.6302 2557.1354,157.6302 Q2554.8958,157.6302 2553.75,159.4271 Q2552.6042,161.1979 2552.6042,164.6875 Q2552.6042,168.1771 2553.75,169.974 Q2554.8958,171.7448 2557.1354,171.7448 Q2558.1771,171.7448 2559.1667,171.3021 Q2560.1563,170.8333 2561.1979,169.8698 L2561.1979,174.401 Z "/><text fill="#000000" font-family="sans-serif" font-size="20" lengthAdjust="spacingAndGlyphs" textLength="175" x="2590.4167" y="171.9238">TransitionBuilder</text><rect fill="#FFFFFF" height="26.6146" style="stroke: #000000; stroke-width: 1.6666666666666667; stroke-dasharray: 2.0,2.0;" width="16.6667" x="3016.6667" y="133.3333"/><text fill="#000000" font-family="sans-serif" font-size="20" font-style="italic" lengthAdjust="spacingAndGlyphs" textLength="13.3333" x="3018.3333" y="153.5645">Q</text><line style="stroke: #225C4D; stroke-width: 2.5;" x1="2295" x2="3026.6667" y1="191.6667" y2="191.6667"/><line style="stroke: #225C4D; stroke-width: 2.5;" x1="2295" x2="3026.6667" y1="205" y2="205"/><text fill="#000000" font-family="sans-serif" font-size="18.3333" lengthAdjust="spacingAndGlyphs" textLength="588.3333" x="2303.3333" y="228.6841">to(jobExecutionDecider: JobExecutionDecider): FlowBuilder&lt;Q&gt;</text><text fill="#000000" font-family="sans-serif" font-size="18.3333" lengthAdjust="spacingAndGlyphs" textLength="288.3333" x="2303.3333" y="250.0252">to(flow: Flow): FlowBuilder&lt;Q&gt;</text><text fill="#000000" font-family="sans-serif" font-size="18.3333" lengthAdjust="spacingAndGlyphs" textLength="293.3333" x="2303.3333" y="271.3664">to(step: Step): FlowBuilder&lt;Q&gt;</text><text fill="#000000" font-family="sans-serif" font-size="18.3333" lengthAdjust="spacingAndGlyphs" textLength="213.3333" x="2303.3333" y="292.7075">end(): FlowBuilder&lt;Q&gt;</text><text fill="#000000" font-family="sans-serif" font-size="18.3333" lengthAdjust="spacingAndGlyphs" textLength="341.6667" x="2303.3333" y="314.0487">end(status: String): FlowBuilder&lt;Q&gt;</text><text fill="#000000" font-family="sans-serif" font-size="18.3333" lengthAdjust="spacingAndGlyphs" textLength="220" x="2303.3333" y="335.3898">stop(): FlowBuilder&lt;Q&gt;</text><text fill="#000000" font-family="sans-serif" font-size="18.3333" lengthAdjust="spacingAndGlyphs" textLength="206.6667" x="2303.3333" y="356.731">fail(): FlowBuilder&lt;Q&gt;</text><text fill="#000000" font-family="sans-serif" font-size="18.3333" lengthAdjust="spacingAndGlyphs" textLength="415" x="2303.3333" y="378.0721">stopAndRestart(flow: Flow): FlowBuilder&lt;Q&gt;</text><text fill="#000000" font-family="sans-serif" font-size="18.3333" lengthAdjust="spacingAndGlyphs" textLength="420" x="2303.3333" y="399.4132">stopAndRestart(step: Step): FlowBuilder&lt;Q&gt;</text><text fill="#000000" font-family="sans-serif" font-size="18.3333" lengthAdjust="spacingAndGlyphs" textLength="715" x="2303.3333" y="420.7544">stopAndRestart(jobExecutionDecider: JobExecutionDecider): FlowBuilder&lt;Q&gt;</text><!--MD5=[0a92071a33f03927db30fff294a1be42]
class UnterminatedFlowBuilder--><rect fill="#DDEEE8" filter="url(#f18r6wx88bx2lc)" height="101.3411" id="UnterminatedFlowBuilder" style="stroke: #225C4D; stroke-width: 2.5;" width="411.6667" x="1573.3333" y="627.5"/><ellipse cx="1633.5833" cy="654.1667" fill="#ADD1B2" rx="18.3333" ry="18.3333" style="stroke: #225C4D; stroke-width: 1.6666666666666667;"/><path d="M1638.5313,663.5677 Q1637.5677,664.0625 1636.5,664.2969 Q1635.4323,664.5573 1634.2604,664.5573 Q1630.0938,664.5573 1627.8802,661.8229 Q1625.6927,659.0625 1625.6927,653.8542 Q1625.6927,648.6458 1627.8802,645.8854 Q1630.0938,643.125 1634.2604,643.125 Q1635.4323,643.125 1636.5,643.3854 Q1637.5938,643.6458 1638.5313,644.1406 L1638.5313,648.6719 Q1637.4896,647.7083 1636.5,647.2656 Q1635.5104,646.7969 1634.4688,646.7969 Q1632.2292,646.7969 1631.0833,648.5938 Q1629.9375,650.3646 1629.9375,653.8542 Q1629.9375,657.3438 1631.0833,659.1406 Q1632.2292,660.9115 1634.4688,660.9115 Q1635.5104,660.9115 1636.5,660.4688 Q1637.4896,660 1638.5313,659.0365 L1638.5313,663.5677 Z "/><text fill="#000000" font-family="sans-serif" font-size="20" lengthAdjust="spacingAndGlyphs" textLength="260" x="1664.75" y="661.0905">UnterminatedFlowBuilder</text><rect fill="#FFFFFF" height="26.6146" style="stroke: #000000; stroke-width: 1.6666666666666667; stroke-dasharray: 2.0,2.0;" width="16.6667" x="1973.3333" y="622.5"/><text fill="#000000" font-family="sans-serif" font-size="20" font-style="italic" lengthAdjust="spacingAndGlyphs" textLength="13.3333" x="1975" y="642.7311">Q</text><line style="stroke: #225C4D; stroke-width: 2.5;" x1="1575" x2="1983.3333" y1="680.8333" y2="680.8333"/><line style="stroke: #225C4D; stroke-width: 2.5;" x1="1575" x2="1983.3333" y1="694.1667" y2="694.1667"/><text fill="#000000" font-family="sans-serif" font-size="18.3333" lengthAdjust="spacingAndGlyphs" textLength="391.6667" x="1583.3333" y="717.8507">on(pattern: String): TransitionBuilder&lt;Q&gt;</text><!--MD5=[f7c65179a56b7488c624a42778bab0c5]
class JobFlowBuilder--><rect fill="#DDEEE8" filter="url(#f18r6wx88bx2lc)" height="122.6823" id="JobFlowBuilder" style="stroke: #225C4D; stroke-width: 2.5;" width="226.6667" x="824.1667" y="616.6667"/><ellipse cx="860.4167" cy="643.3333" fill="#ADD1B2" rx="18.3333" ry="18.3333" style="stroke: #225C4D; stroke-width: 1.6666666666666667;"/><path d="M865.3646,652.7344 Q864.401,653.2292 863.3333,653.4635 Q862.2656,653.724 861.0938,653.724 Q856.9271,653.724 854.7135,650.9896 Q852.526,648.2292 852.526,643.0208 Q852.526,637.8125 854.7135,635.0521 Q856.9271,632.2917 861.0938,632.2917 Q862.2656,632.2917 863.3333,632.5521 Q864.4271,632.8125 865.3646,633.3073 L865.3646,637.8385 Q864.3229,636.875 863.3333,636.4323 Q862.3438,635.9635 861.3021,635.9635 Q859.0625,635.9635 857.9167,637.7604 Q856.7708,639.5313 856.7708,643.0208 Q856.7708,646.5104 857.9167,648.3073 Q859.0625,650.0781 861.3021,650.0781 Q862.3438,650.0781 863.3333,649.6354 Q864.3229,649.1667 865.3646,648.2031 L865.3646,652.7344 Z "/><text fill="#000000" font-family="sans-serif" font-size="20" lengthAdjust="spacingAndGlyphs" textLength="148.3333" x="886.25" y="650.2572">JobFlowBuilder</text><line style="stroke: #225C4D; stroke-width: 2.5;" x1="825.8333" x2="1049.1667" y1="670" y2="670"/><line style="stroke: #225C4D; stroke-width: 2.5;" x1="825.8333" x2="1049.1667" y1="683.3333" y2="683.3333"/><text fill="#000000" font-family="sans-serif" font-size="18.3333" lengthAdjust="spacingAndGlyphs" textLength="130" x="834.1667" y="707.0174">build(): Object</text><text fill="#000000" font-family="sans-serif" font-size="18.3333" lengthAdjust="spacingAndGlyphs" textLength="206.6667" x="834.1667" y="728.3586">build(): FlowJobBuilder</text><!--MD5=[741f36c542f6b1f526aafba4c294e416]
class FlowJobBuilder--><rect fill="#DDEEE8" filter="url(#f18r6wx88bx2lc)" height="144.0234" id="FlowJobBuilder" style="stroke: #225C4D; stroke-width: 2.5;" width="323.3333" x="1117.5" y="606.6667"/><ellipse cx="1197.9167" cy="633.3333" fill="#ADD1B2" rx="18.3333" ry="18.3333" style="stroke: #225C4D; stroke-width: 1.6666666666666667;"/><path d="M1202.8646,642.7344 Q1201.901,643.2292 1200.8333,643.4635 Q1199.7656,643.724 1198.5938,643.724 Q1194.4271,643.724 1192.2135,640.9896 Q1190.026,638.2292 1190.026,633.0208 Q1190.026,627.8125 1192.2135,625.0521 Q1194.4271,622.2917 1198.5938,622.2917 Q1199.7656,622.2917 1200.8333,622.5521 Q1201.9271,622.8125 1202.8646,623.3073 L1202.8646,627.8385 Q1201.8229,626.875 1200.8333,626.4323 Q1199.8438,625.9635 1198.8021,625.9635 Q1196.5625,625.9635 1195.4167,627.7604 Q1194.2708,629.5313 1194.2708,633.0208 Q1194.2708,636.5104 1195.4167,638.3073 Q1196.5625,640.0781 1198.8021,640.0781 Q1199.8438,640.0781 1200.8333,639.6354 Q1201.8229,639.1667 1202.8646,638.2031 L1202.8646,642.7344 Z "/><text fill="#000000" font-family="sans-serif" font-size="20" lengthAdjust="spacingAndGlyphs" textLength="148.3333" x="1232.0833" y="640.2572">FlowJobBuilder</text><line style="stroke: #225C4D; stroke-width: 2.5;" x1="1119.1667" x2="1439.1667" y1="660" y2="660"/><line style="stroke: #225C4D; stroke-width: 2.5;" x1="1119.1667" x2="1439.1667" y1="673.3333" y2="673.3333"/><text fill="#000000" font-family="sans-serif" font-size="18.3333" lengthAdjust="spacingAndGlyphs" textLength="303.3333" x="1127.5" y="697.0174">start(step: Step): JobFlowBuilder</text><text fill="#000000" font-family="sans-serif" font-size="18.3333" lengthAdjust="spacingAndGlyphs" textLength="298.3333" x="1127.5" y="718.3586">start(flow: Flow): JobFlowBuilder</text><text fill="#000000" font-family="sans-serif" font-size="18.3333" lengthAdjust="spacingAndGlyphs" textLength="98.3333" x="1127.5" y="739.6997">build(): Job</text><!--MD5=[4a4e4d828193f2fd867ebe8446fa2a90]
class JobExecutionDecider--><rect fill="#DDEEE8" filter="url(#f18r6wx88bx2lc)" height="101.3411" id="JobExecutionDecider" style="stroke: #225C4D; stroke-width: 2.5;" width="836.6667" x="559.1667" y="234.1667"/><ellipse cx="867.0833" cy="260.8333" fill="#B4A7E5" rx="18.3333" ry="18.3333" style="stroke: #225C4D; stroke-width: 1.6666666666666667;"/><path d="M860.2865,253.776 L860.2865,250.1823 L872.6042,250.1823 L872.6042,253.776 L868.4896,253.776 L868.4896,267.2396 L872.6042,267.2396 L872.6042,270.8333 L860.2865,270.8333 L860.2865,267.2396 L864.401,267.2396 L864.401,253.776 L860.2865,253.776 Z "/><text fill="#000000" font-family="sans-serif" font-size="20" font-style="italic" lengthAdjust="spacingAndGlyphs" textLength="206.6667" x="901.25" y="267.7572">JobExecutionDecider</text><line style="stroke: #225C4D; stroke-width: 2.5;" x1="560.8333" x2="1394.1667" y1="287.5" y2="287.5"/><line style="stroke: #225C4D; stroke-width: 2.5;" x1="560.8333" x2="1394.1667" y1="300.8333" y2="300.8333"/><text fill="#000000" font-family="sans-serif" font-size="18.3333" lengthAdjust="spacingAndGlyphs" textLength="816.6667" x="569.1667" y="324.5174">decide(jobExecution: JobExecution, stepExecution: StepExecution): FlowExecutionStatus</text><!--MD5=[f2153fe23e4916abca19098a58946954]
link FlowBuilder to TransitionBuilder--><path d="M2226.1833,285 C2245.75,285 2265.3,285 2284.8667,285 " fill="none" id="FlowBuilder-&gt;TransitionBuilder" style="stroke: #225C4D; stroke-width: 1.6666666666666667; stroke-dasharray: 7.0,7.0;"/><polygon fill="#225C4D" points="2293.25,285,2278.25,278.3333,2284.9167,285,2278.25,291.6667,2293.25,285" style="stroke: #225C4D; stroke-width: 1.6666666666666667;"/><!--MD5=[2bd50b286b9e4eb66cdf47fd996f461b]
link FlowBuilder to UnterminatedFlowBuilder--><path d="M1814.7167,463.4167 C1805.4,519.3 1795.75,577.2 1788.85,618.5333 " fill="none" id="FlowBuilder-&gt;UnterminatedFlowBuilder" style="stroke: #225C4D; stroke-width: 1.6666666666666667; stroke-dasharray: 7.0,7.0;"/><polygon fill="#225C4D" points="1787.4333,627.1,1796.4946,613.4128,1788.8149,618.882,1783.3458,611.2023,1787.4333,627.1" style="stroke: #225C4D; stroke-width: 1.6666666666666667;"/><!--MD5=[43cf96e6fb3f4fd7e452dc7add8b73b5]
link FlowBuilder to SplitBuilder--><path d="M2019.4,463.4167 C2075.9667,520.4667 2134.6167,579.6167 2175.75,621.1167 " fill="none" id="FlowBuilder-&gt;SplitBuilder" style="stroke: #225C4D; stroke-width: 1.6666666666666667; stroke-dasharray: 7.0,7.0;"/><polygon fill="#225C4D" points="2181.6833,627.1,2175.8837,611.7439,2175.8266,621.1718,2166.3987,621.1147,2181.6833,627.1" style="stroke: #225C4D; stroke-width: 1.6666666666666667;"/><!--MD5=[347882f89c03260ce413c9e8f989364b]
link JobBuilder to SimpleJobBuilder--><path d="M319.1667,356.8333 C319.1667,411.6167 319.1667,489.0667 319.1667,554.0333 " fill="none" id="JobBuilder-&gt;SimpleJobBuilder" style="stroke: #225C4D; stroke-width: 1.6666666666666667; stroke-dasharray: 7.0,7.0;"/><polygon fill="#225C4D" points="319.1667,562.7,325.8333,547.7,319.1667,554.3667,312.5,547.7,319.1667,562.7" style="stroke: #225C4D; stroke-width: 1.6666666666666667;"/><!--MD5=[ab3280480f4d917bdb5a3df6584b42ad]
link JobBuilder to JobFlowBuilder--><path d="M392.8667,356.9167 C430.9,391.2333 479.05,431.8167 525.8333,463.3333 C618.4833,525.7333 731.6667,583.1667 815.8833,622.6833 " fill="none" id="JobBuilder-&gt;JobFlowBuilder" style="stroke: #225C4D; stroke-width: 1.6666666666666667; stroke-dasharray: 7.0,7.0;"/><polygon fill="#225C4D" points="823.9333,626.45,813.162,614.0636,816.3824,622.9247,807.5214,626.1451,823.9333,626.45" style="stroke: #225C4D; stroke-width: 1.6666666666666667;"/><!--MD5=[992de7e4f1dfadda9dfb65f881220cb7]
reverse link FlowBuilder to JobFlowBuilder--><path d="M1430.7,462.7833 C1430.1833,462.9667 1429.6833,463.15 1429.1667,463.3333 C1278.7833,516.9167 1226.5,491.0333 1084.1667,563.3333 C1056.3333,577.4667 1028.5333,597.1667 1004.75,616.1833 " fill="none" id="FlowBuilder&lt;-JobFlowBuilder" style="stroke: #225C4D; stroke-width: 1.6666666666666667;"/><polygon fill="none" points="1426.8167,451.7833,1462.1333,451.3167,1434.8167,473.7,1426.8167,451.7833" style="stroke: #225C4D; stroke-width: 1.6666666666666667;"/><!--MD5=[3be905d45fd33fa5dffc56da3b707d19]
link JobFlowBuilder to FlowJobBuilder--><path d="M1050.95,678.3333 C1070.15,678.3333 1089.3333,678.3333 1108.5333,678.3333 " fill="none" id="JobFlowBuilder-&gt;FlowJobBuilder" style="stroke: #225C4D; stroke-width: 1.6666666666666667; stroke-dasharray: 7.0,7.0;"/><polygon fill="#225C4D" points="1117.3667,678.3333,1102.3667,671.6667,1109.0333,678.3333,1102.3667,685,1117.3667,678.3333" style="stroke: #225C4D; stroke-width: 1.6666666666666667;"/><!--MD5=[32eb9e3a7c2b72e93d1a8200f93fa595]
link JobBuilder to FlowBuilder--><!--MD5=[486c7be9df5fd17ea157bde3df3b74d3]
reverse link JobExecutionDecider to FlowBuilder--><path d="M1404.8,285 C1423.9,285 1443,285 1462.1,285 " fill="none" id="JobExecutionDecider&lt;-FlowBuilder" style="stroke: #225C4D; stroke-width: 1.6666666666666667; stroke-dasharray: 7.0,7.0;"/><polygon fill="#225C4D" points="1396.0167,285,1411.0167,291.6667,1404.35,285,1411.0167,278.3333,1396.0167,285" style="stroke: #225C4D; stroke-width: 1.6666666666666667;"/><!--MD5=[43e8cfbf753544dd945f93a8cdf78d8d]
@startuml
skinparam class {
 BackgroundColor #DDEEE8
 BorderColor #225C4D
 ArrowColor #225C4D
 }
scale 5/3
skinparam nodesep 40

class JobBuilder {
    start(flow: Flow): JobFlowBuilder
    start(step: Step): SimpleJobBuilder
    flow(step: Step): JobFlowBuilder
}
class SimpleJobBuilder {
    split(taskExecutor: TaskExecutor): FlowJobBuilder>
    next(step: Step): SimpleJobBuilder
    next(jobExecutionDecider: JobExecutionDecider): JobFlowBuilder
    start(jobExecutionDecider: JobExecutionDecider): JobFlowBuilder
    start(step: Step): SimpleJobBuilder
    on(string: String): FlowJobBuilder>
    build(): Job
}
class FlowBuilder<Q> {
    split(taskExecutor: TaskExecutor): SplitBuilder<Q>
    next(flow: Flow): FlowBuilder<Q>
    next(jobExecutionDecider: JobExecutionDecider): UnterminatedFlowBuilder<Q>
    next(step: Step): FlowBuilder<Q>
    from(flow: Flow): FlowBuilder<Q>
    from(jobExecutionDecider: JobExecutionDecider): UnterminatedFlowBuilder<Q>
    from(step: Step): FlowBuilder<Q>
    end(): Q
    start(step: Step): FlowBuilder<Q>
    start(flow: Flow): FlowBuilder<Q>
    start(jobExecutionDecider: JobExecutionDecider): UnterminatedFlowBuilder<Q>
    on(pattern: String): TransitionBuilder<Q>
    build(): Q
}
class SplitBuilder<Q> {
    add(flows: Flow...): FlowBuilder<Q>
}

class TransitionBuilder<Q> {
    to(jobExecutionDecider: JobExecutionDecider): FlowBuilder<Q>
    to(flow: Flow): FlowBuilder<Q>
    to(step: Step): FlowBuilder<Q>
    end(): FlowBuilder<Q>
    end(status: String): FlowBuilder<Q>
    stop(): FlowBuilder<Q>
    fail(): FlowBuilder<Q>
    stopAndRestart(flow: Flow): FlowBuilder<Q>
    stopAndRestart(step: Step): FlowBuilder<Q>
    stopAndRestart(jobExecutionDecider: JobExecutionDecider): FlowBuilder<Q>
}

class UnterminatedFlowBuilder<Q> {
    on(pattern: String): TransitionBuilder<Q>
}

FlowBuilder .> TransitionBuilder
FlowBuilder ..> UnterminatedFlowBuilder
FlowBuilder ..> SplitBuilder

class JobFlowBuilder {
    build(): Object
    build(): FlowJobBuilder
}
class FlowJobBuilder {
    start(step: Step): JobFlowBuilder
    start(flow: Flow): JobFlowBuilder
    build(): Job
}

JobBuilder ..> SimpleJobBuilder
JobBuilder ..> JobFlowBuilder
FlowBuilder <|- - JobFlowBuilder
JobFlowBuilder .> FlowJobBuilder
JobBuilder -[hidden]> FlowBuilder

interface JobExecutionDecider {
    decide(jobExecution: JobExecution, stepExecution: StepExecution): FlowExecutionStatus
}

JobExecutionDecider <. FlowBuilder
@enduml

PlantUML version 1.2019.12(Sun Nov 03 11:24:54 CET 2019)
(APACHE source distribution)
Java Runtime: OpenJDK Runtime Environment
JVM: OpenJDK 64-Bit Server VM
Java Version: 17.0.6+10-Debian-1deb11u1
Operating System: Linux
Default Encoding: UTF-8
Language: en
Country: DK
--></g></svg>