<?xml version="1.0" encoding="UTF-8" standalone="no"?><svg xmlns="http://www.w3.org/2000/svg" xmlns:xlink="http://www.w3.org/1999/xlink" contentScriptType="application/ecmascript" contentStyleType="text/css" height="374px" preserveAspectRatio="none" style="width:1008px;height:374px;" version="1.1" viewBox="0 0 1008 374" width="1008px" zoomAndPan="magnify"><defs><filter height="300%" id="f1qgto2g33riaa" width="300%" x="-1" y="-1"><feGaussianBlur result="blurOut" stdDeviation="4.0"/><feColorMatrix in="blurOut" result="blurOut2" type="matrix" values="0 0 0 0 0 0 0 0 0 0 0 0 0 0 0 0 0 0 .4 0"/><feOffset dx="8.0" dy="8.0" in="blurOut2" result="blurOut3"/><feBlend in="SourceGraphic" in2="blurOut3" mode="normal"/></filter></defs><g><!--MD5=[b8e0354e0f3f5cbf52553869b78c0afa]
class Job--><rect fill="#DDEEE8" filter="url(#f1qgto2g33riaa)" height="96" id="Job" style="stroke: #225C4D; stroke-width: 3.0;" width="102" x="136" y="16"/><ellipse cx="166" cy="48" fill="#B4A7E5" rx="22" ry="22" style="stroke: #225C4D; stroke-width: 2.0;"/><path d="M157.8438,39.5313 L157.8438,35.2188 L172.625,35.2188 L172.625,39.5313 L167.6875,39.5313 L167.6875,55.6875 L172.625,55.6875 L172.625,60 L157.8438,60 L157.8438,55.6875 L162.7813,55.6875 L162.7813,39.5313 L157.8438,39.5313 Z "/><text fill="#000000" font-family="sans-serif" font-size="24" font-style="italic" lengthAdjust="spacingAndGlyphs" textLength="38" x="194" y="56.3086">Job</text><line style="stroke: #225C4D; stroke-width: 3.0;" x1="138" x2="236" y1="80" y2="80"/><line style="stroke: #225C4D; stroke-width: 3.0;" x1="138" x2="236" y1="96" y2="96"/><!--MD5=[5a2ba6e4c7f78036fecb159f353da9e9]
class Step--><rect fill="#DDEEE8" filter="url(#f1qgto2g33riaa)" height="96" id="Step" style="stroke: #225C4D; stroke-width: 3.0;" width="120" x="439" y="16"/><ellipse cx="469" cy="48" fill="#B4A7E5" rx="22" ry="22" style="stroke: #225C4D; stroke-width: 2.0;"/><path d="M460.8438,39.5313 L460.8438,35.2188 L475.625,35.2188 L475.625,39.5313 L470.6875,39.5313 L470.6875,55.6875 L475.625,55.6875 L475.625,60 L460.8438,60 L460.8438,55.6875 L465.7813,55.6875 L465.7813,39.5313 L460.8438,39.5313 Z "/><text fill="#000000" font-family="sans-serif" font-size="24" font-style="italic" lengthAdjust="spacingAndGlyphs" textLength="56" x="497" y="56.3086">Step</text><line style="stroke: #225C4D; stroke-width: 3.0;" x1="441" x2="557" y1="80" y2="80"/><line style="stroke: #225C4D; stroke-width: 3.0;" x1="441" x2="557" y1="96" y2="96"/><!--MD5=[7fa27d7515fd28ae64a1c743985a4c75]
class Tasklet--><rect fill="#DDEEE8" filter="url(#f1qgto2g33riaa)" height="121.6094" id="Tasklet" style="stroke: #225C4D; stroke-width: 3.0;" width="974" x="12" y="232"/><ellipse cx="448.5" cy="264" fill="#B4A7E5" rx="22" ry="22" style="stroke: #225C4D; stroke-width: 2.0;"/><path d="M440.3438,255.5313 L440.3438,251.2188 L455.125,251.2188 L455.125,255.5313 L450.1875,255.5313 L450.1875,271.6875 L455.125,271.6875 L455.125,276 L440.3438,276 L440.3438,271.6875 L445.2813,271.6875 L445.2813,255.5313 L440.3438,255.5313 Z "/><text fill="#000000" font-family="sans-serif" font-size="24" font-style="italic" lengthAdjust="spacingAndGlyphs" textLength="84" x="489.5" y="272.3086">Tasklet</text><line style="stroke: #225C4D; stroke-width: 3.0;" x1="14" x2="984" y1="296" y2="296"/><line style="stroke: #225C4D; stroke-width: 3.0;" x1="14" x2="984" y1="312" y2="312"/><text fill="#000000" font-family="sans-serif" font-size="22" lengthAdjust="spacingAndGlyphs" textLength="950" x="24" y="340.4209">execute(contribution: StepContribution, chunkContext: ChunkContext ): RepeatStatus</text><!--MD5=[3d04ee141151ff04cbffcf04055f22a9]
link Job to Step--><path d="M238.18,64 C301.7,64 365.2,64 428.7,64 " fill="none" id="Job-&gt;Step" style="stroke: #225C4D; stroke-width: 2.0;"/><polygon fill="#225C4D" points="438.9,64,420.9,56,428.9,64,420.9,72,438.9,64" style="stroke: #225C4D; stroke-width: 2.0;"/><text fill="#000000" font-family="sans-serif" font-size="26" lengthAdjust="spacingAndGlyphs" textLength="48" x="374.8684" y="55.2997">1..n</text><!--MD5=[563745b78ff1ce928bb791f4b5d58771]
link Step to Tasklet--><path d="M499,112.08 C499,143.3 499,185.16 499,220.54 " fill="none" id="Step-&gt;Tasklet" style="stroke: #225C4D; stroke-width: 2.0;"/><polygon fill="#225C4D" points="499,231.3,507,213.3,499,221.3,491,213.3,499,231.3" style="stroke: #225C4D; stroke-width: 2.0;"/><text fill="#000000" font-family="sans-serif" font-size="26" lengthAdjust="spacingAndGlyphs" textLength="16" x="481.35" y="209.6821">1</text><!--MD5=[8bf6ceb6c2eee6fa3e9f016cfafef7d8]
@startuml
skinparam class {
 BackgroundColor #DDEEE8
 BorderColor #225C4D
 ArrowColor #225C4D
 }
scale 2
skinparam nodesep 100

interface Job
interface Step
interface Tasklet {
    execute(contribution: StepContribution, chunkContext: ChunkContext ): RepeatStatus
}

Job -> "1..n" Step
Step - -> "1" Tasklet
@enduml

PlantUML version 1.2019.12(Sun Nov 03 11:24:54 CET 2019)
(APACHE source distribution)
Java Runtime: OpenJDK Runtime Environment
JVM: OpenJDK 64-Bit Server VM
Java Version: 17.0.6+10-Debian-1deb11u1
Operating System: Linux
Default Encoding: UTF-8
Language: en
Country: DK
--></g></svg>