<?xml version="1.0" encoding="UTF-8" standalone="no"?><svg xmlns="http://www.w3.org/2000/svg" xmlns:xlink="http://www.w3.org/1999/xlink" contentScriptType="application/ecmascript" contentStyleType="text/css" height="586px" preserveAspectRatio="none" style="width:1524px;height:586px;" version="1.1" viewBox="0 0 1524 586" width="1524px" zoomAndPan="magnify"><defs><filter height="300%" id="ftzo70w0k5zdm" width="300%" x="-1" y="-1"><feGaussianBlur result="blurOut" stdDeviation="4.0"/><feColorMatrix in="blurOut" result="blurOut2" type="matrix" values="0 0 0 0 0 0 0 0 0 0 0 0 0 0 0 0 0 0 .4 0"/><feOffset dx="8.0" dy="8.0" in="blurOut2" result="blurOut3"/><feBlend in="SourceGraphic" in2="blurOut3" mode="normal"/></filter></defs><g><ellipse cx="32" cy="56" fill="#000000" filter="url(#ftzo70w0k5zdm)" rx="20" ry="20" style="stroke: none; stroke-width: 2.0;"/><rect fill="#FEFECE" filter="url(#ftzo70w0k5zdm)" height="80" rx="25" ry="25" style="stroke: #A80036; stroke-width: 3.0;" width="258" x="123" y="16"/><text fill="#000000" font-family="sans-serif" font-size="28" lengthAdjust="spacingAndGlyphs" textLength="238" x="133" y="65.6934">JobBuilderFactory</text><rect fill="#FEFECE" filter="url(#ftzo70w0k5zdm)" height="80" rx="25" ry="25" style="stroke: #A80036; stroke-width: 3.0;" width="158" x="497" y="16"/><text fill="#000000" font-family="sans-serif" font-size="28" lengthAdjust="spacingAndGlyphs" textLength="138" x="507" y="65.6934">JobBuilder</text><rect fill="#FEFECE" filter="url(#ftzo70w0k5zdm)" height="80" rx="25" ry="25" style="stroke: #A80036; stroke-width: 3.0;" width="250" x="869" y="16"/><text fill="#000000" font-family="sans-serif" font-size="28" lengthAdjust="spacingAndGlyphs" textLength="230" x="879" y="65.6934">SimpleJobBuilder</text><rect fill="#FEFECE" filter="url(#ftzo70w0k5zdm)" height="80" rx="25" ry="25" style="stroke: #A80036; stroke-width: 3.0;" width="220" x="526" y="250"/><text fill="#000000" font-family="sans-serif" font-size="28" lengthAdjust="spacingAndGlyphs" textLength="200" x="536" y="299.6934">JobFlowBuilder</text><path d="M152,265 L152,315.2656 A0,0 0 0 0 152,315.2656 L456,315.2656 A0,0 0 0 0 456,315.2656 L456,301 L525.84,290 L456,285 L456,285 L436,265 L152,265 A0,0 0 0 0 152,265 " fill="#FBFB77" filter="url(#ftzo70w0k5zdm)" style="stroke: #A80036; stroke-width: 2.0;"/><path d="M436,265 L436,285 L456,285 L436,265 " fill="#FBFB77" style="stroke: #A80036; stroke-width: 2.0;"/><text fill="#000000" font-family="sans-serif" font-size="26" lengthAdjust="spacingAndGlyphs" textLength="262" x="164" y="299.1338">Erweitert FlowBuilder</text><rect fill="#FEFECE" filter="url(#ftzo70w0k5zdm)" height="80" rx="25" ry="25" style="stroke: #A80036; stroke-width: 3.0;" width="100" x="1048" y="484"/><text fill="#000000" font-family="sans-serif" font-size="28" lengthAdjust="spacingAndGlyphs" textLength="42" x="1077" y="533.6934">Job</text><rect fill="#FEFECE" filter="url(#ftzo70w0k5zdm)" height="80" rx="25" ry="25" style="stroke: #A80036; stroke-width: 3.0;" width="220" x="646" y="484"/><text fill="#000000" font-family="sans-serif" font-size="28" lengthAdjust="spacingAndGlyphs" textLength="200" x="656" y="533.6934">FlowJobBuilder</text><ellipse cx="1238" cy="524" fill="none" filter="url(#ftzo70w0k5zdm)" rx="20" ry="20" style="stroke: #000000; stroke-width: 2.0;"/><ellipse cx="1239" cy="525" fill="#000000" rx="12" ry="12" style="stroke: none; stroke-width: 2.0;"/><!--MD5=[e7c54c77dea952d56a40006f817c8ac8]
link *start to JobBuilderFactory--><path d="M52.62,56 C72.52,56 92.42,56 112.32,56 " fill="none" id="*start-&gt;JobBuilderFactory" style="stroke: #225C4D; stroke-width: 2.0;"/><polygon fill="#225C4D" points="122.72,56,104.72,48,112.72,56,104.72,64,122.72,56" style="stroke: #225C4D; stroke-width: 2.0;"/><!--MD5=[3c871e8589fa9ea2c2d20c9fea8fbe2a]
link JobBuilderFactory to JobBuilder--><path d="M381.92,56 C416.72,56 453.56,56 485.7,56 " fill="none" id="JobBuilderFactory-&gt;JobBuilder" style="stroke: #225C4D; stroke-width: 2.0;"/><polygon fill="#225C4D" points="496.42,56,478.42,48,486.42,56,478.42,64,496.42,56" style="stroke: #225C4D; stroke-width: 2.0;"/><text fill="#000000" font-family="sans-serif" font-size="26" lengthAdjust="spacingAndGlyphs" textLength="42" x="418" y="42.1338">get</text><!--MD5=[347882f89c03260ce413c9e8f989364b]
link JobBuilder to SimpleJobBuilder--><path d="M655.6,56 C712.72,56 791.08,56 858.02,56 " fill="none" id="JobBuilder-&gt;SimpleJobBuilder" style="stroke: #225C4D; stroke-width: 2.0;"/><polygon fill="#225C4D" points="868.66,56,850.66,48,858.66,56,850.66,64,868.66,56" style="stroke: #225C4D; stroke-width: 2.0;"/><text fill="#000000" font-family="sans-serif" font-size="26" lengthAdjust="spacingAndGlyphs" textLength="140" x="692" y="42.1338">start(Step)</text><!--MD5=[ab3280480f4d917bdb5a3df6584b42ad]
link JobBuilder to JobFlowBuilder--><path d="M496.6,91.72 C451.92,115.86 409.52,150.92 434,190 C452.84,220.08 483.84,241.16 515.98,255.84 " fill="none" id="JobBuilder-&gt;JobFlowBuilder" style="stroke: #225C4D; stroke-width: 2.0;"/><polygon fill="#225C4D" points="525.96,260.2,512.6591,245.6712,516.7938,256.2023,506.2628,260.3371,525.96,260.2" style="stroke: #225C4D; stroke-width: 2.0;"/><text fill="#000000" font-family="sans-serif" font-size="26" lengthAdjust="spacingAndGlyphs" textLength="134" x="436" y="182.1338">start(Flow)</text><!--MD5=[ab3280480f4d917bdb5a3df6584b42ad]
link JobBuilder to JobFlowBuilder--><path d="M586.04,96.5 C596.3,135.8 612.24,196.92 623.36,239.52 " fill="none" id="JobBuilder-&gt;JobFlowBuilder-1" style="stroke: #225C4D; stroke-width: 2.0;"/><polygon fill="#225C4D" points="625.92,249.38,629.1267,229.9451,623.4004,239.7026,613.6429,233.9763,625.92,249.38" style="stroke: #225C4D; stroke-width: 2.0;"/><text fill="#000000" font-family="sans-serif" font-size="26" lengthAdjust="spacingAndGlyphs" textLength="128" x="612" y="182.1338">flow(Step)</text><!--MD5=[4dcd6647c402eeed9efa8586f631aacd]
link SimpleJobBuilder to SimpleJobBuilder--><path d="M1119.66,45.14 C1158.5,45.36 1189,48.98 1189,56 C1189,62.36 1163.96,65.94 1130.34,66.72 " fill="none" id="SimpleJobBuilder-&gt;SimpleJobBuilder" style="stroke: #225C4D; stroke-width: 2.0;"/><polygon fill="#225C4D" points="1119.66,66.86,1137.7724,74.6021,1129.659,66.7172,1137.5439,58.6037,1119.66,66.86" style="stroke: #225C4D; stroke-width: 2.0;"/><text fill="#000000" font-family="sans-serif" font-size="26" lengthAdjust="spacingAndGlyphs" textLength="140" x="1201" y="65.1338">start(Step)</text><!--MD5=[4dcd6647c402eeed9efa8586f631aacd]
link SimpleJobBuilder to SimpleJobBuilder--><path d="M1119.18,37.12 C1227.24,29.94 1353,36.24 1353,56 C1353,75.14 1234.98,81.66 1129.36,75.52 " fill="none" id="SimpleJobBuilder-&gt;SimpleJobBuilder-1" style="stroke: #225C4D; stroke-width: 2.0;"/><polygon fill="#225C4D" points="1119.18,74.88,1136.6685,83.9437,1129.162,75.4789,1137.6268,67.9724,1119.18,74.88" style="stroke: #225C4D; stroke-width: 2.0;"/><text fill="#000000" font-family="sans-serif" font-size="26" lengthAdjust="spacingAndGlyphs" textLength="136" x="1365" y="65.1338">next(Step)</text><!--MD5=[ae52daa6c44c571fa1b07e03f3101911]
link SimpleJobBuilder to JobFlowBuilder--><path d="M934.08,96.5 C870.64,137.26 770.7,201.46 704.26,244.14 " fill="none" id="SimpleJobBuilder-&gt;JobFlowBuilder" style="stroke: #225C4D; stroke-width: 2.0;"/><polygon fill="#225C4D" points="695.52,249.76,714.9873,246.7558,703.9318,244.3524,706.3352,233.2969,695.52,249.76" style="stroke: #225C4D; stroke-width: 2.0;"/><text fill="#000000" font-family="sans-serif" font-size="26" lengthAdjust="spacingAndGlyphs" textLength="134" x="838" y="182.1338">start(Flow)</text><!--MD5=[8ace2758da9711018bb13ab5707218ab]
link SimpleJobBuilder to Job--><path d="M1002.68,96.76 C1021.58,181.08 1066.38,380.96 1087.12,473.46 " fill="none" id="SimpleJobBuilder-&gt;Job" style="stroke: #225C4D; stroke-width: 2.0;"/><polygon fill="#225C4D" points="1089.4,483.68,1093.3047,464.3732,1087.2307,473.9181,1077.6858,467.8441,1089.4,483.68" style="stroke: #225C4D; stroke-width: 2.0;"/><text fill="#000000" font-family="sans-serif" font-size="26" lengthAdjust="spacingAndGlyphs" textLength="60" x="1056" y="299.1338">build</text><!--MD5=[8c4a1d60363d382103f1afcf270d72e3]
link JobFlowBuilder to JobFlowBuilder--><path d="M746.74,279.12 C785.06,279.02 816,282.64 816,290 C816,296.68 790.58,300.28 757.3,300.8 " fill="none" id="JobFlowBuilder-&gt;JobFlowBuilder" style="stroke: #225C4D; stroke-width: 2.0;"/><polygon fill="#225C4D" points="746.74,300.88,764.7854,308.777,756.7398,300.8229,764.694,292.7773,746.74,300.88" style="stroke: #225C4D; stroke-width: 2.0;"/><text fill="#000000" font-family="sans-serif" font-size="26" lengthAdjust="spacingAndGlyphs" textLength="60" x="828" y="299.1338">start</text><!--MD5=[8c4a1d60363d382103f1afcf270d72e3]
link JobFlowBuilder to JobFlowBuilder--><path d="M746.52,270.26 C823.12,264.5 900,271.08 900,290 C900,308.04 830.16,314.86 757.28,310.46 " fill="none" id="JobFlowBuilder-&gt;JobFlowBuilder-1" style="stroke: #225C4D; stroke-width: 2.0;"/><polygon fill="#225C4D" points="746.52,309.74,763.9287,318.9561,756.4964,310.4261,765.0264,302.9938,746.52,309.74" style="stroke: #225C4D; stroke-width: 2.0;"/><text fill="#000000" font-family="sans-serif" font-size="26" lengthAdjust="spacingAndGlyphs" textLength="56" x="912" y="299.1338">next</text><!--MD5=[3be905d45fd33fa5dffc56da3b707d19]
link JobFlowBuilder to FlowJobBuilder--><path d="M656.08,330.5 C676.68,369.96 708.76,431.44 730.98,474.06 " fill="none" id="JobFlowBuilder-&gt;FlowJobBuilder" style="stroke: #225C4D; stroke-width: 2.0;"/><polygon fill="#225C4D" points="735.84,483.38,734.5935,463.7218,731.2085,474.5172,720.413,471.1322,735.84,483.38" style="stroke: #225C4D; stroke-width: 2.0;"/><text fill="#000000" font-family="sans-serif" font-size="26" lengthAdjust="spacingAndGlyphs" textLength="48" x="704" y="416.1338">end</text><!--MD5=[e6efca78777b5ffd8f588e86c97f1202]
link FlowJobBuilder to Job--><path d="M866.1,524 C922.74,524 989.62,524 1036.98,524 " fill="none" id="FlowJobBuilder-&gt;Job" style="stroke: #225C4D; stroke-width: 2.0;"/><polygon fill="#225C4D" points="1047.38,524,1029.38,516,1037.38,524,1029.38,532,1047.38,524" style="stroke: #225C4D; stroke-width: 2.0;"/><text fill="#000000" font-family="sans-serif" font-size="26" lengthAdjust="spacingAndGlyphs" textLength="60" x="927" y="510.1338">build</text><!--MD5=[3c107cd928ac6f7b8747b8d1c41f6683]
link Job to *end--><path d="M1148.32,524 C1168,524 1187.7,524 1207.38,524 " fill="none" id="Job-&gt;*end" style="stroke: #225C4D; stroke-width: 2.0;"/><polygon fill="#225C4D" points="1217.68,524,1199.68,516,1207.68,524,1199.68,532,1217.68,524" style="stroke: #225C4D; stroke-width: 2.0;"/><!--MD5=[92434f781bad4650e38f65567f882b4e]
@startuml
skinparam class {
 BackgroundColor #DDEEE8
 BorderColor #225C4D
 ArrowColor #225C4D
 }
scale 2

hide empty description
[*] -> JobBuilderFactory
JobBuilderFactory -> JobBuilder: get
JobBuilder -> SimpleJobBuilder: start(Step)
JobBuilder - -> JobFlowBuilder: start(Flow)
note left
Erweitert FlowBuilder
end note
JobBuilder - -> JobFlowBuilder: flow(Step)
SimpleJobBuilder -> SimpleJobBuilder: start(Step)
SimpleJobBuilder -> SimpleJobBuilder: next(Step)
SimpleJobBuilder - -> JobFlowBuilder: start(Flow)
SimpleJobBuilder -> Job: build
JobFlowBuilder - -> JobFlowBuilder: start
JobFlowBuilder - -> JobFlowBuilder: next
JobFlowBuilder - -> FlowJobBuilder: end
FlowJobBuilder -> Job: build
Job -> [*]
@enduml

PlantUML version 1.2019.12(Sun Nov 03 11:24:54 CET 2019)
(APACHE source distribution)
Java Runtime: OpenJDK Runtime Environment
JVM: OpenJDK 64-Bit Server VM
Java Version: 17.0.6+10-Debian-1deb11u1
Operating System: Linux
Default Encoding: UTF-8
Language: en
Country: DK
--></g></svg>