<?xml version="1.0" encoding="UTF-8" standalone="no"?><svg xmlns="http://www.w3.org/2000/svg" xmlns:xlink="http://www.w3.org/1999/xlink" contentScriptType="application/ecmascript" contentStyleType="text/css" height="234px" preserveAspectRatio="none" style="width:448px;height:234px;" version="1.1" viewBox="0 0 448 234" width="448px" zoomAndPan="magnify"><defs><filter height="300%" id="f1w9ov6yzqxiwo" width="300%" x="-1" y="-1"><feGaussianBlur result="blurOut" stdDeviation="4.0"/><feColorMatrix in="blurOut" result="blurOut2" type="matrix" values="0 0 0 0 0 0 0 0 0 0 0 0 0 0 0 0 0 0 .4 0"/><feOffset dx="8.0" dy="8.0" in="blurOut2" result="blurOut3"/><feBlend in="SourceGraphic" in2="blurOut3" mode="normal"/></filter></defs><g><!--MD5=[8e8b7fee173ae1cbd5a4675c27ba89f9]
class JobContext--><rect fill="#DDEEE8" filter="url(#f1w9ov6yzqxiwo)" height="198.4375" id="JobContext" style="stroke: #225C4D; stroke-width: 3.0;" width="412" x="14" y="14"/><ellipse cx="144.5" cy="46" fill="#ADD1B2" rx="22" ry="22" style="stroke: #225C4D; stroke-width: 2.0;"/><path d="M150.4375,57.2813 Q149.2813,57.875 148,58.1563 Q146.7188,58.4688 145.3125,58.4688 Q140.3125,58.4688 137.6563,55.1875 Q135.0313,51.875 135.0313,45.625 Q135.0313,39.375 137.6563,36.0625 Q140.3125,32.75 145.3125,32.75 Q146.7188,32.75 148,33.0625 Q149.3125,33.375 150.4375,33.9688 L150.4375,39.4063 Q149.1875,38.25 148,37.7188 Q146.8125,37.1563 145.5625,37.1563 Q142.875,37.1563 141.5,39.3125 Q140.125,41.4375 140.125,45.625 Q140.125,49.8125 141.5,51.9688 Q142.875,54.0938 145.5625,54.0938 Q146.8125,54.0938 148,53.5625 Q149.1875,53 150.4375,51.8438 L150.4375,57.2813 Z "/><text fill="#000000" font-family="sans-serif" font-size="24" lengthAdjust="spacingAndGlyphs" textLength="134" x="185.5" y="54.3086">JobContext</text><line style="stroke: #225C4D; stroke-width: 3.0;" x1="16" x2="424" y1="78" y2="78"/><line style="stroke: #225C4D; stroke-width: 3.0;" x1="16" x2="424" y1="94" y2="94"/><text fill="#000000" font-family="sans-serif" font-size="22" lengthAdjust="spacingAndGlyphs" textLength="234" x="26" y="122.4209">getJobName(): String</text><text fill="#000000" font-family="sans-serif" font-size="22" lengthAdjust="spacingAndGlyphs" textLength="280" x="26" y="148.0303">getJobParameters(): Map</text><text fill="#000000" font-family="sans-serif" font-size="22" lengthAdjust="spacingAndGlyphs" textLength="340" x="26" y="173.6396">getJobExecutionContext(): Map</text><text fill="#000000" font-family="sans-serif" font-size="22" lengthAdjust="spacingAndGlyphs" textLength="388" x="26" y="199.249">getSystemProperties(): Properties</text><!--MD5=[c2b17f8c0b063c3b0c6f93d5569c6194]
@startuml
skinparam class {
 BackgroundColor #DDEEE8
 BorderColor #225C4D
 ArrowColor #225C4D
 }
scale 2

class JobContext {
    getJobName(): String
    getJobParameters(): Map
    getJobExecutionContext(): Map
    getSystemProperties(): Properties
}
@enduml

PlantUML version 1.2019.12(Sun Nov 03 11:24:54 CET 2019)
(APACHE source distribution)
Java Runtime: OpenJDK Runtime Environment
JVM: OpenJDK 64-Bit Server VM
Java Version: 17.0.6+10-Debian-1deb11u1
Operating System: Linux
Default Encoding: UTF-8
Language: en
Country: DK
--></g></svg>