<?xml version="1.0" encoding="UTF-8" standalone="no"?><svg xmlns="http://www.w3.org/2000/svg" xmlns:xlink="http://www.w3.org/1999/xlink" contentScriptType="application/ecmascript" contentStyleType="text/css" height="184px" preserveAspectRatio="none" style="width:1470px;height:184px;" version="1.1" viewBox="0 0 1470 184" width="1470px" zoomAndPan="magnify"><defs><filter height="300%" id="f4elqxxr5kn8w" width="300%" x="-1" y="-1"><feGaussianBlur result="blurOut" stdDeviation="4.0"/><feColorMatrix in="blurOut" result="blurOut2" type="matrix" values="0 0 0 0 0 0 0 0 0 0 0 0 0 0 0 0 0 0 .4 0"/><feOffset dx="8.0" dy="8.0" in="blurOut2" result="blurOut3"/><feBlend in="SourceGraphic" in2="blurOut3" mode="normal"/></filter></defs><g><!--MD5=[0e92131517907543a9f7e978eae55bd3]
class JobExecutionListenerSupport--><rect fill="#DDEEE8" filter="url(#f4elqxxr5kn8w)" height="96" id="JobExecutionListenerSupport" style="stroke: #225C4D; stroke-width: 3.0;" width="424" x="12" y="42"/><ellipse cx="42" cy="74" fill="#ADD1B2" rx="22" ry="22" style="stroke: #225C4D; stroke-width: 2.0;"/><path d="M47.9375,85.2813 Q46.7813,85.875 45.5,86.1563 Q44.2188,86.4688 42.8125,86.4688 Q37.8125,86.4688 35.1563,83.1875 Q32.5313,79.875 32.5313,73.625 Q32.5313,67.375 35.1563,64.0625 Q37.8125,60.75 42.8125,60.75 Q44.2188,60.75 45.5,61.0625 Q46.8125,61.375 47.9375,61.9688 L47.9375,67.4063 Q46.6875,66.25 45.5,65.7188 Q44.3125,65.1563 43.0625,65.1563 Q40.375,65.1563 39,67.3125 Q37.625,69.4375 37.625,73.625 Q37.625,77.8125 39,79.9688 Q40.375,82.0938 43.0625,82.0938 Q44.3125,82.0938 45.5,81.5625 Q46.6875,81 47.9375,79.8438 L47.9375,85.2813 Z "/><text fill="#000000" font-family="sans-serif" font-size="24" lengthAdjust="spacingAndGlyphs" textLength="360" x="70" y="82.3086">JobExecutionListenerSupport</text><line style="stroke: #225C4D; stroke-width: 3.0;" x1="14" x2="434" y1="106" y2="106"/><line style="stroke: #225C4D; stroke-width: 3.0;" x1="14" x2="434" y1="122" y2="122"/><!--MD5=[0879cea99455fa54acdb12ba24138b76]
class JobExecution--><rect fill="#DDEEE8" filter="url(#f4elqxxr5kn8w)" height="147.2188" id="JobExecution" style="stroke: #225C4D; stroke-width: 3.0;" width="426" x="1023" y="16"/><ellipse cx="1147.5" cy="48" fill="#ADD1B2" rx="22" ry="22" style="stroke: #225C4D; stroke-width: 2.0;"/><path d="M1153.4375,59.2813 Q1152.2813,59.875 1151,60.1563 Q1149.7188,60.4688 1148.3125,60.4688 Q1143.3125,60.4688 1140.6563,57.1875 Q1138.0313,53.875 1138.0313,47.625 Q1138.0313,41.375 1140.6563,38.0625 Q1143.3125,34.75 1148.3125,34.75 Q1149.7188,34.75 1151,35.0625 Q1152.3125,35.375 1153.4375,35.9688 L1153.4375,41.4063 Q1152.1875,40.25 1151,39.7188 Q1149.8125,39.1563 1148.5625,39.1563 Q1145.875,39.1563 1144.5,41.3125 Q1143.125,43.4375 1143.125,47.625 Q1143.125,51.8125 1144.5,53.9688 Q1145.875,56.0938 1148.5625,56.0938 Q1149.8125,56.0938 1151,55.5625 Q1152.1875,55 1153.4375,53.8438 L1153.4375,59.2813 Z "/><text fill="#000000" font-family="sans-serif" font-size="24" lengthAdjust="spacingAndGlyphs" textLength="160" x="1188.5" y="56.3086">JobExecution</text><line style="stroke: #225C4D; stroke-width: 3.0;" x1="1025" x2="1447" y1="80" y2="80"/><text fill="#000000" font-family="sans-serif" font-size="22" lengthAdjust="spacingAndGlyphs" textLength="350" x="1035" y="108.4209">jobParameters: JobParameters</text><text fill="#000000" font-family="sans-serif" font-size="22" lengthAdjust="spacingAndGlyphs" textLength="402" x="1035" y="134.0303">executionContext: ExecutionContext</text><line style="stroke: #225C4D; stroke-width: 3.0;" x1="1025" x2="1447" y1="147.2188" y2="147.2188"/><!--MD5=[83dc641e30339b6464d14ff5bfd58dfe]
class JobExecutionListener--><rect fill="#DDEEE8" filter="url(#f4elqxxr5kn8w)" height="147.2188" id="JobExecutionListener" style="stroke: #225C4D; stroke-width: 3.0;" width="446" x="507" y="16"/><ellipse cx="596.5" cy="48" fill="#B4A7E5" rx="22" ry="22" style="stroke: #225C4D; stroke-width: 2.0;"/><path d="M588.3438,39.5313 L588.3438,35.2188 L603.125,35.2188 L603.125,39.5313 L598.1875,39.5313 L598.1875,55.6875 L603.125,55.6875 L603.125,60 L588.3438,60 L588.3438,55.6875 L593.2813,55.6875 L593.2813,39.5313 L588.3438,39.5313 Z "/><text fill="#000000" font-family="sans-serif" font-size="24" font-style="italic" lengthAdjust="spacingAndGlyphs" textLength="250" x="637.5" y="56.3086">JobExecutionListener</text><line style="stroke: #225C4D; stroke-width: 3.0;" x1="509" x2="951" y1="80" y2="80"/><line style="stroke: #225C4D; stroke-width: 3.0;" x1="509" x2="951" y1="96" y2="96"/><text fill="#000000" font-family="sans-serif" font-size="22" lengthAdjust="spacingAndGlyphs" textLength="422" x="519" y="124.4209">beforeJob(jobExecution: JobExecution)</text><text fill="#000000" font-family="sans-serif" font-size="22" lengthAdjust="spacingAndGlyphs" textLength="402" x="519" y="150.0303">afterJob(jobExecution: JobExecution)</text><!--MD5=[2d89fff738eb306aeace9457aa044b9a]
link JobExecutionListenerSupport to JobExecutionListener--><path d="M436.48,90 C446.58,90 456.68,90 466.78,90 " fill="none" id="JobExecutionListenerSupport-&gt;JobExecutionListener" style="stroke: #225C4D; stroke-width: 2.0;"/><polygon fill="none" points="467,76,507,90,467,104,467,76" style="stroke: #225C4D; stroke-width: 2.0;"/><!--MD5=[76430bd90bea2efa9bd0570cf63f241a]
link JobExecutionListener to JobExecution--><path d="M953.36,90 C976.54,90 999.72,90 1022.9,90 " fill="none" id="JobExecutionListener-JobExecution" style="stroke: #225C4D; stroke-width: 2.0; stroke-dasharray: 7.0,7.0;"/><!--MD5=[3f06828ecb7f0bb62f2d03ae58dc10e6]
@startuml
skinparam class {
 BackgroundColor #DDEEE8
 BorderColor #225C4D
 ArrowColor #225C4D
 }
scale 2

class JobExecutionListenerSupport
class JobExecution {
    jobParameters: JobParameters
    executionContext: ExecutionContext
}

interface JobExecutionListener {
    beforeJob(jobExecution: JobExecution)
    afterJob(jobExecution: JobExecution)
}

JobExecutionListenerSupport -|> JobExecutionListener
JobExecutionListener . JobExecution
@enduml

PlantUML version 1.2019.12(Sun Nov 03 11:24:54 CET 2019)
(APACHE source distribution)
Java Runtime: OpenJDK Runtime Environment
JVM: OpenJDK 64-Bit Server VM
Java Version: 17.0.6+10-Debian-1deb11u1
Operating System: Linux
Default Encoding: UTF-8
Language: en
Country: DK
--></g></svg>