<?xml version="1.0" encoding="UTF-8" standalone="no"?><svg xmlns="http://www.w3.org/2000/svg" xmlns:xlink="http://www.w3.org/1999/xlink" contentScriptType="application/ecmascript" contentStyleType="text/css" height="566px" preserveAspectRatio="none" style="width:1698px;height:566px;" version="1.1" viewBox="0 0 1698 566" width="1698px" zoomAndPan="magnify"><defs><filter height="300%" id="f1n9mdko6adnqj" width="300%" x="-1" y="-1"><feGaussianBlur result="blurOut" stdDeviation="4.0"/><feColorMatrix in="blurOut" result="blurOut2" type="matrix" values="0 0 0 0 0 0 0 0 0 0 0 0 0 0 0 0 0 0 .4 0"/><feOffset dx="8.0" dy="8.0" in="blurOut2" result="blurOut3"/><feBlend in="SourceGraphic" in2="blurOut3" mode="normal"/></filter></defs><g><!--MD5=[b8e0354e0f3f5cbf52553869b78c0afa]
class Job--><rect fill="#DDEEE8" filter="url(#f1n9mdko6adnqj)" height="96" id="Job" style="stroke: #225C4D; stroke-width: 3.0;" width="102" x="632" y="16"/><ellipse cx="662" cy="48" fill="#ADD1B2" rx="22" ry="22" style="stroke: #225C4D; stroke-width: 2.0;"/><path d="M667.9375,59.2813 Q666.7813,59.875 665.5,60.1563 Q664.2188,60.4688 662.8125,60.4688 Q657.8125,60.4688 655.1563,57.1875 Q652.5313,53.875 652.5313,47.625 Q652.5313,41.375 655.1563,38.0625 Q657.8125,34.75 662.8125,34.75 Q664.2188,34.75 665.5,35.0625 Q666.8125,35.375 667.9375,35.9688 L667.9375,41.4063 Q666.6875,40.25 665.5,39.7188 Q664.3125,39.1563 663.0625,39.1563 Q660.375,39.1563 659,41.3125 Q657.625,43.4375 657.625,47.625 Q657.625,51.8125 659,53.9688 Q660.375,56.0938 663.0625,56.0938 Q664.3125,56.0938 665.5,55.5625 Q666.6875,55 667.9375,53.8438 L667.9375,59.2813 Z "/><text fill="#000000" font-family="sans-serif" font-size="24" lengthAdjust="spacingAndGlyphs" textLength="38" x="690" y="56.3086">Job</text><line style="stroke: #225C4D; stroke-width: 3.0;" x1="634" x2="732" y1="80" y2="80"/><line style="stroke: #225C4D; stroke-width: 3.0;" x1="634" x2="732" y1="96" y2="96"/><!--MD5=[9b264a68f299ae67167a82a96804a489]
class JobInstance--><rect fill="#DDEEE8" filter="url(#f1n9mdko6adnqj)" height="96" id="JobInstance" style="stroke: #225C4D; stroke-width: 3.0;" width="210" x="578" y="232"/><ellipse cx="608" cy="264" fill="#ADD1B2" rx="22" ry="22" style="stroke: #225C4D; stroke-width: 2.0;"/><path d="M613.9375,275.2813 Q612.7813,275.875 611.5,276.1563 Q610.2188,276.4688 608.8125,276.4688 Q603.8125,276.4688 601.1563,273.1875 Q598.5313,269.875 598.5313,263.625 Q598.5313,257.375 601.1563,254.0625 Q603.8125,250.75 608.8125,250.75 Q610.2188,250.75 611.5,251.0625 Q612.8125,251.375 613.9375,251.9688 L613.9375,257.4063 Q612.6875,256.25 611.5,255.7188 Q610.3125,255.1563 609.0625,255.1563 Q606.375,255.1563 605,257.3125 Q603.625,259.4375 603.625,263.625 Q603.625,267.8125 605,269.9688 Q606.375,272.0938 609.0625,272.0938 Q610.3125,272.0938 611.5,271.5625 Q612.6875,271 613.9375,269.8438 L613.9375,275.2813 Z "/><text fill="#000000" font-family="sans-serif" font-size="24" lengthAdjust="spacingAndGlyphs" textLength="146" x="636" y="272.3086">JobInstance</text><line style="stroke: #225C4D; stroke-width: 3.0;" x1="580" x2="786" y1="296" y2="296"/><line style="stroke: #225C4D; stroke-width: 3.0;" x1="580" x2="786" y1="312" y2="312"/><path d="M12,240 L12,320.5313 A0,0 0 0 0 12,320.5313 L378,320.5313 A0,0 0 0 0 378,320.5313 L378,288 L577.56,280 L378,272 L378,260 L358,240 L12,240 A0,0 0 0 0 12,240 " fill="#FBFB77" filter="url(#f1n9mdko6adnqj)" style="stroke: #A80036; stroke-width: 2.0;"/><path d="M358,240 L358,260 L378,260 L358,240 " fill="#FBFB77" style="stroke: #A80036; stroke-width: 2.0;"/><text fill="#000000" font-family="sans-serif" font-size="26" lengthAdjust="spacingAndGlyphs" textLength="324" x="24" y="274.1338">Je Aufruf (Parameter-Set)</text><text fill="#000000" font-family="sans-serif" font-size="26" lengthAdjust="spacingAndGlyphs" textLength="302" x="24" y="304.3994">gibt es eine JobInstance</text><!--MD5=[0879cea99455fa54acdb12ba24138b76]
class JobExecution--><rect fill="#DDEEE8" filter="url(#f1n9mdko6adnqj)" height="96" id="JobExecution" style="stroke: #225C4D; stroke-width: 3.0;" width="224" x="989" y="232"/><ellipse cx="1019" cy="264" fill="#ADD1B2" rx="22" ry="22" style="stroke: #225C4D; stroke-width: 2.0;"/><path d="M1024.9375,275.2813 Q1023.7813,275.875 1022.5,276.1563 Q1021.2188,276.4688 1019.8125,276.4688 Q1014.8125,276.4688 1012.1563,273.1875 Q1009.5313,269.875 1009.5313,263.625 Q1009.5313,257.375 1012.1563,254.0625 Q1014.8125,250.75 1019.8125,250.75 Q1021.2188,250.75 1022.5,251.0625 Q1023.8125,251.375 1024.9375,251.9688 L1024.9375,257.4063 Q1023.6875,256.25 1022.5,255.7188 Q1021.3125,255.1563 1020.0625,255.1563 Q1017.375,255.1563 1016,257.3125 Q1014.625,259.4375 1014.625,263.625 Q1014.625,267.8125 1016,269.9688 Q1017.375,272.0938 1020.0625,272.0938 Q1021.3125,272.0938 1022.5,271.5625 Q1023.6875,271 1024.9375,269.8438 L1024.9375,275.2813 Z "/><text fill="#000000" font-family="sans-serif" font-size="24" lengthAdjust="spacingAndGlyphs" textLength="160" x="1047" y="272.3086">JobExecution</text><line style="stroke: #225C4D; stroke-width: 3.0;" x1="991" x2="1211" y1="296" y2="296"/><line style="stroke: #225C4D; stroke-width: 3.0;" x1="991" x2="1211" y1="312" y2="312"/><path d="M958,39 L958,89.2656 A0,0 0 0 0 958,89.2656 L1093,89.2656 L1101,231.26 L1109,89.2656 L1244,89.2656 A0,0 0 0 0 1244,89.2656 L1244,59 L1224,39 L958,39 A0,0 0 0 0 958,39 " fill="#FBFB77" filter="url(#f1n9mdko6adnqj)" style="stroke: #A80036; stroke-width: 2.0;"/><path d="M1224,39 L1224,59 L1244,59 L1224,39 " fill="#FBFB77" style="stroke: #A80036; stroke-width: 2.0;"/><text fill="#000000" font-family="sans-serif" font-size="26" lengthAdjust="spacingAndGlyphs" textLength="244" x="970" y="73.1338">Je versuchtem Lauf</text><!--MD5=[9c9ec500049159b97cab276b888cef43]
class StepExecution--><rect fill="#DDEEE8" filter="url(#f1n9mdko6adnqj)" height="96" id="StepExecution" style="stroke: #225C4D; stroke-width: 3.0;" width="244" x="1413" y="232"/><ellipse cx="1443" cy="264" fill="#ADD1B2" rx="22" ry="22" style="stroke: #225C4D; stroke-width: 2.0;"/><path d="M1448.9375,275.2813 Q1447.7813,275.875 1446.5,276.1563 Q1445.2188,276.4688 1443.8125,276.4688 Q1438.8125,276.4688 1436.1563,273.1875 Q1433.5313,269.875 1433.5313,263.625 Q1433.5313,257.375 1436.1563,254.0625 Q1438.8125,250.75 1443.8125,250.75 Q1445.2188,250.75 1446.5,251.0625 Q1447.8125,251.375 1448.9375,251.9688 L1448.9375,257.4063 Q1447.6875,256.25 1446.5,255.7188 Q1445.3125,255.1563 1444.0625,255.1563 Q1441.375,255.1563 1440,257.3125 Q1438.625,259.4375 1438.625,263.625 Q1438.625,267.8125 1440,269.9688 Q1441.375,272.0938 1444.0625,272.0938 Q1445.3125,272.0938 1446.5,271.5625 Q1447.6875,271 1448.9375,269.8438 L1448.9375,275.2813 Z "/><text fill="#000000" font-family="sans-serif" font-size="24" lengthAdjust="spacingAndGlyphs" textLength="180" x="1471" y="272.3086">StepExecution</text><line style="stroke: #225C4D; stroke-width: 3.0;" x1="1415" x2="1655" y1="296" y2="296"/><line style="stroke: #225C4D; stroke-width: 3.0;" x1="1415" x2="1655" y1="312" y2="312"/><!--MD5=[5a2ba6e4c7f78036fecb159f353da9e9]
class Step--><rect fill="#DDEEE8" filter="url(#f1n9mdko6adnqj)" height="96" id="Step" style="stroke: #225C4D; stroke-width: 3.0;" width="122" x="1474" y="16"/><ellipse cx="1504" cy="48" fill="#ADD1B2" rx="22" ry="22" style="stroke: #225C4D; stroke-width: 2.0;"/><path d="M1509.9375,59.2813 Q1508.7813,59.875 1507.5,60.1563 Q1506.2188,60.4688 1504.8125,60.4688 Q1499.8125,60.4688 1497.1563,57.1875 Q1494.5313,53.875 1494.5313,47.625 Q1494.5313,41.375 1497.1563,38.0625 Q1499.8125,34.75 1504.8125,34.75 Q1506.2188,34.75 1507.5,35.0625 Q1508.8125,35.375 1509.9375,35.9688 L1509.9375,41.4063 Q1508.6875,40.25 1507.5,39.7188 Q1506.3125,39.1563 1505.0625,39.1563 Q1502.375,39.1563 1501,41.3125 Q1499.625,43.4375 1499.625,47.625 Q1499.625,51.8125 1501,53.9688 Q1502.375,56.0938 1505.0625,56.0938 Q1506.3125,56.0938 1507.5,55.5625 Q1508.6875,55 1509.9375,53.8438 L1509.9375,59.2813 Z "/><text fill="#000000" font-family="sans-serif" font-size="24" lengthAdjust="spacingAndGlyphs" textLength="58" x="1532" y="56.3086">Step</text><line style="stroke: #225C4D; stroke-width: 3.0;" x1="1476" x2="1594" y1="80" y2="80"/><line style="stroke: #225C4D; stroke-width: 3.0;" x1="1476" x2="1594" y1="96" y2="96"/><!--MD5=[0cce4df4313332520a583b9da0bd5d6d]
class JobParameters--><rect fill="#DDEEE8" filter="url(#f1n9mdko6adnqj)" height="96" id="JobParameters" style="stroke: #225C4D; stroke-width: 3.0;" width="248" x="945" y="448"/><ellipse cx="975" cy="480" fill="#ADD1B2" rx="22" ry="22" style="stroke: #225C4D; stroke-width: 2.0;"/><path d="M980.9375,491.2813 Q979.7813,491.875 978.5,492.1563 Q977.2188,492.4688 975.8125,492.4688 Q970.8125,492.4688 968.1563,489.1875 Q965.5313,485.875 965.5313,479.625 Q965.5313,473.375 968.1563,470.0625 Q970.8125,466.75 975.8125,466.75 Q977.2188,466.75 978.5,467.0625 Q979.8125,467.375 980.9375,467.9688 L980.9375,473.4063 Q979.6875,472.25 978.5,471.7188 Q977.3125,471.1563 976.0625,471.1563 Q973.375,471.1563 972,473.3125 Q970.625,475.4375 970.625,479.625 Q970.625,483.8125 972,485.9688 Q973.375,488.0938 976.0625,488.0938 Q977.3125,488.0938 978.5,487.5625 Q979.6875,487 980.9375,485.8438 L980.9375,491.2813 Z "/><text fill="#000000" font-family="sans-serif" font-size="24" lengthAdjust="spacingAndGlyphs" textLength="184" x="1003" y="488.3086">JobParameters</text><line style="stroke: #225C4D; stroke-width: 3.0;" x1="947" x2="1191" y1="512" y2="512"/><line style="stroke: #225C4D; stroke-width: 3.0;" x1="947" x2="1191" y1="528" y2="528"/><path d="M294,456 L294,536.5313 A0,0 0 0 0 294,536.5313 L744,536.5313 A0,0 0 0 0 744,536.5313 L744,504 L944.6,496 L744,488 L744,476 L724,456 L294,456 A0,0 0 0 0 294,456 " fill="#FBFB77" filter="url(#f1n9mdko6adnqj)" style="stroke: #A80036; stroke-width: 2.0;"/><path d="M724,456 L724,476 L744,476 L724,456 " fill="#FBFB77" style="stroke: #A80036; stroke-width: 2.0;"/><text fill="#000000" font-family="sans-serif" font-size="26" lengthAdjust="spacingAndGlyphs" textLength="344" x="306" y="490.1338">Es gibt identifizierende und</text><text fill="#000000" font-family="sans-serif" font-size="26" lengthAdjust="spacingAndGlyphs" textLength="408" x="306" y="520.3994">nicht identifizierende Parameter</text><!--MD5=[b8f9c9f402fdb0639661b25476f0741f]
class ExecutionContext--><rect fill="#DDEEE8" filter="url(#f1n9mdko6adnqj)" height="96" id="ExecutionContext" style="stroke: #225C4D; stroke-width: 3.0;" width="282" x="1394" y="448"/><ellipse cx="1424" cy="480" fill="#ADD1B2" rx="22" ry="22" style="stroke: #225C4D; stroke-width: 2.0;"/><path d="M1429.9375,491.2813 Q1428.7813,491.875 1427.5,492.1563 Q1426.2188,492.4688 1424.8125,492.4688 Q1419.8125,492.4688 1417.1563,489.1875 Q1414.5313,485.875 1414.5313,479.625 Q1414.5313,473.375 1417.1563,470.0625 Q1419.8125,466.75 1424.8125,466.75 Q1426.2188,466.75 1427.5,467.0625 Q1428.8125,467.375 1429.9375,467.9688 L1429.9375,473.4063 Q1428.6875,472.25 1427.5,471.7188 Q1426.3125,471.1563 1425.0625,471.1563 Q1422.375,471.1563 1421,473.3125 Q1419.625,475.4375 1419.625,479.625 Q1419.625,483.8125 1421,485.9688 Q1422.375,488.0938 1425.0625,488.0938 Q1426.3125,488.0938 1427.5,487.5625 Q1428.6875,487 1429.9375,485.8438 L1429.9375,491.2813 Z "/><text fill="#000000" font-family="sans-serif" font-size="24" lengthAdjust="spacingAndGlyphs" textLength="218" x="1452" y="488.3086">ExecutionContext</text><line style="stroke: #225C4D; stroke-width: 3.0;" x1="1396" x2="1674" y1="512" y2="512"/><line style="stroke: #225C4D; stroke-width: 3.0;" x1="1396" x2="1674" y1="528" y2="528"/><!--MD5=[510658bc6fdd686e0733177803a0276f]
reverse link Job to JobInstance--><path d="M683,122.26 C683,156.3 683,199.2 683,231.36 " fill="none" id="Job&lt;-JobInstance" style="stroke: #225C4D; stroke-width: 2.0;"/><polygon fill="#225C4D" points="683,112,675,130,683,122,691,130,683,112" style="stroke: #225C4D; stroke-width: 2.0;"/><text fill="#000000" font-family="sans-serif" font-size="26" lengthAdjust="spacingAndGlyphs" textLength="48" x="629.15" y="210.0139">0..n</text><!--MD5=[97a3856a2e35eb38bd97339ae3000e7a]
link JobInstance to JobExecution--><path d="M788.32,280 C851.7,280 915.08,280 978.46,280 " fill="none" id="JobInstance-&gt;JobExecution" style="stroke: #225C4D; stroke-width: 2.0;"/><polygon fill="#225C4D" points="988.62,280,970.62,272,978.62,280,970.62,288,988.62,280" style="stroke: #225C4D; stroke-width: 2.0;"/><text fill="#000000" font-family="sans-serif" font-size="26" lengthAdjust="spacingAndGlyphs" textLength="48" x="924.8511" y="272.4148">1..n</text><!--MD5=[d17e55344a10fd257c803883240bf2c5]
link JobExecution to StepExecution--><path d="M1213.74,280 C1276.68,280 1339.6,280 1402.54,280 " fill="none" id="JobExecution-&gt;StepExecution" style="stroke: #225C4D; stroke-width: 2.0;"/><polygon fill="#225C4D" points="1412.64,280,1394.64,272,1402.64,280,1394.64,288,1412.64,280" style="stroke: #225C4D; stroke-width: 2.0;"/><text fill="#000000" font-family="sans-serif" font-size="26" lengthAdjust="spacingAndGlyphs" textLength="48" x="1348.6319" y="272.5077">1..n</text><!--MD5=[86c24179f7c44b035765331a3e361b80]
reverse link Step to StepExecution--><path d="M1535,122.26 C1535,156.3 1535,199.2 1535,231.36 " fill="none" id="Step&lt;-StepExecution" style="stroke: #225C4D; stroke-width: 2.0;"/><polygon fill="#225C4D" points="1535,112,1527,130,1535,122,1543,130,1535,112" style="stroke: #225C4D; stroke-width: 2.0;"/><text fill="#000000" font-family="sans-serif" font-size="26" lengthAdjust="spacingAndGlyphs" textLength="48" x="1481.15" y="210.0139">0..n</text><!--MD5=[50eeec5c180adde080bfb12649fea761]
link JobExecution to JobParameters--><path d="M1094.06,328 C1089.22,360 1082.76,402.9 1077.6,437.06 " fill="none" id="JobExecution-&gt;JobParameters" style="stroke: #225C4D; stroke-width: 2.0;"/><polygon fill="#225C4D" points="1076.04,447.36,1086.6732,430.7788,1077.5541,437.4753,1070.8577,428.3562,1076.04,447.36" style="stroke: #225C4D; stroke-width: 2.0;"/><text fill="#000000" font-family="sans-serif" font-size="26" lengthAdjust="spacingAndGlyphs" textLength="16" x="1059.806" y="426.0139">1</text><!--MD5=[50fa65b929ee2b1af54a4af1d8fcbcc6]
link JobExecution to ExecutionContext--><path d="M1195.18,328 C1264.6,361.92 1359.04,408.04 1430.74,443.08 " fill="none" id="JobExecution-&gt;ExecutionContext" style="stroke: #225C4D; stroke-width: 2.0;"/><polygon fill="#225C4D" points="1440.26,447.72,1427.6028,432.6271,1431.2762,443.3279,1420.5754,447.0013,1440.26,447.72" style="stroke: #225C4D; stroke-width: 2.0;"/><text fill="#000000" font-family="sans-serif" font-size="26" lengthAdjust="spacingAndGlyphs" textLength="16" x="1397.9329" y="425.6723">1</text><!--MD5=[33f982fb3367924935a49c48a3b88e09]
link StepExecution to ExecutionContext--><path d="M1535,328 C1535,360 1535,402.9 1535,437.06 " fill="none" id="StepExecution-&gt;ExecutionContext" style="stroke: #225C4D; stroke-width: 2.0;"/><polygon fill="#225C4D" points="1535,447.36,1543,429.36,1535,437.36,1527,429.36,1535,447.36" style="stroke: #225C4D; stroke-width: 2.0;"/><text fill="#000000" font-family="sans-serif" font-size="26" lengthAdjust="spacingAndGlyphs" textLength="16" x="1517.05" y="426.0139">1</text><!--MD5=[ca3134550ceb7fd550c9dbfe910677a8]
@startuml
skinparam class {
 BackgroundColor #DDEEE8
 BorderColor #225C4D
 ArrowColor #225C4D
 }
scale 2
skinparam nodesep 100

Job <- - "0..n" JobInstance
note left: Je Aufruf (Parameter-Set)\ngibt es eine JobInstance

JobInstance -> "1..n" JobExecution
note top: Je versuchtem Lauf

JobExecution -> "1..n" StepExecution
Step <- - "0..n" StepExecution
JobExecution - -> "1" JobParameters
note left: Es gibt identifizierende und\nnicht identifizierende Parameter

JobExecution - -> "1" ExecutionContext
StepExecution - -> "1" ExecutionContext
@enduml

PlantUML version 1.2019.12(Sun Nov 03 11:24:54 CET 2019)
(APACHE source distribution)
Java Runtime: OpenJDK Runtime Environment
JVM: OpenJDK 64-Bit Server VM
Java Version: 17.0.6+10-Debian-1deb11u1
Operating System: Linux
Default Encoding: UTF-8
Language: en
Country: DK
--></g></svg>