<?xml version="1.0" encoding="UTF-8" standalone="no"?><svg xmlns="http://www.w3.org/2000/svg" xmlns:xlink="http://www.w3.org/1999/xlink" contentScriptType="application/ecmascript" contentStyleType="text/css" height="638px" preserveAspectRatio="none" style="width:1932px;height:638px;" version="1.1" viewBox="0 0 1932 638" width="1932px" zoomAndPan="magnify"><defs><filter height="300%" id="fzbsvw5g8yzwb" width="300%" x="-1" y="-1"><feGaussianBlur result="blurOut" stdDeviation="4.0"/><feColorMatrix in="blurOut" result="blurOut2" type="matrix" values="0 0 0 0 0 0 0 0 0 0 0 0 0 0 0 0 0 0 .4 0"/><feOffset dx="8.0" dy="8.0" in="blurOut2" result="blurOut3"/><feBlend in="SourceGraphic" in2="blurOut3" mode="normal"/></filter></defs><g><!--MD5=[a4205bda420981d2c1fd8440c95409ff]
class JobLauncher--><rect fill="#DDEEE8" filter="url(#fzbsvw5g8yzwb)" height="96" id="JobLauncher" style="stroke: #225C4D; stroke-width: 3.0;" width="212" x="467" y="520"/><ellipse cx="497" cy="552" fill="#B4A7E5" rx="22" ry="22" style="stroke: #225C4D; stroke-width: 2.0;"/><path d="M488.8438,543.5313 L488.8438,539.2188 L503.625,539.2188 L503.625,543.5313 L498.6875,543.5313 L498.6875,559.6875 L503.625,559.6875 L503.625,564 L488.8438,564 L488.8438,559.6875 L493.7813,559.6875 L493.7813,543.5313 L488.8438,543.5313 Z "/><text fill="#000000" font-family="sans-serif" font-size="24" font-style="italic" lengthAdjust="spacingAndGlyphs" textLength="148" x="525" y="560.3086">JobLauncher</text><line style="stroke: #225C4D; stroke-width: 3.0;" x1="469" x2="677" y1="584" y2="584"/><line style="stroke: #225C4D; stroke-width: 3.0;" x1="469" x2="677" y1="600" y2="600"/><!--MD5=[fa2d4961db2455a353c19bd8fa716f61]
class JobExplorer--><rect fill="#DDEEE8" filter="url(#fzbsvw5g8yzwb)" height="96" id="JobExplorer" style="stroke: #225C4D; stroke-width: 3.0;" width="202" x="880" y="520"/><ellipse cx="910" cy="552" fill="#B4A7E5" rx="22" ry="22" style="stroke: #225C4D; stroke-width: 2.0;"/><path d="M901.8438,543.5313 L901.8438,539.2188 L916.625,539.2188 L916.625,543.5313 L911.6875,543.5313 L911.6875,559.6875 L916.625,559.6875 L916.625,564 L901.8438,564 L901.8438,559.6875 L906.7813,559.6875 L906.7813,543.5313 L901.8438,543.5313 Z "/><text fill="#000000" font-family="sans-serif" font-size="24" font-style="italic" lengthAdjust="spacingAndGlyphs" textLength="138" x="938" y="560.3086">JobExplorer</text><line style="stroke: #225C4D; stroke-width: 3.0;" x1="882" x2="1080" y1="584" y2="584"/><line style="stroke: #225C4D; stroke-width: 3.0;" x1="882" x2="1080" y1="600" y2="600"/><!--MD5=[4c53cb595ae9c1e81a4d93653fb02962]
class JobRegistry--><rect fill="#DDEEE8" filter="url(#fzbsvw5g8yzwb)" height="96" id="JobRegistry" style="stroke: #225C4D; stroke-width: 3.0;" width="200" x="1283" y="520"/><ellipse cx="1313" cy="552" fill="#B4A7E5" rx="22" ry="22" style="stroke: #225C4D; stroke-width: 2.0;"/><path d="M1304.8438,543.5313 L1304.8438,539.2188 L1319.625,539.2188 L1319.625,543.5313 L1314.6875,543.5313 L1314.6875,559.6875 L1319.625,559.6875 L1319.625,564 L1304.8438,564 L1304.8438,559.6875 L1309.7813,559.6875 L1309.7813,543.5313 L1304.8438,543.5313 Z "/><text fill="#000000" font-family="sans-serif" font-size="24" font-style="italic" lengthAdjust="spacingAndGlyphs" textLength="136" x="1341" y="560.3086">JobRegistry</text><line style="stroke: #225C4D; stroke-width: 3.0;" x1="1285" x2="1481" y1="584" y2="584"/><line style="stroke: #225C4D; stroke-width: 3.0;" x1="1285" x2="1481" y1="600" y2="600"/><!--MD5=[823a33a1e2936c4f8586a296997820bf]
class JobRepository--><rect fill="#DDEEE8" filter="url(#fzbsvw5g8yzwb)" height="96" id="JobRepository" style="stroke: #225C4D; stroke-width: 3.0;" width="228" x="1683" y="520"/><ellipse cx="1713" cy="552" fill="#B4A7E5" rx="22" ry="22" style="stroke: #225C4D; stroke-width: 2.0;"/><path d="M1704.8438,543.5313 L1704.8438,539.2188 L1719.625,539.2188 L1719.625,543.5313 L1714.6875,543.5313 L1714.6875,559.6875 L1719.625,559.6875 L1719.625,564 L1704.8438,564 L1704.8438,559.6875 L1709.7813,559.6875 L1709.7813,543.5313 L1704.8438,543.5313 Z "/><text fill="#000000" font-family="sans-serif" font-size="24" font-style="italic" lengthAdjust="spacingAndGlyphs" textLength="164" x="1741" y="560.3086">JobRepository</text><line style="stroke: #225C4D; stroke-width: 3.0;" x1="1685" x2="1909" y1="584" y2="584"/><line style="stroke: #225C4D; stroke-width: 3.0;" x1="1685" x2="1909" y1="600" y2="600"/><!--MD5=[cad26bdd5948bdd7091235594df626b4]
class JobOperator--><rect fill="#DDEEE8" filter="url(#fzbsvw5g8yzwb)" height="403.3125" id="JobOperator" style="stroke: #225C4D; stroke-width: 3.0;" width="822" x="12" y="16"/><ellipse cx="343.5" cy="48" fill="#B4A7E5" rx="22" ry="22" style="stroke: #225C4D; stroke-width: 2.0;"/><path d="M335.3438,39.5313 L335.3438,35.2188 L350.125,35.2188 L350.125,39.5313 L345.1875,39.5313 L345.1875,55.6875 L350.125,55.6875 L350.125,60 L335.3438,60 L335.3438,55.6875 L340.2813,55.6875 L340.2813,39.5313 L335.3438,39.5313 Z "/><text fill="#000000" font-family="sans-serif" font-size="24" font-style="italic" lengthAdjust="spacingAndGlyphs" textLength="142" x="384.5" y="56.3086">JobOperator</text><line style="stroke: #225C4D; stroke-width: 3.0;" x1="14" x2="832" y1="80" y2="80"/><line style="stroke: #225C4D; stroke-width: 3.0;" x1="14" x2="832" y1="96" y2="96"/><text fill="#000000" font-family="sans-serif" font-size="22" lengthAdjust="spacingAndGlyphs" textLength="550" x="24" y="124.4209">start(jobName: String, parameters: String): Long</text><text fill="#000000" font-family="sans-serif" font-size="22" lengthAdjust="spacingAndGlyphs" textLength="352" x="24" y="150.0303">restart(executionId: long): Long</text><text fill="#000000" font-family="sans-serif" font-size="22" lengthAdjust="spacingAndGlyphs" textLength="360" x="24" y="175.6396">stop(executionId: long): boolean</text><text fill="#000000" font-family="sans-serif" font-size="22" lengthAdjust="spacingAndGlyphs" textLength="494" x="24" y="201.249">abandon(jobExecutionId: long): JobExecution</text><text fill="#000000" font-family="sans-serif" font-size="22" lengthAdjust="spacingAndGlyphs" textLength="466" x="24" y="226.8584">startNextInstance(jobName: String): Long</text><text fill="#000000" font-family="sans-serif" font-size="22" lengthAdjust="spacingAndGlyphs" textLength="322" x="24" y="252.4678">getJobNames(): Set&lt;String&gt;</text><text fill="#000000" font-family="sans-serif" font-size="22" lengthAdjust="spacingAndGlyphs" textLength="798" x="24" y="278.0771">getJobInstances(jobName: String, arg1: start, arg2: count): List&lt;Long&gt;</text><text fill="#000000" font-family="sans-serif" font-size="22" lengthAdjust="spacingAndGlyphs" textLength="496" x="24" y="303.6865">getExecutions(instanceId: long): List&lt;Long&gt;</text><text fill="#000000" font-family="sans-serif" font-size="22" lengthAdjust="spacingAndGlyphs" textLength="588" x="24" y="329.2959">getRunningExecutions(jobName: String): Set&lt;Long&gt;</text><text fill="#000000" font-family="sans-serif" font-size="22" lengthAdjust="spacingAndGlyphs" textLength="458" x="24" y="354.9053">getParameters(executionId: long): String</text><text fill="#000000" font-family="sans-serif" font-size="22" lengthAdjust="spacingAndGlyphs" textLength="434" x="24" y="380.5146">getSummary(executionId: long): String</text><text fill="#000000" font-family="sans-serif" font-size="22" lengthAdjust="spacingAndGlyphs" textLength="766" x="24" y="406.124">getStepExecutionSummaries(executionId: long): Map&lt;Long, String&gt;</text><!--MD5=[b186e2e92dd43094b6ed6e162c4f10e4]
class SimpleJobOperator--><rect fill="#DDEEE8" filter="url(#fzbsvw5g8yzwb)" height="96" id="SimpleJobOperator" style="stroke: #225C4D; stroke-width: 3.0;" width="296" x="1035" y="170"/><ellipse cx="1065" cy="202" fill="#ADD1B2" rx="22" ry="22" style="stroke: #225C4D; stroke-width: 2.0;"/><path d="M1070.9375,213.2813 Q1069.7813,213.875 1068.5,214.1563 Q1067.2188,214.4688 1065.8125,214.4688 Q1060.8125,214.4688 1058.1563,211.1875 Q1055.5313,207.875 1055.5313,201.625 Q1055.5313,195.375 1058.1563,192.0625 Q1060.8125,188.75 1065.8125,188.75 Q1067.2188,188.75 1068.5,189.0625 Q1069.8125,189.375 1070.9375,189.9688 L1070.9375,195.4063 Q1069.6875,194.25 1068.5,193.7188 Q1067.3125,193.1563 1066.0625,193.1563 Q1063.375,193.1563 1062,195.3125 Q1060.625,197.4375 1060.625,201.625 Q1060.625,205.8125 1062,207.9688 Q1063.375,210.0938 1066.0625,210.0938 Q1067.3125,210.0938 1068.5,209.5625 Q1069.6875,209 1070.9375,207.8438 L1070.9375,213.2813 Z "/><text fill="#000000" font-family="sans-serif" font-size="24" lengthAdjust="spacingAndGlyphs" textLength="232" x="1093" y="210.3086">SimpleJobOperator</text><line style="stroke: #225C4D; stroke-width: 3.0;" x1="1037" x2="1329" y1="234" y2="234"/><line style="stroke: #225C4D; stroke-width: 3.0;" x1="1037" x2="1329" y1="250" y2="250"/><!--MD5=[f1b9ac224cb4271ea8d2b792597f2894]
reverse link JobOperator to SimpleJobOperator--><path d="M874.86,218 C928.06,218 981.26,218 1034.48,218 " fill="none" id="JobOperator&lt;-SimpleJobOperator" style="stroke: #225C4D; stroke-width: 2.0; stroke-dasharray: 7.0,7.0;"/><polygon fill="none" points="874.18,232,834.18,218,874.18,204,874.18,232" style="stroke: #225C4D; stroke-width: 2.0;"/><!--MD5=[df4626038f561c3af1618be1c1710846]
link SimpleJobOperator to JobLauncher--><path d="M1134.92,266.04 C1087.16,309.94 1010.36,375.74 935,420 C856.98,465.82 761.88,503.56 688.74,529.18 " fill="none" id="SimpleJobOperator-&gt;JobLauncher" style="stroke: #225C4D; stroke-width: 2.0;"/><polygon fill="#225C4D" points="679.02,532.56,698.6485,534.2095,688.4661,529.2781,693.3975,519.0957,679.02,532.56" style="stroke: #225C4D; stroke-width: 2.0;"/><!--MD5=[bcf8aff5ad05bd16158c5975b8a13c78]
link SimpleJobOperator to JobExplorer--><path d="M1155.76,266.66 C1118.76,330.04 1052.72,443.14 1013.28,510.7 " fill="none" id="SimpleJobOperator-&gt;JobExplorer" style="stroke: #225C4D; stroke-width: 2.0;"/><polygon fill="#225C4D" points="1008.14,519.52,1024.1436,508.0358,1013.1965,510.8926,1010.3397,499.9455,1008.14,519.52" style="stroke: #225C4D; stroke-width: 2.0;"/><!--MD5=[36052bef22b2f0610b42457022e490cc]
link SimpleJobOperator to JobRegistry--><path d="M1209.98,266.66 C1246.6,330.04 1311.98,443.14 1351.04,510.7 " fill="none" id="SimpleJobOperator-&gt;JobRegistry" style="stroke: #225C4D; stroke-width: 2.0;"/><polygon fill="#225C4D" points="1356.14,519.52,1354.0652,499.9319,1351.1387,510.8605,1340.21,507.934,1356.14,519.52" style="stroke: #225C4D; stroke-width: 2.0;"/><!--MD5=[6118bae3b9ba05f0dc3b9ecf45fc5cc1]
link SimpleJobOperator to JobRepository--><path d="M1265.16,266.3 C1379.82,330.92 1587.08,447.7 1706.2,514.82 " fill="none" id="SimpleJobOperator-&gt;JobRepository" style="stroke: #225C4D; stroke-width: 2.0;"/><polygon fill="#225C4D" points="1715.32,519.98,1703.5932,504.1534,1706.6165,515.0557,1695.7142,518.079,1715.32,519.98" style="stroke: #225C4D; stroke-width: 2.0;"/><!--MD5=[fb3b1f0ccbe86ba73c8a1a1cff3b56f2]
@startuml
skinparam class {
 BackgroundColor #DDEEE8
 BorderColor #225C4D
 ArrowColor #225C4D
 }
scale 2
skinparam nodesep 100
skinparam ranksep 50

interface JobLauncher
interface JobExplorer
interface JobRegistry
interface JobRepository

interface JobOperator {
    start(jobName: String, parameters: String): Long
    restart(executionId: long): Long
    stop(executionId: long): boolean
    abandon(jobExecutionId: long): JobExecution
    startNextInstance(jobName: String): Long
    getJobNames(): Set<String>
    getJobInstances(jobName: String, arg1: start, arg2: count): List<Long>
    getExecutions(instanceId: long): List<Long>
    getRunningExecutions(jobName: String): Set<Long>
    getParameters(executionId: long): String
    getSummary(executionId: long): String
    getStepExecutionSummaries(executionId: long): Map<Long, String>
}

JobOperator <|. SimpleJobOperator

SimpleJobOperator - -> JobLauncher
SimpleJobOperator - -> JobExplorer
SimpleJobOperator - -> JobRegistry
SimpleJobOperator - -> JobRepository
@enduml

PlantUML version 1.2019.12(Sun Nov 03 11:24:54 CET 2019)
(APACHE source distribution)
Java Runtime: OpenJDK Runtime Environment
JVM: OpenJDK 64-Bit Server VM
Java Version: 17.0.6+10-Debian-1deb11u1
Operating System: Linux
Default Encoding: UTF-8
Language: en
Country: DK
--></g></svg>