<?xml version="1.0" encoding="UTF-8" standalone="no"?><svg xmlns="http://www.w3.org/2000/svg" xmlns:xlink="http://www.w3.org/1999/xlink" contentScriptType="application/ecmascript" contentStyleType="text/css" height="234px" preserveAspectRatio="none" style="width:402px;height:234px;" version="1.1" viewBox="0 0 402 234" width="402px" zoomAndPan="magnify"><defs><filter height="300%" id="fjob95k1s9jvo" width="300%" x="-1" y="-1"><feGaussianBlur result="blurOut" stdDeviation="4.0"/><feColorMatrix in="blurOut" result="blurOut2" type="matrix" values="0 0 0 0 0 0 0 0 0 0 0 0 0 0 0 0 0 0 .4 0"/><feOffset dx="8.0" dy="8.0" in="blurOut2" result="blurOut3"/><feBlend in="SourceGraphic" in2="blurOut3" mode="normal"/></filter></defs><g><!--MD5=[0cce4df4313332520a583b9da0bd5d6d]
class JobParameters--><rect fill="#DDEEE8" filter="url(#fjob95k1s9jvo)" height="198.4375" id="JobParameters" style="stroke: #225C4D; stroke-width: 3.0;" width="366" x="14" y="14"/><ellipse cx="97.1" cy="46" fill="#ADD1B2" rx="22" ry="22" style="stroke: #225C4D; stroke-width: 2.0;"/><path d="M103.0375,57.2813 Q101.8813,57.875 100.6,58.1563 Q99.3188,58.4688 97.9125,58.4688 Q92.9125,58.4688 90.2563,55.1875 Q87.6313,51.875 87.6313,45.625 Q87.6313,39.375 90.2563,36.0625 Q92.9125,32.75 97.9125,32.75 Q99.3188,32.75 100.6,33.0625 Q101.9125,33.375 103.0375,33.9688 L103.0375,39.4063 Q101.7875,38.25 100.6,37.7188 Q99.4125,37.1563 98.1625,37.1563 Q95.475,37.1563 94.1,39.3125 Q92.725,41.4375 92.725,45.625 Q92.725,49.8125 94.1,51.9688 Q95.475,54.0938 98.1625,54.0938 Q99.4125,54.0938 100.6,53.5625 Q101.7875,53 103.0375,51.8438 L103.0375,57.2813 Z "/><text fill="#000000" font-family="sans-serif" font-size="24" lengthAdjust="spacingAndGlyphs" textLength="184" x="136.9" y="54.3086">JobParameters</text><line style="stroke: #225C4D; stroke-width: 3.0;" x1="16" x2="378" y1="78" y2="78"/><line style="stroke: #225C4D; stroke-width: 3.0;" x1="16" x2="378" y1="94" y2="94"/><text fill="#000000" font-family="sans-serif" font-size="22" lengthAdjust="spacingAndGlyphs" textLength="290" x="26" y="122.4209">getDate(key: String): Date</text><text fill="#000000" font-family="sans-serif" font-size="22" lengthAdjust="spacingAndGlyphs" textLength="342" x="26" y="148.0303">getDouble(key: String): Double</text><text fill="#000000" font-family="sans-serif" font-size="22" lengthAdjust="spacingAndGlyphs" textLength="294" x="26" y="173.6396">getLong(key: String): Long</text><text fill="#000000" font-family="sans-serif" font-size="22" lengthAdjust="spacingAndGlyphs" textLength="322" x="26" y="199.249">getString(key: String): String</text><!--MD5=[f485f6f8fb8d98974614c4b04edb5535]
@startuml
skinparam class {
 BackgroundColor #DDEEE8
 BorderColor #225C4D
 ArrowColor #225C4D
 }
scale 2

class JobParameters {
    getDate(key: String): Date
    getDouble(key: String): Double
    getLong(key: String): Long
    getString(key: String): String
}
@enduml

PlantUML version 1.2019.12(Sun Nov 03 11:24:54 CET 2019)
(APACHE source distribution)
Java Runtime: OpenJDK Runtime Environment
JVM: OpenJDK 64-Bit Server VM
Java Version: 17.0.6+10-Debian-1deb11u1
Operating System: Linux
Default Encoding: UTF-8
Language: en
Country: DK
--></g></svg>