<?xml version="1.0" encoding="UTF-8" standalone="no"?><svg xmlns="http://www.w3.org/2000/svg" xmlns:xlink="http://www.w3.org/1999/xlink" contentScriptType="application/ecmascript" contentStyleType="text/css" height="772px" preserveAspectRatio="none" style="width:556px;height:772px;" version="1.1" viewBox="0 0 556 772" width="556px" zoomAndPan="magnify"><defs><filter height="300%" id="f2mht9jj0btpa" width="300%" x="-1" y="-1"><feGaussianBlur result="blurOut" stdDeviation="4.0"/><feColorMatrix in="blurOut" result="blurOut2" type="matrix" values="0 0 0 0 0 0 0 0 0 0 0 0 0 0 0 0 0 0 .4 0"/><feOffset dx="8.0" dy="8.0" in="blurOut2" result="blurOut3"/><feBlend in="SourceGraphic" in2="blurOut3" mode="normal"/></filter></defs><g><!--MD5=[61fe05900995e506476dd9053fb879ec]
cluster javax.batch.api.chunk--><polygon fill="#FFFFFF" filter="url(#f2mht9jj0btpa)" points="44,48,396,48,410,92.5938,512,92.5938,512,748,44,748,44,48" style="stroke: #000000; stroke-width: 3.0;"/><line style="stroke: #000000; stroke-width: 3.0;" x1="44" x2="410" y1="92.5938" y2="92.5938"/><text fill="#000000" font-family="sans-serif" font-size="28" font-weight="bold" lengthAdjust="spacingAndGlyphs" textLength="340" x="52" y="77.9902">javax.batch.api.chunk</text><!--MD5=[f90aa14bed8e8e84a5ee92e7126a3c84]
class ItemReader--><rect fill="#DDEEE8" filter="url(#f2mht9jj0btpa)" height="198.4375" id="ItemReader" style="stroke: #225C4D; stroke-width: 3.0;" width="400" x="78" y="118"/><ellipse cx="200.5" cy="150" fill="#B4A7E5" rx="22" ry="22" style="stroke: #225C4D; stroke-width: 2.0;"/><path d="M192.3438,141.5313 L192.3438,137.2188 L207.125,137.2188 L207.125,141.5313 L202.1875,141.5313 L202.1875,157.6875 L207.125,157.6875 L207.125,162 L192.3438,162 L192.3438,157.6875 L197.2813,157.6875 L197.2813,141.5313 L192.3438,141.5313 Z "/><text fill="#000000" font-family="sans-serif" font-size="24" font-style="italic" lengthAdjust="spacingAndGlyphs" textLength="138" x="241.5" y="158.3086">ItemReader</text><line style="stroke: #225C4D; stroke-width: 3.0;" x1="80" x2="476" y1="182" y2="182"/><line style="stroke: #225C4D; stroke-width: 3.0;" x1="80" x2="476" y1="198" y2="198"/><text fill="#000000" font-family="sans-serif" font-size="22" lengthAdjust="spacingAndGlyphs" textLength="204" x="90" y="226.4209">readItem(): Object</text><text fill="#000000" font-family="sans-serif" font-size="22" lengthAdjust="spacingAndGlyphs" textLength="336" x="90" y="252.0303">open(checkpoint: Serializable)</text><text fill="#000000" font-family="sans-serif" font-size="22" lengthAdjust="spacingAndGlyphs" textLength="76" x="90" y="277.6396">close()</text><text fill="#000000" font-family="sans-serif" font-size="22" lengthAdjust="spacingAndGlyphs" textLength="322" x="90" y="303.249">checkpointInfo(): Serializable</text><!--MD5=[e873b9cf33adbd0fdfdcf803530782e0]
class ItemProcessor--><rect fill="#DDEEE8" filter="url(#f2mht9jj0btpa)" height="121.6094" id="ItemProcessor" style="stroke: #225C4D; stroke-width: 3.0;" width="404" x="76" y="356"/><ellipse cx="185.5" cy="388" fill="#B4A7E5" rx="22" ry="22" style="stroke: #225C4D; stroke-width: 2.0;"/><path d="M177.3438,379.5313 L177.3438,375.2188 L192.125,375.2188 L192.125,379.5313 L187.1875,379.5313 L187.1875,395.6875 L192.125,395.6875 L192.125,400 L177.3438,400 L177.3438,395.6875 L182.2813,395.6875 L182.2813,379.5313 L177.3438,379.5313 Z "/><text fill="#000000" font-family="sans-serif" font-size="24" font-style="italic" lengthAdjust="spacingAndGlyphs" textLength="168" x="226.5" y="396.3086">ItemProcessor</text><line style="stroke: #225C4D; stroke-width: 3.0;" x1="78" x2="478" y1="420" y2="420"/><line style="stroke: #225C4D; stroke-width: 3.0;" x1="78" x2="478" y1="436" y2="436"/><text fill="#000000" font-family="sans-serif" font-size="22" lengthAdjust="spacingAndGlyphs" textLength="380" x="88" y="464.4209">processItem(item: Object): Object</text><!--MD5=[2fbb5e2e3f57d0c06a725c10dc462a50]
class ItemWriter--><rect fill="#DDEEE8" filter="url(#f2mht9jj0btpa)" height="198.4375" id="ItemWriter" style="stroke: #225C4D; stroke-width: 3.0;" width="400" x="78" y="518"/><ellipse cx="205.5" cy="550" fill="#B4A7E5" rx="22" ry="22" style="stroke: #225C4D; stroke-width: 2.0;"/><path d="M197.3438,541.5313 L197.3438,537.2188 L212.125,537.2188 L212.125,541.5313 L207.1875,541.5313 L207.1875,557.6875 L212.125,557.6875 L212.125,562 L197.3438,562 L197.3438,557.6875 L202.2813,557.6875 L202.2813,541.5313 L197.3438,541.5313 Z "/><text fill="#000000" font-family="sans-serif" font-size="24" font-style="italic" lengthAdjust="spacingAndGlyphs" textLength="128" x="246.5" y="558.3086">ItemWriter</text><line style="stroke: #225C4D; stroke-width: 3.0;" x1="80" x2="476" y1="582" y2="582"/><line style="stroke: #225C4D; stroke-width: 3.0;" x1="80" x2="476" y1="598" y2="598"/><text fill="#000000" font-family="sans-serif" font-size="22" lengthAdjust="spacingAndGlyphs" textLength="338" x="90" y="626.4209">writeItems(List&lt;Object&gt;: List)</text><text fill="#000000" font-family="sans-serif" font-size="22" lengthAdjust="spacingAndGlyphs" textLength="336" x="90" y="652.0303">open(checkpoint: Serializable)</text><text fill="#000000" font-family="sans-serif" font-size="22" lengthAdjust="spacingAndGlyphs" textLength="76" x="90" y="677.6396">close()</text><text fill="#000000" font-family="sans-serif" font-size="22" lengthAdjust="spacingAndGlyphs" textLength="322" x="90" y="703.249">checkpointInfo(): Serializable</text><!--MD5=[95c74d419e759e783f5c593fdbe88dd6]
link ItemReader to ItemProcessor--><!--MD5=[427a2aa27724aa82aa28f1f7de0e8d4b]
link ItemProcessor to ItemWriter--><!--MD5=[526ba81c9be6ba5d5525a89a30818c76]
@startuml
skinparam class {
 BackgroundColor #DDEEE8
 BorderColor #225C4D
 ArrowColor #225C4D
 }
scale 2
skinparam nodesep 100
skinparam ranksep 20
skinparam minclasswidth 200

package javax.batch.api.chunk {
interface ItemReader {
    readItem(): Object
    open(checkpoint: Serializable)
    close()
    checkpointInfo(): Serializable
}
interface ItemProcessor {
    processItem(item: Object): Object
}
interface ItemWriter {
    writeItems(List<Object>: List)
    open(checkpoint: Serializable)
    close()
    checkpointInfo(): Serializable
}

ItemReader -[hidden]-> ItemProcessor
ItemProcessor -[hidden]-> ItemWriter
}
@enduml

PlantUML version 1.2019.12(Sun Nov 03 11:24:54 CET 2019)
(APACHE source distribution)
Java Runtime: OpenJDK Runtime Environment
JVM: OpenJDK 64-Bit Server VM
Java Version: 17.0.6+10-Debian-1deb11u1
Operating System: Linux
Default Encoding: UTF-8
Language: en
Country: DK
--></g></svg>