<?xml version="1.0" encoding="UTF-8" standalone="no"?><svg xmlns="http://www.w3.org/2000/svg" xmlns:xlink="http://www.w3.org/1999/xlink" contentScriptType="application/ecmascript" contentStyleType="text/css" height="887.4px" preserveAspectRatio="none" style="width:2786px;height:887px;" version="1.1" viewBox="0 0 2786 887" width="2786.4px" zoomAndPan="magnify"><defs><filter height="300%" id="f1b0o7v7id4b8x" width="300%" x="-1" y="-1"><feGaussianBlur result="blurOut" stdDeviation="3.6"/><feColorMatrix in="blurOut" result="blurOut2" type="matrix" values="0 0 0 0 0 0 0 0 0 0 0 0 0 0 0 0 0 0 .4 0"/><feOffset dx="7.2" dy="7.2" in="blurOut2" result="blurOut3"/><feBlend in="SourceGraphic" in2="blurOut3" mode="normal"/></filter></defs><g><!--MD5=[83dc641e30339b6464d14ff5bfd58dfe]
class JobExecutionListener--><rect fill="#DDEEE8" filter="url(#f1b0o7v7id4b8x)" height="132.4969" id="JobExecutionListener" style="stroke: #225C4D; stroke-width: 2.7;" width="401.4" x="54.9" y="14.4"/><ellipse cx="135.45" cy="43.2" fill="#B4A7E5" rx="19.8" ry="19.8" style="stroke: #225C4D; stroke-width: 1.8;"/><path d="M128.1094,35.5781 L128.1094,31.6969 L141.4125,31.6969 L141.4125,35.5781 L136.9688,35.5781 L136.9688,50.1188 L141.4125,50.1188 L141.4125,54 L128.1094,54 L128.1094,50.1188 L132.5531,50.1188 L132.5531,35.5781 L128.1094,35.5781 Z "/><text fill="#000000" font-family="sans-serif" font-size="21.6" font-style="italic" lengthAdjust="spacingAndGlyphs" textLength="225" x="172.35" y="50.6777">JobExecutionListener</text><line style="stroke: #225C4D; stroke-width: 2.7;" x1="56.7" x2="454.5" y1="72" y2="72"/><line style="stroke: #225C4D; stroke-width: 2.7;" x1="56.7" x2="454.5" y1="86.4" y2="86.4"/><text fill="#000000" font-family="sans-serif" font-size="19.8" lengthAdjust="spacingAndGlyphs" textLength="379.8" x="65.7" y="111.9788">beforeJob(jobExecution: JobExecution)</text><text fill="#000000" font-family="sans-serif" font-size="19.8" lengthAdjust="spacingAndGlyphs" textLength="361.8" x="65.7" y="135.0272">afterJob(jobExecution: JobExecution)</text><!--MD5=[d6dd9f3fbc2769f0f94b722825c215e2]
class StepExecutionListener--><rect fill="#DDEEE8" filter="url(#f1b0o7v7id4b8x)" height="132.4969" id="StepExecutionListener" style="stroke: #225C4D; stroke-width: 2.7;" width="545.4" x="625.5" y="14.4"/><ellipse cx="769.95" cy="43.2" fill="#B4A7E5" rx="19.8" ry="19.8" style="stroke: #225C4D; stroke-width: 1.8;"/><path d="M762.6094,35.5781 L762.6094,31.6969 L775.9125,31.6969 L775.9125,35.5781 L771.4688,35.5781 L771.4688,50.1188 L775.9125,50.1188 L775.9125,54 L762.6094,54 L762.6094,50.1188 L767.0531,50.1188 L767.0531,35.5781 L762.6094,35.5781 Z "/><text fill="#000000" font-family="sans-serif" font-size="21.6" font-style="italic" lengthAdjust="spacingAndGlyphs" textLength="241.2" x="806.85" y="50.6777">StepExecutionListener</text><line style="stroke: #225C4D; stroke-width: 2.7;" x1="627.3" x2="1169.1" y1="72" y2="72"/><line style="stroke: #225C4D; stroke-width: 2.7;" x1="627.3" x2="1169.1" y1="86.4" y2="86.4"/><text fill="#000000" font-family="sans-serif" font-size="19.8" lengthAdjust="spacingAndGlyphs" textLength="426.6" x="636.3" y="111.9788">beforeStep(stepExecution: StepExecution)</text><text fill="#000000" font-family="sans-serif" font-size="19.8" lengthAdjust="spacingAndGlyphs" textLength="523.8" x="636.3" y="135.0272">afterStep(stepExecution: StepExecution): ExitStatus</text><!--MD5=[0e92131517907543a9f7e978eae55bd3]
class JobExecutionListenerSupport--><rect fill="#DDEEE8" filter="url(#f1b0o7v7id4b8x)" height="86.4" id="JobExecutionListenerSupport" style="stroke: #225C4D; stroke-width: 2.7;" width="381.6" x="10.8" y="552.6"/><ellipse cx="37.8" cy="581.4" fill="#ADD1B2" rx="19.8" ry="19.8" style="stroke: #225C4D; stroke-width: 1.8;"/><path d="M43.1438,591.5531 Q42.1031,592.0875 40.95,592.3406 Q39.7969,592.6219 38.5313,592.6219 Q34.0313,592.6219 31.6406,589.6688 Q29.2781,586.6875 29.2781,581.0625 Q29.2781,575.4375 31.6406,572.4563 Q34.0313,569.475 38.5313,569.475 Q39.7969,569.475 40.95,569.7563 Q42.1313,570.0375 43.1438,570.5719 L43.1438,575.4656 Q42.0188,574.425 40.95,573.9469 Q39.8813,573.4406 38.7563,573.4406 Q36.3375,573.4406 35.1,575.3813 Q33.8625,577.2938 33.8625,581.0625 Q33.8625,584.8313 35.1,586.7719 Q36.3375,588.6844 38.7563,588.6844 Q39.8813,588.6844 40.95,588.2063 Q42.0188,587.7 43.1438,586.6594 L43.1438,591.5531 Z "/><text fill="#000000" font-family="sans-serif" font-size="21.6" lengthAdjust="spacingAndGlyphs" textLength="324" x="63" y="588.8777">JobExecutionListenerSupport</text><line style="stroke: #225C4D; stroke-width: 2.7;" x1="12.6" x2="390.6" y1="610.2" y2="610.2"/><line style="stroke: #225C4D; stroke-width: 2.7;" x1="12.6" x2="390.6" y1="624.6" y2="624.6"/><!--MD5=[f6ba5e16ab7a2b8c1ca9b4919c6b0c7b]
class StepListener--><rect fill="#DDEEE8" filter="url(#f1b0o7v7id4b8x)" height="86.4" id="StepListener" style="stroke: #225C4D; stroke-width: 2.7;" width="192.6" x="1579.5" y="37.8"/><ellipse cx="1606.5" cy="66.6" fill="#B4A7E5" rx="19.8" ry="19.8" style="stroke: #225C4D; stroke-width: 1.8;"/><path d="M1599.1594,58.9781 L1599.1594,55.0969 L1612.4625,55.0969 L1612.4625,58.9781 L1608.0188,58.9781 L1608.0188,73.5188 L1612.4625,73.5188 L1612.4625,77.4 L1599.1594,77.4 L1599.1594,73.5188 L1603.6031,73.5188 L1603.6031,58.9781 L1599.1594,58.9781 Z "/><text fill="#000000" font-family="sans-serif" font-size="21.6" font-style="italic" lengthAdjust="spacingAndGlyphs" textLength="135" x="1631.7" y="74.0777">StepListener</text><line style="stroke: #225C4D; stroke-width: 2.7;" x1="1581.3" x2="1770.3" y1="95.4" y2="95.4"/><line style="stroke: #225C4D; stroke-width: 2.7;" x1="1581.3" x2="1770.3" y1="109.8" y2="109.8"/><!--MD5=[bd7b404dde9515437559308ac3a65cb1]
class StepExecutionListenerSupport--><rect fill="#DDEEE8" filter="url(#f1b0o7v7id4b8x)" height="86.4" id="StepExecutionListenerSupport" style="stroke: #225C4D; stroke-width: 2.7;" width="399.6" x="455.4" y="552.6"/><ellipse cx="482.4" cy="581.4" fill="#ADD1B2" rx="19.8" ry="19.8" style="stroke: #225C4D; stroke-width: 1.8;"/><path d="M487.7438,591.5531 Q486.7031,592.0875 485.55,592.3406 Q484.3969,592.6219 483.1313,592.6219 Q478.6313,592.6219 476.2406,589.6688 Q473.8781,586.6875 473.8781,581.0625 Q473.8781,575.4375 476.2406,572.4563 Q478.6313,569.475 483.1313,569.475 Q484.3969,569.475 485.55,569.7563 Q486.7313,570.0375 487.7438,570.5719 L487.7438,575.4656 Q486.6188,574.425 485.55,573.9469 Q484.4813,573.4406 483.3563,573.4406 Q480.9375,573.4406 479.7,575.3813 Q478.4625,577.2938 478.4625,581.0625 Q478.4625,584.8313 479.7,586.7719 Q480.9375,588.6844 483.3563,588.6844 Q484.4813,588.6844 485.55,588.2063 Q486.6188,587.7 487.7438,586.6594 L487.7438,591.5531 Z "/><text fill="#000000" font-family="sans-serif" font-size="21.6" lengthAdjust="spacingAndGlyphs" textLength="342" x="507.6" y="588.8777">StepExecutionListenerSupport</text><line style="stroke: #225C4D; stroke-width: 2.7;" x1="457.2" x2="853.2" y1="610.2" y2="610.2"/><line style="stroke: #225C4D; stroke-width: 2.7;" x1="457.2" x2="853.2" y1="624.6" y2="624.6"/><!--MD5=[bd8ce3c3415c95c1e4acae3f93779fd8]
class ChunkListener--><rect fill="#DDEEE8" filter="url(#f1b0o7v7id4b8x)" height="155.5453" id="ChunkListener" style="stroke: #225C4D; stroke-width: 2.7;" width="426.6" x="1075.5" y="255.6"/><ellipse cx="1205.55" cy="284.4" fill="#B4A7E5" rx="19.8" ry="19.8" style="stroke: #225C4D; stroke-width: 1.8;"/><path d="M1198.2094,276.7781 L1198.2094,272.8969 L1211.5125,272.8969 L1211.5125,276.7781 L1207.0688,276.7781 L1207.0688,291.3188 L1211.5125,291.3188 L1211.5125,295.2 L1198.2094,295.2 L1198.2094,291.3188 L1202.6531,291.3188 L1202.6531,276.7781 L1198.2094,276.7781 Z "/><text fill="#000000" font-family="sans-serif" font-size="21.6" font-style="italic" lengthAdjust="spacingAndGlyphs" textLength="151.2" x="1242.45" y="291.8777">ChunkListener</text><line style="stroke: #225C4D; stroke-width: 2.7;" x1="1077.3" x2="1500.3" y1="313.2" y2="313.2"/><line style="stroke: #225C4D; stroke-width: 2.7;" x1="1077.3" x2="1500.3" y1="327.6" y2="327.6"/><text fill="#000000" font-family="sans-serif" font-size="19.8" lengthAdjust="spacingAndGlyphs" textLength="370.8" x="1086.3" y="353.1788">beforeChunk(context: ChunkContext)</text><text fill="#000000" font-family="sans-serif" font-size="19.8" lengthAdjust="spacingAndGlyphs" textLength="352.8" x="1086.3" y="376.2272">afterChunk(context: ChunkContext)</text><text fill="#000000" font-family="sans-serif" font-size="19.8" lengthAdjust="spacingAndGlyphs" textLength="405" x="1086.3" y="399.2757">afterChunkError(context: ChunkContext)</text><!--MD5=[76c8a5a723887a2748834296ced27beb]
class ItemReadListener--><rect fill="#DDEEE8" filter="url(#f1b0o7v7id4b8x)" height="155.5453" id="ItemReadListener" style="stroke: #225C4D; stroke-width: 2.7;" width="297" x="1174.5" y="518.4"/><ellipse cx="1216.08" cy="547.2" fill="#B4A7E5" rx="19.8" ry="19.8" style="stroke: #225C4D; stroke-width: 1.8;"/><path d="M1208.7394,539.5781 L1208.7394,535.6969 L1222.0425,535.6969 L1222.0425,539.5781 L1217.5988,539.5781 L1217.5988,554.1188 L1222.0425,554.1188 L1222.0425,558 L1208.7394,558 L1208.7394,554.1188 L1213.1831,554.1188 L1213.1831,539.5781 L1208.7394,539.5781 Z "/><text fill="#000000" font-family="sans-serif" font-size="21.6" font-style="italic" lengthAdjust="spacingAndGlyphs" textLength="187.2" x="1244.52" y="554.6777">ItemReadListener</text><rect fill="#FFFFFF" height="28.7438" style="stroke: #000000; stroke-width: 1.8; stroke-dasharray: 2.0,2.0;" width="16.2" x="1460.7" y="513"/><text fill="#000000" font-family="sans-serif" font-size="21.6" font-style="italic" lengthAdjust="spacingAndGlyphs" textLength="12.6" x="1462.5" y="534.8496">T</text><line style="stroke: #225C4D; stroke-width: 2.7;" x1="1176.3" x2="1469.7" y1="576" y2="576"/><line style="stroke: #225C4D; stroke-width: 2.7;" x1="1176.3" x2="1469.7" y1="590.4" y2="590.4"/><text fill="#000000" font-family="sans-serif" font-size="19.8" lengthAdjust="spacingAndGlyphs" textLength="131.4" x="1185.3" y="615.9788">beforeRead()</text><text fill="#000000" font-family="sans-serif" font-size="19.8" lengthAdjust="spacingAndGlyphs" textLength="183.6" x="1185.3" y="639.0272">afterRead(item: T)</text><text fill="#000000" font-family="sans-serif" font-size="19.8" lengthAdjust="spacingAndGlyphs" textLength="275.4" x="1185.3" y="662.0757">onReadError(ex: Exception)</text><!--MD5=[503e73b2ff1a35b52dd6abf43c66a9c4]
class ItemProcessListener--><rect fill="#DDEEE8" filter="url(#f1b0o7v7id4b8x)" height="155.5453" id="ItemProcessListener" style="stroke: #225C4D; stroke-width: 2.7;" width="444.6" x="1534.5" y="518.4"/><ellipse cx="1617.75" cy="547.2" fill="#B4A7E5" rx="19.8" ry="19.8" style="stroke: #225C4D; stroke-width: 1.8;"/><path d="M1610.4094,539.5781 L1610.4094,535.6969 L1623.7125,535.6969 L1623.7125,539.5781 L1619.2688,539.5781 L1619.2688,554.1188 L1623.7125,554.1188 L1623.7125,558 L1610.4094,558 L1610.4094,554.1188 L1614.8531,554.1188 L1614.8531,539.5781 L1610.4094,539.5781 Z "/><text fill="#000000" font-family="sans-serif" font-size="21.6" font-style="italic" lengthAdjust="spacingAndGlyphs" textLength="214.2" x="1654.65" y="554.6777">ItemProcessListener</text><rect fill="#FFFFFF" height="28.7438" style="stroke: #000000; stroke-width: 1.8; stroke-dasharray: 2.0,2.0;" width="45" x="1939.5" y="513"/><text fill="#000000" font-family="sans-serif" font-size="21.6" font-style="italic" lengthAdjust="spacingAndGlyphs" textLength="41.4" x="1941.3" y="534.8496">T, S</text><line style="stroke: #225C4D; stroke-width: 2.7;" x1="1536.3" x2="1977.3" y1="576" y2="576"/><line style="stroke: #225C4D; stroke-width: 2.7;" x1="1536.3" x2="1977.3" y1="590.4" y2="590.4"/><text fill="#000000" font-family="sans-serif" font-size="19.8" lengthAdjust="spacingAndGlyphs" textLength="234" x="1545.3" y="615.9788">beforeProcess(item: T)</text><text fill="#000000" font-family="sans-serif" font-size="19.8" lengthAdjust="spacingAndGlyphs" textLength="423" x="1545.3" y="639.0272">afterProcess(item: T, @Nullable result: S)</text><text fill="#000000" font-family="sans-serif" font-size="19.8" lengthAdjust="spacingAndGlyphs" textLength="390.6" x="1545.3" y="662.0757">onProcessError(item: T, ex: Exception)</text><!--MD5=[43049aad411ea5ce78a8c1e2de48fc78]
class ItemWriteListener--><rect fill="#DDEEE8" filter="url(#f1b0o7v7id4b8x)" height="155.5453" id="ItemWriteListener" style="stroke: #225C4D; stroke-width: 2.7;" width="565.2" x="2043" y="518.4"/><ellipse cx="2211.75" cy="547.2" fill="#B4A7E5" rx="19.8" ry="19.8" style="stroke: #225C4D; stroke-width: 1.8;"/><path d="M2204.4094,539.5781 L2204.4094,535.6969 L2217.7125,535.6969 L2217.7125,539.5781 L2213.2688,539.5781 L2213.2688,554.1188 L2217.7125,554.1188 L2217.7125,558 L2204.4094,558 L2204.4094,554.1188 L2208.8531,554.1188 L2208.8531,539.5781 L2204.4094,539.5781 Z "/><text fill="#000000" font-family="sans-serif" font-size="21.6" font-style="italic" lengthAdjust="spacingAndGlyphs" textLength="190.8" x="2248.65" y="554.6777">ItemWriteListener</text><rect fill="#FFFFFF" height="28.7438" style="stroke: #000000; stroke-width: 1.8; stroke-dasharray: 2.0,2.0;" width="18" x="2595.6" y="513"/><text fill="#000000" font-family="sans-serif" font-size="21.6" font-style="italic" lengthAdjust="spacingAndGlyphs" textLength="14.4" x="2597.4" y="534.8496">S</text><line style="stroke: #225C4D; stroke-width: 2.7;" x1="2044.8" x2="2606.4" y1="576" y2="576"/><line style="stroke: #225C4D; stroke-width: 2.7;" x1="2044.8" x2="2606.4" y1="590.4" y2="590.4"/><text fill="#000000" font-family="sans-serif" font-size="19.8" lengthAdjust="spacingAndGlyphs" textLength="387" x="2053.8" y="615.9788">beforeWrite(items: List&lt;? extends S&gt;)</text><text fill="#000000" font-family="sans-serif" font-size="19.8" lengthAdjust="spacingAndGlyphs" textLength="369" x="2053.8" y="639.0272">afterWrite(items: List&lt;? extends S&gt;)</text><text fill="#000000" font-family="sans-serif" font-size="19.8" lengthAdjust="spacingAndGlyphs" textLength="543.6" x="2053.8" y="662.0757">onWriteError(ex: Exception, items: List&lt;? extends S&gt;)</text><!--MD5=[b5073d261100231ff431ca56b0b34e2b]
class SkipListener--><rect fill="#DDEEE8" filter="url(#f1b0o7v7id4b8x)" height="155.5453" id="SkipListener" style="stroke: #225C4D; stroke-width: 2.7;" width="415.8" x="2346.3" y="255.6"/><ellipse cx="2460.15" cy="284.4" fill="#B4A7E5" rx="19.8" ry="19.8" style="stroke: #225C4D; stroke-width: 1.8;"/><path d="M2452.8094,276.7781 L2452.8094,272.8969 L2466.1125,272.8969 L2466.1125,276.7781 L2461.6688,276.7781 L2461.6688,291.3188 L2466.1125,291.3188 L2466.1125,295.2 L2452.8094,295.2 L2452.8094,291.3188 L2457.2531,291.3188 L2457.2531,276.7781 L2452.8094,276.7781 Z "/><text fill="#000000" font-family="sans-serif" font-size="21.6" font-style="italic" lengthAdjust="spacingAndGlyphs" textLength="131.4" x="2497.05" y="291.8777">SkipListener</text><rect fill="#FFFFFF" height="28.7438" style="stroke: #000000; stroke-width: 1.8; stroke-dasharray: 2.0,2.0;" width="37.8" x="2729.7" y="250.2"/><text fill="#000000" font-family="sans-serif" font-size="21.6" font-style="italic" lengthAdjust="spacingAndGlyphs" textLength="34.2" x="2731.5" y="272.0496">T,S</text><line style="stroke: #225C4D; stroke-width: 2.7;" x1="2348.1" x2="2760.3" y1="313.2" y2="313.2"/><line style="stroke: #225C4D; stroke-width: 2.7;" x1="2348.1" x2="2760.3" y1="327.6" y2="327.6"/><text fill="#000000" font-family="sans-serif" font-size="19.8" lengthAdjust="spacingAndGlyphs" textLength="277.2" x="2357.1" y="353.1788">onSkipInRead(t: Throwable)</text><text fill="#000000" font-family="sans-serif" font-size="19.8" lengthAdjust="spacingAndGlyphs" textLength="394.2" x="2357.1" y="376.2272">onSkipInProcess(item: S, t: Throwable)</text><text fill="#000000" font-family="sans-serif" font-size="19.8" lengthAdjust="spacingAndGlyphs" textLength="360" x="2357.1" y="399.2757">onSkipInWrite(item: T, t: Throwable)</text><!--MD5=[3478bf19530094a4ebd86cd231c320f8]
class StepListenerSupport--><rect fill="#DDEEE8" filter="url(#f1b0o7v7id4b8x)" height="86.4" id="StepListenerSupport" style="stroke: #225C4D; stroke-width: 2.7;" width="331.2" x="1373.4" y="781.2"/><ellipse cx="1400.4" cy="810" fill="#ADD1B2" rx="19.8" ry="19.8" style="stroke: #225C4D; stroke-width: 1.8;"/><path d="M1405.7438,820.1531 Q1404.7031,820.6875 1403.55,820.9406 Q1402.3969,821.2219 1401.1313,821.2219 Q1396.6313,821.2219 1394.2406,818.2688 Q1391.8781,815.2875 1391.8781,809.6625 Q1391.8781,804.0375 1394.2406,801.0563 Q1396.6313,798.075 1401.1313,798.075 Q1402.3969,798.075 1403.55,798.3563 Q1404.7313,798.6375 1405.7438,799.1719 L1405.7438,804.0656 Q1404.6188,803.025 1403.55,802.5469 Q1402.4813,802.0406 1401.3563,802.0406 Q1398.9375,802.0406 1397.7,803.9813 Q1396.4625,805.8938 1396.4625,809.6625 Q1396.4625,813.4313 1397.7,815.3719 Q1398.9375,817.2844 1401.3563,817.2844 Q1402.4813,817.2844 1403.55,816.8063 Q1404.6188,816.3 1405.7438,815.2594 L1405.7438,820.1531 Z "/><text fill="#000000" font-family="sans-serif" font-size="21.6" lengthAdjust="spacingAndGlyphs" textLength="232.2" x="1425.6" y="817.4777">StepListenerSupport</text><rect fill="#FFFFFF" height="28.7438" style="stroke: #000000; stroke-width: 1.8; stroke-dasharray: 2.0,2.0;" width="37.8" x="1672.2" y="775.8"/><text fill="#000000" font-family="sans-serif" font-size="21.6" font-style="italic" lengthAdjust="spacingAndGlyphs" textLength="34.2" x="1674" y="797.6496">T,S</text><line style="stroke: #225C4D; stroke-width: 2.7;" x1="1375.2" x2="1702.8" y1="838.8" y2="838.8"/><line style="stroke: #225C4D; stroke-width: 2.7;" x1="1375.2" x2="1702.8" y1="853.2" y2="853.2"/><!--MD5=[f0de8a4b34b40e1368934d2937c031b0]
link JobExecutionListener to StepExecutionListener--><!--MD5=[69cce74cef2882783d4fdda5aa51cc32]
reverse link JobExecutionListener to JobExecutionListenerSupport--><path d="M244.89,184.194 C233.028,296.532 214.452,472.338 206.028,552.114 " fill="none" id="JobExecutionListener&lt;-JobExecutionListenerSupport" style="stroke: #225C4D; stroke-width: 1.8; stroke-dasharray: 7.0,7.0;"/><polygon fill="none" points="232.398,182.538,248.706,148.068,257.454,185.184,232.398,182.538" style="stroke: #225C4D; stroke-width: 1.8;"/><!--MD5=[f1e7edf3c85dda9751b2d4f063d78255]
link StepExecutionListener to StepListener--><path d="M1171.584,81 C1295.262,81 1418.958,81 1542.654,81 " fill="none" id="StepExecutionListener-&gt;StepListener" style="stroke: #225C4D; stroke-width: 1.8;"/><polygon fill="none" points="1543.284,68.4,1579.284,81,1543.284,93.6,1543.284,68.4" style="stroke: #225C4D; stroke-width: 1.8;"/><!--MD5=[b35040140640eff24d9ab2eece50d1c9]
reverse link StepExecutionListener to StepExecutionListenerSupport--><path d="M851.4,181.278 C798.066,293.454 713.358,471.636 675.108,552.114 " fill="none" id="StepExecutionListener&lt;-StepExecutionListenerSupport" style="stroke: #225C4D; stroke-width: 1.8; stroke-dasharray: 7.0,7.0;"/><polygon fill="none" points="840.348,175.176,867.186,148.068,863.1,185.994,840.348,175.176" style="stroke: #225C4D; stroke-width: 1.8;"/><!--MD5=[68486089483405f295ac89421e7a842d]
reverse link StepListener to ChunkListener--><path d="M1580.31,144.09 C1527.948,177.696 1462.59,219.654 1407.042,255.312 " fill="none" id="StepListener&lt;-ChunkListener" style="stroke: #225C4D; stroke-width: 1.8;"/><polygon fill="none" points="1573.92,133.218,1611.018,124.38,1587.528,154.422,1573.92,133.218" style="stroke: #225C4D; stroke-width: 1.8;"/><!--MD5=[7c50431237cb8fcbf137a63b94335e11]
reverse link StepListener to ItemReadListener--><path d="M1653.444,159.066 C1630.602,228.852 1590.408,332.748 1533.6,410.4 C1504.386,450.324 1465.02,487.584 1428.228,517.968 " fill="none" id="StepListener&lt;-ItemReadListener" style="stroke: #225C4D; stroke-width: 1.8;"/><polygon fill="none" points="1641.438,155.25,1664.208,124.65,1665.486,162.774,1641.438,155.25" style="stroke: #225C4D; stroke-width: 1.8;"/><!--MD5=[78a2e18d076f24453567906fc6f002d3]
reverse link StepListener to ItemProcessListener--><path d="M1688.112,160.47 C1703.466,257.382 1729.548,421.992 1744.776,518.076 " fill="none" id="StepListener&lt;-ItemProcessListener" style="stroke: #225C4D; stroke-width: 1.8;"/><polygon fill="none" points="1675.62,162.162,1682.424,124.632,1700.514,158.22,1675.62,162.162" style="stroke: #225C4D; stroke-width: 1.8;"/><!--MD5=[5ca5197f0ab95e945ac23ca62de310da]
reverse link StepListener to ItemWriteListener--><path d="M1757.286,146.916 C1877.382,241.398 2101.482,417.69 2229.444,518.364 " fill="none" id="StepListener&lt;-ItemWriteListener" style="stroke: #225C4D; stroke-width: 1.8;"/><polygon fill="none" points="1748.934,156.366,1728.432,124.2,1764.504,136.548,1748.934,156.366" style="stroke: #225C4D; stroke-width: 1.8;"/><!--MD5=[e37b547e600de1f40f460c67d290417a]
reverse link StepListener to SkipListener--><path d="M1807.002,119.898 C1949.472,160.2 2179.008,225.09 2346.102,272.358 " fill="none" id="StepListener&lt;-SkipListener" style="stroke: #225C4D; stroke-width: 1.8;"/><polygon fill="none" points="1803.528,132.012,1772.316,110.088,1810.386,107.766,1803.528,132.012" style="stroke: #225C4D; stroke-width: 1.8;"/><!--MD5=[b437fdcadff2a8624f8062942e986fcc]
reverse link StepExecutionListener to StepListenerSupport--><path d="M907.758,184.356 C925.29,314.658 974.232,539.748 1108.8,673.2 C1179.396,743.202 1284.444,780.48 1373.058,800.298 " fill="none" id="StepExecutionListener&lt;-StepListenerSupport" style="stroke: #225C4D; stroke-width: 1.8; stroke-dasharray: 7.0,7.0;"/><polygon fill="none" points="895.158,185.184,903.33,147.942,920.178,182.16,895.158,185.184" style="stroke: #225C4D; stroke-width: 1.8;"/><!--MD5=[ae1290fcb5b7d6fb6bc20bf1adc9d884]
reverse link ChunkListener to StepListenerSupport--><path d="M1191.69,438.876 C1138.662,508.77 1093.014,600.912 1143,673.2 C1194.822,748.134 1289.358,785.538 1373.058,804.168 " fill="none" id="ChunkListener&lt;-StepListenerSupport" style="stroke: #225C4D; stroke-width: 1.8; stroke-dasharray: 7.0,7.0;"/><polygon fill="none" points="1182.222,430.56,1214.622,410.418,1201.86,446.364,1182.222,430.56" style="stroke: #225C4D; stroke-width: 1.8;"/><!--MD5=[7745ec6d6d303951541c6bcfd2a24004]
reverse link ItemReadListener to StepListenerSupport--><path d="M1421.73,700.434 C1448.91,728.748 1476.882,757.89 1498.68,780.606 " fill="none" id="ItemReadListener&lt;-StepListenerSupport" style="stroke: #225C4D; stroke-width: 1.8; stroke-dasharray: 7.0,7.0;"/><polygon fill="none" points="1411.974,708.462,1396.134,673.776,1430.154,691.02,1411.974,708.462" style="stroke: #225C4D; stroke-width: 1.8;"/><!--MD5=[132d76ed9bbf5e8d858516804fb4309a]
reverse link ItemProcessListener to StepListenerSupport--><path d="M1657.26,700.434 C1629.846,728.748 1601.64,757.89 1579.644,780.606 " fill="none" id="ItemProcessListener&lt;-StepListenerSupport" style="stroke: #225C4D; stroke-width: 1.8; stroke-dasharray: 7.0,7.0;"/><polygon fill="none" points="1648.962,690.876,1683.054,673.776,1667.07,708.408,1648.962,690.876" style="stroke: #225C4D; stroke-width: 1.8;"/><!--MD5=[f591345a7376f9333210eb25535752c0]
reverse link ItemWriteListener to StepListenerSupport--><path d="M2025.828,683.352 C1908.738,716.832 1779.894,753.696 1684.17,781.074 " fill="none" id="ItemWriteListener&lt;-StepListenerSupport" style="stroke: #225C4D; stroke-width: 1.8; stroke-dasharray: 7.0,7.0;"/><polygon fill="none" points="2022.858,671.094,2060.946,673.308,2029.788,695.322,2022.858,671.094" style="stroke: #225C4D; stroke-width: 1.8;"/><!--MD5=[affe7b80a50f20c12ad54e21ab365329]
reverse link SkipListener to StepListenerSupport--><path d="M2626.542,442.368 C2665.782,515.322 2696.076,609.696 2640.6,673.2 C2580.012,742.554 1997.37,791.55 1704.834,811.98 " fill="none" id="SkipListener&lt;-StepListenerSupport" style="stroke: #225C4D; stroke-width: 1.8; stroke-dasharray: 7.0,7.0;"/><polygon fill="none" points="2615.544,448.524,2608.47,411.048,2637.378,435.924,2615.544,448.524" style="stroke: #225C4D; stroke-width: 1.8;"/><!--MD5=[0cb6aba938028cf9740f680550483d61]
@startuml
skinparam class {
 BackgroundColor #DDEEE8
 BorderColor #225C4D
 ArrowColor #225C4D
 }
scale 1.8

interface JobExecutionListener {
    beforeJob(jobExecution: JobExecution)
    afterJob(jobExecution: JobExecution)
}

JobExecutionListener -[hidden]> StepExecutionListener
JobExecutionListener <|... JobExecutionListenerSupport

interface StepListener {
}

interface StepExecutionListener {
    beforeStep(stepExecution: StepExecution)
    afterStep(stepExecution: StepExecution): ExitStatus
}

StepExecutionListener -|> StepListener
StepExecutionListener <|... StepExecutionListenerSupport

interface ChunkListener {
    beforeChunk(context: ChunkContext)
    afterChunk(context: ChunkContext)
    afterChunkError(context: ChunkContext)
}

StepListener <|- - ChunkListener

interface StepListener {
}

interface ItemReadListener<T> {
    beforeRead()
    afterRead(item: T)
    onReadError(ex: Exception)
}

StepListener <|- - - ItemReadListener

interface ItemProcessListener<T, S> {
    beforeProcess(item: T)
    afterProcess(item: T, @Nullable result: S)
    onProcessError(item: T, ex: Exception)
}

StepListener <|- - - ItemProcessListener

interface ItemWriteListener<S> {
    beforeWrite(items: List<? extends S>)
    afterWrite(items: List<? extends S>)
    onWriteError(ex: Exception, items: List<? extends S>)
}

StepListener <|- - - ItemWriteListener

interface SkipListener<T,S> {
    onSkipInRead(t: Throwable)
    onSkipInProcess(item: S, t: Throwable)
    onSkipInWrite(item: T, t: Throwable)
}

StepListener <|- - SkipListener

class StepListenerSupport<T,S>

StepExecutionListener <|.. StepListenerSupport

ChunkListener <|... StepListenerSupport

ItemReadListener <|.. StepListenerSupport

ItemProcessListener <|.. StepListenerSupport

ItemWriteListener <|.. StepListenerSupport

SkipListener <|... StepListenerSupport
@enduml

PlantUML version 1.2019.12(Sun Nov 03 11:24:54 CET 2019)
(APACHE source distribution)
Java Runtime: OpenJDK Runtime Environment
JVM: OpenJDK 64-Bit Server VM
Java Version: 17.0.6+10-Debian-1deb11u1
Operating System: Linux
Default Encoding: UTF-8
Language: en
Country: DK
--></g></svg>