<?xml version="1.0" encoding="UTF-8" standalone="no"?><svg xmlns="http://www.w3.org/2000/svg" xmlns:xlink="http://www.w3.org/1999/xlink" contentScriptType="application/ecmascript" contentStyleType="text/css" height="552px" preserveAspectRatio="none" style="width:1682px;height:552px;" version="1.1" viewBox="0 0 1682 552" width="1682px" zoomAndPan="magnify"><defs><filter height="300%" id="f8g18n4q9tvl7" width="300%" x="-1" y="-1"><feGaussianBlur result="blurOut" stdDeviation="4.0"/><feColorMatrix in="blurOut" result="blurOut2" type="matrix" values="0 0 0 0 0 0 0 0 0 0 0 0 0 0 0 0 0 0 .4 0"/><feOffset dx="8.0" dy="8.0" in="blurOut2" result="blurOut3"/><feBlend in="SourceGraphic" in2="blurOut3" mode="normal"/></filter></defs><g><!--MD5=[564f8db42eafe4d3509888761b4ff780]
class Meter--><rect fill="#DDEEE8" filter="url(#f8g18n4q9tvl7)" height="96" id="Meter" style="stroke: #225C4D; stroke-width: 3.0;" width="132" x="586" y="16"/><ellipse cx="616" cy="48" fill="#B4A7E5" rx="22" ry="22" style="stroke: #225C4D; stroke-width: 2.0;"/><path d="M607.8438,39.5313 L607.8438,35.2188 L622.625,35.2188 L622.625,39.5313 L617.6875,39.5313 L617.6875,55.6875 L622.625,55.6875 L622.625,60 L607.8438,60 L607.8438,55.6875 L612.7813,55.6875 L612.7813,39.5313 L607.8438,39.5313 Z "/><text fill="#000000" font-family="sans-serif" font-size="24" font-style="italic" lengthAdjust="spacingAndGlyphs" textLength="68" x="644" y="56.3086">Meter</text><line style="stroke: #225C4D; stroke-width: 3.0;" x1="588" x2="716" y1="80" y2="80"/><line style="stroke: #225C4D; stroke-width: 3.0;" x1="588" x2="716" y1="96" y2="96"/><path d="M998,39 L998,56 L718.02,64 L998,72 L998,89.2656 A0,0 0 0 0 998,89.2656 L1658,89.2656 A0,0 0 0 0 1658,89.2656 L1658,59 L1638,39 L998,39 A0,0 0 0 0 998,39 " fill="#FBFB77" filter="url(#f8g18n4q9tvl7)" style="stroke: #A80036; stroke-width: 2.0;"/><path d="M1638,39 L1638,59 L1658,59 L1638,39 " fill="#FBFB77" style="stroke: #A80036; stroke-width: 2.0;"/><text fill="#000000" font-family="sans-serif" font-size="26" lengthAdjust="spacingAndGlyphs" textLength="618" x="1010" y="73.1338">Jedes Meter muss in der Registry registriert sein.</text><!--MD5=[7903ffe38836cb4cd0d8847be75c158f]
class Counter--><rect fill="#DDEEE8" filter="url(#f8g18n4q9tvl7)" height="96" id="Counter" style="stroke: #225C4D; stroke-width: 3.0;" width="158" x="103" y="232"/><ellipse cx="133" cy="264" fill="#B4A7E5" rx="22" ry="22" style="stroke: #225C4D; stroke-width: 2.0;"/><path d="M124.8438,255.5313 L124.8438,251.2188 L139.625,251.2188 L139.625,255.5313 L134.6875,255.5313 L134.6875,271.6875 L139.625,271.6875 L139.625,276 L124.8438,276 L124.8438,271.6875 L129.7813,271.6875 L129.7813,255.5313 L124.8438,255.5313 Z "/><text fill="#000000" font-family="sans-serif" font-size="24" font-style="italic" lengthAdjust="spacingAndGlyphs" textLength="94" x="161" y="272.3086">Counter</text><line style="stroke: #225C4D; stroke-width: 3.0;" x1="105" x2="259" y1="296" y2="296"/><line style="stroke: #225C4D; stroke-width: 3.0;" x1="105" x2="259" y1="312" y2="312"/><path d="M12,448 L12,528.5313 A0,0 0 0 0 12,528.5313 L272,528.5313 A0,0 0 0 0 272,528.5313 L272,468 L252,448 L157.56,448 L172.92,328.3 L141.56,448 L12,448 A0,0 0 0 0 12,448 " fill="#FBFB77" filter="url(#f8g18n4q9tvl7)" style="stroke: #A80036; stroke-width: 2.0;"/><path d="M252,448 L252,468 L272,468 L252,448 " fill="#FBFB77" style="stroke: #A80036; stroke-width: 2.0;"/><text fill="#000000" font-family="sans-serif" font-size="26" lengthAdjust="spacingAndGlyphs" textLength="132" x="24" y="482.1338">Zählt z. B.</text><text fill="#000000" font-family="sans-serif" font-size="26" lengthAdjust="spacingAndGlyphs" textLength="218" x="24" y="512.3994">Methodenaufrufe</text><!--MD5=[dcf372bb47913c7657325e4b13c97c72]
class Gauge--><rect fill="#DDEEE8" filter="url(#f8g18n4q9tvl7)" height="96" id="Gauge" style="stroke: #225C4D; stroke-width: 3.0;" width="142" x="581" y="232"/><ellipse cx="611" cy="264" fill="#B4A7E5" rx="22" ry="22" style="stroke: #225C4D; stroke-width: 2.0;"/><path d="M602.8438,255.5313 L602.8438,251.2188 L617.625,251.2188 L617.625,255.5313 L612.6875,255.5313 L612.6875,271.6875 L617.625,271.6875 L617.625,276 L602.8438,276 L602.8438,271.6875 L607.7813,271.6875 L607.7813,255.5313 L602.8438,255.5313 Z "/><text fill="#000000" font-family="sans-serif" font-size="24" font-style="italic" lengthAdjust="spacingAndGlyphs" textLength="78" x="639" y="272.3086">Gauge</text><line style="stroke: #225C4D; stroke-width: 3.0;" x1="583" x2="721" y1="296" y2="296"/><line style="stroke: #225C4D; stroke-width: 3.0;" x1="583" x2="721" y1="312" y2="312"/><path d="M552,448 L552,528.5313 A0,0 0 0 0 552,528.5313 L752,528.5313 A0,0 0 0 0 752,528.5313 L752,468 L732,448 L660,448 L652,328.3 L644,448 L552,448 A0,0 0 0 0 552,448 " fill="#FBFB77" filter="url(#f8g18n4q9tvl7)" style="stroke: #A80036; stroke-width: 2.0;"/><path d="M732,448 L732,468 L752,468 L732,448 " fill="#FBFB77" style="stroke: #A80036; stroke-width: 2.0;"/><text fill="#000000" font-family="sans-serif" font-size="26" lengthAdjust="spacingAndGlyphs" textLength="158" x="564" y="482.1338">Liefert einen</text><text fill="#000000" font-family="sans-serif" font-size="26" lengthAdjust="spacingAndGlyphs" textLength="120" x="564" y="512.3994">Messwert</text><!--MD5=[1b844c90688aafb95cd8c95626c3b83a]
class Timer--><rect fill="#DDEEE8" filter="url(#f8g18n4q9tvl7)" height="96" id="Timer" style="stroke: #225C4D; stroke-width: 3.0;" width="130" x="1069" y="232"/><ellipse cx="1099" cy="264" fill="#B4A7E5" rx="22" ry="22" style="stroke: #225C4D; stroke-width: 2.0;"/><path d="M1090.8438,255.5313 L1090.8438,251.2188 L1105.625,251.2188 L1105.625,255.5313 L1100.6875,255.5313 L1100.6875,271.6875 L1105.625,271.6875 L1105.625,276 L1090.8438,276 L1090.8438,271.6875 L1095.7813,271.6875 L1095.7813,255.5313 L1090.8438,255.5313 Z "/><text fill="#000000" font-family="sans-serif" font-size="24" font-style="italic" lengthAdjust="spacingAndGlyphs" textLength="66" x="1127" y="272.3086">Timer</text><line style="stroke: #225C4D; stroke-width: 3.0;" x1="1071" x2="1197" y1="296" y2="296"/><line style="stroke: #225C4D; stroke-width: 3.0;" x1="1071" x2="1197" y1="312" y2="312"/><path d="M1033,448 L1033,528.5313 A0,0 0 0 0 1033,528.5313 L1367,528.5313 A0,0 0 0 0 1367,528.5313 L1367,468 L1347,448 L1195.52,448 L1148.98,328.3 L1179.52,448 L1033,448 A0,0 0 0 0 1033,448 " fill="#FBFB77" filter="url(#f8g18n4q9tvl7)" style="stroke: #A80036; stroke-width: 2.0;"/><path d="M1347,448 L1347,468 L1367,468 L1347,448 " fill="#FBFB77" style="stroke: #A80036; stroke-width: 2.0;"/><text fill="#000000" font-family="sans-serif" font-size="26" lengthAdjust="spacingAndGlyphs" textLength="208" x="1045" y="482.1338">Misst z. B.Dauer</text><text fill="#000000" font-family="sans-serif" font-size="26" lengthAdjust="spacingAndGlyphs" textLength="292" x="1045" y="512.3994">eines Methodenaufrufs</text><!--MD5=[082e7de4100b9e0034e1f947f7e39722]
class MeterRegistry--><rect fill="#DDEEE8" filter="url(#f8g18n4q9tvl7)" height="96" id="MeterRegistry" style="stroke: #225C4D; stroke-width: 3.0;" width="236" x="70" y="16"/><ellipse cx="100" cy="48" fill="#ADD1B2" rx="22" ry="22" style="stroke: #225C4D; stroke-width: 2.0;"/><path d="M105.9375,59.2813 Q104.7813,59.875 103.5,60.1563 Q102.2188,60.4688 100.8125,60.4688 Q95.8125,60.4688 93.1563,57.1875 Q90.5313,53.875 90.5313,47.625 Q90.5313,41.375 93.1563,38.0625 Q95.8125,34.75 100.8125,34.75 Q102.2188,34.75 103.5,35.0625 Q104.8125,35.375 105.9375,35.9688 L105.9375,41.4063 Q104.6875,40.25 103.5,39.7188 Q102.3125,39.1563 101.0625,39.1563 Q98.375,39.1563 97,41.3125 Q95.625,43.4375 95.625,47.625 Q95.625,51.8125 97,53.9688 Q98.375,56.0938 101.0625,56.0938 Q102.3125,56.0938 103.5,55.5625 Q104.6875,55 105.9375,53.8438 L105.9375,59.2813 Z "/><text fill="#000000" font-family="sans-serif" font-size="24" lengthAdjust="spacingAndGlyphs" textLength="172" x="128" y="56.3086">MeterRegistry</text><line style="stroke: #225C4D; stroke-width: 3.0;" x1="72" x2="304" y1="80" y2="80"/><line style="stroke: #225C4D; stroke-width: 3.0;" x1="72" x2="304" y1="96" y2="96"/><!--MD5=[57a79752cbaa078f3f8a25d4f77ed4db]
link MeterRegistry to Meter--><path d="M330.72,64 C330.72,64 483.78,64 559.22,64 " fill="none" id="MeterRegistry-Meter" style="stroke: #225C4D; stroke-width: 2.0;"/><polygon fill="#225C4D" points="585.92,64,567.92,56,575.92,64,567.92,72,585.92,64" style="stroke: #225C4D; stroke-width: 2.0;"/><line style="stroke: #225C4D; stroke-width: 2.0;" x1="575.92" x2="559.92" y1="64" y2="64"/><polygon fill="#FFFFFF" points="306.72,64,318.72,72,330.72,64,318.72,56,306.72,64" style="stroke: #225C4D; stroke-width: 2.0;"/><!--MD5=[815dd24661aadfcd8460d79d029af46d]
reverse link Meter to Counter--><path d="M548.64,112.62 C462.1,151.66 340.38,206.56 261.34,242.2 " fill="none" id="Meter&lt;-Counter" style="stroke: #225C4D; stroke-width: 2.0; stroke-dasharray: 7.0,7.0;"/><polygon fill="none" points="543.44,99.6,585.66,95.92,554.96,125.14,543.44,99.6" style="stroke: #225C4D; stroke-width: 2.0;"/><!--MD5=[3cc4ff3c26f3fec90c6ec2ce6f98a661]
reverse link Meter to Gauge--><path d="M652,152.04 C652,179.16 652,208.08 652,231.36 " fill="none" id="Meter&lt;-Gauge" style="stroke: #225C4D; stroke-width: 2.0; stroke-dasharray: 7.0,7.0;"/><polygon fill="none" points="638,152,652,112,666,152,638,152" style="stroke: #225C4D; stroke-width: 2.0;"/><!--MD5=[2cba52d3547585022abb69520675808c]
reverse link Meter to Timer--><path d="M755.18,111.38 C850.18,153.16 988.22,213.88 1068.78,249.32 " fill="none" id="Meter&lt;-Timer" style="stroke: #225C4D; stroke-width: 2.0; stroke-dasharray: 7.0,7.0;"/><polygon fill="none" points="748.98,123.96,718,95.04,760.26,98.32,748.98,123.96" style="stroke: #225C4D; stroke-width: 2.0;"/><!--MD5=[b5343546395655166279eacb5571b8a3]
@startuml
skinparam class {
 BackgroundColor #DDEEE8
 BorderColor #225C4D
 ArrowColor #225C4D
 }
scale 2
skinparam nodesep 140

interface Meter
note right: Jedes Meter muss in der Registry registriert sein.
interface Counter
note bottom: Zählt z. B.\nMethodenaufrufe
interface Gauge
note bottom: Liefert einen\nMesswert
interface Timer
note bottom: Misst z. B.Dauer\neines Methodenaufrufs

MeterRegistry o-> Meter
Meter <|.. Counter
Meter <|.. Gauge
Meter <|.. Timer
@enduml

PlantUML version 1.2019.12(Sun Nov 03 11:24:54 CET 2019)
(APACHE source distribution)
Java Runtime: OpenJDK Runtime Environment
JVM: OpenJDK 64-Bit Server VM
Java Version: 17.0.6+10-Debian-1deb11u1
Operating System: Linux
Default Encoding: UTF-8
Language: en
Country: DK
--></g></svg>