<?xml version="1.0" encoding="UTF-8" standalone="no"?><svg xmlns="http://www.w3.org/2000/svg" xmlns:xlink="http://www.w3.org/1999/xlink" contentScriptType="application/ecmascript" contentStyleType="text/css" height="738.3333px" preserveAspectRatio="none" style="width:2705px;height:738px;" version="1.1" viewBox="0 0 2705 738" width="2705px" zoomAndPan="magnify"><defs><filter height="300%" id="fktv759fkbscq" width="300%" x="-1" y="-1"><feGaussianBlur result="blurOut" stdDeviation="3.3333333333333335"/><feColorMatrix in="blurOut" result="blurOut2" type="matrix" values="0 0 0 0 0 0 0 0 0 0 0 0 0 0 0 0 0 0 .4 0"/><feOffset dx="6.666666666666667" dy="6.666666666666667" in="blurOut2" result="blurOut3"/><feBlend in="SourceGraphic" in2="blurOut3" mode="normal"/></filter></defs><g><!--MD5=[99aafd21cb5a6448e53b6bf3aa149274]
class StepExecutionSplitter--><rect fill="#DDEEE8" filter="url(#fktv759fkbscq)" height="122.6823" id="StepExecutionSplitter" style="stroke: #225C4D; stroke-width: 2.5;" width="678.3333" x="794.1667" y="13.3333"/><ellipse cx="1017.0833" cy="40" fill="#B4A7E5" rx="18.3333" ry="18.3333" style="stroke: #225C4D; stroke-width: 1.6666666666666667;"/><path d="M1010.2865,32.9427 L1010.2865,29.349 L1022.6042,29.349 L1022.6042,32.9427 L1018.4896,32.9427 L1018.4896,46.4063 L1022.6042,46.4063 L1022.6042,50 L1010.2865,50 L1010.2865,46.4063 L1014.401,46.4063 L1014.401,32.9427 L1010.2865,32.9427 Z "/><text fill="#000000" font-family="sans-serif" font-size="20" font-style="italic" lengthAdjust="spacingAndGlyphs" textLength="218.3333" x="1051.25" y="46.9238">StepExecutionSplitter</text><line style="stroke: #225C4D; stroke-width: 2.5;" x1="795.8333" x2="1470.8333" y1="66.6667" y2="66.6667"/><line style="stroke: #225C4D; stroke-width: 2.5;" x1="795.8333" x2="1470.8333" y1="80" y2="80"/><text fill="#000000" font-family="sans-serif" font-size="18.3333" lengthAdjust="spacingAndGlyphs" textLength="210" x="804.1667" y="103.6841">getStepName(): String</text><text fill="#000000" font-family="sans-serif" font-size="18.3333" lengthAdjust="spacingAndGlyphs" textLength="658.3333" x="804.1667" y="125.0252">split(stepExecution: StepExecution, gridSize: int): Set&lt;StepExecution&gt;</text><!--MD5=[e2ed5526a3f12ce4cec006d86fa7ac39]
class PartitionHandler--><rect fill="#DDEEE8" filter="url(#fktv759fkbscq)" height="101.3411" id="PartitionHandler" style="stroke: #225C4D; stroke-width: 2.5;" width="975" x="649.1667" y="236.6667"/><ellipse cx="1050.4167" cy="263.3333" fill="#B4A7E5" rx="18.3333" ry="18.3333" style="stroke: #225C4D; stroke-width: 1.6666666666666667;"/><path d="M1043.6198,256.276 L1043.6198,252.6823 L1055.9375,252.6823 L1055.9375,256.276 L1051.8229,256.276 L1051.8229,269.7396 L1055.9375,269.7396 L1055.9375,273.3333 L1043.6198,273.3333 L1043.6198,269.7396 L1047.7344,269.7396 L1047.7344,256.276 L1043.6198,256.276 Z "/><text fill="#000000" font-family="sans-serif" font-size="20" font-style="italic" lengthAdjust="spacingAndGlyphs" textLength="158.3333" x="1084.5833" y="270.2572">PartitionHandler</text><line style="stroke: #225C4D; stroke-width: 2.5;" x1="650.8333" x2="1622.5" y1="290" y2="290"/><line style="stroke: #225C4D; stroke-width: 2.5;" x1="650.8333" x2="1622.5" y1="303.3333" y2="303.3333"/><text fill="#000000" font-family="sans-serif" font-size="18.3333" lengthAdjust="spacingAndGlyphs" textLength="955" x="659.1667" y="327.0174">handle(stepSplitter: StepExecutionSplitter, stepExecution: StepExecution): Collection&lt;StepExecution&gt;</text><!--MD5=[949b7abbdf1b17345b390db79f391a67]
class StepExecutionAggregator--><rect fill="#DDEEE8" filter="url(#fktv759fkbscq)" height="101.3411" id="StepExecutionAggregator" style="stroke: #225C4D; stroke-width: 2.5;" width="703.3333" x="355" y="438.3333"/><ellipse cx="570.4167" cy="465" fill="#B4A7E5" rx="18.3333" ry="18.3333" style="stroke: #225C4D; stroke-width: 1.6666666666666667;"/><path d="M563.6198,457.9427 L563.6198,454.349 L575.9375,454.349 L575.9375,457.9427 L571.8229,457.9427 L571.8229,471.4063 L575.9375,471.4063 L575.9375,475 L563.6198,475 L563.6198,471.4063 L567.7344,471.4063 L567.7344,457.9427 L563.6198,457.9427 Z "/><text fill="#000000" font-family="sans-serif" font-size="20" font-style="italic" lengthAdjust="spacingAndGlyphs" textLength="258.3333" x="604.5833" y="471.9238">StepExecutionAggregator</text><line style="stroke: #225C4D; stroke-width: 2.5;" x1="356.6667" x2="1056.6667" y1="491.6667" y2="491.6667"/><line style="stroke: #225C4D; stroke-width: 2.5;" x1="356.6667" x2="1056.6667" y1="505" y2="505"/><text fill="#000000" font-family="sans-serif" font-size="18.3333" lengthAdjust="spacingAndGlyphs" textLength="683.3333" x="365" y="528.6841">aggregate(result: StepExecution, executions Collection&lt;StepExecution&gt;)</text><!--MD5=[61297410c45cb5d904b03bb3189fb96c]
class AbstractStep--><rect fill="#DDEEE8" filter="url(#fktv759fkbscq)" height="80" id="AbstractStep" style="stroke: #225C4D; stroke-width: 2.5;" width="190" x="400" y="35"/><ellipse cx="425" cy="61.6667" fill="#ADD1B2" rx="18.3333" ry="18.3333" style="stroke: #225C4D; stroke-width: 1.6666666666666667;"/><path d="M429.9479,71.0677 Q428.9844,71.5625 427.9167,71.7969 Q426.849,72.0573 425.6771,72.0573 Q421.5104,72.0573 419.2969,69.3229 Q417.1094,66.5625 417.1094,61.3542 Q417.1094,56.1458 419.2969,53.3854 Q421.5104,50.625 425.6771,50.625 Q426.849,50.625 427.9167,50.8854 Q429.0104,51.1458 429.9479,51.6406 L429.9479,56.1719 Q428.9063,55.2083 427.9167,54.7656 Q426.9271,54.2969 425.8854,54.2969 Q423.6458,54.2969 422.5,56.0938 Q421.3542,57.8646 421.3542,61.3542 Q421.3542,64.8438 422.5,66.6406 Q423.6458,68.4115 425.8854,68.4115 Q426.9271,68.4115 427.9167,67.9688 Q428.9063,67.5 429.9479,66.5365 L429.9479,71.0677 Z "/><text fill="#000000" font-family="sans-serif" font-size="20" lengthAdjust="spacingAndGlyphs" textLength="136.6667" x="448.3333" y="68.5905">AbstractStep</text><line style="stroke: #225C4D; stroke-width: 2.5;" x1="401.6667" x2="588.3333" y1="88.3333" y2="88.3333"/><line style="stroke: #225C4D; stroke-width: 2.5;" x1="401.6667" x2="588.3333" y1="101.6667" y2="101.6667"/><!--MD5=[6e38dab636fa7acac16d7abb3400964f]
class PartitionStep--><rect fill="#DDEEE8" filter="url(#fktv759fkbscq)" height="80" id="PartitionStep" style="stroke: #225C4D; stroke-width: 2.5;" width="190" x="400" y="247.5"/><ellipse cx="425" cy="274.1667" fill="#ADD1B2" rx="18.3333" ry="18.3333" style="stroke: #225C4D; stroke-width: 1.6666666666666667;"/><path d="M429.9479,283.5677 Q428.9844,284.0625 427.9167,284.2969 Q426.849,284.5573 425.6771,284.5573 Q421.5104,284.5573 419.2969,281.8229 Q417.1094,279.0625 417.1094,273.8542 Q417.1094,268.6458 419.2969,265.8854 Q421.5104,263.125 425.6771,263.125 Q426.849,263.125 427.9167,263.3854 Q429.0104,263.6458 429.9479,264.1406 L429.9479,268.6719 Q428.9063,267.7083 427.9167,267.2656 Q426.9271,266.7969 425.8854,266.7969 Q423.6458,266.7969 422.5,268.5938 Q421.3542,270.3646 421.3542,273.8542 Q421.3542,277.3438 422.5,279.1406 Q423.6458,280.9115 425.8854,280.9115 Q426.9271,280.9115 427.9167,280.4688 Q428.9063,280 429.9479,279.0365 L429.9479,283.5677 Z "/><text fill="#000000" font-family="sans-serif" font-size="20" lengthAdjust="spacingAndGlyphs" textLength="136.6667" x="448.3333" y="281.0905">PartitionStep</text><line style="stroke: #225C4D; stroke-width: 2.5;" x1="401.6667" x2="588.3333" y1="300.8333" y2="300.8333"/><line style="stroke: #225C4D; stroke-width: 2.5;" x1="401.6667" x2="588.3333" y1="314.1667" y2="314.1667"/><!--MD5=[7138be29605864a5c02f5007d89159e6]
class SimpleStepExecutionSplitter--><rect fill="#DDEEE8" filter="url(#fktv759fkbscq)" height="80" id="SimpleStepExecutionSplitter" style="stroke: #225C4D; stroke-width: 2.5;" width="346.6667" x="1531.6667" y="35"/><ellipse cx="1556.6667" cy="61.6667" fill="#ADD1B2" rx="18.3333" ry="18.3333" style="stroke: #225C4D; stroke-width: 1.6666666666666667;"/><path d="M1561.6146,71.0677 Q1560.651,71.5625 1559.5833,71.7969 Q1558.5156,72.0573 1557.3438,72.0573 Q1553.1771,72.0573 1550.9635,69.3229 Q1548.776,66.5625 1548.776,61.3542 Q1548.776,56.1458 1550.9635,53.3854 Q1553.1771,50.625 1557.3438,50.625 Q1558.5156,50.625 1559.5833,50.8854 Q1560.6771,51.1458 1561.6146,51.6406 L1561.6146,56.1719 Q1560.5729,55.2083 1559.5833,54.7656 Q1558.5938,54.2969 1557.5521,54.2969 Q1555.3125,54.2969 1554.1667,56.0938 Q1553.0208,57.8646 1553.0208,61.3542 Q1553.0208,64.8438 1554.1667,66.6406 Q1555.3125,68.4115 1557.5521,68.4115 Q1558.5938,68.4115 1559.5833,67.9688 Q1560.5729,67.5 1561.6146,66.5365 L1561.6146,71.0677 Z "/><text fill="#000000" font-family="sans-serif" font-size="20" lengthAdjust="spacingAndGlyphs" textLength="293.3333" x="1580" y="68.5905">SimpleStepExecutionSplitter</text><line style="stroke: #225C4D; stroke-width: 2.5;" x1="1533.3333" x2="1876.6667" y1="88.3333" y2="88.3333"/><line style="stroke: #225C4D; stroke-width: 2.5;" x1="1533.3333" x2="1876.6667" y1="101.6667" y2="101.6667"/><!--MD5=[8be754f8c9f373730bfa10a2e1973bb3]
class AbstractPartitionHandler--><rect fill="#DDEEE8" filter="url(#fktv759fkbscq)" height="80" id="AbstractPartitionHandler" style="stroke: #225C4D; stroke-width: 2.5;" width="311.6667" x="1682.5" y="247.5"/><ellipse cx="1707.5" cy="274.1667" fill="#ADD1B2" rx="18.3333" ry="18.3333" style="stroke: #225C4D; stroke-width: 1.6666666666666667;"/><path d="M1712.4479,283.5677 Q1711.4844,284.0625 1710.4167,284.2969 Q1709.349,284.5573 1708.1771,284.5573 Q1704.0104,284.5573 1701.7969,281.8229 Q1699.6094,279.0625 1699.6094,273.8542 Q1699.6094,268.6458 1701.7969,265.8854 Q1704.0104,263.125 1708.1771,263.125 Q1709.349,263.125 1710.4167,263.3854 Q1711.5104,263.6458 1712.4479,264.1406 L1712.4479,268.6719 Q1711.4063,267.7083 1710.4167,267.2656 Q1709.4271,266.7969 1708.3854,266.7969 Q1706.1458,266.7969 1705,268.5938 Q1703.8542,270.3646 1703.8542,273.8542 Q1703.8542,277.3438 1705,279.1406 Q1706.1458,280.9115 1708.3854,280.9115 Q1709.4271,280.9115 1710.4167,280.4688 Q1711.4063,280 1712.4479,279.0365 L1712.4479,283.5677 Z "/><text fill="#000000" font-family="sans-serif" font-size="20" lengthAdjust="spacingAndGlyphs" textLength="258.3333" x="1730.8333" y="281.0905">AbstractPartitionHandler</text><line style="stroke: #225C4D; stroke-width: 2.5;" x1="1684.1667" x2="1992.5" y1="300.8333" y2="300.8333"/><line style="stroke: #225C4D; stroke-width: 2.5;" x1="1684.1667" x2="1992.5" y1="314.1667" y2="314.1667"/><!--MD5=[40709db8198e3526a82ccd5e0e615e64]
class TaskExecutorPartitionHandler--><rect fill="#DDEEE8" filter="url(#fktv759fkbscq)" height="80" id="TaskExecutorPartitionHandler" style="stroke: #225C4D; stroke-width: 2.5;" width="363.3333" x="1656.6667" y="449.1667"/><ellipse cx="1681.6667" cy="475.8333" fill="#ADD1B2" rx="18.3333" ry="18.3333" style="stroke: #225C4D; stroke-width: 1.6666666666666667;"/><path d="M1686.6146,485.2344 Q1685.651,485.7292 1684.5833,485.9635 Q1683.5156,486.224 1682.3438,486.224 Q1678.1771,486.224 1675.9635,483.4896 Q1673.776,480.7292 1673.776,475.5208 Q1673.776,470.3125 1675.9635,467.5521 Q1678.1771,464.7917 1682.3438,464.7917 Q1683.5156,464.7917 1684.5833,465.0521 Q1685.6771,465.3125 1686.6146,465.8073 L1686.6146,470.3385 Q1685.5729,469.375 1684.5833,468.9323 Q1683.5938,468.4635 1682.5521,468.4635 Q1680.3125,468.4635 1679.1667,470.2604 Q1678.0208,472.0313 1678.0208,475.5208 Q1678.0208,479.0104 1679.1667,480.8073 Q1680.3125,482.5781 1682.5521,482.5781 Q1683.5938,482.5781 1684.5833,482.1354 Q1685.5729,481.6667 1686.6146,480.7031 L1686.6146,485.2344 Z "/><text fill="#000000" font-family="sans-serif" font-size="20" lengthAdjust="spacingAndGlyphs" textLength="310" x="1705" y="482.7572">TaskExecutorPartitionHandler</text><line style="stroke: #225C4D; stroke-width: 2.5;" x1="1658.3333" x2="2018.3333" y1="502.5" y2="502.5"/><line style="stroke: #225C4D; stroke-width: 2.5;" x1="1658.3333" x2="2018.3333" y1="515.8333" y2="515.8333"/><!--MD5=[2f145c601d94540120e6dc41f9710031]
class DefaultStepExecutionAggregator--><rect fill="#DDEEE8" filter="url(#fktv759fkbscq)" height="80" id="DefaultStepExecutionAggregator" style="stroke: #225C4D; stroke-width: 2.5;" width="396.6667" x="291.6667" y="640"/><ellipse cx="316.6667" cy="666.6667" fill="#ADD1B2" rx="18.3333" ry="18.3333" style="stroke: #225C4D; stroke-width: 1.6666666666666667;"/><path d="M321.6146,676.0677 Q320.651,676.5625 319.5833,676.7969 Q318.5156,677.0573 317.3438,677.0573 Q313.1771,677.0573 310.9635,674.3229 Q308.776,671.5625 308.776,666.3542 Q308.776,661.1458 310.9635,658.3854 Q313.1771,655.625 317.3438,655.625 Q318.5156,655.625 319.5833,655.8854 Q320.6771,656.1458 321.6146,656.6406 L321.6146,661.1719 Q320.5729,660.2083 319.5833,659.7656 Q318.5938,659.2969 317.5521,659.2969 Q315.3125,659.2969 314.1667,661.0938 Q313.0208,662.8646 313.0208,666.3542 Q313.0208,669.8438 314.1667,671.6406 Q315.3125,673.4115 317.5521,673.4115 Q318.5938,673.4115 319.5833,672.9688 Q320.5729,672.5 321.6146,671.5365 L321.6146,676.0677 Z "/><text fill="#000000" font-family="sans-serif" font-size="20" lengthAdjust="spacingAndGlyphs" textLength="343.3333" x="340" y="673.5905">DefaultStepExecutionAggregator</text><line style="stroke: #225C4D; stroke-width: 2.5;" x1="293.3333" x2="686.6667" y1="693.3333" y2="693.3333"/><line style="stroke: #225C4D; stroke-width: 2.5;" x1="293.3333" x2="686.6667" y1="706.6667" y2="706.6667"/><path d="M10,659.1667 L10,701.0547 A0,0 0 0 0 10,701.0547 L233.3333,701.0547 A0,0 0 0 0 233.3333,701.0547 L233.3333,689.1667 L291.4167,680 L233.3333,675.8333 L233.3333,675.8333 L216.6667,659.1667 L10,659.1667 A0,0 0 0 0 10,659.1667 " fill="#FBFB77" filter="url(#fktv759fkbscq)" style="stroke: #A80036; stroke-width: 1.6666666666666667;"/><path d="M216.6667,659.1667 L216.6667,675.8333 L233.3333,675.8333 L216.6667,659.1667 " fill="#FBFB77" style="stroke: #A80036; stroke-width: 1.6666666666666667;"/><text fill="#000000" font-family="sans-serif" font-size="21.6667" lengthAdjust="spacingAndGlyphs" textLength="188.3333" x="20" y="687.6115">Aggregiert Zähler</text><!--MD5=[9481ab4a6c3f8b0984f170c1e42dcad5]
class RemoteStepExecutionAggregator--><rect fill="#DDEEE8" filter="url(#fktv759fkbscq)" height="80" id="RemoteStepExecutionAggregator" style="stroke: #225C4D; stroke-width: 2.5;" width="401.6667" x="747.5" y="640"/><ellipse cx="772.5" cy="666.6667" fill="#ADD1B2" rx="18.3333" ry="18.3333" style="stroke: #225C4D; stroke-width: 1.6666666666666667;"/><path d="M777.4479,676.0677 Q776.4844,676.5625 775.4167,676.7969 Q774.349,677.0573 773.1771,677.0573 Q769.0104,677.0573 766.7969,674.3229 Q764.6094,671.5625 764.6094,666.3542 Q764.6094,661.1458 766.7969,658.3854 Q769.0104,655.625 773.1771,655.625 Q774.349,655.625 775.4167,655.8854 Q776.5104,656.1458 777.4479,656.6406 L777.4479,661.1719 Q776.4063,660.2083 775.4167,659.7656 Q774.4271,659.2969 773.3854,659.2969 Q771.1458,659.2969 770,661.0938 Q768.8542,662.8646 768.8542,666.3542 Q768.8542,669.8438 770,671.6406 Q771.1458,673.4115 773.3854,673.4115 Q774.4271,673.4115 775.4167,672.9688 Q776.4063,672.5 777.4479,671.5365 L777.4479,676.0677 Z "/><text fill="#000000" font-family="sans-serif" font-size="20" lengthAdjust="spacingAndGlyphs" textLength="348.3333" x="795.8333" y="673.5905">RemoteStepExecutionAggregator</text><line style="stroke: #225C4D; stroke-width: 2.5;" x1="749.1667" x2="1147.5" y1="693.3333" y2="693.3333"/><line style="stroke: #225C4D; stroke-width: 2.5;" x1="749.1667" x2="1147.5" y1="706.6667" y2="706.6667"/><path d="M1208.3333,659.1667 L1208.3333,673.3333 L1149.35,680 L1208.3333,686.6667 L1208.3333,701.0547 A0,0 0 0 0 1208.3333,701.0547 L1518.3333,701.0547 A0,0 0 0 0 1518.3333,701.0547 L1518.3333,675.8333 L1501.6667,659.1667 L1208.3333,659.1667 A0,0 0 0 0 1208.3333,659.1667 " fill="#FBFB77" filter="url(#fktv759fkbscq)" style="stroke: #A80036; stroke-width: 1.6666666666666667;"/><path d="M1501.6667,659.1667 L1501.6667,675.8333 L1518.3333,675.8333 L1501.6667,659.1667 " fill="#FBFB77" style="stroke: #A80036; stroke-width: 1.6666666666666667;"/><text fill="#000000" font-family="sans-serif" font-size="21.6667" lengthAdjust="spacingAndGlyphs" textLength="275" x="1218.3333" y="687.6115">Aggregiert aus Repository</text><!--MD5=[c30aac58538ec6c0afcde083c3305139]
class Partitioner--><rect fill="#DDEEE8" filter="url(#fktv759fkbscq)" height="101.3411" id="Partitioner" style="stroke: #225C4D; stroke-width: 2.5;" width="531.6667" x="1937.5" y="24.1667"/><ellipse cx="2145.4167" cy="50.8333" fill="#B4A7E5" rx="18.3333" ry="18.3333" style="stroke: #225C4D; stroke-width: 1.6666666666666667;"/><path d="M2138.6198,43.776 L2138.6198,40.1823 L2150.9375,40.1823 L2150.9375,43.776 L2146.8229,43.776 L2146.8229,57.2396 L2150.9375,57.2396 L2150.9375,60.8333 L2138.6198,60.8333 L2138.6198,57.2396 L2142.7344,57.2396 L2142.7344,43.776 L2138.6198,43.776 Z "/><text fill="#000000" font-family="sans-serif" font-size="20" font-style="italic" lengthAdjust="spacingAndGlyphs" textLength="101.6667" x="2179.5833" y="57.7572">Partitioner</text><line style="stroke: #225C4D; stroke-width: 2.5;" x1="1939.1667" x2="2467.5" y1="77.5" y2="77.5"/><line style="stroke: #225C4D; stroke-width: 2.5;" x1="1939.1667" x2="2467.5" y1="90.8333" y2="90.8333"/><text fill="#000000" font-family="sans-serif" font-size="18.3333" lengthAdjust="spacingAndGlyphs" textLength="511.6667" x="1947.5" y="114.5174">partition(gridSize: int): Map&lt;String, ExecutionContext&gt;</text><!--MD5=[52a34a16ac801b18f7490476879d88d8]
class SimplePartitioner--><rect fill="#DDEEE8" filter="url(#fktv759fkbscq)" height="80" id="SimplePartitioner" style="stroke: #225C4D; stroke-width: 2.5;" width="231.6667" x="2085.8333" y="247.5"/><ellipse cx="2110.8333" cy="274.1667" fill="#ADD1B2" rx="18.3333" ry="18.3333" style="stroke: #225C4D; stroke-width: 1.6666666666666667;"/><path d="M2115.7813,283.5677 Q2114.8177,284.0625 2113.75,284.2969 Q2112.6823,284.5573 2111.5104,284.5573 Q2107.3438,284.5573 2105.1302,281.8229 Q2102.9427,279.0625 2102.9427,273.8542 Q2102.9427,268.6458 2105.1302,265.8854 Q2107.3438,263.125 2111.5104,263.125 Q2112.6823,263.125 2113.75,263.3854 Q2114.8438,263.6458 2115.7813,264.1406 L2115.7813,268.6719 Q2114.7396,267.7083 2113.75,267.2656 Q2112.7604,266.7969 2111.7188,266.7969 Q2109.4792,266.7969 2108.3333,268.5938 Q2107.1875,270.3646 2107.1875,273.8542 Q2107.1875,277.3438 2108.3333,279.1406 Q2109.4792,280.9115 2111.7188,280.9115 Q2112.7604,280.9115 2113.75,280.4688 Q2114.7396,280 2115.7813,279.0365 L2115.7813,283.5677 Z "/><text fill="#000000" font-family="sans-serif" font-size="20" lengthAdjust="spacingAndGlyphs" textLength="178.3333" x="2134.1667" y="281.0905">SimplePartitioner</text><line style="stroke: #225C4D; stroke-width: 2.5;" x1="2087.5" x2="2315.8333" y1="300.8333" y2="300.8333"/><line style="stroke: #225C4D; stroke-width: 2.5;" x1="2087.5" x2="2315.8333" y1="314.1667" y2="314.1667"/><path d="M2084.1667,455.8333 L2084.1667,522.9427 A0,0 0 0 0 2084.1667,522.9427 L2319.1667,522.9427 A0,0 0 0 0 2319.1667,522.9427 L2319.1667,472.5 L2302.5,455.8333 L2208.3333,455.8333 L2201.6667,327.8833 L2195,455.8333 L2084.1667,455.8333 A0,0 0 0 0 2084.1667,455.8333 " fill="#FBFB77" filter="url(#fktv759fkbscq)" style="stroke: #A80036; stroke-width: 1.6666666666666667;"/><path d="M2302.5,455.8333 L2302.5,472.5 L2319.1667,472.5 L2302.5,455.8333 " fill="#FBFB77" style="stroke: #A80036; stroke-width: 1.6666666666666667;"/><text fill="#000000" font-family="sans-serif" font-size="21.6667" lengthAdjust="spacingAndGlyphs" textLength="141.6667" x="2094.1667" y="484.2782">Erzeugt leere</text><text fill="#000000" font-family="sans-serif" font-size="21.6667" lengthAdjust="spacingAndGlyphs" textLength="200" x="2094.1667" y="509.4995">ExecutionContexte</text><!--MD5=[4b25d60d4bd38d4fb4948f3939ffab3d]
class MultiResourcePartitioner--><rect fill="#DDEEE8" filter="url(#fktv759fkbscq)" height="80" id="MultiResourcePartitioner" style="stroke: #225C4D; stroke-width: 2.5;" width="310" x="2376.6667" y="247.5"/><ellipse cx="2401.6667" cy="274.1667" fill="#ADD1B2" rx="18.3333" ry="18.3333" style="stroke: #225C4D; stroke-width: 1.6666666666666667;"/><path d="M2406.6146,283.5677 Q2405.651,284.0625 2404.5833,284.2969 Q2403.5156,284.5573 2402.3438,284.5573 Q2398.1771,284.5573 2395.9635,281.8229 Q2393.776,279.0625 2393.776,273.8542 Q2393.776,268.6458 2395.9635,265.8854 Q2398.1771,263.125 2402.3438,263.125 Q2403.5156,263.125 2404.5833,263.3854 Q2405.6771,263.6458 2406.6146,264.1406 L2406.6146,268.6719 Q2405.5729,267.7083 2404.5833,267.2656 Q2403.5938,266.7969 2402.5521,266.7969 Q2400.3125,266.7969 2399.1667,268.5938 Q2398.0208,270.3646 2398.0208,273.8542 Q2398.0208,277.3438 2399.1667,279.1406 Q2400.3125,280.9115 2402.5521,280.9115 Q2403.5938,280.9115 2404.5833,280.4688 Q2405.5729,280 2406.6146,279.0365 L2406.6146,283.5677 Z "/><text fill="#000000" font-family="sans-serif" font-size="20" lengthAdjust="spacingAndGlyphs" textLength="256.6667" x="2425" y="281.0905">MultiResourcePartitioner</text><line style="stroke: #225C4D; stroke-width: 2.5;" x1="2378.3333" x2="2685" y1="300.8333" y2="300.8333"/><line style="stroke: #225C4D; stroke-width: 2.5;" x1="2378.3333" x2="2685" y1="314.1667" y2="314.1667"/><path d="M2450.8333,455.8333 L2450.8333,522.9427 A0,0 0 0 0 2450.8333,522.9427 L2612.5,522.9427 A0,0 0 0 0 2612.5,522.9427 L2612.5,472.5 L2595.8333,455.8333 L2538.3333,455.8333 L2531.6667,327.8833 L2525,455.8333 L2450.8333,455.8333 A0,0 0 0 0 2450.8333,455.8333 " fill="#FBFB77" filter="url(#fktv759fkbscq)" style="stroke: #A80036; stroke-width: 1.6666666666666667;"/><path d="M2595.8333,455.8333 L2595.8333,472.5 L2612.5,472.5 L2595.8333,455.8333 " fill="#FBFB77" style="stroke: #A80036; stroke-width: 1.6666666666666667;"/><text fill="#000000" font-family="sans-serif" font-size="21.6667" lengthAdjust="spacingAndGlyphs" textLength="126.6667" x="2460.8333" y="484.2782">Eine Partion</text><text fill="#000000" font-family="sans-serif" font-size="21.6667" lengthAdjust="spacingAndGlyphs" textLength="81.6667" x="2460.8333" y="509.4995">je Datei</text><!--MD5=[5a2ba6e4c7f78036fecb159f353da9e9]
class Step--><rect fill="#DDEEE8" filter="url(#fktv759fkbscq)" height="80" id="Step" style="stroke: #225C4D; stroke-width: 2.5;" width="100" x="1788.3333" y="640"/><ellipse cx="1813.3333" cy="666.6667" fill="#B4A7E5" rx="18.3333" ry="18.3333" style="stroke: #225C4D; stroke-width: 1.6666666666666667;"/><path d="M1806.5365,659.6094 L1806.5365,656.0156 L1818.8542,656.0156 L1818.8542,659.6094 L1814.7396,659.6094 L1814.7396,673.0729 L1818.8542,673.0729 L1818.8542,676.6667 L1806.5365,676.6667 L1806.5365,673.0729 L1810.651,673.0729 L1810.651,659.6094 L1806.5365,659.6094 Z "/><text fill="#000000" font-family="sans-serif" font-size="20" font-style="italic" lengthAdjust="spacingAndGlyphs" textLength="46.6667" x="1836.6667" y="673.5905">Step</text><line style="stroke: #225C4D; stroke-width: 2.5;" x1="1790" x2="1886.6667" y1="693.3333" y2="693.3333"/><line style="stroke: #225C4D; stroke-width: 2.5;" x1="1790" x2="1886.6667" y1="706.6667" y2="706.6667"/><!--MD5=[603d692afa04d5ee3f3e7385871e8691]
reverse link AbstractStep to PartitionStep--><path d="M495,148.8167 C495,181.7667 495,219.5 495,247 " fill="none" id="AbstractStep&lt;-PartitionStep" style="stroke: #225C4D; stroke-width: 1.6666666666666667;"/><polygon fill="none" points="483.3333,148.3667,495,115.0333,506.6667,148.3667,483.3333,148.3667" style="stroke: #225C4D; stroke-width: 1.6666666666666667;"/><!--MD5=[fa4afd26059472b5db5902376019fe6b]
reverse link StepExecutionSplitter to PartitionStep--><path d="M920.2667,139.2833 C827.5167,167.5167 717.8667,202.2167 620,236.6667 C610.3167,240.0667 600.2833,243.7667 590.2833,247.5333 " fill="none" id="StepExecutionSplitter&lt;-PartitionStep" style="stroke: #225C4D; stroke-width: 1.6666666666666667;"/><polygon fill="#225C4D" points="928.6167,136.75,912.3252,134.7415,920.6447,139.1773,916.2089,147.4967,928.6167,136.75" style="stroke: #225C4D; stroke-width: 1.6666666666666667;"/><!--MD5=[23b9521ac5805a8251b9826610f9ca90]
link PartitionStep to PartitionHandler--><path d="M590.25,287.5 C606.9167,287.5 623.5667,287.5 640.2333,287.5 " fill="none" id="PartitionStep-&gt;PartitionHandler" style="stroke: #225C4D; stroke-width: 1.6666666666666667;"/><polygon fill="#225C4D" points="648.95,287.5,633.95,280.8333,640.6167,287.5,633.95,294.1667,648.95,287.5" style="stroke: #225C4D; stroke-width: 1.6666666666666667;"/><!--MD5=[cf0ac82fd0109150f5d5286d7530a488]
link PartitionStep to StepExecutionAggregator--><path d="M536.3167,327.8833 C568.0333,357.6 612.2333,399.0167 647.6667,432.2167 " fill="none" id="PartitionStep-&gt;StepExecutionAggregator" style="stroke: #225C4D; stroke-width: 1.6666666666666667;"/><polygon fill="#225C4D" points="654.1833,438.3167,647.8294,423.1815,648.115,432.6053,638.6912,432.8909,654.1833,438.3167" style="stroke: #225C4D; stroke-width: 1.6666666666666667;"/><!--MD5=[9fcf7257402de471173b5e52bbaefb7c]
link StepExecutionSplitter to PartitionHandler--><!--MD5=[db2105a8083fe2c4a2e4e6444c6dbd9b]
link PartitionHandler to StepExecutionAggregator--><!--MD5=[0e0215e741fd51f40e0309cae916738e]
reverse link StepExecutionSplitter to SimpleStepExecutionSplitter--><path d="M1506.1333,75 C1514.5167,75 1522.9,75 1531.2667,75 " fill="none" id="StepExecutionSplitter&lt;-SimpleStepExecutionSplitter" style="stroke: #225C4D; stroke-width: 1.6666666666666667; stroke-dasharray: 7.0,7.0;"/><polygon fill="none" points="1506.1,86.6667,1472.7667,75,1506.1,63.3333,1506.1,86.6667" style="stroke: #225C4D; stroke-width: 1.6666666666666667;"/><!--MD5=[66df52a3f143e06dd660470757d73b5c]
reverse link PartitionHandler to AbstractPartitionHandler--><path d="M1658.3,287.5 C1666.2667,287.5 1674.2167,287.5 1682.1667,287.5 " fill="none" id="PartitionHandler&lt;-AbstractPartitionHandler" style="stroke: #225C4D; stroke-width: 1.6666666666666667; stroke-dasharray: 7.0,7.0;"/><polygon fill="none" points="1657.8833,299.1667,1624.55,287.5,1657.8833,275.8333,1657.8833,299.1667" style="stroke: #225C4D; stroke-width: 1.6666666666666667;"/><!--MD5=[f12faf6446f9edbcbd6e5777a85ce136]
reverse link AbstractPartitionHandler to TaskExecutorPartitionHandler--><path d="M1838.3333,361.4667 C1838.3333,391.0333 1838.3333,424.0667 1838.3333,448.8833 " fill="none" id="AbstractPartitionHandler&lt;-TaskExecutorPartitionHandler" style="stroke: #225C4D; stroke-width: 1.6666666666666667;"/><polygon fill="none" points="1826.6667,361.2167,1838.3333,327.8833,1850,361.2167,1826.6667,361.2167" style="stroke: #225C4D; stroke-width: 1.6666666666666667;"/><!--MD5=[1dc201d3652a84c45e2cd6fce236a018]
reverse link StepExecutionAggregator to DefaultStepExecutionAggregator--><path d="M624.1167,562.2667 C593.8333,588.4833 560.7,617.15 534.9333,639.45 " fill="none" id="StepExecutionAggregator&lt;-DefaultStepExecutionAggregator" style="stroke: #225C4D; stroke-width: 1.6666666666666667; stroke-dasharray: 7.0,7.0;"/><polygon fill="none" points="616.9,553.0833,649.7333,540.1,632.1667,570.7333,616.9,553.0833" style="stroke: #225C4D; stroke-width: 1.6666666666666667;"/><!--MD5=[45be5aa98f1edc88a4f46b97a7d74453]
reverse link StepExecutionAggregator to RemoteStepExecutionAggregator--><path d="M796.7,560.6833 C831.0167,587.3167 868.9,616.7 898.2167,639.45 " fill="none" id="StepExecutionAggregator&lt;-RemoteStepExecutionAggregator" style="stroke: #225C4D; stroke-width: 1.6666666666666667; stroke-dasharray: 7.0,7.0;"/><polygon fill="none" points="789.35,569.75,770.1667,540.1,803.65,551.3167,789.35,569.75" style="stroke: #225C4D; stroke-width: 1.6666666666666667;"/><!--MD5=[5d673161ce0afd99b00d9e0c8c92034c]
link DefaultStepExecutionAggregator to RemoteStepExecutionAggregator--><!--MD5=[184f6ec21f54919865a5f153ae6cba4f]
link SimpleStepExecutionSplitter to Partitioner--><path d="M1878.7333,75 C1895.2833,75 1911.85,75 1928.4,75 " fill="none" id="SimpleStepExecutionSplitter-&gt;Partitioner" style="stroke: #225C4D; stroke-width: 1.6666666666666667;"/><polygon fill="#225C4D" points="1937.0667,75,1922.0667,68.3333,1928.7333,75,1922.0667,81.6667,1937.0667,75" style="stroke: #225C4D; stroke-width: 1.6666666666666667;"/><!--MD5=[81da113433759f4356e50a142e655152]
reverse link Partitioner to SimplePartitioner--><path d="M2202.6667,159.8333 C2202.4333,189.9667 2202.1667,222.5667 2201.9833,247.0667 " fill="none" id="Partitioner&lt;-SimplePartitioner" style="stroke: #225C4D; stroke-width: 1.6666666666666667; stroke-dasharray: 7.0,7.0;"/><polygon fill="none" points="2191,159.4833,2202.9333,126.2333,2214.3333,159.6667,2191,159.4833" style="stroke: #225C4D; stroke-width: 1.6666666666666667;"/><!--MD5=[9b4965eeff3262b9d4badba5c5b49074]
reverse link Partitioner to MultiResourcePartitioner--><path d="M2309.75,144.45 C2363.2667,178.55 2426.2,218.65 2471.3333,247.4 " fill="none" id="Partitioner&lt;-MultiResourcePartitioner" style="stroke: #225C4D; stroke-width: 1.6666666666666667; stroke-dasharray: 7.0,7.0;"/><polygon fill="none" points="2302.9833,153.9833,2281.15,126.2333,2315.5333,134.3,2302.9833,153.9833" style="stroke: #225C4D; stroke-width: 1.6666666666666667;"/><!--MD5=[c304ae7f6da9d23860fce34d07b5587b]
link TaskExecutorPartitionHandler to Step--><path d="M1838.3333,529.2333 C1838.3333,558.8 1838.3333,599.8333 1838.3333,631.3667 " fill="none" id="TaskExecutorPartitionHandler-&gt;Step" style="stroke: #225C4D; stroke-width: 1.6666666666666667;"/><polygon fill="#225C4D" points="1838.3333,639.9833,1845,624.9833,1838.3333,631.65,1831.6667,624.9833,1838.3333,639.9833" style="stroke: #225C4D; stroke-width: 1.6666666666666667;"/><!--MD5=[64598a7ad23b29192e8f02c623326ee9]
@startuml
skinparam class {
 BackgroundColor #DDEEE8
 BorderColor #225C4D
 ArrowColor #225C4D
 }
scale 5/3

interface StepExecutionSplitter {
    getStepName(): String
    split(stepExecution: StepExecution, gridSize: int): Set<StepExecution>
}

interface PartitionHandler {
    handle(stepSplitter: StepExecutionSplitter, stepExecution: StepExecution): Collection<StepExecution>
}

interface StepExecutionAggregator {
    aggregate(result: StepExecution, executions Collection<StepExecution>)
}

AbstractStep <|- - PartitionStep

PartitionStep -up-> StepExecutionSplitter
PartitionStep -> PartitionHandler
PartitionStep - -> StepExecutionAggregator

StepExecutionSplitter -[hidden]-> PartitionHandler
PartitionHandler -[hidden]-> StepExecutionAggregator

StepExecutionSplitter <|. SimpleStepExecutionSplitter
PartitionHandler <|. AbstractPartitionHandler
AbstractPartitionHandler <|- - TaskExecutorPartitionHandler
StepExecutionAggregator <|.. DefaultStepExecutionAggregator
note left: Aggregiert Zähler
StepExecutionAggregator <|.. RemoteStepExecutionAggregator
note right: Aggregiert aus Repository
DefaultStepExecutionAggregator -[hidden]> RemoteStepExecutionAggregator

interface Partitioner {
    partition(gridSize: int): Map<String, ExecutionContext>
}

SimpleStepExecutionSplitter -> Partitioner
Partitioner <|.. SimplePartitioner
note bottom: Erzeugt leere\nExecutionContexte
Partitioner <|.. MultiResourcePartitioner
note bottom: Eine Partion\nje Datei

interface Step
TaskExecutorPartitionHandler - -> Step
@enduml

PlantUML version 1.2019.12(Sun Nov 03 11:24:54 CET 2019)
(APACHE source distribution)
Java Runtime: OpenJDK Runtime Environment
JVM: OpenJDK 64-Bit Server VM
Java Version: 17.0.6+10-Debian-1deb11u1
Operating System: Linux
Default Encoding: UTF-8
Language: en
Country: DK
--></g></svg>