<?xml version="1.0" encoding="UTF-8" standalone="no"?><svg xmlns="http://www.w3.org/2000/svg" xmlns:xlink="http://www.w3.org/1999/xlink" contentScriptType="application/ecmascript" contentStyleType="text/css" height="764px" preserveAspectRatio="none" style="width:1994px;height:764px;" version="1.1" viewBox="0 0 1994 764" width="1994px" zoomAndPan="magnify"><defs><filter height="300%" id="fccwkvfu8vc73" width="300%" x="-1" y="-1"><feGaussianBlur result="blurOut" stdDeviation="4.0"/><feColorMatrix in="blurOut" result="blurOut2" type="matrix" values="0 0 0 0 0 0 0 0 0 0 0 0 0 0 0 0 0 0 .4 0"/><feOffset dx="8.0" dy="8.0" in="blurOut2" result="blurOut3"/><feBlend in="SourceGraphic" in2="blurOut3" mode="normal"/></filter></defs><g><rect fill="#FFFFFF" filter="url(#fccwkvfu8vc73)" height="509.5938" style="stroke: #A80036; stroke-width: 2.0;" width="20" x="146" y="138.8594"/><rect fill="#FFFFFF" filter="url(#fccwkvfu8vc73)" height="337.0625" style="stroke: #A80036; stroke-width: 2.0;" width="20" x="399" y="197.125"/><rect fill="#FFFFFF" filter="url(#fccwkvfu8vc73)" height="114.2656" style="stroke: #A80036; stroke-width: 2.0;" width="20" x="712" y="255.3906"/><rect fill="#FFFFFF" filter="url(#fccwkvfu8vc73)" height="28" style="stroke: #A80036; stroke-width: 2.0;" width="20" x="986" y="313.6563"/><rect fill="#FFFFFF" filter="url(#fccwkvfu8vc73)" height="28" style="stroke: #A80036; stroke-width: 2.0;" width="20" x="1289" y="592.4531"/><rect fill="#FFFFFF" filter="url(#fccwkvfu8vc73)" height="53.1328" style="stroke: #A80036; stroke-width: 2.0;" width="20" x="1603" y="453.0547"/><line style="stroke: #A80036; stroke-width: 2.0; stroke-dasharray: 5.0,5.0;" x1="156" x2="156" y1="76.5938" y2="684.4531"/><line style="stroke: #A80036; stroke-width: 2.0; stroke-dasharray: 5.0,5.0;" x1="408" x2="408" y1="76.5938" y2="684.4531"/><line style="stroke: #A80036; stroke-width: 2.0; stroke-dasharray: 5.0,5.0;" x1="722" x2="722" y1="76.5938" y2="684.4531"/><line style="stroke: #A80036; stroke-width: 2.0; stroke-dasharray: 5.0,5.0;" x1="996" x2="996" y1="76.5938" y2="684.4531"/><line style="stroke: #A80036; stroke-width: 2.0; stroke-dasharray: 5.0,5.0;" x1="1298" x2="1298" y1="76.5938" y2="684.4531"/><line style="stroke: #A80036; stroke-width: 2.0; stroke-dasharray: 5.0,5.0;" x1="1612" x2="1612" y1="76.5938" y2="684.4531"/><rect fill="#FEFECE" filter="url(#fccwkvfu8vc73)" height="60.5938" style="stroke: #A80036; stroke-width: 3.0;" width="204" x="50" y="6"/><text fill="#000000" font-family="sans-serif" font-size="28" lengthAdjust="spacingAndGlyphs" textLength="176" x="64" y="45.9902">PartitionStep</text><rect fill="#FEFECE" filter="url(#fccwkvfu8vc73)" height="60.5938" style="stroke: #A80036; stroke-width: 3.0;" width="204" x="50" y="682.4531"/><text fill="#000000" font-family="sans-serif" font-size="28" lengthAdjust="spacingAndGlyphs" textLength="176" x="64" y="722.4434">PartitionStep</text><rect fill="#D3D3D3" filter="url(#fccwkvfu8vc73)" height="60.5938" style="stroke: #A80036; stroke-width: 3.0;" width="246" x="282" y="6"/><text fill="#000000" font-family="sans-serif" font-size="28" lengthAdjust="spacingAndGlyphs" textLength="218" x="296" y="45.9902">PartitionHandler</text><rect fill="#D3D3D3" filter="url(#fccwkvfu8vc73)" height="60.5938" style="stroke: #A80036; stroke-width: 3.0;" width="246" x="282" y="682.4531"/><text fill="#000000" font-family="sans-serif" font-size="28" lengthAdjust="spacingAndGlyphs" textLength="218" x="296" y="722.4434">PartitionHandler</text><rect fill="#D3D3D3" filter="url(#fccwkvfu8vc73)" height="60.5938" style="stroke: #A80036; stroke-width: 3.0;" width="324" x="556" y="6"/><text fill="#000000" font-family="sans-serif" font-size="28" lengthAdjust="spacingAndGlyphs" textLength="296" x="570" y="45.9902">StepExecutionSplitter</text><rect fill="#D3D3D3" filter="url(#fccwkvfu8vc73)" height="60.5938" style="stroke: #A80036; stroke-width: 3.0;" width="324" x="556" y="682.4531"/><text fill="#000000" font-family="sans-serif" font-size="28" lengthAdjust="spacingAndGlyphs" textLength="296" x="570" y="722.4434">StepExecutionSplitter</text><rect fill="#FEFECE" filter="url(#fccwkvfu8vc73)" height="60.5938" style="stroke: #A80036; stroke-width: 3.0;" width="168" x="908" y="6"/><text fill="#000000" font-family="sans-serif" font-size="28" lengthAdjust="spacingAndGlyphs" textLength="140" x="922" y="45.9902">Partitioner</text><rect fill="#FEFECE" filter="url(#fccwkvfu8vc73)" height="60.5938" style="stroke: #A80036; stroke-width: 3.0;" width="168" x="908" y="682.4531"/><text fill="#000000" font-family="sans-serif" font-size="28" lengthAdjust="spacingAndGlyphs" textLength="140" x="922" y="722.4434">Partitioner</text><rect fill="#FEFECE" filter="url(#fccwkvfu8vc73)" height="60.5938" style="stroke: #A80036; stroke-width: 3.0;" width="382" x="1104" y="6"/><text fill="#000000" font-family="sans-serif" font-size="28" lengthAdjust="spacingAndGlyphs" textLength="354" x="1118" y="45.9902">StepExecutionAggregator</text><rect fill="#FEFECE" filter="url(#fccwkvfu8vc73)" height="60.5938" style="stroke: #A80036; stroke-width: 3.0;" width="382" x="1104" y="682.4531"/><text fill="#000000" font-family="sans-serif" font-size="28" lengthAdjust="spacingAndGlyphs" textLength="354" x="1118" y="722.4434">StepExecutionAggregator</text><rect fill="#FEFECE" filter="url(#fccwkvfu8vc73)" height="60.5938" style="stroke: #A80036; stroke-width: 3.0;" width="190" x="1514" y="6"/><text fill="#000000" font-family="sans-serif" font-size="28" lengthAdjust="spacingAndGlyphs" textLength="162" x="1528" y="45.9902">WorkerStep</text><rect fill="#FEFECE" filter="url(#fccwkvfu8vc73)" height="60.5938" style="stroke: #A80036; stroke-width: 3.0;" width="190" x="1514" y="682.4531"/><text fill="#000000" font-family="sans-serif" font-size="28" lengthAdjust="spacingAndGlyphs" textLength="162" x="1528" y="722.4434">WorkerStep</text><rect fill="#FFFFFF" filter="url(#fccwkvfu8vc73)" height="509.5938" style="stroke: #A80036; stroke-width: 2.0;" width="20" x="146" y="138.8594"/><rect fill="#FFFFFF" filter="url(#fccwkvfu8vc73)" height="337.0625" style="stroke: #A80036; stroke-width: 2.0;" width="20" x="399" y="197.125"/><rect fill="#FFFFFF" filter="url(#fccwkvfu8vc73)" height="114.2656" style="stroke: #A80036; stroke-width: 2.0;" width="20" x="712" y="255.3906"/><rect fill="#FFFFFF" filter="url(#fccwkvfu8vc73)" height="28" style="stroke: #A80036; stroke-width: 2.0;" width="20" x="986" y="313.6563"/><rect fill="#FFFFFF" filter="url(#fccwkvfu8vc73)" height="28" style="stroke: #A80036; stroke-width: 2.0;" width="20" x="1289" y="592.4531"/><rect fill="#FFFFFF" filter="url(#fccwkvfu8vc73)" height="53.1328" style="stroke: #A80036; stroke-width: 2.0;" width="20" x="1603" y="453.0547"/><polygon fill="#225C4D" points="122,130.8594,142,138.8594,122,146.8594,130,138.8594" style="stroke: #225C4D; stroke-width: 2.0;"/><line style="stroke: #225C4D; stroke-width: 2.0;" x1="6" x2="134" y1="138.8594" y2="138.8594"/><text fill="#000000" font-family="sans-serif" font-size="26" lengthAdjust="spacingAndGlyphs" textLength="102" x="20" y="128.7275">execute</text><polygon fill="#225C4D" points="375,189.125,395,197.125,375,205.125,383,197.125" style="stroke: #225C4D; stroke-width: 2.0;"/><line style="stroke: #225C4D; stroke-width: 2.0;" x1="166" x2="387" y1="197.125" y2="197.125"/><text fill="#000000" font-family="sans-serif" font-size="26" lengthAdjust="spacingAndGlyphs" textLength="86" x="180" y="186.9932">handle</text><polygon fill="#225C4D" points="688,247.3906,708,255.3906,688,263.3906,696,255.3906" style="stroke: #225C4D; stroke-width: 2.0;"/><line style="stroke: #225C4D; stroke-width: 2.0;" x1="419" x2="700" y1="255.3906" y2="255.3906"/><text fill="#000000" font-family="sans-serif" font-size="26" lengthAdjust="spacingAndGlyphs" textLength="52" x="433" y="245.2588">split</text><polygon fill="#225C4D" points="962,305.6563,982,313.6563,962,321.6563,970,313.6563" style="stroke: #225C4D; stroke-width: 2.0;"/><line style="stroke: #225C4D; stroke-width: 2.0;" x1="732" x2="974" y1="313.6563" y2="313.6563"/><text fill="#000000" font-family="sans-serif" font-size="26" lengthAdjust="spacingAndGlyphs" textLength="106" x="746" y="303.5244">partition</text><polygon fill="#225C4D" points="754,333.6563,734,341.6563,754,349.6563,746,341.6563" style="stroke: #225C4D; stroke-width: 2.0;"/><line style="stroke: #225C4D; stroke-width: 2.0;" x1="742" x2="994" y1="341.6563" y2="341.6563"/><polygon fill="#225C4D" points="441,361.6563,421,369.6563,441,377.6563,433,369.6563" style="stroke: #225C4D; stroke-width: 2.0;"/><line style="stroke: #225C4D; stroke-width: 2.0;" x1="429" x2="720" y1="369.6563" y2="369.6563"/><polygon fill="#225C4D" points="1579,445.0547,1599,453.0547,1579,453.0547" style="stroke: #225C4D; stroke-width: 2.0;"/><line style="stroke: #225C4D; stroke-width: 2.0; stroke-dasharray: 2.0,2.0;" x1="419" x2="1601" y1="453.0547" y2="453.0547"/><text fill="#000000" font-family="sans-serif" font-size="26" lengthAdjust="spacingAndGlyphs" textLength="102" x="433" y="442.9229">execute</text><path d="M1632,395.6563 L1632,475.6563 L1970,475.6563 L1970,415.6563 L1950,395.6563 L1632,395.6563 " fill="#FBFB77" filter="url(#fccwkvfu8vc73)" style="stroke: #A80036; stroke-width: 2.0;"/><path d="M1950,395.6563 L1950,415.6563 L1970,415.6563 L1950,395.6563 " fill="#FBFB77" style="stroke: #A80036; stroke-width: 2.0;"/><text fill="#000000" font-family="sans-serif" font-size="26" lengthAdjust="spacingAndGlyphs" textLength="266" x="1644" y="429.79">Nur diesen Teil muss</text><text fill="#000000" font-family="sans-serif" font-size="26" lengthAdjust="spacingAndGlyphs" textLength="296" x="1644" y="460.0557">man remote ausführen</text><polygon fill="#225C4D" points="441,508.1875,421,508.1875,441,516.1875" style="stroke: #225C4D; stroke-width: 2.0;"/><line style="stroke: #225C4D; stroke-width: 2.0; stroke-dasharray: 2.0,2.0;" x1="419" x2="1611" y1="506.1875" y2="506.1875"/><polygon fill="#225C4D" points="188,526.1875,168,534.1875,188,542.1875,180,534.1875" style="stroke: #225C4D; stroke-width: 2.0;"/><line style="stroke: #225C4D; stroke-width: 2.0;" x1="176" x2="407" y1="534.1875" y2="534.1875"/><polygon fill="#225C4D" points="1265,584.4531,1285,592.4531,1265,600.4531,1273,592.4531" style="stroke: #225C4D; stroke-width: 2.0;"/><line style="stroke: #225C4D; stroke-width: 2.0;" x1="166" x2="1277" y1="592.4531" y2="592.4531"/><text fill="#000000" font-family="sans-serif" font-size="26" lengthAdjust="spacingAndGlyphs" textLength="132" x="180" y="582.3213">aggregate</text><polygon fill="#225C4D" points="188,612.4531,168,620.4531,188,628.4531,180,620.4531" style="stroke: #225C4D; stroke-width: 2.0;"/><line style="stroke: #225C4D; stroke-width: 2.0;" x1="176" x2="1297" y1="620.4531" y2="620.4531"/><polygon fill="#225C4D" points="28,640.4531,8,648.4531,28,656.4531,20,648.4531" style="stroke: #225C4D; stroke-width: 2.0;"/><line style="stroke: #225C4D; stroke-width: 2.0;" x1="16" x2="154" y1="648.4531" y2="648.4531"/><!--MD5=[906d598302a9499717d47ad1b592fd58]
@startuml
skinparam class {
 BackgroundColor #DDEEE8
 BorderColor #225C4D
 ArrowColor #225C4D
 }
scale 2

-> PartitionStep: execute
activate PartitionStep

participant PartitionHandler #lightgrey
PartitionStep -> PartitionHandler: handle
activate PartitionHandler

participant StepExecutionSplitter #lightgrey
PartitionHandler -> StepExecutionSplitter: split
activate StepExecutionSplitter
StepExecutionSplitter -> Partitioner: partition
activate Partitioner
StepExecutionSplitter <- Partitioner
deactivate Partitioner
PartitionHandler <- StepExecutionSplitter
deactivate StepExecutionSplitter

participant StepExecutionAggregator

PartitionHandler - -\ WorkerStep: execute
activate WorkerStep
note right: Nur diesen Teil muss\nman remote ausführen
PartitionHandler \- - WorkerStep
deactivate WorkerStep

PartitionStep <- PartitionHandler
deactivate PartitionHandler

PartitionStep -> StepExecutionAggregator: aggregate
activate StepExecutionAggregator
PartitionStep <- StepExecutionAggregator
deactivate StepExecutionAggregator

<- PartitionStep
deactivate PartitionStep
@enduml

PlantUML version 1.2019.12(Sun Nov 03 11:24:54 CET 2019)
(APACHE source distribution)
Java Runtime: OpenJDK Runtime Environment
JVM: OpenJDK 64-Bit Server VM
Java Version: 17.0.6+10-Debian-1deb11u1
Operating System: Linux
Default Encoding: UTF-8
Language: en
Country: DK
--></g></svg>