<?xml version="1.0" encoding="UTF-8" standalone="no"?><svg xmlns="http://www.w3.org/2000/svg" xmlns:xlink="http://www.w3.org/1999/xlink" contentScriptType="application/ecmascript" contentStyleType="text/css" height="920px" preserveAspectRatio="none" style="width:1545px;height:920px;" version="1.1" viewBox="0 0 1545 920" width="1545px" zoomAndPan="magnify"><defs><filter height="300%" id="f1ft29rl6pk6zh" width="300%" x="-1" y="-1"><feGaussianBlur result="blurOut" stdDeviation="3.3333333333333335"/><feColorMatrix in="blurOut" result="blurOut2" type="matrix" values="0 0 0 0 0 0 0 0 0 0 0 0 0 0 0 0 0 0 .4 0"/><feOffset dx="6.666666666666667" dy="6.666666666666667" in="blurOut2" result="blurOut3"/><feBlend in="SourceGraphic" in2="blurOut3" mode="normal"/></filter></defs><g><ellipse cx="749.5833" cy="33.3333" fill="#000000" filter="url(#f1ft29rl6pk6zh)" rx="16.6667" ry="16.6667" style="stroke: none; stroke-width: 1.6666666666666667;"/><rect fill="#000000" filter="url(#f1ft29rl6pk6zh)" height="10" rx="4.1667" ry="4.1667" style="stroke: #000000; stroke-width: 1.6666666666666667;" width="1509.1667" x="16.6667" y="83.3333"/><rect fill="#FEFECE" filter="url(#f1ft29rl6pk6zh)" height="56.6146" rx="20.8333" ry="20.8333" style="stroke: #A80036; stroke-width: 2.5;" width="233.3333" x="116.6667" y="189.388"/><text fill="#000000" font-family="sans-serif" font-size="20" lengthAdjust="spacingAndGlyphs" textLength="200" x="133.3333" y="224.6191">Datensatz einlesen</text><polygon fill="#FEFECE" filter="url(#f1ft29rl6pk6zh)" points="72.5,405.6771,394.1667,405.6771,410.8333,433.9844,394.1667,462.2917,72.5,462.2917" style="stroke: #A80036; stroke-width: 2.5;"/><text fill="#000000" font-family="sans-serif" font-size="20" lengthAdjust="spacingAndGlyphs" textLength="281.6667" x="89.1667" y="440.9082">Datensatz in Queue stellen</text><rect fill="#FEFECE" filter="url(#f1ft29rl6pk6zh)" height="56.6146" rx="20.8333" ry="20.8333" style="stroke: #A80036; stroke-width: 2.5;" width="340" x="63.3333" y="520.625"/><text fill="#000000" font-family="sans-serif" font-size="20" lengthAdjust="spacingAndGlyphs" textLength="306.6667" x="80" y="555.8561">Nächsten Datensatz einlesen</text><polygon fill="#FEFECE" filter="url(#f1ft29rl6pk6zh)" points="148.3333,304.3359,318.3333,304.3359,338.3333,324.3359,318.3333,344.3359,148.3333,344.3359,128.3333,324.3359,148.3333,304.3359" style="stroke: #A80036; stroke-width: 2.5;"/><text fill="#000000" font-family="sans-serif" font-size="18.3333" lengthAdjust="spacingAndGlyphs" textLength="16.6667" x="240" y="361.3534">ja</text><text fill="#000000" font-family="sans-serif" font-size="18.3333" lengthAdjust="spacingAndGlyphs" textLength="170" x="148.3333" y="330.6828">Daten vorhanden?</text><text fill="#000000" font-family="sans-serif" font-size="18.3333" lengthAdjust="spacingAndGlyphs" textLength="40" x="88.3333" y="320.0122">nein</text><polygon fill="#FEFECE" filter="url(#f1ft29rl6pk6zh)" points="36.6667,673.2943,430,673.2943,446.6667,701.6016,430,729.9089,36.6667,729.9089" style="stroke: #A80036; stroke-width: 2.5;"/><text fill="#000000" font-family="sans-serif" font-size="20" lengthAdjust="spacingAndGlyphs" textLength="353.3333" x="53.3333" y="708.5254">Ende-Markierung in Queue stellen</text><polygon fill="#FEFECE" filter="url(#f1ft29rl6pk6zh)" points="543.3333,126.6667,926.6667,126.6667,910,154.974,926.6667,183.2813,543.3333,183.2813" style="stroke: #A80036; stroke-width: 2.5;"/><text fill="#000000" font-family="sans-serif" font-size="20" lengthAdjust="spacingAndGlyphs" textLength="326.6667" x="560" y="161.8978">Datensatz aus Queue auslesen</text><rect fill="#FEFECE" filter="url(#f1ft29rl6pk6zh)" height="56.6146" rx="20.8333" ry="20.8333" style="stroke: #A80036; stroke-width: 2.5;" width="265" x="594.1667" y="342.9557"/><text fill="#000000" font-family="sans-serif" font-size="20" lengthAdjust="spacingAndGlyphs" textLength="231.6667" x="610.8333" y="378.1868">Datensatz verarbeiten</text><path d="M964.1667,457.9036 L964.1667,484.7917 L930.8333,491.4583 L964.1667,498.125 L964.1667,525.013 A0,0 0 0 0 964.1667,525.013 L1482.5,525.013 A0,0 0 0 0 1482.5,525.013 L1482.5,474.5703 L1465.8333,457.9036 L964.1667,457.9036 A0,0 0 0 0 964.1667,457.9036 " fill="#FBFB77" filter="url(#f1ft29rl6pk6zh)" style="stroke: #A80036; stroke-width: 1.6666666666666667;"/><path d="M1465.8333,457.9036 L1465.8333,474.5703 L1482.5,474.5703 L1465.8333,457.9036 " fill="#FBFB77" style="stroke: #A80036; stroke-width: 1.6666666666666667;"/><text fill="#000000" font-family="sans-serif" font-size="21.6667" lengthAdjust="spacingAndGlyphs" textLength="483.3333" x="974.1667" y="486.3485">Notwendig für Wiederanlauf, um zu erkennen,</text><text fill="#000000" font-family="sans-serif" font-size="21.6667" lengthAdjust="spacingAndGlyphs" textLength="426.6667" x="974.1667" y="511.5698">welche Daten schon verarbeitet wurden.</text><rect fill="#FEFECE" filter="url(#f1ft29rl6pk6zh)" height="56.6146" rx="20.8333" ry="20.8333" style="stroke: #A80036; stroke-width: 2.5;" width="408.3333" x="522.5" y="463.151"/><text fill="#000000" font-family="sans-serif" font-size="20" lengthAdjust="spacingAndGlyphs" textLength="375" x="539.1667" y="498.3822">Datensatz als verarbeitet markieren</text><polygon fill="#FEFECE" filter="url(#f1ft29rl6pk6zh)" points="490,583.3464,980,583.3464,963.3333,611.6536,980,639.9609,490,639.9609" style="stroke: #A80036; stroke-width: 2.5;"/><text fill="#000000" font-family="sans-serif" font-size="20" lengthAdjust="spacingAndGlyphs" textLength="433.3333" x="506.6667" y="618.5775">Nächsten Datensatz aus Queue auslesen</text><polygon fill="#FEFECE" filter="url(#f1ft29rl6pk6zh)" points="602.5,241.6146,850.8333,241.6146,870.8333,261.6146,850.8333,281.6146,602.5,281.6146,582.5,261.6146,602.5,241.6146" style="stroke: #A80036; stroke-width: 2.5;"/><text fill="#000000" font-family="sans-serif" font-size="18.3333" lengthAdjust="spacingAndGlyphs" textLength="40" x="733.3333" y="298.632">nein</text><text fill="#000000" font-family="sans-serif" font-size="18.3333" lengthAdjust="spacingAndGlyphs" textLength="248.3333" x="602.5" y="267.9614">Ende-Markierung gelesen?</text><text fill="#000000" font-family="sans-serif" font-size="18.3333" lengthAdjust="spacingAndGlyphs" textLength="16.6667" x="565.8333" y="257.2909">ja</text><polygon fill="#FEFECE" filter="url(#f1ft29rl6pk6zh)" points="491.6667,736.0156,961.6667,736.0156,978.3333,764.3229,961.6667,792.6302,491.6667,792.6302" style="stroke: #A80036; stroke-width: 2.5;"/><text fill="#000000" font-family="sans-serif" font-size="20" lengthAdjust="spacingAndGlyphs" textLength="430" x="508.3333" y="771.2467">Ende-Markierung erneut in Queue stellen</text><rect fill="#000000" filter="url(#f1ft29rl6pk6zh)" height="10" rx="4.1667" ry="4.1667" style="stroke: #000000; stroke-width: 1.6666666666666667;" width="1509.1667" x="16.6667" y="825.9635"/><ellipse cx="749.5833" cy="885.9635" fill="#FFFFFF" filter="url(#f1ft29rl6pk6zh)" rx="16.6667" ry="16.6667" style="stroke: #000000; stroke-width: 2.5;"/><line style="stroke: #000000; stroke-width: 4.166666666666667;" x1="739.2714" x2="759.8953" y1="875.6516" y2="896.2755"/><line style="stroke: #000000; stroke-width: 4.166666666666667;" x1="759.8953" x2="739.2714" y1="875.6516" y2="896.2755"/><line style="stroke: #225C4D; stroke-width: 2.5;" x1="233.3333" x2="233.3333" y1="462.2917" y2="520.625"/><polygon fill="#225C4D" points="226.6667,503.9583,233.3333,520.625,240,503.9583,233.3333,510.625" style="stroke: #225C4D; stroke-width: 1.6666666666666667;"/><line style="stroke: #225C4D; stroke-width: 2.5;" x1="233.3333" x2="233.3333" y1="344.3359" y2="405.6771"/><polygon fill="#225C4D" points="226.6667,389.0104,233.3333,405.6771,240,389.0104,233.3333,395.6771" style="stroke: #225C4D; stroke-width: 1.6666666666666667;"/><line style="stroke: #225C4D; stroke-width: 2.5;" x1="233.3333" x2="233.3333" y1="577.2396" y2="597.2396"/><line style="stroke: #225C4D; stroke-width: 2.5;" x1="233.3333" x2="423.3333" y1="597.2396" y2="597.2396"/><polygon fill="#225C4D" points="416.6667,477.4544,423.3333,460.7878,430,477.4544,423.3333,470.7878" style="stroke: #225C4D; stroke-width: 2.5;"/><line style="stroke: #225C4D; stroke-width: 2.5;" x1="423.3333" x2="423.3333" y1="324.3359" y2="597.2396"/><line style="stroke: #225C4D; stroke-width: 2.5;" x1="423.3333" x2="338.3333" y1="324.3359" y2="324.3359"/><polygon fill="#225C4D" points="355,317.6693,338.3333,324.3359,355,331.0026,348.3333,324.3359" style="stroke: #225C4D; stroke-width: 1.6666666666666667;"/><line style="stroke: #225C4D; stroke-width: 2.5;" x1="128.3333" x2="43.3333" y1="324.3359" y2="324.3359"/><polygon fill="#225C4D" points="36.6667,454.1211,43.3333,470.7878,50,454.1211,43.3333,460.7878" style="stroke: #225C4D; stroke-width: 2.5;"/><line style="stroke: #225C4D; stroke-width: 2.5;" x1="43.3333" x2="43.3333" y1="324.3359" y2="617.2396"/><line style="stroke: #225C4D; stroke-width: 2.5;" x1="43.3333" x2="233.3333" y1="617.2396" y2="617.2396"/><line style="stroke: #225C4D; stroke-width: 2.5;" x1="233.3333" x2="233.3333" y1="617.2396" y2="673.2943"/><polygon fill="#225C4D" points="226.6667,656.6276,233.3333,673.2943,240,656.6276,233.3333,663.2943" style="stroke: #225C4D; stroke-width: 1.6666666666666667;"/><line style="stroke: #225C4D; stroke-width: 2.5;" x1="233.3333" x2="233.3333" y1="246.0026" y2="304.3359"/><polygon fill="#225C4D" points="226.6667,287.6693,233.3333,304.3359,240,287.6693,233.3333,294.3359" style="stroke: #225C4D; stroke-width: 1.6666666666666667;"/><line style="stroke: #225C4D; stroke-width: 2.5;" x1="726.6667" x2="726.6667" y1="399.5703" y2="463.151"/><polygon fill="#225C4D" points="720,446.4844,726.6667,463.151,733.3333,446.4844,726.6667,453.151" style="stroke: #225C4D; stroke-width: 1.6666666666666667;"/><line style="stroke: #225C4D; stroke-width: 2.5;" x1="726.6667" x2="726.6667" y1="519.7656" y2="583.3464"/><polygon fill="#225C4D" points="720,566.6797,726.6667,583.3464,733.3333,566.6797,726.6667,573.3464" style="stroke: #225C4D; stroke-width: 1.6666666666666667;"/><line style="stroke: #225C4D; stroke-width: 2.5;" x1="726.6667" x2="726.6667" y1="281.6146" y2="342.9557"/><polygon fill="#225C4D" points="720,326.2891,726.6667,342.9557,733.3333,326.2891,726.6667,332.9557" style="stroke: #225C4D; stroke-width: 1.6666666666666667;"/><line style="stroke: #225C4D; stroke-width: 2.5;" x1="726.6667" x2="726.6667" y1="639.9609" y2="657.6823"/><line style="stroke: #225C4D; stroke-width: 2.5;" x1="726.6667" x2="1502.5" y1="657.6823" y2="657.6823"/><polygon fill="#225C4D" points="1495.8333,477.4544,1502.5,460.7878,1509.1667,477.4544,1502.5,470.7878" style="stroke: #225C4D; stroke-width: 2.5;"/><line style="stroke: #225C4D; stroke-width: 2.5;" x1="1502.5" x2="1502.5" y1="261.6146" y2="657.6823"/><line style="stroke: #225C4D; stroke-width: 2.5;" x1="1502.5" x2="870.8333" y1="261.6146" y2="261.6146"/><polygon fill="#225C4D" points="887.5,254.9479,870.8333,261.6146,887.5,268.2813,880.8333,261.6146" style="stroke: #225C4D; stroke-width: 1.6666666666666667;"/><line style="stroke: #225C4D; stroke-width: 2.5;" x1="582.5" x2="470" y1="261.6146" y2="261.6146"/><polygon fill="#225C4D" points="463.3333,454.1211,470,470.7878,476.6667,454.1211,470,460.7878" style="stroke: #225C4D; stroke-width: 2.5;"/><line style="stroke: #225C4D; stroke-width: 2.5;" x1="470" x2="470" y1="261.6146" y2="677.6823"/><line style="stroke: #225C4D; stroke-width: 2.5;" x1="470" x2="726.6667" y1="677.6823" y2="677.6823"/><line style="stroke: #225C4D; stroke-width: 2.5;" x1="726.6667" x2="726.6667" y1="677.6823" y2="736.0156"/><polygon fill="#225C4D" points="720,719.349,726.6667,736.0156,733.3333,719.349,726.6667,726.0156" style="stroke: #225C4D; stroke-width: 1.6666666666666667;"/><line style="stroke: #225C4D; stroke-width: 2.5;" x1="726.6667" x2="726.6667" y1="183.2813" y2="241.6146"/><polygon fill="#225C4D" points="720,224.9479,726.6667,241.6146,733.3333,224.9479,726.6667,231.6146" style="stroke: #225C4D; stroke-width: 1.6666666666666667;"/><line style="stroke: #225C4D; stroke-width: 2.5;" x1="233.3333" x2="233.3333" y1="93.3333" y2="189.388"/><polygon fill="#225C4D" points="226.6667,172.7214,233.3333,189.388,240,172.7214,233.3333,179.388" style="stroke: #225C4D; stroke-width: 1.6666666666666667;"/><line style="stroke: #225C4D; stroke-width: 2.5;" x1="726.6667" x2="726.6667" y1="93.3333" y2="126.6667"/><polygon fill="#225C4D" points="720,110,726.6667,126.6667,733.3333,110,726.6667,116.6667" style="stroke: #225C4D; stroke-width: 1.6666666666666667;"/><line style="stroke: #225C4D; stroke-width: 2.5;" x1="233.3333" x2="233.3333" y1="729.9089" y2="825.9635"/><polygon fill="#225C4D" points="226.6667,809.2969,233.3333,825.9635,240,809.2969,233.3333,815.9635" style="stroke: #225C4D; stroke-width: 1.6666666666666667;"/><line style="stroke: #225C4D; stroke-width: 2.5;" x1="726.6667" x2="726.6667" y1="792.6302" y2="825.9635"/><polygon fill="#225C4D" points="720,809.2969,726.6667,825.9635,733.3333,809.2969,726.6667,815.9635" style="stroke: #225C4D; stroke-width: 1.6666666666666667;"/><line style="stroke: #225C4D; stroke-width: 2.5;" x1="749.5833" x2="749.5833" y1="50" y2="83.3333"/><polygon fill="#225C4D" points="742.9167,66.6667,749.5833,83.3333,756.25,66.6667,749.5833,73.3333" style="stroke: #225C4D; stroke-width: 1.6666666666666667;"/><line style="stroke: #225C4D; stroke-width: 2.5;" x1="749.5833" x2="749.5833" y1="835.9635" y2="869.2969"/><polygon fill="#225C4D" points="742.9167,852.6302,749.5833,869.2969,756.25,852.6302,749.5833,859.2969" style="stroke: #225C4D; stroke-width: 1.6666666666666667;"/><!--MD5=[2fecccd37384431d23838773f907cf00]
@startuml
skinparam class {
 BackgroundColor #DDEEE8
 BorderColor #225C4D
 ArrowColor #225C4D
 }
scale 5/3

start
fork
    :Datensatz einlesen;
    while (Daten vorhanden?) is (ja)
        :Datensatz in Queue stellen >
        :Nächsten Datensatz einlesen;
    endwhile (nein)
    :Ende-Markierung in Queue stellen >
fork again
    :Datensatz aus Queue auslesen <
    while (Ende-Markierung gelesen?) is (nein)
        :Datensatz verarbeiten;
        :Datensatz als verarbeitet markieren;
        note right: Notwendig für Wiederanlauf, um zu erkennen,\nwelche Daten schon verarbeitet wurden.
        :Nächsten Datensatz aus Queue auslesen <
    endwhile (ja)
    :Ende-Markierung erneut in Queue stellen >
end fork
end
@enduml

PlantUML version 1.2019.12(Sun Nov 03 11:24:54 CET 2019)
(APACHE source distribution)
Java Runtime: OpenJDK Runtime Environment
JVM: OpenJDK 64-Bit Server VM
Java Version: 17.0.6+10-Debian-1deb11u1
Operating System: Linux
Default Encoding: UTF-8
Language: en
Country: DK
--></g></svg>