<?xml version="1.0" encoding="UTF-8" standalone="no"?><svg xmlns="http://www.w3.org/2000/svg" xmlns:xlink="http://www.w3.org/1999/xlink" contentScriptType="application/ecmascript" contentStyleType="text/css" height="704px" preserveAspectRatio="none" style="width:1372px;height:704px;" version="1.1" viewBox="0 0 1372 704" width="1372px" zoomAndPan="magnify"><defs><filter height="300%" id="fn6rpv227cg2u" width="300%" x="-1" y="-1"><feGaussianBlur result="blurOut" stdDeviation="4.0"/><feColorMatrix in="blurOut" result="blurOut2" type="matrix" values="0 0 0 0 0 0 0 0 0 0 0 0 0 0 0 0 0 0 .4 0"/><feOffset dx="8.0" dy="8.0" in="blurOut2" result="blurOut3"/><feBlend in="SourceGraphic" in2="blurOut3" mode="normal"/></filter></defs><g><!--MD5=[58aa8c2c7715c0e47628e32940b1f746]
class TaskletStep--><rect fill="#DDEEE8" filter="url(#fn6rpv227cg2u)" height="96" id="TaskletStep" style="stroke: #225C4D; stroke-width: 3.0;" width="204" x="1147" y="298"/><ellipse cx="1177" cy="330" fill="#B4A7E5" rx="22" ry="22" style="stroke: #225C4D; stroke-width: 2.0;"/><path d="M1168.8438,321.5313 L1168.8438,317.2188 L1183.625,317.2188 L1183.625,321.5313 L1178.6875,321.5313 L1178.6875,337.6875 L1183.625,337.6875 L1183.625,342 L1168.8438,342 L1168.8438,337.6875 L1173.7813,337.6875 L1173.7813,321.5313 L1168.8438,321.5313 Z "/><text fill="#000000" font-family="sans-serif" font-size="24" font-style="italic" lengthAdjust="spacingAndGlyphs" textLength="140" x="1205" y="338.3086">TaskletStep</text><line style="stroke: #225C4D; stroke-width: 3.0;" x1="1149" x2="1349" y1="362" y2="362"/><line style="stroke: #225C4D; stroke-width: 3.0;" x1="1149" x2="1349" y1="378" y2="378"/><!--MD5=[c81ac921a2d8abc42c4251c5174137cd]
class StepExecutionRequestHandler--><rect fill="#DDEEE8" filter="url(#fn6rpv227cg2u)" height="121.6094" id="StepExecutionRequestHandler" style="stroke: #225C4D; stroke-width: 3.0;" width="644" x="581" y="16"/><ellipse cx="703.5" cy="48" fill="#ADD1B2" rx="22" ry="22" style="stroke: #225C4D; stroke-width: 2.0;"/><path d="M709.4375,59.2813 Q708.2813,59.875 707,60.1563 Q705.7188,60.4688 704.3125,60.4688 Q699.3125,60.4688 696.6563,57.1875 Q694.0313,53.875 694.0313,47.625 Q694.0313,41.375 696.6563,38.0625 Q699.3125,34.75 704.3125,34.75 Q705.7188,34.75 707,35.0625 Q708.3125,35.375 709.4375,35.9688 L709.4375,41.4063 Q708.1875,40.25 707,39.7188 Q705.8125,39.1563 704.5625,39.1563 Q701.875,39.1563 700.5,41.3125 Q699.125,43.4375 699.125,47.625 Q699.125,51.8125 700.5,53.9688 Q701.875,56.0938 704.5625,56.0938 Q705.8125,56.0938 707,55.5625 Q708.1875,55 709.4375,53.8438 L709.4375,59.2813 Z "/><text fill="#000000" font-family="sans-serif" font-size="24" lengthAdjust="spacingAndGlyphs" textLength="382" x="744.5" y="56.3086">StepExecutionRequestHandler</text><line style="stroke: #225C4D; stroke-width: 3.0;" x1="583" x2="1223" y1="80" y2="80"/><line style="stroke: #225C4D; stroke-width: 3.0;" x1="583" x2="1223" y1="96" y2="96"/><text fill="#000000" font-family="sans-serif" font-size="22" lengthAdjust="spacingAndGlyphs" textLength="620" x="593" y="124.4209">handle(request: StepExecutionRequest): StepExecution</text><!--MD5=[f7729d3adf5f10486004c3e56d1f5cb8]
class StepExecutionRequest--><rect fill="#DDEEE8" filter="url(#fn6rpv227cg2u)" height="172.8281" id="StepExecutionRequest" style="stroke: #225C4D; stroke-width: 3.0;" width="348" x="729" y="260"/><ellipse cx="759" cy="292" fill="#ADD1B2" rx="22" ry="22" style="stroke: #225C4D; stroke-width: 2.0;"/><path d="M764.9375,303.2813 Q763.7813,303.875 762.5,304.1563 Q761.2188,304.4688 759.8125,304.4688 Q754.8125,304.4688 752.1563,301.1875 Q749.5313,297.875 749.5313,291.625 Q749.5313,285.375 752.1563,282.0625 Q754.8125,278.75 759.8125,278.75 Q761.2188,278.75 762.5,279.0625 Q763.8125,279.375 764.9375,279.9688 L764.9375,285.4063 Q763.6875,284.25 762.5,283.7188 Q761.3125,283.1563 760.0625,283.1563 Q757.375,283.1563 756,285.3125 Q754.625,287.4375 754.625,291.625 Q754.625,295.8125 756,297.9688 Q757.375,300.0938 760.0625,300.0938 Q761.3125,300.0938 762.5,299.5625 Q763.6875,299 764.9375,297.8438 L764.9375,303.2813 Z "/><text fill="#000000" font-family="sans-serif" font-size="24" lengthAdjust="spacingAndGlyphs" textLength="284" x="787" y="300.3086">StepExecutionRequest</text><line style="stroke: #225C4D; stroke-width: 3.0;" x1="731" x2="1075" y1="324" y2="324"/><text fill="#000000" font-family="sans-serif" font-size="22" lengthAdjust="spacingAndGlyphs" textLength="198" x="741" y="352.4209">stepName: String</text><text fill="#000000" font-family="sans-serif" font-size="22" lengthAdjust="spacingAndGlyphs" textLength="246" x="741" y="378.0303">stepExecutionId: Long</text><text fill="#000000" font-family="sans-serif" font-size="22" lengthAdjust="spacingAndGlyphs" textLength="230" x="741" y="403.6396">jobExecutionId: Long</text><line style="stroke: #225C4D; stroke-width: 3.0;" x1="731" x2="1075" y1="416.8281" y2="416.8281"/><!--MD5=[792f4df1c244cba7ae48b1c92c10e102]
class MessageChannel--><rect fill="#DDEEE8" filter="url(#fn6rpv227cg2u)" height="96" id="MessageChannel" style="stroke: #225C4D; stroke-width: 3.0;" width="278" x="122" y="586"/><ellipse cx="152" cy="618" fill="#ADD1B2" rx="22" ry="22" style="stroke: #225C4D; stroke-width: 2.0;"/><path d="M157.9375,629.2813 Q156.7813,629.875 155.5,630.1563 Q154.2188,630.4688 152.8125,630.4688 Q147.8125,630.4688 145.1563,627.1875 Q142.5313,623.875 142.5313,617.625 Q142.5313,611.375 145.1563,608.0625 Q147.8125,604.75 152.8125,604.75 Q154.2188,604.75 155.5,605.0625 Q156.8125,605.375 157.9375,605.9688 L157.9375,611.4063 Q156.6875,610.25 155.5,609.7188 Q154.3125,609.1563 153.0625,609.1563 Q150.375,609.1563 149,611.3125 Q147.625,613.4375 147.625,617.625 Q147.625,621.8125 149,623.9688 Q150.375,626.0938 153.0625,626.0938 Q154.3125,626.0938 155.5,625.5625 Q156.6875,625 157.9375,623.8438 L157.9375,629.2813 Z "/><text fill="#000000" font-family="sans-serif" font-size="24" lengthAdjust="spacingAndGlyphs" textLength="214" x="180" y="626.3086">MessageChannel</text><line style="stroke: #225C4D; stroke-width: 3.0;" x1="124" x2="398" y1="650" y2="650"/><line style="stroke: #225C4D; stroke-width: 3.0;" x1="124" x2="398" y1="666" y2="666"/><!--MD5=[9928274bf42cb24389242caa3f0d41de]
class MessageHandler--><rect fill="#DDEEE8" filter="url(#fn6rpv227cg2u)" height="96" id="MessageHandler" style="stroke: #225C4D; stroke-width: 3.0;" width="274" x="124" y="298"/><ellipse cx="154" cy="330" fill="#ADD1B2" rx="22" ry="22" style="stroke: #225C4D; stroke-width: 2.0;"/><path d="M159.9375,341.2813 Q158.7813,341.875 157.5,342.1563 Q156.2188,342.4688 154.8125,342.4688 Q149.8125,342.4688 147.1563,339.1875 Q144.5313,335.875 144.5313,329.625 Q144.5313,323.375 147.1563,320.0625 Q149.8125,316.75 154.8125,316.75 Q156.2188,316.75 157.5,317.0625 Q158.8125,317.375 159.9375,317.9688 L159.9375,323.4063 Q158.6875,322.25 157.5,321.7188 Q156.3125,321.1563 155.0625,321.1563 Q152.375,321.1563 151,323.3125 Q149.625,325.4375 149.625,329.625 Q149.625,333.8125 151,335.9688 Q152.375,338.0938 155.0625,338.0938 Q156.3125,338.0938 157.5,337.5625 Q158.6875,337 159.9375,335.8438 L159.9375,341.2813 Z "/><text fill="#000000" font-family="sans-serif" font-size="24" lengthAdjust="spacingAndGlyphs" textLength="210" x="182" y="338.3086">MessageHandler</text><line style="stroke: #225C4D; stroke-width: 3.0;" x1="126" x2="396" y1="362" y2="362"/><line style="stroke: #225C4D; stroke-width: 3.0;" x1="126" x2="396" y1="378" y2="378"/><!--MD5=[3a63a1f2c6e71ef171a87f0bb5a5d33b]
class MethodInvokingMessageProcessor--><rect fill="#DDEEE8" filter="url(#fn6rpv227cg2u)" height="96" id="MethodInvokingMessageProcessor" style="stroke: #225C4D; stroke-width: 3.0;" width="498" x="12" y="29"/><ellipse cx="42" cy="61" fill="#ADD1B2" rx="22" ry="22" style="stroke: #225C4D; stroke-width: 2.0;"/><path d="M47.9375,72.2813 Q46.7813,72.875 45.5,73.1563 Q44.2188,73.4688 42.8125,73.4688 Q37.8125,73.4688 35.1563,70.1875 Q32.5313,66.875 32.5313,60.625 Q32.5313,54.375 35.1563,51.0625 Q37.8125,47.75 42.8125,47.75 Q44.2188,47.75 45.5,48.0625 Q46.8125,48.375 47.9375,48.9688 L47.9375,54.4063 Q46.6875,53.25 45.5,52.7188 Q44.3125,52.1563 43.0625,52.1563 Q40.375,52.1563 39,54.3125 Q37.625,56.4375 37.625,60.625 Q37.625,64.8125 39,66.9688 Q40.375,69.0938 43.0625,69.0938 Q44.3125,69.0938 45.5,68.5625 Q46.6875,68 47.9375,66.8438 L47.9375,72.2813 Z "/><text fill="#000000" font-family="sans-serif" font-size="24" lengthAdjust="spacingAndGlyphs" textLength="434" x="70" y="69.3086">MethodInvokingMessageProcessor</text><line style="stroke: #225C4D; stroke-width: 3.0;" x1="14" x2="508" y1="93" y2="93"/><line style="stroke: #225C4D; stroke-width: 3.0;" x1="14" x2="508" y1="109" y2="109"/><!--MD5=[951b382d521f0427ea53e85c49c6e65f]
link StepExecutionRequestHandler to StepExecutionRequest--><path d="M903,138.48 C903,171.12 903,212.34 903,249.3 " fill="none" id="StepExecutionRequestHandler-&gt;StepExecutionRequest" style="stroke: #225C4D; stroke-width: 2.0; stroke-dasharray: 7.0,7.0;"/><polygon fill="#225C4D" points="903,259.6,911,241.6,903,249.6,895,241.6,903,259.6" style="stroke: #225C4D; stroke-width: 2.0;"/><!--MD5=[76a56f49d3cc5de6424055952dc79d60]
link StepExecutionRequest to TaskletStep--><path d="M1077.36,346 C1096.96,346 1116.56,346 1136.16,346 " fill="none" id="StepExecutionRequest-&gt;TaskletStep" style="stroke: #225C4D; stroke-width: 2.0; stroke-dasharray: 7.0,7.0;"/><polygon fill="#225C4D" points="1146.42,346,1128.42,338,1136.42,346,1128.42,354,1146.42,346" style="stroke: #225C4D; stroke-width: 2.0;"/><!--MD5=[8b3c45b81fb850436b35485f49210b67]
reverse link MessageHandler to MessageChannel--><path d="M167.06,400.32 C120.86,433.36 79.92,478.66 105,526 C117.88,550.3 139.1,570.08 161.8,585.66 " fill="none" id="MessageHandler&lt;-MessageChannel" style="stroke: #225C4D; stroke-width: 2.0;"/><polygon fill="#225C4D" points="175.74,394.28,156.3895,397.9623,167.5222,399.9781,165.5064,411.1107,175.74,394.28" style="stroke: #225C4D; stroke-width: 2.0;"/><text fill="#000000" font-family="sans-serif" font-size="26" lengthAdjust="spacingAndGlyphs" textLength="218" x="107" y="518.1338">messageHandler</text><!--MD5=[caa20bb03df01a49a0d570d5b2e26162]
link MessageHandler to MessageChannel--><path d="M299.4,394 C324.24,429.46 349.46,480.02 335,526 C329.32,544.06 319.34,561.74 308.52,577.32 " fill="none" id="MessageHandler-&gt;MessageChannel" style="stroke: #225C4D; stroke-width: 2.0;"/><polygon fill="#225C4D" points="302.44,585.74,319.4617,575.8273,308.2928,577.6317,306.4884,566.4628,302.44,585.74" style="stroke: #225C4D; stroke-width: 2.0;"/><text fill="#000000" font-family="sans-serif" font-size="26" lengthAdjust="spacingAndGlyphs" textLength="188" x="343" y="518.1338">outputChannel</text><!--MD5=[210d6cd23d0f68e54101ea8bc5cdd617]
reverse link MethodInvokingMessageProcessor to MessageHandler--><path d="M261,135.74 C261,183.98 261,252.42 261,297.48 " fill="none" id="MethodInvokingMessageProcessor&lt;-MessageHandler" style="stroke: #225C4D; stroke-width: 2.0;"/><polygon fill="#225C4D" points="261,125.16,253,143.16,261,135.16,269,143.16,261,125.16" style="stroke: #225C4D; stroke-width: 2.0;"/><!--MD5=[3003f5443ffd872f8f07626a2fd8cfb4]
link MethodInvokingMessageProcessor to StepExecutionRequestHandler--><path d="M510.52,77 C530.32,77 550.12,77 569.92,77 " fill="none" id="MethodInvokingMessageProcessor-&gt;StepExecutionRequestHandler" style="stroke: #225C4D; stroke-width: 2.0;"/><polygon fill="#225C4D" points="580.28,77,562.28,69,570.28,77,562.28,85,580.28,77" style="stroke: #225C4D; stroke-width: 2.0;"/><!--MD5=[7dcb1e77f770a788e4eb1df780ca072a]
@startuml
skinparam class {
 BackgroundColor #DDEEE8
 BorderColor #225C4D
 ArrowColor #225C4D
 }
scale 2

interface TaskletStep

class StepExecutionRequestHandler {
    handle(request: StepExecutionRequest): StepExecution
}

class StepExecutionRequest {
    stepName: String
    stepExecutionId: Long
    jobExecutionId: Long
}

StepExecutionRequestHandler ..> StepExecutionRequest
StepExecutionRequest .> TaskletStep

MessageChannel -up-> MessageHandler: messageHandler
MessageHandler -up-> MethodInvokingMessageProcessor
MessageHandler - -> MessageChannel: outputChannel
MethodInvokingMessageProcessor -> StepExecutionRequestHandler
@enduml

PlantUML version 1.2019.12(Sun Nov 03 11:24:54 CET 2019)
(APACHE source distribution)
Java Runtime: OpenJDK Runtime Environment
JVM: OpenJDK 64-Bit Server VM
Java Version: 17.0.6+10-Debian-1deb11u1
Operating System: Linux
Default Encoding: UTF-8
Language: en
Country: DK
--></g></svg>