<?xml version="1.0" encoding="UTF-8" standalone="no"?><svg xmlns="http://www.w3.org/2000/svg" xmlns:xlink="http://www.w3.org/1999/xlink" contentScriptType="application/ecmascript" contentStyleType="text/css" height="566px" preserveAspectRatio="none" style="width:2426px;height:566px;" version="1.1" viewBox="0 0 2426 566" width="2426px" zoomAndPan="magnify"><defs><filter height="300%" id="fl5yn370sn38r" width="300%" x="-1" y="-1"><feGaussianBlur result="blurOut" stdDeviation="4.0"/><feColorMatrix in="blurOut" result="blurOut2" type="matrix" values="0 0 0 0 0 0 0 0 0 0 0 0 0 0 0 0 0 0 .4 0"/><feOffset dx="8.0" dy="8.0" in="blurOut2" result="blurOut3"/><feBlend in="SourceGraphic" in2="blurOut3" mode="normal"/></filter></defs><g><!--MD5=[7fa27d7515fd28ae64a1c743985a4c75]
class Tasklet--><rect fill="#DDEEE8" filter="url(#fl5yn370sn38r)" height="96" id="Tasklet" style="stroke: #225C4D; stroke-width: 3.0;" width="148" x="915" y="16"/><ellipse cx="945" cy="48" fill="#B4A7E5" rx="22" ry="22" style="stroke: #225C4D; stroke-width: 2.0;"/><path d="M936.8438,39.5313 L936.8438,35.2188 L951.625,35.2188 L951.625,39.5313 L946.6875,39.5313 L946.6875,55.6875 L951.625,55.6875 L951.625,60 L936.8438,60 L936.8438,55.6875 L941.7813,55.6875 L941.7813,39.5313 L936.8438,39.5313 Z "/><text fill="#000000" font-family="sans-serif" font-size="24" font-style="italic" lengthAdjust="spacingAndGlyphs" textLength="84" x="973" y="56.3086">Tasklet</text><line style="stroke: #225C4D; stroke-width: 3.0;" x1="917" x2="1061" y1="80" y2="80"/><line style="stroke: #225C4D; stroke-width: 3.0;" x1="917" x2="1061" y1="96" y2="96"/><!--MD5=[607d34f76403a7112c19a5b38e796e59]
class RepeatOperations--><rect fill="#DDEEE8" filter="url(#fl5yn370sn38r)" height="96" id="RepeatOperations" style="stroke: #225C4D; stroke-width: 3.0;" width="274" x="12" y="232"/><ellipse cx="42" cy="264" fill="#B4A7E5" rx="22" ry="22" style="stroke: #225C4D; stroke-width: 2.0;"/><path d="M33.8438,255.5313 L33.8438,251.2188 L48.625,251.2188 L48.625,255.5313 L43.6875,255.5313 L43.6875,271.6875 L48.625,271.6875 L48.625,276 L33.8438,276 L33.8438,271.6875 L38.7813,271.6875 L38.7813,255.5313 L33.8438,255.5313 Z "/><text fill="#000000" font-family="sans-serif" font-size="24" font-style="italic" lengthAdjust="spacingAndGlyphs" textLength="210" x="70" y="272.3086">RepeatOperations</text><line style="stroke: #225C4D; stroke-width: 3.0;" x1="14" x2="284" y1="296" y2="296"/><line style="stroke: #225C4D; stroke-width: 3.0;" x1="14" x2="284" y1="312" y2="312"/><path d="M68,456 L68,536.5313 A0,0 0 0 0 68,536.5313 L230,536.5313 A0,0 0 0 0 230,536.5313 L230,476 L210,456 L157,456 L149,328 L141,456 L68,456 A0,0 0 0 0 68,456 " fill="#FBFB77" filter="url(#fl5yn370sn38r)" style="stroke: #A80036; stroke-width: 2.0;"/><path d="M210,456 L210,476 L230,476 L210,456 " fill="#FBFB77" style="stroke: #A80036; stroke-width: 2.0;"/><text fill="#000000" font-family="sans-serif" font-size="26" lengthAdjust="spacingAndGlyphs" textLength="90" x="80" y="490.1338">Repeat</text><text fill="#000000" font-family="sans-serif" font-size="26" lengthAdjust="spacingAndGlyphs" textLength="120" x="80" y="520.3994">Template</text><!--MD5=[367815e00a99475f8ce66a36b1be030a]
class ChunkProvider--><rect fill="#DDEEE8" filter="url(#fl5yn370sn38r)" height="96" id="ChunkProvider" style="stroke: #225C4D; stroke-width: 3.0;" width="250" x="594" y="16"/><ellipse cx="624" cy="48" fill="#B4A7E5" rx="22" ry="22" style="stroke: #225C4D; stroke-width: 2.0;"/><path d="M615.8438,39.5313 L615.8438,35.2188 L630.625,35.2188 L630.625,39.5313 L625.6875,39.5313 L625.6875,55.6875 L630.625,55.6875 L630.625,60 L615.8438,60 L615.8438,55.6875 L620.7813,55.6875 L620.7813,39.5313 L615.8438,39.5313 Z "/><text fill="#000000" font-family="sans-serif" font-size="24" font-style="italic" lengthAdjust="spacingAndGlyphs" textLength="170" x="652" y="56.3086">ChunkProvider</text><rect fill="#FFFFFF" height="31.9375" style="stroke: #000000; stroke-width: 2.0; stroke-dasharray: 2.0,2.0;" width="12" x="838" y="10"/><text fill="#000000" font-family="sans-serif" font-size="24" font-style="italic" lengthAdjust="spacingAndGlyphs" textLength="8" x="840" y="34.2773">I</text><line style="stroke: #225C4D; stroke-width: 3.0;" x1="596" x2="842" y1="80" y2="80"/><line style="stroke: #225C4D; stroke-width: 3.0;" x1="596" x2="842" y1="96" y2="96"/><!--MD5=[f763bb912e59dca0f8fbce405cf9c903]
class ChunkProcessor--><rect fill="#DDEEE8" filter="url(#fl5yn370sn38r)" height="96" id="ChunkProcessor" style="stroke: #225C4D; stroke-width: 3.0;" width="268" x="1177" y="16"/><ellipse cx="1207" cy="48" fill="#B4A7E5" rx="22" ry="22" style="stroke: #225C4D; stroke-width: 2.0;"/><path d="M1198.8438,39.5313 L1198.8438,35.2188 L1213.625,35.2188 L1213.625,39.5313 L1208.6875,39.5313 L1208.6875,55.6875 L1213.625,55.6875 L1213.625,60 L1198.8438,60 L1198.8438,55.6875 L1203.7813,55.6875 L1203.7813,39.5313 L1198.8438,39.5313 Z "/><text fill="#000000" font-family="sans-serif" font-size="24" font-style="italic" lengthAdjust="spacingAndGlyphs" textLength="188" x="1235" y="56.3086">ChunkProcessor</text><rect fill="#FFFFFF" height="31.9375" style="stroke: #000000; stroke-width: 2.0; stroke-dasharray: 2.0,2.0;" width="12" x="1439" y="10"/><text fill="#000000" font-family="sans-serif" font-size="24" font-style="italic" lengthAdjust="spacingAndGlyphs" textLength="8" x="1441" y="34.2773">I</text><line style="stroke: #225C4D; stroke-width: 3.0;" x1="1179" x2="1443" y1="80" y2="80"/><line style="stroke: #225C4D; stroke-width: 3.0;" x1="1179" x2="1443" y1="96" y2="96"/><!--MD5=[7a3517b8671877737ac75afea9150f0b]
class ChunkOrientedTasklet--><rect fill="#DDEEE8" filter="url(#fl5yn370sn38r)" height="96" id="ChunkOrientedTasklet" style="stroke: #225C4D; stroke-width: 3.0;" width="356" x="769" y="232"/><ellipse cx="799" cy="264" fill="#ADD1B2" rx="22" ry="22" style="stroke: #225C4D; stroke-width: 2.0;"/><path d="M804.9375,275.2813 Q803.7813,275.875 802.5,276.1563 Q801.2188,276.4688 799.8125,276.4688 Q794.8125,276.4688 792.1563,273.1875 Q789.5313,269.875 789.5313,263.625 Q789.5313,257.375 792.1563,254.0625 Q794.8125,250.75 799.8125,250.75 Q801.2188,250.75 802.5,251.0625 Q803.8125,251.375 804.9375,251.9688 L804.9375,257.4063 Q803.6875,256.25 802.5,255.7188 Q801.3125,255.1563 800.0625,255.1563 Q797.375,255.1563 796,257.3125 Q794.625,259.4375 794.625,263.625 Q794.625,267.8125 796,269.9688 Q797.375,272.0938 800.0625,272.0938 Q801.3125,272.0938 802.5,271.5625 Q803.6875,271 804.9375,269.8438 L804.9375,275.2813 Z "/><text fill="#000000" font-family="sans-serif" font-size="24" lengthAdjust="spacingAndGlyphs" textLength="276" x="827" y="272.3086">ChunkOrientedTasklet</text><rect fill="#FFFFFF" height="31.9375" style="stroke: #000000; stroke-width: 2.0; stroke-dasharray: 2.0,2.0;" width="12" x="1119" y="226"/><text fill="#000000" font-family="sans-serif" font-size="24" font-style="italic" lengthAdjust="spacingAndGlyphs" textLength="8" x="1121" y="250.2773">I</text><line style="stroke: #225C4D; stroke-width: 3.0;" x1="771" x2="1123" y1="296" y2="296"/><line style="stroke: #225C4D; stroke-width: 3.0;" x1="771" x2="1123" y1="312" y2="312"/><!--MD5=[6895f5fada2143601e9e39ea24a36399]
class SimpleChunkProvider--><rect fill="#DDEEE8" filter="url(#fl5yn370sn38r)" height="96" id="SimpleChunkProvider" style="stroke: #225C4D; stroke-width: 3.0;" width="342" x="356" y="232"/><ellipse cx="386" cy="264" fill="#ADD1B2" rx="22" ry="22" style="stroke: #225C4D; stroke-width: 2.0;"/><path d="M391.9375,275.2813 Q390.7813,275.875 389.5,276.1563 Q388.2188,276.4688 386.8125,276.4688 Q381.8125,276.4688 379.1563,273.1875 Q376.5313,269.875 376.5313,263.625 Q376.5313,257.375 379.1563,254.0625 Q381.8125,250.75 386.8125,250.75 Q388.2188,250.75 389.5,251.0625 Q390.8125,251.375 391.9375,251.9688 L391.9375,257.4063 Q390.6875,256.25 389.5,255.7188 Q388.3125,255.1563 387.0625,255.1563 Q384.375,255.1563 383,257.3125 Q381.625,259.4375 381.625,263.625 Q381.625,267.8125 383,269.9688 Q384.375,272.0938 387.0625,272.0938 Q388.3125,272.0938 389.5,271.5625 Q390.6875,271 391.9375,269.8438 L391.9375,275.2813 Z "/><text fill="#000000" font-family="sans-serif" font-size="24" lengthAdjust="spacingAndGlyphs" textLength="262" x="414" y="272.3086">SimpleChunkProvider</text><rect fill="#FFFFFF" height="31.9375" style="stroke: #000000; stroke-width: 2.0; stroke-dasharray: 2.0,2.0;" width="12" x="692" y="226"/><text fill="#000000" font-family="sans-serif" font-size="24" font-style="italic" lengthAdjust="spacingAndGlyphs" textLength="8" x="694" y="250.2773">I</text><line style="stroke: #225C4D; stroke-width: 3.0;" x1="358" x2="696" y1="296" y2="296"/><line style="stroke: #225C4D; stroke-width: 3.0;" x1="358" x2="696" y1="312" y2="312"/><!--MD5=[63dbb8b40f8426ba93ef9d096552c109]
class FaultTolerantChunkProvider--><rect fill="#DDEEE8" filter="url(#fl5yn370sn38r)" height="96" id="FaultTolerantChunkProvider" style="stroke: #225C4D; stroke-width: 3.0;" width="426" x="324" y="448"/><ellipse cx="354" cy="480" fill="#ADD1B2" rx="22" ry="22" style="stroke: #225C4D; stroke-width: 2.0;"/><path d="M359.9375,491.2813 Q358.7813,491.875 357.5,492.1563 Q356.2188,492.4688 354.8125,492.4688 Q349.8125,492.4688 347.1563,489.1875 Q344.5313,485.875 344.5313,479.625 Q344.5313,473.375 347.1563,470.0625 Q349.8125,466.75 354.8125,466.75 Q356.2188,466.75 357.5,467.0625 Q358.8125,467.375 359.9375,467.9688 L359.9375,473.4063 Q358.6875,472.25 357.5,471.7188 Q356.3125,471.1563 355.0625,471.1563 Q352.375,471.1563 351,473.3125 Q349.625,475.4375 349.625,479.625 Q349.625,483.8125 351,485.9688 Q352.375,488.0938 355.0625,488.0938 Q356.3125,488.0938 357.5,487.5625 Q358.6875,487 359.9375,485.8438 L359.9375,491.2813 Z "/><text fill="#000000" font-family="sans-serif" font-size="24" lengthAdjust="spacingAndGlyphs" textLength="346" x="382" y="488.3086">FaultTolerantChunkProvider</text><rect fill="#FFFFFF" height="31.9375" style="stroke: #000000; stroke-width: 2.0; stroke-dasharray: 2.0,2.0;" width="12" x="744" y="442"/><text fill="#000000" font-family="sans-serif" font-size="24" font-style="italic" lengthAdjust="spacingAndGlyphs" textLength="8" x="746" y="466.2773">I</text><line style="stroke: #225C4D; stroke-width: 3.0;" x1="326" x2="748" y1="512" y2="512"/><line style="stroke: #225C4D; stroke-width: 3.0;" x1="326" x2="748" y1="528" y2="528"/><!--MD5=[d4d4c9afdb3befad6e3075decfbba692]
class SimpleChunkProcessor--><rect fill="#DDEEE8" filter="url(#fl5yn370sn38r)" height="96" id="SimpleChunkProcessor" style="stroke: #225C4D; stroke-width: 3.0;" width="398" x="1196" y="232"/><ellipse cx="1226" cy="264" fill="#ADD1B2" rx="22" ry="22" style="stroke: #225C4D; stroke-width: 2.0;"/><path d="M1231.9375,275.2813 Q1230.7813,275.875 1229.5,276.1563 Q1228.2188,276.4688 1226.8125,276.4688 Q1221.8125,276.4688 1219.1563,273.1875 Q1216.5313,269.875 1216.5313,263.625 Q1216.5313,257.375 1219.1563,254.0625 Q1221.8125,250.75 1226.8125,250.75 Q1228.2188,250.75 1229.5,251.0625 Q1230.8125,251.375 1231.9375,251.9688 L1231.9375,257.4063 Q1230.6875,256.25 1229.5,255.7188 Q1228.3125,255.1563 1227.0625,255.1563 Q1224.375,255.1563 1223,257.3125 Q1221.625,259.4375 1221.625,263.625 Q1221.625,267.8125 1223,269.9688 Q1224.375,272.0938 1227.0625,272.0938 Q1228.3125,272.0938 1229.5,271.5625 Q1230.6875,271 1231.9375,269.8438 L1231.9375,275.2813 Z "/><text fill="#000000" font-family="sans-serif" font-size="24" lengthAdjust="spacingAndGlyphs" textLength="286" x="1254" y="272.3086">SimpleChunkProcessor</text><rect fill="#FFFFFF" height="31.9375" style="stroke: #000000; stroke-width: 2.0; stroke-dasharray: 2.0,2.0;" width="44" x="1556" y="226"/><text fill="#000000" font-family="sans-serif" font-size="24" font-style="italic" lengthAdjust="spacingAndGlyphs" textLength="40" x="1558" y="250.2773">I, O</text><line style="stroke: #225C4D; stroke-width: 3.0;" x1="1198" x2="1592" y1="296" y2="296"/><line style="stroke: #225C4D; stroke-width: 3.0;" x1="1198" x2="1592" y1="312" y2="312"/><!--MD5=[cdf3b17061847a316f4eba3d87d6eb9e]
class FaultTolerantChunkProcessor--><rect fill="#DDEEE8" filter="url(#fl5yn370sn38r)" height="96" id="FaultTolerantChunkProcessor" style="stroke: #225C4D; stroke-width: 3.0;" width="482" x="1110" y="448"/><ellipse cx="1140" cy="480" fill="#ADD1B2" rx="22" ry="22" style="stroke: #225C4D; stroke-width: 2.0;"/><path d="M1145.9375,491.2813 Q1144.7813,491.875 1143.5,492.1563 Q1142.2188,492.4688 1140.8125,492.4688 Q1135.8125,492.4688 1133.1563,489.1875 Q1130.5313,485.875 1130.5313,479.625 Q1130.5313,473.375 1133.1563,470.0625 Q1135.8125,466.75 1140.8125,466.75 Q1142.2188,466.75 1143.5,467.0625 Q1144.8125,467.375 1145.9375,467.9688 L1145.9375,473.4063 Q1144.6875,472.25 1143.5,471.7188 Q1142.3125,471.1563 1141.0625,471.1563 Q1138.375,471.1563 1137,473.3125 Q1135.625,475.4375 1135.625,479.625 Q1135.625,483.8125 1137,485.9688 Q1138.375,488.0938 1141.0625,488.0938 Q1142.3125,488.0938 1143.5,487.5625 Q1144.6875,487 1145.9375,485.8438 L1145.9375,491.2813 Z "/><text fill="#000000" font-family="sans-serif" font-size="24" lengthAdjust="spacingAndGlyphs" textLength="370" x="1168" y="488.3086">FaultTolerantChunkProcessor</text><rect fill="#FFFFFF" height="31.9375" style="stroke: #000000; stroke-width: 2.0; stroke-dasharray: 2.0,2.0;" width="44" x="1554" y="442"/><text fill="#000000" font-family="sans-serif" font-size="24" font-style="italic" lengthAdjust="spacingAndGlyphs" textLength="40" x="1556" y="466.2773">I, O</text><line style="stroke: #225C4D; stroke-width: 3.0;" x1="1112" x2="1590" y1="512" y2="512"/><line style="stroke: #225C4D; stroke-width: 3.0;" x1="1112" x2="1590" y1="528" y2="528"/><!--MD5=[f90aa14bed8e8e84a5ee92e7126a3c84]
class ItemReader--><rect fill="#DDEEE8" filter="url(#fl5yn370sn38r)" height="96" id="ItemReader" style="stroke: #225C4D; stroke-width: 3.0;" width="218" x="306" y="16"/><ellipse cx="336" cy="48" fill="#B4A7E5" rx="22" ry="22" style="stroke: #225C4D; stroke-width: 2.0;"/><path d="M327.8438,39.5313 L327.8438,35.2188 L342.625,35.2188 L342.625,39.5313 L337.6875,39.5313 L337.6875,55.6875 L342.625,55.6875 L342.625,60 L327.8438,60 L327.8438,55.6875 L332.7813,55.6875 L332.7813,39.5313 L327.8438,39.5313 Z "/><text fill="#000000" font-family="sans-serif" font-size="24" font-style="italic" lengthAdjust="spacingAndGlyphs" textLength="138" x="364" y="56.3086">ItemReader</text><rect fill="#FFFFFF" height="31.9375" style="stroke: #000000; stroke-width: 2.0; stroke-dasharray: 2.0,2.0;" width="12" x="518" y="10"/><text fill="#000000" font-family="sans-serif" font-size="24" font-style="italic" lengthAdjust="spacingAndGlyphs" textLength="8" x="520" y="34.2773">I</text><line style="stroke: #225C4D; stroke-width: 3.0;" x1="308" x2="522" y1="80" y2="80"/><line style="stroke: #225C4D; stroke-width: 3.0;" x1="308" x2="522" y1="96" y2="96"/><!--MD5=[a396b8442c715b816f963da36b73527d]
class ChunkMessageChannelItemWriter--><rect fill="#DDEEE8" filter="url(#fl5yn370sn38r)" height="96" id="ChunkMessageChannelItemWriter" style="stroke: #225C4D; stroke-width: 3.0;" width="508" x="1665" y="232"/><ellipse cx="1695" cy="264" fill="#ADD1B2" rx="22" ry="22" style="stroke: #225C4D; stroke-width: 2.0;"/><path d="M1700.9375,275.2813 Q1699.7813,275.875 1698.5,276.1563 Q1697.2188,276.4688 1695.8125,276.4688 Q1690.8125,276.4688 1688.1563,273.1875 Q1685.5313,269.875 1685.5313,263.625 Q1685.5313,257.375 1688.1563,254.0625 Q1690.8125,250.75 1695.8125,250.75 Q1697.2188,250.75 1698.5,251.0625 Q1699.8125,251.375 1700.9375,251.9688 L1700.9375,257.4063 Q1699.6875,256.25 1698.5,255.7188 Q1697.3125,255.1563 1696.0625,255.1563 Q1693.375,255.1563 1692,257.3125 Q1690.625,259.4375 1690.625,263.625 Q1690.625,267.8125 1692,269.9688 Q1693.375,272.0938 1696.0625,272.0938 Q1697.3125,272.0938 1698.5,271.5625 Q1699.6875,271 1700.9375,269.8438 L1700.9375,275.2813 Z "/><text fill="#000000" font-family="sans-serif" font-size="24" lengthAdjust="spacingAndGlyphs" textLength="420" x="1723" y="272.3086">ChunkMessageChannelItemWriter</text><rect fill="#FFFFFF" height="31.9375" style="stroke: #000000; stroke-width: 2.0; stroke-dasharray: 2.0,2.0;" width="20" x="2159" y="226"/><text fill="#000000" font-family="sans-serif" font-size="24" font-style="italic" lengthAdjust="spacingAndGlyphs" textLength="16" x="2161" y="250.2773">O</text><line style="stroke: #225C4D; stroke-width: 3.0;" x1="1667" x2="2171" y1="296" y2="296"/><line style="stroke: #225C4D; stroke-width: 3.0;" x1="1667" x2="2171" y1="312" y2="312"/><!--MD5=[69d2560477d88007888700c846ca98b5]
class SkipPolicy--><rect fill="#DDEEE8" filter="url(#fl5yn370sn38r)" height="96" id="SkipPolicy" style="stroke: #225C4D; stroke-width: 3.0;" width="184" x="833" y="448"/><ellipse cx="863" cy="480" fill="#B4A7E5" rx="22" ry="22" style="stroke: #225C4D; stroke-width: 2.0;"/><path d="M854.8438,471.5313 L854.8438,467.2188 L869.625,467.2188 L869.625,471.5313 L864.6875,471.5313 L864.6875,487.6875 L869.625,487.6875 L869.625,492 L854.8438,492 L854.8438,487.6875 L859.7813,487.6875 L859.7813,471.5313 L854.8438,471.5313 Z "/><text fill="#000000" font-family="sans-serif" font-size="24" font-style="italic" lengthAdjust="spacingAndGlyphs" textLength="120" x="891" y="488.3086">SkipPolicy</text><line style="stroke: #225C4D; stroke-width: 3.0;" x1="835" x2="1015" y1="512" y2="512"/><line style="stroke: #225C4D; stroke-width: 3.0;" x1="835" x2="1015" y1="528" y2="528"/><!--MD5=[792f4df1c244cba7ae48b1c92c10e102]
class MessageChannel--><rect fill="#DDEEE8" filter="url(#fl5yn370sn38r)" height="96" id="MessageChannel" style="stroke: #225C4D; stroke-width: 3.0;" width="258" x="2146" y="16"/><ellipse cx="2176" cy="48" fill="#B4A7E5" rx="22" ry="22" style="stroke: #225C4D; stroke-width: 2.0;"/><path d="M2167.8438,39.5313 L2167.8438,35.2188 L2182.625,35.2188 L2182.625,39.5313 L2177.6875,39.5313 L2177.6875,55.6875 L2182.625,55.6875 L2182.625,60 L2167.8438,60 L2167.8438,55.6875 L2172.7813,55.6875 L2172.7813,39.5313 L2167.8438,39.5313 Z "/><text fill="#000000" font-family="sans-serif" font-size="24" font-style="italic" lengthAdjust="spacingAndGlyphs" textLength="194" x="2204" y="56.3086">MessageChannel</text><line style="stroke: #225C4D; stroke-width: 3.0;" x1="2148" x2="2402" y1="80" y2="80"/><line style="stroke: #225C4D; stroke-width: 3.0;" x1="2148" x2="2402" y1="96" y2="96"/><!--MD5=[a6467ac256d93ebd3b89b7170dde8359]
class PollableChannel--><rect fill="#DDEEE8" filter="url(#fl5yn370sn38r)" height="96" id="PollableChannel" style="stroke: #225C4D; stroke-width: 3.0;" width="246" x="1796" y="448"/><ellipse cx="1826" cy="480" fill="#B4A7E5" rx="22" ry="22" style="stroke: #225C4D; stroke-width: 2.0;"/><path d="M1817.8438,471.5313 L1817.8438,467.2188 L1832.625,467.2188 L1832.625,471.5313 L1827.6875,471.5313 L1827.6875,487.6875 L1832.625,487.6875 L1832.625,492 L1817.8438,492 L1817.8438,487.6875 L1822.7813,487.6875 L1822.7813,471.5313 L1817.8438,471.5313 Z "/><text fill="#000000" font-family="sans-serif" font-size="24" font-style="italic" lengthAdjust="spacingAndGlyphs" textLength="182" x="1854" y="488.3086">PollableChannel</text><line style="stroke: #225C4D; stroke-width: 3.0;" x1="1798" x2="2040" y1="512" y2="512"/><line style="stroke: #225C4D; stroke-width: 3.0;" x1="1798" x2="2040" y1="528" y2="528"/><!--MD5=[d95db8a7773fa91fff9d7da89b5f13bb]
class MessagingTemplate--><rect fill="#DDEEE8" filter="url(#fl5yn370sn38r)" height="96" id="MessagingTemplate" style="stroke: #225C4D; stroke-width: 3.0;" width="314" x="1762" y="16"/><ellipse cx="1792" cy="48" fill="#ADD1B2" rx="22" ry="22" style="stroke: #225C4D; stroke-width: 2.0;"/><path d="M1797.9375,59.2813 Q1796.7813,59.875 1795.5,60.1563 Q1794.2188,60.4688 1792.8125,60.4688 Q1787.8125,60.4688 1785.1563,57.1875 Q1782.5313,53.875 1782.5313,47.625 Q1782.5313,41.375 1785.1563,38.0625 Q1787.8125,34.75 1792.8125,34.75 Q1794.2188,34.75 1795.5,35.0625 Q1796.8125,35.375 1797.9375,35.9688 L1797.9375,41.4063 Q1796.6875,40.25 1795.5,39.7188 Q1794.3125,39.1563 1793.0625,39.1563 Q1790.375,39.1563 1789,41.3125 Q1787.625,43.4375 1787.625,47.625 Q1787.625,51.8125 1789,53.9688 Q1790.375,56.0938 1793.0625,56.0938 Q1794.3125,56.0938 1795.5,55.5625 Q1796.6875,55 1797.9375,53.8438 L1797.9375,59.2813 Z "/><text fill="#000000" font-family="sans-serif" font-size="24" lengthAdjust="spacingAndGlyphs" textLength="250" x="1820" y="56.3086">MessagingTemplate</text><line style="stroke: #225C4D; stroke-width: 3.0;" x1="1764" x2="2074" y1="80" y2="80"/><line style="stroke: #225C4D; stroke-width: 3.0;" x1="1764" x2="2074" y1="96" y2="96"/><!--MD5=[5683ac50f4d820bc81e5de392badf70e]
link ChunkProvider to ChunkOrientedTasklet--><path d="M788.2,130.34 C816.38,156.54 879.2614,215.0201 879.2614,215.0201 " fill="none" id="ChunkProvider-ChunkOrientedTasklet" style="stroke: #225C4D; stroke-width: 2.0;"/><polygon fill="#FFFFFF" points="896.84,231.36,893.4973,217.3305,879.2614,215.0201,882.6041,229.0496,896.84,231.36" style="stroke: #225C4D; stroke-width: 2.0;"/><polygon fill="#225C4D" points="768.48,112,776.2183,130.114,775.8048,118.8079,787.1109,118.3944,768.48,112" style="stroke: #225C4D; stroke-width: 2.0;"/><line style="stroke: #225C4D; stroke-width: 2.0;" x1="775.8048" x2="787.51" y1="118.8079" y2="129.7"/><text fill="#000000" font-family="sans-serif" font-size="26" lengthAdjust="spacingAndGlyphs" textLength="16" x="763.1093" y="152.3116">1</text><!--MD5=[691bbcdf7da3862ab7c958b93da4692f]
reverse link Tasklet to ChunkOrientedTasklet--><path d="M971.96,152.04 C966.58,179.16 960.86,208.08 956.24,231.36 " fill="none" id="Tasklet&lt;-ChunkOrientedTasklet" style="stroke: #225C4D; stroke-width: 2.0; stroke-dasharray: 7.0,7.0;"/><polygon fill="none" points="958.38,148.52,979.88,112,985.84,153.96,958.38,148.52" style="stroke: #225C4D; stroke-width: 2.0;"/><!--MD5=[bd73ea1dd61dcd958b4d4b97469911bd]
link ChunkProcessor to ChunkOrientedTasklet--><path d="M1208.98,125.42 C1159.12,154.46 1047.1964,219.6369 1047.1964,219.6369 " fill="none" id="ChunkProcessor-ChunkOrientedTasklet" style="stroke: #225C4D; stroke-width: 2.0;"/><polygon fill="#FFFFFF" points="1026.46,231.72,1040.8559,232.5906,1047.1964,219.6369,1032.8005,218.7663,1026.46,231.72" style="stroke: #225C4D; stroke-width: 2.0;"/><polygon fill="#225C4D" points="1232.02,112,1212.44,114.1502,1223.3798,117.0346,1220.4954,127.9744,1232.02,112" style="stroke: #225C4D; stroke-width: 2.0;"/><line style="stroke: #225C4D; stroke-width: 2.0;" x1="1223.3798" x2="1209.56" y1="117.0346" y2="125.08"/><text fill="#000000" font-family="sans-serif" font-size="26" lengthAdjust="spacingAndGlyphs" textLength="16" x="1193.7314" y="152.3116">1</text><!--MD5=[02960f7d27fd7c670de2a5f5483a7fbd]
reverse link ChunkProvider to SimpleChunkProvider--><path d="M649.76,142.46 C622.82,172.2 592.84,205.3 569.24,231.36 " fill="none" id="ChunkProvider&lt;-SimpleChunkProvider" style="stroke: #225C4D; stroke-width: 2.0; stroke-dasharray: 7.0,7.0;"/><polygon fill="none" points="640.12,132.26,677.34,112,660.86,151.04,640.12,132.26" style="stroke: #225C4D; stroke-width: 2.0;"/><!--MD5=[308bec9e01784f8495e2e92ea5a23e7d]
reverse link SimpleChunkProvider to FaultTolerantChunkProvider--><path d="M531.06,368.04 C532.34,395.16 533.7,424.08 534.8,447.36 " fill="none" id="SimpleChunkProvider&lt;-FaultTolerantChunkProvider" style="stroke: #225C4D; stroke-width: 2.0;"/><polygon fill="none" points="517.08,368.62,529.16,328,545.04,367.3,517.08,368.62" style="stroke: #225C4D; stroke-width: 2.0;"/><!--MD5=[1e1b82aff1f65c61f7aed5d4d06e710b]
reverse link ChunkProcessor to SimpleChunkProcessor--><path d="M1344.32,150.12 C1355.28,177.78 1367.08,207.52 1376.52,231.36 " fill="none" id="ChunkProcessor&lt;-SimpleChunkProcessor" style="stroke: #225C4D; stroke-width: 2.0; stroke-dasharray: 7.0,7.0;"/><polygon fill="none" points="1330.94,154.34,1329.22,112,1356.98,144.04,1330.94,154.34" style="stroke: #225C4D; stroke-width: 2.0;"/><!--MD5=[29b2a5d60c8dd6fd40c72390a1b21412]
reverse link SimpleChunkProcessor to FaultTolerantChunkProcessor--><path d="M1377.14,368.04 C1371.52,395.16 1365.52,424.08 1360.68,447.36 " fill="none" id="SimpleChunkProcessor&lt;-FaultTolerantChunkProcessor" style="stroke: #225C4D; stroke-width: 2.0;"/><polygon fill="none" points="1363.62,364.32,1385.46,328,1391.04,370.02,1363.62,364.32" style="stroke: #225C4D; stroke-width: 2.0;"/><!--MD5=[46d5681bc10ee7e2a6a490e86f7362a1]
link FaultTolerantChunkProvider to SkipPolicy--><path d="M774.7,496 C774.7,496 796.54,496 806.38,496 " fill="none" id="FaultTolerantChunkProvider-SkipPolicy" style="stroke: #225C4D; stroke-width: 2.0;"/><polygon fill="#225C4D" points="832.4,496,814.4,488,822.4,496,814.4,504,832.4,496" style="stroke: #225C4D; stroke-width: 2.0;"/><line style="stroke: #225C4D; stroke-width: 2.0;" x1="822.4" x2="806.4" y1="496" y2="496"/><polygon fill="#FFFFFF" points="750.7,496,762.7,504,774.7,496,762.7,488,750.7,496" style="stroke: #225C4D; stroke-width: 2.0;"/><text fill="#000000" font-family="sans-serif" font-size="26" lengthAdjust="spacingAndGlyphs" textLength="16" x="800.9956" y="487.8573">1</text><!--MD5=[0b6b79927f7389afac1548eb3a9dc19f]
link SkipPolicy to FaultTolerantChunkProcessor--><path d="M1043.38,496 C1056.72,496 1085.88,496 1085.88,496 " fill="none" id="SkipPolicy-FaultTolerantChunkProcessor" style="stroke: #225C4D; stroke-width: 2.0;"/><polygon fill="#FFFFFF" points="1109.88,496,1097.88,488,1085.88,496,1097.88,504,1109.88,496" style="stroke: #225C4D; stroke-width: 2.0;"/><polygon fill="#225C4D" points="1017.36,496,1035.36,504,1027.36,496,1035.36,488,1017.36,496" style="stroke: #225C4D; stroke-width: 2.0;"/><line style="stroke: #225C4D; stroke-width: 2.0;" x1="1027.36" x2="1043.36" y1="496" y2="496"/><text fill="#000000" font-family="sans-serif" font-size="26" lengthAdjust="spacingAndGlyphs" textLength="16" x="1032.7276" y="487.8573">2</text><!--MD5=[2d0bfbbb5e5ef5929127483462f118d2]
link ItemReader to SimpleChunkProvider--><path d="M451.92,135.88 C464.2,159.14 491.1549,210.1363 491.1549,210.1363 " fill="none" id="ItemReader-SimpleChunkProvider" style="stroke: #225C4D; stroke-width: 2.0;"/><polygon fill="#FFFFFF" points="502.36,231.36,503.832,217.0131,491.1549,210.1363,489.6829,224.4832,502.36,231.36" style="stroke: #225C4D; stroke-width: 2.0;"/><polygon fill="#225C4D" points="439.3,112,440.6292,131.6528,443.9688,120.8432,454.7784,124.1828,439.3,112" style="stroke: #225C4D; stroke-width: 2.0;"/><line style="stroke: #225C4D; stroke-width: 2.0;" x1="443.9688" x2="451.45" y1="120.8432" y2="134.99"/><text fill="#000000" font-family="sans-serif" font-size="26" lengthAdjust="spacingAndGlyphs" textLength="16" x="427.4769" y="152.3116">1</text><!--MD5=[f270d4aee8b6469178adc27d25a18592]
link RepeatOperations to SimpleChunkProvider--><path d="M312.4,280 C318.08,280 331.9,280 331.9,280 " fill="none" id="RepeatOperations-SimpleChunkProvider" style="stroke: #225C4D; stroke-width: 2.0;"/><polygon fill="#FFFFFF" points="355.9,280,343.9,272,331.9,280,343.9,288,355.9,280" style="stroke: #225C4D; stroke-width: 2.0;"/><polygon fill="#225C4D" points="286.32,280,304.32,288,296.32,280,304.32,272,286.32,280" style="stroke: #225C4D; stroke-width: 2.0;"/><line style="stroke: #225C4D; stroke-width: 2.0;" x1="296.32" x2="312.32" y1="280" y2="280"/><text fill="#000000" font-family="sans-serif" font-size="26" lengthAdjust="spacingAndGlyphs" textLength="16" x="302.2144" y="272.5077">1</text><!--MD5=[065654db72577decd3b1f1fd83dab942]
link SimpleChunkProcessor to ChunkMessageChannelItemWriter--><path d="M1618.06,280 C1618.06,280 1632.4,280 1638.36,280 " fill="none" id="SimpleChunkProcessor-ChunkMessageChannelItemWriter" style="stroke: #225C4D; stroke-width: 2.0;"/><polygon fill="#225C4D" points="1664.5,280,1646.5,272,1654.5,280,1646.5,288,1664.5,280" style="stroke: #225C4D; stroke-width: 2.0;"/><line style="stroke: #225C4D; stroke-width: 2.0;" x1="1654.5" x2="1638.5" y1="280" y2="280"/><polygon fill="#FFFFFF" points="1594.06,280,1606.06,288,1618.06,280,1606.06,272,1594.06,280" style="stroke: #225C4D; stroke-width: 2.0;"/><text fill="#000000" font-family="sans-serif" font-size="26" lengthAdjust="spacingAndGlyphs" textLength="16" x="1633.3242" y="273.2743">1</text><!--MD5=[29839b57ea4a4f27e9627fda9022dbc6]
reverse link MessagingTemplate to ChunkMessageChannelItemWriter--><path d="M1919,122.26 C1919,156.3 1919,199.2 1919,231.36 " fill="none" id="MessagingTemplate&lt;-ChunkMessageChannelItemWriter" style="stroke: #225C4D; stroke-width: 2.0;"/><polygon fill="#225C4D" points="1919,112,1911,130,1919,122,1927,130,1919,112" style="stroke: #225C4D; stroke-width: 2.0;"/><!--MD5=[5714e0403f95c0d77521316e19660590]
link ChunkMessageChannelItemWriter to PollableChannel--><path d="M1919,328 C1919,360 1919,402.9 1919,437.06 " fill="none" id="ChunkMessageChannelItemWriter-&gt;PollableChannel" style="stroke: #225C4D; stroke-width: 2.0;"/><polygon fill="#225C4D" points="1919,447.36,1927,429.36,1919,437.36,1911,429.36,1919,447.36" style="stroke: #225C4D; stroke-width: 2.0;"/><!--MD5=[833a3b62afcd1de8429de45ec7df097d]
link MessagingTemplate to MessageChannel--><path d="M2076.14,64 C2095.76,64 2115.38,64 2135.02,64 " fill="none" id="MessagingTemplate-&gt;MessageChannel" style="stroke: #225C4D; stroke-width: 2.0;"/><polygon fill="#225C4D" points="2145.28,64,2127.28,56,2135.28,64,2127.28,72,2145.28,64" style="stroke: #225C4D; stroke-width: 2.0;"/><!--MD5=[e48190ac3e388bda88cb1ab16d3254ac]
link SimpleChunkProvider to ChunkOrientedTasklet--><!--MD5=[0186f228a8f49946a5c33d9c65ce6088]
link ChunkOrientedTasklet to SimpleChunkProcessor--><!--MD5=[738f331fcd781d295b8783b62565f473]
@startuml
skinparam class {
 BackgroundColor #DDEEE8
 BorderColor #225C4D
 ArrowColor #225C4D
 }
scale 2

interface Tasklet
interface RepeatOperations
note bottom: Repeat\nTemplate
interface ChunkProvider<I>
interface ChunkProcessor<I>

class ChunkOrientedTasklet<I>
class SimpleChunkProvider<I>
class FaultTolerantChunkProvider<I>
class SimpleChunkProcessor<I, O>
class FaultTolerantChunkProcessor<I, O>

interface ItemReader<I>
class ChunkMessageChannelItemWriter<O>
interface SkipPolicy
interface MessageChannel
interface PollableChannel

ChunkProvider "1" <- -o ChunkOrientedTasklet
Tasklet <|.. ChunkOrientedTasklet
ChunkProcessor "1" <- -o ChunkOrientedTasklet

ChunkProvider <|.. SimpleChunkProvider
SimpleChunkProvider <|- - FaultTolerantChunkProvider
ChunkProcessor <|.. SimpleChunkProcessor
SimpleChunkProcessor <|- - FaultTolerantChunkProcessor

FaultTolerantChunkProvider o-> "1" SkipPolicy
SkipPolicy "2" <-o FaultTolerantChunkProcessor

ItemReader "1" <- -o SimpleChunkProvider
RepeatOperations "1" <-o SimpleChunkProvider
SimpleChunkProcessor o-> "1" ChunkMessageChannelItemWriter

ChunkMessageChannelItemWriter -up-> MessagingTemplate
ChunkMessageChannelItemWriter - -> PollableChannel
MessagingTemplate -> MessageChannel

SimpleChunkProvider -[hidden]> ChunkOrientedTasklet
ChunkOrientedTasklet -[hidden]> SimpleChunkProcessor
@enduml

PlantUML version 1.2019.12(Sun Nov 03 11:24:54 CET 2019)
(APACHE source distribution)
Java Runtime: OpenJDK Runtime Environment
JVM: OpenJDK 64-Bit Server VM
Java Version: 17.0.6+10-Debian-1deb11u1
Operating System: Linux
Default Encoding: UTF-8
Language: en
Country: DK
--></g></svg>