<?xml version="1.0" encoding="UTF-8" standalone="no"?><svg xmlns="http://www.w3.org/2000/svg" xmlns:xlink="http://www.w3.org/1999/xlink" contentScriptType="application/ecmascript" contentStyleType="text/css" height="630px" preserveAspectRatio="none" style="width:2122px;height:630px;" version="1.1" viewBox="0 0 2122 630" width="2122px" zoomAndPan="magnify"><defs><filter height="300%" id="f1lg12ocl8f767" width="300%" x="-1" y="-1"><feGaussianBlur result="blurOut" stdDeviation="4.0"/><feColorMatrix in="blurOut" result="blurOut2" type="matrix" values="0 0 0 0 0 0 0 0 0 0 0 0 0 0 0 0 0 0 .4 0"/><feOffset dx="8.0" dy="8.0" in="blurOut2" result="blurOut3"/><feBlend in="SourceGraphic" in2="blurOut3" mode="normal"/></filter></defs><g><!--MD5=[af378db6457e182bc9367e49766066d1]
class RemoteChunkingManagerStepBuilderFactory--><rect fill="#DDEEE8" filter="url(#f1lg12ocl8f767)" height="121.6094" id="RemoteChunkingManagerStepBuilderFactory" style="stroke: #225C4D; stroke-width: 3.0;" width="732" x="12" y="424"/><ellipse cx="91.5" cy="456" fill="#ADD1B2" rx="22" ry="22" style="stroke: #225C4D; stroke-width: 2.0;"/><path d="M97.4375,467.2813 Q96.2813,467.875 95,468.1563 Q93.7188,468.4688 92.3125,468.4688 Q87.3125,468.4688 84.6563,465.1875 Q82.0313,461.875 82.0313,455.625 Q82.0313,449.375 84.6563,446.0625 Q87.3125,442.75 92.3125,442.75 Q93.7188,442.75 95,443.0625 Q96.3125,443.375 97.4375,443.9688 L97.4375,449.4063 Q96.1875,448.25 95,447.7188 Q93.8125,447.1563 92.5625,447.1563 Q89.875,447.1563 88.5,449.3125 Q87.125,451.4375 87.125,455.625 Q87.125,459.8125 88.5,461.9688 Q89.875,464.0938 92.5625,464.0938 Q93.8125,464.0938 95,463.5625 Q96.1875,463 97.4375,461.8438 L97.4375,467.2813 Z "/><text fill="#000000" font-family="sans-serif" font-size="24" lengthAdjust="spacingAndGlyphs" textLength="558" x="130.5" y="464.3086">RemoteChunkingManagerStepBuilderFactory</text><line style="stroke: #225C4D; stroke-width: 3.0;" x1="14" x2="742" y1="488" y2="488"/><line style="stroke: #225C4D; stroke-width: 3.0;" x1="14" x2="742" y1="504" y2="504"/><text fill="#000000" font-family="sans-serif" font-size="22" lengthAdjust="spacingAndGlyphs" textLength="708" x="24" y="532.4209">get(string: String): RemoteChunkingManagerStepBuilder&lt;I, O&gt;</text><!--MD5=[d371f894aea762b778f6fcc848502fad]
class FaultTolerantStepBuilder--><rect fill="#DDEEE8" filter="url(#f1lg12ocl8f767)" height="96" id="FaultTolerantStepBuilder" style="stroke: #225C4D; stroke-width: 3.0;" width="422" x="977" y="80"/><ellipse cx="1007" cy="112" fill="#ADD1B2" rx="22" ry="22" style="stroke: #225C4D; stroke-width: 2.0;"/><path d="M1012.9375,123.2813 Q1011.7813,123.875 1010.5,124.1563 Q1009.2188,124.4688 1007.8125,124.4688 Q1002.8125,124.4688 1000.1563,121.1875 Q997.5313,117.875 997.5313,111.625 Q997.5313,105.375 1000.1563,102.0625 Q1002.8125,98.75 1007.8125,98.75 Q1009.2188,98.75 1010.5,99.0625 Q1011.8125,99.375 1012.9375,99.9688 L1012.9375,105.4063 Q1011.6875,104.25 1010.5,103.7188 Q1009.3125,103.1563 1008.0625,103.1563 Q1005.375,103.1563 1004,105.3125 Q1002.625,107.4375 1002.625,111.625 Q1002.625,115.8125 1004,117.9688 Q1005.375,120.0938 1008.0625,120.0938 Q1009.3125,120.0938 1010.5,119.5625 Q1011.6875,119 1012.9375,117.8438 L1012.9375,123.2813 Z "/><text fill="#000000" font-family="sans-serif" font-size="24" lengthAdjust="spacingAndGlyphs" textLength="310" x="1035" y="120.3086">FaultTolerantStepBuilder</text><rect fill="#FFFFFF" height="31.9375" style="stroke: #000000; stroke-width: 2.0; stroke-dasharray: 2.0,2.0;" width="44" x="1361" y="74"/><text fill="#000000" font-family="sans-serif" font-size="24" font-style="italic" lengthAdjust="spacingAndGlyphs" textLength="40" x="1363" y="98.2773">I, O</text><line style="stroke: #225C4D; stroke-width: 3.0;" x1="979" x2="1397" y1="144" y2="144"/><line style="stroke: #225C4D; stroke-width: 3.0;" x1="979" x2="1397" y1="160" y2="160"/><!--MD5=[01d82b6cee1927122c9380fe145d9d77]
class RemoteChunkingManagerStepBuilder--><rect fill="#DDEEE8" filter="url(#f1lg12ocl8f767)" height="249.6563" id="RemoteChunkingManagerStepBuilder" style="stroke: #225C4D; stroke-width: 3.0;" width="746" x="815" y="360"/><ellipse cx="922.5" cy="392" fill="#ADD1B2" rx="22" ry="22" style="stroke: #225C4D; stroke-width: 2.0;"/><path d="M928.4375,403.2813 Q927.2813,403.875 926,404.1563 Q924.7188,404.4688 923.3125,404.4688 Q918.3125,404.4688 915.6563,401.1875 Q913.0313,397.875 913.0313,391.625 Q913.0313,385.375 915.6563,382.0625 Q918.3125,378.75 923.3125,378.75 Q924.7188,378.75 926,379.0625 Q927.3125,379.375 928.4375,379.9688 L928.4375,385.4063 Q927.1875,384.25 926,383.7188 Q924.8125,383.1563 923.5625,383.1563 Q920.875,383.1563 919.5,385.3125 Q918.125,387.4375 918.125,391.625 Q918.125,395.8125 919.5,397.9688 Q920.875,400.0938 923.5625,400.0938 Q924.8125,400.0938 926,399.5625 Q927.1875,399 928.4375,397.8438 L928.4375,403.2813 Z "/><text fill="#000000" font-family="sans-serif" font-size="24" lengthAdjust="spacingAndGlyphs" textLength="466" x="963.5" y="400.3086">RemoteChunkingManagerStepBuilder</text><rect fill="#FFFFFF" height="31.9375" style="stroke: #000000; stroke-width: 2.0; stroke-dasharray: 2.0,2.0;" width="44" x="1523" y="354"/><text fill="#000000" font-family="sans-serif" font-size="24" font-style="italic" lengthAdjust="spacingAndGlyphs" textLength="40" x="1525" y="378.2773">I, O</text><line style="stroke: #225C4D; stroke-width: 3.0;" x1="817" x2="1559" y1="424" y2="424"/><line style="stroke: #225C4D; stroke-width: 3.0;" x1="817" x2="1559" y1="440" y2="440"/><text fill="#000000" font-family="sans-serif" font-size="22" lengthAdjust="spacingAndGlyphs" textLength="586" x="827" y="468.4209">outputChannel(messageChannel: MessageChannel)</text><text fill="#000000" font-family="sans-serif" font-size="22" lengthAdjust="spacingAndGlyphs" textLength="538" x="827" y="494.0303">inputChannel(pollableChannel: PollableChannel)</text><text fill="#000000" font-family="sans-serif" font-size="22" lengthAdjust="spacingAndGlyphs" textLength="722" x="827" y="519.6396">messagingTemplate(messagingTemplate: MessagingTemplate)</text><text fill="#000000" font-family="sans-serif" font-size="22" lengthAdjust="spacingAndGlyphs" textLength="286" x="827" y="545.249">maxWaitTimeouts(int: int)</text><text fill="#000000" font-family="sans-serif" font-size="22" lengthAdjust="spacingAndGlyphs" textLength="262" x="827" y="570.8584">throttleLimit(long: long)</text><text fill="#000000" font-family="sans-serif" font-size="22" lengthAdjust="spacingAndGlyphs" textLength="218" x="827" y="596.4678">build(): TaskletStep</text><!--MD5=[660f825f3c2b80b83f7cedac741013f0]
class RemoteChunkingWorkerBuilder--><rect fill="#DDEEE8" filter="url(#f1lg12ocl8f767)" height="224.0469" id="RemoteChunkingWorkerBuilder" style="stroke: #225C4D; stroke-width: 3.0;" width="626" x="1469" y="16"/><ellipse cx="1556.6" cy="48" fill="#ADD1B2" rx="22" ry="22" style="stroke: #225C4D; stroke-width: 2.0;"/><path d="M1562.5375,59.2813 Q1561.3813,59.875 1560.1,60.1563 Q1558.8188,60.4688 1557.4125,60.4688 Q1552.4125,60.4688 1549.7563,57.1875 Q1547.1313,53.875 1547.1313,47.625 Q1547.1313,41.375 1549.7563,38.0625 Q1552.4125,34.75 1557.4125,34.75 Q1558.8188,34.75 1560.1,35.0625 Q1561.4125,35.375 1562.5375,35.9688 L1562.5375,41.4063 Q1561.2875,40.25 1560.1,39.7188 Q1558.9125,39.1563 1557.6625,39.1563 Q1554.975,39.1563 1553.6,41.3125 Q1552.225,43.4375 1552.225,47.625 Q1552.225,51.8125 1553.6,53.9688 Q1554.975,56.0938 1557.6625,56.0938 Q1558.9125,56.0938 1560.1,55.5625 Q1561.2875,55 1562.5375,53.8438 L1562.5375,59.2813 Z "/><text fill="#000000" font-family="sans-serif" font-size="24" lengthAdjust="spacingAndGlyphs" textLength="386" x="1597.4" y="56.3086">RemoteChunkingWorkerBuilder</text><rect fill="#FFFFFF" height="31.9375" style="stroke: #000000; stroke-width: 2.0; stroke-dasharray: 2.0,2.0;" width="44" x="2057" y="10"/><text fill="#000000" font-family="sans-serif" font-size="24" font-style="italic" lengthAdjust="spacingAndGlyphs" textLength="40" x="2059" y="34.2773">I, O</text><line style="stroke: #225C4D; stroke-width: 3.0;" x1="1471" x2="2093" y1="80" y2="80"/><line style="stroke: #225C4D; stroke-width: 3.0;" x1="1471" x2="2093" y1="96" y2="96"/><text fill="#000000" font-family="sans-serif" font-size="22" lengthAdjust="spacingAndGlyphs" textLength="586" x="1481" y="124.4209">outputChannel(messageChannel: MessageChannel)</text><text fill="#000000" font-family="sans-serif" font-size="22" lengthAdjust="spacingAndGlyphs" textLength="570" x="1481" y="150.0303">inputChannel(messageChannel: MessageChannel)</text><text fill="#000000" font-family="sans-serif" font-size="22" lengthAdjust="spacingAndGlyphs" textLength="602" x="1481" y="175.6396">itemProcessor(itemProcessor: ItemProcessor&lt;I, O&gt;)</text><text fill="#000000" font-family="sans-serif" font-size="22" lengthAdjust="spacingAndGlyphs" textLength="432" x="1481" y="201.249">itemWriter(itemWriter: ItemWriter&lt;O&gt;)</text><text fill="#000000" font-family="sans-serif" font-size="22" lengthAdjust="spacingAndGlyphs" textLength="256" x="1481" y="226.8584">build(): IntegrationFlow</text><!--MD5=[947067ec62fe0dedd03852cfdfe2539e]
reverse link FaultTolerantStepBuilder to RemoteChunkingManagerStepBuilder--><path d="M1188,216.76 C1188,259.7 1188,312.28 1188,359.36 " fill="none" id="FaultTolerantStepBuilder&lt;-RemoteChunkingManagerStepBuilder" style="stroke: #225C4D; stroke-width: 2.0;"/><polygon fill="none" points="1174,216.14,1188,176.14,1202,216.14,1174,216.14" style="stroke: #225C4D; stroke-width: 2.0;"/><!--MD5=[6ef4054916048a4c3683be8805725b80]
link RemoteChunkingManagerStepBuilderFactory to RemoteChunkingManagerStepBuilder--><path d="M744.24,485 C764.16,485 784.1,485 804.02,485 " fill="none" id="RemoteChunkingManagerStepBuilderFactory-&gt;RemoteChunkingManagerStepBuilder" style="stroke: #225C4D; stroke-width: 2.0; stroke-dasharray: 7.0,7.0;"/><polygon fill="#225C4D" points="814.44,485,796.44,477,804.44,485,796.44,493,814.44,485" style="stroke: #225C4D; stroke-width: 2.0;"/><!--MD5=[65f9463b635415cc9af28627364da31f]
@startuml
skinparam class {
 BackgroundColor #DDEEE8
 BorderColor #225C4D
 ArrowColor #225C4D
 }
scale 2

class RemoteChunkingManagerStepBuilderFactory {
    get(string: String): RemoteChunkingManagerStepBuilder<I, O>
}

class FaultTolerantStepBuilder<I, O>

class RemoteChunkingManagerStepBuilder<I, O> {
    outputChannel(messageChannel: MessageChannel)
    inputChannel(pollableChannel: PollableChannel)
    messagingTemplate(messagingTemplate: MessagingTemplate)
    maxWaitTimeouts(int: int)
    throttleLimit(long: long)
    build(): TaskletStep
}

RemoteChunkingManagerStepBuilder -up-|> FaultTolerantStepBuilder
RemoteChunkingManagerStepBuilderFactory .> RemoteChunkingManagerStepBuilder

class RemoteChunkingWorkerBuilder<I, O> {
    outputChannel(messageChannel: MessageChannel)
    inputChannel(messageChannel: MessageChannel)
    itemProcessor(itemProcessor: ItemProcessor<I, O>)
    itemWriter(itemWriter: ItemWriter<O>)
    build(): IntegrationFlow
}
@enduml

PlantUML version 1.2019.12(Sun Nov 03 11:24:54 CET 2019)
(APACHE source distribution)
Java Runtime: OpenJDK Runtime Environment
JVM: OpenJDK 64-Bit Server VM
Java Version: 17.0.6+10-Debian-1deb11u1
Operating System: Linux
Default Encoding: UTF-8
Language: en
Country: DK
--></g></svg>