<?xml version="1.0" encoding="UTF-8" standalone="no"?><svg xmlns="http://www.w3.org/2000/svg" xmlns:xlink="http://www.w3.org/1999/xlink" contentScriptType="application/ecmascript" contentStyleType="text/css" height="566px" preserveAspectRatio="none" style="width:900px;height:566px;" version="1.1" viewBox="0 0 900 566" width="900px" zoomAndPan="magnify"><defs><filter height="300%" id="f18nbk8zygiomk" width="300%" x="-1" y="-1"><feGaussianBlur result="blurOut" stdDeviation="4.0"/><feColorMatrix in="blurOut" result="blurOut2" type="matrix" values="0 0 0 0 0 0 0 0 0 0 0 0 0 0 0 0 0 0 .4 0"/><feOffset dx="8.0" dy="8.0" in="blurOut2" result="blurOut3"/><feBlend in="SourceGraphic" in2="blurOut3" mode="normal"/></filter></defs><g><!--MD5=[e2ed5526a3f12ce4cec006d86fa7ac39]
class PartitionHandler--><rect fill="#DDEEE8" filter="url(#f18nbk8zygiomk)" height="96" id="PartitionHandler" style="stroke: #225C4D; stroke-width: 3.0;" width="254" x="360" y="16"/><ellipse cx="390" cy="48" fill="#B4A7E5" rx="22" ry="22" style="stroke: #225C4D; stroke-width: 2.0;"/><path d="M381.8438,39.5313 L381.8438,35.2188 L396.625,35.2188 L396.625,39.5313 L391.6875,39.5313 L391.6875,55.6875 L396.625,55.6875 L396.625,60 L381.8438,60 L381.8438,55.6875 L386.7813,55.6875 L386.7813,39.5313 L381.8438,39.5313 Z "/><text fill="#000000" font-family="sans-serif" font-size="24" font-style="italic" lengthAdjust="spacingAndGlyphs" textLength="190" x="418" y="56.3086">PartitionHandler</text><line style="stroke: #225C4D; stroke-width: 3.0;" x1="362" x2="612" y1="80" y2="80"/><line style="stroke: #225C4D; stroke-width: 3.0;" x1="362" x2="612" y1="96" y2="96"/><!--MD5=[792f4df1c244cba7ae48b1c92c10e102]
class MessageChannel--><rect fill="#DDEEE8" filter="url(#f18nbk8zygiomk)" height="96" id="MessageChannel" style="stroke: #225C4D; stroke-width: 3.0;" width="258" x="592" y="448"/><ellipse cx="622" cy="480" fill="#B4A7E5" rx="22" ry="22" style="stroke: #225C4D; stroke-width: 2.0;"/><path d="M613.8438,471.5313 L613.8438,467.2188 L628.625,467.2188 L628.625,471.5313 L623.6875,471.5313 L623.6875,487.6875 L628.625,487.6875 L628.625,492 L613.8438,492 L613.8438,487.6875 L618.7813,487.6875 L618.7813,471.5313 L613.8438,471.5313 Z "/><text fill="#000000" font-family="sans-serif" font-size="24" font-style="italic" lengthAdjust="spacingAndGlyphs" textLength="194" x="650" y="488.3086">MessageChannel</text><line style="stroke: #225C4D; stroke-width: 3.0;" x1="594" x2="848" y1="512" y2="512"/><line style="stroke: #225C4D; stroke-width: 3.0;" x1="594" x2="848" y1="528" y2="528"/><!--MD5=[a6467ac256d93ebd3b89b7170dde8359]
class PollableChannel--><rect fill="#DDEEE8" filter="url(#f18nbk8zygiomk)" height="96" id="PollableChannel" style="stroke: #225C4D; stroke-width: 3.0;" width="246" x="130" y="448"/><ellipse cx="160" cy="480" fill="#B4A7E5" rx="22" ry="22" style="stroke: #225C4D; stroke-width: 2.0;"/><path d="M151.8438,471.5313 L151.8438,467.2188 L166.625,467.2188 L166.625,471.5313 L161.6875,471.5313 L161.6875,487.6875 L166.625,487.6875 L166.625,492 L151.8438,492 L151.8438,487.6875 L156.7813,487.6875 L156.7813,471.5313 L151.8438,471.5313 Z "/><text fill="#000000" font-family="sans-serif" font-size="24" font-style="italic" lengthAdjust="spacingAndGlyphs" textLength="182" x="188" y="488.3086">PollableChannel</text><line style="stroke: #225C4D; stroke-width: 3.0;" x1="132" x2="374" y1="512" y2="512"/><line style="stroke: #225C4D; stroke-width: 3.0;" x1="132" x2="374" y1="528" y2="528"/><!--MD5=[6e38dab636fa7acac16d7abb3400964f]
class PartitionStep--><rect fill="#DDEEE8" filter="url(#f18nbk8zygiomk)" height="96" id="PartitionStep" style="stroke: #225C4D; stroke-width: 3.0;" width="228" x="61" y="16"/><ellipse cx="91" cy="48" fill="#ADD1B2" rx="22" ry="22" style="stroke: #225C4D; stroke-width: 2.0;"/><path d="M96.9375,59.2813 Q95.7813,59.875 94.5,60.1563 Q93.2188,60.4688 91.8125,60.4688 Q86.8125,60.4688 84.1563,57.1875 Q81.5313,53.875 81.5313,47.625 Q81.5313,41.375 84.1563,38.0625 Q86.8125,34.75 91.8125,34.75 Q93.2188,34.75 94.5,35.0625 Q95.8125,35.375 96.9375,35.9688 L96.9375,41.4063 Q95.6875,40.25 94.5,39.7188 Q93.3125,39.1563 92.0625,39.1563 Q89.375,39.1563 88,41.3125 Q86.625,43.4375 86.625,47.625 Q86.625,51.8125 88,53.9688 Q89.375,56.0938 92.0625,56.0938 Q93.3125,56.0938 94.5,55.5625 Q95.6875,55 96.9375,53.8438 L96.9375,59.2813 Z "/><text fill="#000000" font-family="sans-serif" font-size="24" lengthAdjust="spacingAndGlyphs" textLength="164" x="119" y="56.3086">PartitionStep</text><line style="stroke: #225C4D; stroke-width: 3.0;" x1="63" x2="287" y1="80" y2="80"/><line style="stroke: #225C4D; stroke-width: 3.0;" x1="63" x2="287" y1="96" y2="96"/><!--MD5=[00b00f87c464ca5cb6a585c5198a039d]
class MessageChannelPartitionHandler--><rect fill="#DDEEE8" filter="url(#f18nbk8zygiomk)" height="96" id="MessageChannelPartitionHandler" style="stroke: #225C4D; stroke-width: 3.0;" width="482" x="12" y="232"/><ellipse cx="42" cy="264" fill="#ADD1B2" rx="22" ry="22" style="stroke: #225C4D; stroke-width: 2.0;"/><path d="M47.9375,275.2813 Q46.7813,275.875 45.5,276.1563 Q44.2188,276.4688 42.8125,276.4688 Q37.8125,276.4688 35.1563,273.1875 Q32.5313,269.875 32.5313,263.625 Q32.5313,257.375 35.1563,254.0625 Q37.8125,250.75 42.8125,250.75 Q44.2188,250.75 45.5,251.0625 Q46.8125,251.375 47.9375,251.9688 L47.9375,257.4063 Q46.6875,256.25 45.5,255.7188 Q44.3125,255.1563 43.0625,255.1563 Q40.375,255.1563 39,257.3125 Q37.625,259.4375 37.625,263.625 Q37.625,267.8125 39,269.9688 Q40.375,272.0938 43.0625,272.0938 Q44.3125,272.0938 45.5,271.5625 Q46.6875,271 47.9375,269.8438 L47.9375,275.2813 Z "/><text fill="#000000" font-family="sans-serif" font-size="24" lengthAdjust="spacingAndGlyphs" textLength="418" x="70" y="272.3086">MessageChannelPartitionHandler</text><line style="stroke: #225C4D; stroke-width: 3.0;" x1="14" x2="492" y1="296" y2="296"/><line style="stroke: #225C4D; stroke-width: 3.0;" x1="14" x2="492" y1="312" y2="312"/><!--MD5=[d95db8a7773fa91fff9d7da89b5f13bb]
class MessagingTemplate--><rect fill="#DDEEE8" filter="url(#f18nbk8zygiomk)" height="96" id="MessagingTemplate" style="stroke: #225C4D; stroke-width: 3.0;" width="314" x="564" y="232"/><ellipse cx="594" cy="264" fill="#ADD1B2" rx="22" ry="22" style="stroke: #225C4D; stroke-width: 2.0;"/><path d="M599.9375,275.2813 Q598.7813,275.875 597.5,276.1563 Q596.2188,276.4688 594.8125,276.4688 Q589.8125,276.4688 587.1563,273.1875 Q584.5313,269.875 584.5313,263.625 Q584.5313,257.375 587.1563,254.0625 Q589.8125,250.75 594.8125,250.75 Q596.2188,250.75 597.5,251.0625 Q598.8125,251.375 599.9375,251.9688 L599.9375,257.4063 Q598.6875,256.25 597.5,255.7188 Q596.3125,255.1563 595.0625,255.1563 Q592.375,255.1563 591,257.3125 Q589.625,259.4375 589.625,263.625 Q589.625,267.8125 591,269.9688 Q592.375,272.0938 595.0625,272.0938 Q596.3125,272.0938 597.5,271.5625 Q598.6875,271 599.9375,269.8438 L599.9375,275.2813 Z "/><text fill="#000000" font-family="sans-serif" font-size="24" lengthAdjust="spacingAndGlyphs" textLength="250" x="622" y="272.3086">MessagingTemplate</text><line style="stroke: #225C4D; stroke-width: 3.0;" x1="566" x2="876" y1="296" y2="296"/><line style="stroke: #225C4D; stroke-width: 3.0;" x1="566" x2="876" y1="312" y2="312"/><!--MD5=[23b9521ac5805a8251b9826610f9ca90]
link PartitionStep to PartitionHandler--><path d="M289.56,64 C309.48,64 329.4,64 349.32,64 " fill="none" id="PartitionStep-&gt;PartitionHandler" style="stroke: #225C4D; stroke-width: 2.0;"/><polygon fill="#225C4D" points="359.74,64,341.74,56,349.74,64,341.74,72,359.74,64" style="stroke: #225C4D; stroke-width: 2.0;"/><!--MD5=[66e945d8bf20d207da34793e92bb2b0e]
reverse link PartitionHandler to MessageChannelPartitionHandler--><path d="M406.26,139.14 C372.52,169.72 334.3,204.34 304.48,231.36 " fill="none" id="PartitionHandler&lt;-MessageChannelPartitionHandler" style="stroke: #225C4D; stroke-width: 2.0; stroke-dasharray: 7.0,7.0;"/><polygon fill="none" points="397.18,128.48,436.22,112,415.98,149.24,397.18,128.48" style="stroke: #225C4D; stroke-width: 2.0;"/><!--MD5=[2b3a021c7560559f15f762fba2aa1961]
link MessageChannelPartitionHandler to MessagingTemplate--><path d="M494.32,280 C513.92,280 533.52,280 553.12,280 " fill="none" id="MessageChannelPartitionHandler-&gt;MessagingTemplate" style="stroke: #225C4D; stroke-width: 2.0;"/><polygon fill="#225C4D" points="563.38,280,545.38,272,553.38,280,545.38,288,563.38,280" style="stroke: #225C4D; stroke-width: 2.0;"/><!--MD5=[6bc583ec8da9cf76dde15119f66c519c]
link MessageChannelPartitionHandler to PollableChannel--><path d="M253,328 C253,360 253,402.9 253,437.06 " fill="none" id="MessageChannelPartitionHandler-&gt;PollableChannel" style="stroke: #225C4D; stroke-width: 2.0;"/><polygon fill="#225C4D" points="253,447.36,261,429.36,253,437.36,245,429.36,253,447.36" style="stroke: #225C4D; stroke-width: 2.0;"/><!--MD5=[833a3b62afcd1de8429de45ec7df097d]
link MessagingTemplate to MessageChannel--><path d="M721,328 C721,360 721,402.9 721,437.06 " fill="none" id="MessagingTemplate-&gt;MessageChannel" style="stroke: #225C4D; stroke-width: 2.0;"/><polygon fill="#225C4D" points="721,447.36,729,429.36,721,437.36,713,429.36,721,447.36" style="stroke: #225C4D; stroke-width: 2.0;"/><!--MD5=[932168de97766ac425753f1c7778147d]
link PartitionHandler to MessagingTemplate--><!--MD5=[0bc0a487174f10c22f216c6d981ade19]
@startuml
skinparam class {
 BackgroundColor #DDEEE8
 BorderColor #225C4D
 ArrowColor #225C4D
 }
scale 2

interface PartitionHandler
interface MessageChannel
interface PollableChannel

PartitionStep -> PartitionHandler
PartitionHandler <|.. MessageChannelPartitionHandler
MessageChannelPartitionHandler -> MessagingTemplate
MessageChannelPartitionHandler - -> PollableChannel
MessagingTemplate - -> MessageChannel

PartitionHandler -[hidden]> MessagingTemplate
@enduml

PlantUML version 1.2019.12(Sun Nov 03 11:24:54 CET 2019)
(APACHE source distribution)
Java Runtime: OpenJDK Runtime Environment
JVM: OpenJDK 64-Bit Server VM
Java Version: 17.0.6+10-Debian-1deb11u1
Operating System: Linux
Default Encoding: UTF-8
Language: en
Country: DK
--></g></svg>