<?xml version="1.0" encoding="UTF-8" standalone="no"?><svg xmlns="http://www.w3.org/2000/svg" xmlns:xlink="http://www.w3.org/1999/xlink" contentScriptType="application/ecmascript" contentStyleType="text/css" height="602px" preserveAspectRatio="none" style="width:1780px;height:602px;" version="1.1" viewBox="0 0 1780 602" width="1780px" zoomAndPan="magnify"><defs><filter height="300%" id="f1ofegqb0tl47" width="300%" x="-1" y="-1"><feGaussianBlur result="blurOut" stdDeviation="4.0"/><feColorMatrix in="blurOut" result="blurOut2" type="matrix" values="0 0 0 0 0 0 0 0 0 0 0 0 0 0 0 0 0 0 .4 0"/><feOffset dx="8.0" dy="8.0" in="blurOut2" result="blurOut3"/><feBlend in="SourceGraphic" in2="blurOut3" mode="normal"/></filter></defs><g><!--MD5=[f763bb912e59dca0f8fbce405cf9c903]
class ChunkProcessor--><rect fill="#DDEEE8" filter="url(#f1ofegqb0tl47)" height="96" id="ChunkProcessor" style="stroke: #225C4D; stroke-width: 3.0;" width="268" x="983" y="16"/><ellipse cx="1013" cy="48" fill="#B4A7E5" rx="22" ry="22" style="stroke: #225C4D; stroke-width: 2.0;"/><path d="M1004.8438,39.5313 L1004.8438,35.2188 L1019.625,35.2188 L1019.625,39.5313 L1014.6875,39.5313 L1014.6875,55.6875 L1019.625,55.6875 L1019.625,60 L1004.8438,60 L1004.8438,55.6875 L1009.7813,55.6875 L1009.7813,39.5313 L1004.8438,39.5313 Z "/><text fill="#000000" font-family="sans-serif" font-size="24" font-style="italic" lengthAdjust="spacingAndGlyphs" textLength="188" x="1041" y="56.3086">ChunkProcessor</text><rect fill="#FFFFFF" height="31.9375" style="stroke: #000000; stroke-width: 2.0; stroke-dasharray: 2.0,2.0;" width="12" x="1245" y="10"/><text fill="#000000" font-family="sans-serif" font-size="24" font-style="italic" lengthAdjust="spacingAndGlyphs" textLength="8" x="1247" y="34.2773">I</text><line style="stroke: #225C4D; stroke-width: 3.0;" x1="985" x2="1249" y1="80" y2="80"/><line style="stroke: #225C4D; stroke-width: 3.0;" x1="985" x2="1249" y1="96" y2="96"/><!--MD5=[d4d4c9afdb3befad6e3075decfbba692]
class SimpleChunkProcessor--><rect fill="#DDEEE8" filter="url(#f1ofegqb0tl47)" height="96" id="SimpleChunkProcessor" style="stroke: #225C4D; stroke-width: 3.0;" width="398" x="1004" y="234"/><ellipse cx="1034" cy="266" fill="#ADD1B2" rx="22" ry="22" style="stroke: #225C4D; stroke-width: 2.0;"/><path d="M1039.9375,277.2813 Q1038.7813,277.875 1037.5,278.1563 Q1036.2188,278.4688 1034.8125,278.4688 Q1029.8125,278.4688 1027.1563,275.1875 Q1024.5313,271.875 1024.5313,265.625 Q1024.5313,259.375 1027.1563,256.0625 Q1029.8125,252.75 1034.8125,252.75 Q1036.2188,252.75 1037.5,253.0625 Q1038.8125,253.375 1039.9375,253.9688 L1039.9375,259.4063 Q1038.6875,258.25 1037.5,257.7188 Q1036.3125,257.1563 1035.0625,257.1563 Q1032.375,257.1563 1031,259.3125 Q1029.625,261.4375 1029.625,265.625 Q1029.625,269.8125 1031,271.9688 Q1032.375,274.0938 1035.0625,274.0938 Q1036.3125,274.0938 1037.5,273.5625 Q1038.6875,273 1039.9375,271.8438 L1039.9375,277.2813 Z "/><text fill="#000000" font-family="sans-serif" font-size="24" lengthAdjust="spacingAndGlyphs" textLength="286" x="1062" y="274.3086">SimpleChunkProcessor</text><rect fill="#FFFFFF" height="31.9375" style="stroke: #000000; stroke-width: 2.0; stroke-dasharray: 2.0,2.0;" width="44" x="1364" y="228"/><text fill="#000000" font-family="sans-serif" font-size="24" font-style="italic" lengthAdjust="spacingAndGlyphs" textLength="40" x="1366" y="252.2773">I, O</text><line style="stroke: #225C4D; stroke-width: 3.0;" x1="1006" x2="1400" y1="298" y2="298"/><line style="stroke: #225C4D; stroke-width: 3.0;" x1="1006" x2="1400" y1="314" y2="314"/><!--MD5=[cdf3b17061847a316f4eba3d87d6eb9e]
class FaultTolerantChunkProcessor--><rect fill="#DDEEE8" filter="url(#f1ofegqb0tl47)" height="96" id="FaultTolerantChunkProcessor" style="stroke: #225C4D; stroke-width: 3.0;" width="482" x="952" y="484"/><ellipse cx="982" cy="516" fill="#ADD1B2" rx="22" ry="22" style="stroke: #225C4D; stroke-width: 2.0;"/><path d="M987.9375,527.2813 Q986.7813,527.875 985.5,528.1563 Q984.2188,528.4688 982.8125,528.4688 Q977.8125,528.4688 975.1563,525.1875 Q972.5313,521.875 972.5313,515.625 Q972.5313,509.375 975.1563,506.0625 Q977.8125,502.75 982.8125,502.75 Q984.2188,502.75 985.5,503.0625 Q986.8125,503.375 987.9375,503.9688 L987.9375,509.4063 Q986.6875,508.25 985.5,507.7188 Q984.3125,507.1563 983.0625,507.1563 Q980.375,507.1563 979,509.3125 Q977.625,511.4375 977.625,515.625 Q977.625,519.8125 979,521.9688 Q980.375,524.0938 983.0625,524.0938 Q984.3125,524.0938 985.5,523.5625 Q986.6875,523 987.9375,521.8438 L987.9375,527.2813 Z "/><text fill="#000000" font-family="sans-serif" font-size="24" lengthAdjust="spacingAndGlyphs" textLength="370" x="1010" y="524.3086">FaultTolerantChunkProcessor</text><rect fill="#FFFFFF" height="31.9375" style="stroke: #000000; stroke-width: 2.0; stroke-dasharray: 2.0,2.0;" width="44" x="1396" y="478"/><text fill="#000000" font-family="sans-serif" font-size="24" font-style="italic" lengthAdjust="spacingAndGlyphs" textLength="40" x="1398" y="502.2773">I, O</text><line style="stroke: #225C4D; stroke-width: 3.0;" x1="954" x2="1432" y1="548" y2="548"/><line style="stroke: #225C4D; stroke-width: 3.0;" x1="954" x2="1432" y1="564" y2="564"/><!--MD5=[e873b9cf33adbd0fdfdcf803530782e0]
class ItemProcessor--><rect fill="#DDEEE8" filter="url(#f1ofegqb0tl47)" height="96" id="ItemProcessor" style="stroke: #225C4D; stroke-width: 3.0;" width="280" x="1473" y="234"/><ellipse cx="1503" cy="266" fill="#B4A7E5" rx="22" ry="22" style="stroke: #225C4D; stroke-width: 2.0;"/><path d="M1494.8438,257.5313 L1494.8438,253.2188 L1509.625,253.2188 L1509.625,257.5313 L1504.6875,257.5313 L1504.6875,273.6875 L1509.625,273.6875 L1509.625,278 L1494.8438,278 L1494.8438,273.6875 L1499.7813,273.6875 L1499.7813,257.5313 L1494.8438,257.5313 Z "/><text fill="#000000" font-family="sans-serif" font-size="24" font-style="italic" lengthAdjust="spacingAndGlyphs" textLength="168" x="1531" y="274.3086">ItemProcessor</text><rect fill="#FFFFFF" height="31.9375" style="stroke: #000000; stroke-width: 2.0; stroke-dasharray: 2.0,2.0;" width="44" x="1715" y="228"/><text fill="#000000" font-family="sans-serif" font-size="24" font-style="italic" lengthAdjust="spacingAndGlyphs" textLength="40" x="1717" y="252.2773">I, O</text><line style="stroke: #225C4D; stroke-width: 3.0;" x1="1475" x2="1751" y1="298" y2="298"/><line style="stroke: #225C4D; stroke-width: 3.0;" x1="1475" x2="1751" y1="314" y2="314"/><!--MD5=[2fbb5e2e3f57d0c06a725c10dc462a50]
class ItemWriter--><rect fill="#DDEEE8" filter="url(#f1ofegqb0tl47)" height="96" id="ItemWriter" style="stroke: #225C4D; stroke-width: 3.0;" width="216" x="1505" y="484"/><ellipse cx="1535" cy="516" fill="#B4A7E5" rx="22" ry="22" style="stroke: #225C4D; stroke-width: 2.0;"/><path d="M1526.8438,507.5313 L1526.8438,503.2188 L1541.625,503.2188 L1541.625,507.5313 L1536.6875,507.5313 L1536.6875,523.6875 L1541.625,523.6875 L1541.625,528 L1526.8438,528 L1526.8438,523.6875 L1531.7813,523.6875 L1531.7813,507.5313 L1526.8438,507.5313 Z "/><text fill="#000000" font-family="sans-serif" font-size="24" font-style="italic" lengthAdjust="spacingAndGlyphs" textLength="128" x="1563" y="524.3086">ItemWriter</text><rect fill="#FFFFFF" height="31.9375" style="stroke: #000000; stroke-width: 2.0; stroke-dasharray: 2.0,2.0;" width="20" x="1707" y="478"/><text fill="#000000" font-family="sans-serif" font-size="24" font-style="italic" lengthAdjust="spacingAndGlyphs" textLength="16" x="1709" y="502.2773">O</text><line style="stroke: #225C4D; stroke-width: 3.0;" x1="1507" x2="1719" y1="548" y2="548"/><line style="stroke: #225C4D; stroke-width: 3.0;" x1="1507" x2="1719" y1="564" y2="564"/><!--MD5=[5562f372109c339e0d3f4283f1b171c3]
class ChunkHandler--><rect fill="#DDEEE8" filter="url(#f1ofegqb0tl47)" height="96" id="ChunkHandler" style="stroke: #225C4D; stroke-width: 3.0;" width="246" x="580" y="16"/><ellipse cx="610" cy="48" fill="#B4A7E5" rx="22" ry="22" style="stroke: #225C4D; stroke-width: 2.0;"/><path d="M601.8438,39.5313 L601.8438,35.2188 L616.625,35.2188 L616.625,39.5313 L611.6875,39.5313 L611.6875,55.6875 L616.625,55.6875 L616.625,60 L601.8438,60 L601.8438,55.6875 L606.7813,55.6875 L606.7813,39.5313 L601.8438,39.5313 Z "/><text fill="#000000" font-family="sans-serif" font-size="24" font-style="italic" lengthAdjust="spacingAndGlyphs" textLength="166" x="638" y="56.3086">ChunkHandler</text><rect fill="#FFFFFF" height="31.9375" style="stroke: #000000; stroke-width: 2.0; stroke-dasharray: 2.0,2.0;" width="12" x="820" y="10"/><text fill="#000000" font-family="sans-serif" font-size="24" font-style="italic" lengthAdjust="spacingAndGlyphs" textLength="8" x="822" y="34.2773">I</text><line style="stroke: #225C4D; stroke-width: 3.0;" x1="582" x2="824" y1="80" y2="80"/><line style="stroke: #225C4D; stroke-width: 3.0;" x1="582" x2="824" y1="96" y2="96"/><!--MD5=[5abea1bd03194d087099c8ebd32e16cb]
class ChunkProcessorChunkHandler--><rect fill="#DDEEE8" filter="url(#f1ofegqb0tl47)" height="96" id="ChunkProcessorChunkHandler" style="stroke: #225C4D; stroke-width: 3.0;" width="460" x="473" y="234"/><ellipse cx="503" cy="266" fill="#ADD1B2" rx="22" ry="22" style="stroke: #225C4D; stroke-width: 2.0;"/><path d="M508.9375,277.2813 Q507.7813,277.875 506.5,278.1563 Q505.2188,278.4688 503.8125,278.4688 Q498.8125,278.4688 496.1563,275.1875 Q493.5313,271.875 493.5313,265.625 Q493.5313,259.375 496.1563,256.0625 Q498.8125,252.75 503.8125,252.75 Q505.2188,252.75 506.5,253.0625 Q507.8125,253.375 508.9375,253.9688 L508.9375,259.4063 Q507.6875,258.25 506.5,257.7188 Q505.3125,257.1563 504.0625,257.1563 Q501.375,257.1563 500,259.3125 Q498.625,261.4375 498.625,265.625 Q498.625,269.8125 500,271.9688 Q501.375,274.0938 504.0625,274.0938 Q505.3125,274.0938 506.5,273.5625 Q507.6875,273 508.9375,271.8438 L508.9375,277.2813 Z "/><text fill="#000000" font-family="sans-serif" font-size="24" lengthAdjust="spacingAndGlyphs" textLength="380" x="531" y="274.3086">ChunkProcessorChunkHandler</text><rect fill="#FFFFFF" height="31.9375" style="stroke: #000000; stroke-width: 2.0; stroke-dasharray: 2.0,2.0;" width="12" x="927" y="228"/><text fill="#000000" font-family="sans-serif" font-size="24" font-style="italic" lengthAdjust="spacingAndGlyphs" textLength="8" x="929" y="252.2773">I</text><line style="stroke: #225C4D; stroke-width: 3.0;" x1="475" x2="931" y1="298" y2="298"/><line style="stroke: #225C4D; stroke-width: 3.0;" x1="475" x2="931" y1="314" y2="314"/><!--MD5=[69d2560477d88007888700c846ca98b5]
class SkipPolicy--><rect fill="#DDEEE8" filter="url(#f1ofegqb0tl47)" height="96" id="SkipPolicy" style="stroke: #225C4D; stroke-width: 3.0;" width="184" x="697" y="484"/><ellipse cx="727" cy="516" fill="#B4A7E5" rx="22" ry="22" style="stroke: #225C4D; stroke-width: 2.0;"/><path d="M718.8438,507.5313 L718.8438,503.2188 L733.625,503.2188 L733.625,507.5313 L728.6875,507.5313 L728.6875,523.6875 L733.625,523.6875 L733.625,528 L718.8438,528 L718.8438,523.6875 L723.7813,523.6875 L723.7813,507.5313 L718.8438,507.5313 Z "/><text fill="#000000" font-family="sans-serif" font-size="24" font-style="italic" lengthAdjust="spacingAndGlyphs" textLength="120" x="755" y="524.3086">SkipPolicy</text><line style="stroke: #225C4D; stroke-width: 3.0;" x1="699" x2="879" y1="548" y2="548"/><line style="stroke: #225C4D; stroke-width: 3.0;" x1="699" x2="879" y1="564" y2="564"/><!--MD5=[792f4df1c244cba7ae48b1c92c10e102]
class MessageChannel--><rect fill="#DDEEE8" filter="url(#f1ofegqb0tl47)" height="96" id="MessageChannel" style="stroke: #225C4D; stroke-width: 3.0;" width="278" x="224" y="484"/><ellipse cx="254" cy="516" fill="#ADD1B2" rx="22" ry="22" style="stroke: #225C4D; stroke-width: 2.0;"/><path d="M259.9375,527.2813 Q258.7813,527.875 257.5,528.1563 Q256.2188,528.4688 254.8125,528.4688 Q249.8125,528.4688 247.1563,525.1875 Q244.5313,521.875 244.5313,515.625 Q244.5313,509.375 247.1563,506.0625 Q249.8125,502.75 254.8125,502.75 Q256.2188,502.75 257.5,503.0625 Q258.8125,503.375 259.9375,503.9688 L259.9375,509.4063 Q258.6875,508.25 257.5,507.7188 Q256.3125,507.1563 255.0625,507.1563 Q252.375,507.1563 251,509.3125 Q249.625,511.4375 249.625,515.625 Q249.625,519.8125 251,521.9688 Q252.375,524.0938 255.0625,524.0938 Q256.3125,524.0938 257.5,523.5625 Q258.6875,523 259.9375,521.8438 L259.9375,527.2813 Z "/><text fill="#000000" font-family="sans-serif" font-size="24" lengthAdjust="spacingAndGlyphs" textLength="214" x="282" y="524.3086">MessageChannel</text><line style="stroke: #225C4D; stroke-width: 3.0;" x1="226" x2="500" y1="548" y2="548"/><line style="stroke: #225C4D; stroke-width: 3.0;" x1="226" x2="500" y1="564" y2="564"/><!--MD5=[9928274bf42cb24389242caa3f0d41de]
class MessageHandler--><rect fill="#DDEEE8" filter="url(#f1ofegqb0tl47)" height="96" id="MessageHandler" style="stroke: #225C4D; stroke-width: 3.0;" width="274" x="124" y="234"/><ellipse cx="154" cy="266" fill="#ADD1B2" rx="22" ry="22" style="stroke: #225C4D; stroke-width: 2.0;"/><path d="M159.9375,277.2813 Q158.7813,277.875 157.5,278.1563 Q156.2188,278.4688 154.8125,278.4688 Q149.8125,278.4688 147.1563,275.1875 Q144.5313,271.875 144.5313,265.625 Q144.5313,259.375 147.1563,256.0625 Q149.8125,252.75 154.8125,252.75 Q156.2188,252.75 157.5,253.0625 Q158.8125,253.375 159.9375,253.9688 L159.9375,259.4063 Q158.6875,258.25 157.5,257.7188 Q156.3125,257.1563 155.0625,257.1563 Q152.375,257.1563 151,259.3125 Q149.625,261.4375 149.625,265.625 Q149.625,269.8125 151,271.9688 Q152.375,274.0938 155.0625,274.0938 Q156.3125,274.0938 157.5,273.5625 Q158.6875,273 159.9375,271.8438 L159.9375,277.2813 Z "/><text fill="#000000" font-family="sans-serif" font-size="24" lengthAdjust="spacingAndGlyphs" textLength="210" x="182" y="274.3086">MessageHandler</text><line style="stroke: #225C4D; stroke-width: 3.0;" x1="126" x2="396" y1="298" y2="298"/><line style="stroke: #225C4D; stroke-width: 3.0;" x1="126" x2="396" y1="314" y2="314"/><!--MD5=[3a63a1f2c6e71ef171a87f0bb5a5d33b]
class MethodInvokingMessageProcessor--><rect fill="#DDEEE8" filter="url(#f1ofegqb0tl47)" height="96" id="MethodInvokingMessageProcessor" style="stroke: #225C4D; stroke-width: 3.0;" width="498" x="12" y="16"/><ellipse cx="42" cy="48" fill="#ADD1B2" rx="22" ry="22" style="stroke: #225C4D; stroke-width: 2.0;"/><path d="M47.9375,59.2813 Q46.7813,59.875 45.5,60.1563 Q44.2188,60.4688 42.8125,60.4688 Q37.8125,60.4688 35.1563,57.1875 Q32.5313,53.875 32.5313,47.625 Q32.5313,41.375 35.1563,38.0625 Q37.8125,34.75 42.8125,34.75 Q44.2188,34.75 45.5,35.0625 Q46.8125,35.375 47.9375,35.9688 L47.9375,41.4063 Q46.6875,40.25 45.5,39.7188 Q44.3125,39.1563 43.0625,39.1563 Q40.375,39.1563 39,41.3125 Q37.625,43.4375 37.625,47.625 Q37.625,51.8125 39,53.9688 Q40.375,56.0938 43.0625,56.0938 Q44.3125,56.0938 45.5,55.5625 Q46.6875,55 47.9375,53.8438 L47.9375,59.2813 Z "/><text fill="#000000" font-family="sans-serif" font-size="24" lengthAdjust="spacingAndGlyphs" textLength="434" x="70" y="56.3086">MethodInvokingMessageProcessor</text><line style="stroke: #225C4D; stroke-width: 3.0;" x1="14" x2="508" y1="80" y2="80"/><line style="stroke: #225C4D; stroke-width: 3.0;" x1="14" x2="508" y1="96" y2="96"/><!--MD5=[66e80d3190f257504341fce3c69bdaf3]
reverse link ChunkHandler to ChunkProcessorChunkHandler--><path d="M703,153.16 C703,180.72 703,210.12 703,233.66 " fill="none" id="ChunkHandler&lt;-ChunkProcessorChunkHandler" style="stroke: #225C4D; stroke-width: 2.0; stroke-dasharray: 7.0,7.0;"/><polygon fill="none" points="689,152.44,703,112.44,717,152.44,689,152.44" style="stroke: #225C4D; stroke-width: 2.0;"/><!--MD5=[8c9b2ee275956453ad72e8aef3f297c0]
reverse link ChunkProcessor to ChunkProcessorChunkHandler--><path d="M1018.56,116.88 C949.8,152.42 858.78,199.48 792.16,233.92 " fill="none" id="ChunkProcessor&lt;-ChunkProcessorChunkHandler" style="stroke: #225C4D; stroke-width: 2.0;"/><polygon fill="#225C4D" points="1027.68,112.18,1008.0171,113.3508,1018.7994,116.7773,1015.3728,127.5597,1027.68,112.18" style="stroke: #225C4D; stroke-width: 2.0;"/><!--MD5=[1e1b82aff1f65c61f7aed5d4d06e710b]
reverse link ChunkProcessor to SimpleChunkProcessor--><path d="M1150.84,150.2 C1162.26,178.62 1174.58,209.28 1184.38,233.66 " fill="none" id="ChunkProcessor&lt;-SimpleChunkProcessor" style="stroke: #225C4D; stroke-width: 2.0; stroke-dasharray: 7.0,7.0;"/><polygon fill="none" points="1137.58,154.78,1135.66,112.44,1163.56,144.32,1137.58,154.78" style="stroke: #225C4D; stroke-width: 2.0;"/><!--MD5=[29b2a5d60c8dd6fd40c72390a1b21412]
reverse link SimpleChunkProcessor to FaultTolerantChunkProcessor--><path d="M1199.5,370.34 C1197.94,408.58 1196.16,452.04 1194.88,483.94 " fill="none" id="SimpleChunkProcessor&lt;-FaultTolerantChunkProcessor" style="stroke: #225C4D; stroke-width: 2.0;"/><polygon fill="none" points="1185.5,369.66,1201.12,330.28,1213.48,370.8,1185.5,369.66" style="stroke: #225C4D; stroke-width: 2.0;"/><!--MD5=[0b6b79927f7389afac1548eb3a9dc19f]
link SkipPolicy to FaultTolerantChunkProcessor--><path d="M907.8,532 C913.78,532 927.94,532 927.94,532 " fill="none" id="SkipPolicy-FaultTolerantChunkProcessor" style="stroke: #225C4D; stroke-width: 2.0;"/><polygon fill="#FFFFFF" points="951.94,532,939.94,524,927.94,532,939.94,540,951.94,532" style="stroke: #225C4D; stroke-width: 2.0;"/><polygon fill="#225C4D" points="881.32,532,899.32,540,891.32,532,899.32,524,881.32,532" style="stroke: #225C4D; stroke-width: 2.0;"/><line style="stroke: #225C4D; stroke-width: 2.0;" x1="891.32" x2="907.32" y1="532" y2="532"/><text fill="#000000" font-family="sans-serif" font-size="26" lengthAdjust="spacingAndGlyphs" textLength="16" x="897.3085" y="523.7643">2</text><!--MD5=[270012552a116e230dc08fc5b3953039]
link SimpleChunkProcessor to ItemProcessor--><path d="M1426.4,282 C1426.4,282 1440,282 1445.68,282 " fill="none" id="SimpleChunkProcessor-ItemProcessor" style="stroke: #225C4D; stroke-width: 2.0;"/><polygon fill="#225C4D" points="1472.32,282,1454.32,274,1462.32,282,1454.32,290,1472.32,282" style="stroke: #225C4D; stroke-width: 2.0;"/><line style="stroke: #225C4D; stroke-width: 2.0;" x1="1462.32" x2="1446.32" y1="282" y2="282"/><polygon fill="#FFFFFF" points="1402.4,282,1414.4,290,1426.4,282,1414.4,274,1402.4,282" style="stroke: #225C4D; stroke-width: 2.0;"/><!--MD5=[b37056112fbe93c87a9b96ee6f42efc1]
link SimpleChunkProcessor to ItemWriter--><path d="M1300.7068,342.6163 C1300.7068,342.6163 1449.54,431.92 1513.56,470.34 " fill="none" id="SimpleChunkProcessor-ItemWriter" style="stroke: #225C4D; stroke-width: 2.0;"/><polygon fill="#225C4D" points="1536.22,483.94,1524.9011,467.8191,1527.6451,478.795,1516.6692,481.539,1536.22,483.94" style="stroke: #225C4D; stroke-width: 2.0;"/><line style="stroke: #225C4D; stroke-width: 2.0;" x1="1527.6451" x2="1513.94" y1="478.795" y2="470.56"/><polygon fill="#FFFFFF" points="1280.12,330.28,1286.3013,343.3104,1300.7068,342.6163,1294.5255,329.5859,1280.12,330.28" style="stroke: #225C4D; stroke-width: 2.0;"/><!--MD5=[8b3c45b81fb850436b35485f49210b67]
reverse link MessageHandler to MessageChannel--><path d="M381.18,335.68 C401.96,350.16 420.78,368.1 433,390 C450.1,420.6 432.18,455.92 410.2,483.42 " fill="none" id="MessageHandler&lt;-MessageChannel" style="stroke: #225C4D; stroke-width: 2.0;"/><polygon fill="#225C4D" points="372.82,330.1,383.3593,346.741,381.1405,335.647,392.2345,333.4282,372.82,330.1" style="stroke: #225C4D; stroke-width: 2.0;"/><text fill="#000000" font-family="sans-serif" font-size="26" lengthAdjust="spacingAndGlyphs" textLength="218" x="443" y="416.1338">messageHandler</text><!--MD5=[caa20bb03df01a49a0d570d5b2e26162]
link MessageHandler to MessageChannel--><path d="M233.24,330.44 C220.24,358.54 210.46,394.52 225,424 C235.1,444.5 251.28,462.12 269.06,476.8 " fill="none" id="MessageHandler-&gt;MessageChannel" style="stroke: #225C4D; stroke-width: 2.0;"/><polygon fill="#225C4D" points="277.9,483.78,268.686,466.3701,270.0358,477.603,258.8029,478.9528,277.9,483.78" style="stroke: #225C4D; stroke-width: 2.0;"/><text fill="#000000" font-family="sans-serif" font-size="26" lengthAdjust="spacingAndGlyphs" textLength="188" x="227" y="416.1338">outputChannel</text><!--MD5=[210d6cd23d0f68e54101ea8bc5cdd617]
reverse link MethodInvokingMessageProcessor to MessageHandler--><path d="M261,122.86 C261,157.48 261,201.14 261,233.66 " fill="none" id="MethodInvokingMessageProcessor&lt;-MessageHandler" style="stroke: #225C4D; stroke-width: 2.0;"/><polygon fill="#225C4D" points="261,112.44,253,130.44,261,122.44,269,130.44,261,112.44" style="stroke: #225C4D; stroke-width: 2.0;"/><!--MD5=[3560a39de40ccfdb995de781efde7e6b]
link MethodInvokingMessageProcessor to ChunkHandler--><path d="M510.48,64 C530.12,64 549.76,64 569.4,64 " fill="none" id="MethodInvokingMessageProcessor-&gt;ChunkHandler" style="stroke: #225C4D; stroke-width: 2.0;"/><polygon fill="#225C4D" points="579.68,64,561.68,56,569.68,64,561.68,72,579.68,64" style="stroke: #225C4D; stroke-width: 2.0;"/><!--MD5=[427a2aa27724aa82aa28f1f7de0e8d4b]
link ItemProcessor to ItemWriter--><!--MD5=[202fa9ec4a309d21d85b26bc88699e99]
link ChunkProcessorChunkHandler to SimpleChunkProcessor--><!--MD5=[1ea576d86803a0f232993166f1c1dd8f]
@startuml
skinparam class {
 BackgroundColor #DDEEE8
 BorderColor #225C4D
 ArrowColor #225C4D
 }
scale 2

interface ChunkProcessor<I>

class SimpleChunkProcessor<I, O>
class FaultTolerantChunkProcessor<I, O>

interface ItemProcessor<I, O>
interface ItemWriter<O>
interface ChunkHandler<I>
class ChunkProcessorChunkHandler<I>
interface SkipPolicy

ChunkProcessorChunkHandler .up.|> ChunkHandler
ChunkProcessorChunkHandler -up-> ChunkProcessor

ChunkProcessor <|.. SimpleChunkProcessor
SimpleChunkProcessor <|- - FaultTolerantChunkProcessor

SkipPolicy "2" <-o FaultTolerantChunkProcessor

SimpleChunkProcessor o-> ItemProcessor
SimpleChunkProcessor o- -> ItemWriter

MessageChannel -up-> MessageHandler: messageHandler
MessageHandler -up-> MethodInvokingMessageProcessor
MessageHandler - -> MessageChannel: outputChannel
MethodInvokingMessageProcessor -> ChunkHandler

ItemProcessor -[hidden]-> ItemWriter
ChunkProcessorChunkHandler -[hidden]> SimpleChunkProcessor
@enduml

PlantUML version 1.2019.12(Sun Nov 03 11:24:54 CET 2019)
(APACHE source distribution)
Java Runtime: OpenJDK Runtime Environment
JVM: OpenJDK 64-Bit Server VM
Java Version: 17.0.6+10-Debian-1deb11u1
Operating System: Linux
Default Encoding: UTF-8
Language: en
Country: DK
--></g></svg>