<?xml version="1.0" encoding="UTF-8" standalone="no"?><svg xmlns="http://www.w3.org/2000/svg" xmlns:xlink="http://www.w3.org/1999/xlink" contentScriptType="application/ecmascript" contentStyleType="text/css" height="606px" preserveAspectRatio="none" style="width:2204px;height:606px;" version="1.1" viewBox="0 0 2204 606" width="2204px" zoomAndPan="magnify"><defs><filter height="300%" id="f1dr4u9kxxi29p" width="300%" x="-1" y="-1"><feGaussianBlur result="blurOut" stdDeviation="4.0"/><feColorMatrix in="blurOut" result="blurOut2" type="matrix" values="0 0 0 0 0 0 0 0 0 0 0 0 0 0 0 0 0 0 .4 0"/><feOffset dx="8.0" dy="8.0" in="blurOut2" result="blurOut3"/><feBlend in="SourceGraphic" in2="blurOut3" mode="normal"/></filter></defs><g><!--MD5=[70142bd7487d423aec4d787774fb157a]
class RemotePartitioningManagerStepBuilderFactory--><rect fill="#DDEEE8" filter="url(#f1dr4u9kxxi29p)" height="147.2188" id="RemotePartitioningManagerStepBuilderFactory" style="stroke: #225C4D; stroke-width: 3.0;" width="682" x="12" y="16"/><ellipse cx="56.4" cy="48" fill="#ADD1B2" rx="22" ry="22" style="stroke: #225C4D; stroke-width: 2.0;"/><path d="M62.3375,59.2813 Q61.1813,59.875 59.9,60.1563 Q58.6188,60.4688 57.2125,60.4688 Q52.2125,60.4688 49.5563,57.1875 Q46.9313,53.875 46.9313,47.625 Q46.9313,41.375 49.5563,38.0625 Q52.2125,34.75 57.2125,34.75 Q58.6188,34.75 59.9,35.0625 Q61.2125,35.375 62.3375,35.9688 L62.3375,41.4063 Q61.0875,40.25 59.9,39.7188 Q58.7125,39.1563 57.4625,39.1563 Q54.775,39.1563 53.4,41.3125 Q52.025,43.4375 52.025,47.625 Q52.025,51.8125 53.4,53.9688 Q54.775,56.0938 57.4625,56.0938 Q58.7125,56.0938 59.9,55.5625 Q61.0875,55 62.3375,53.8438 L62.3375,59.2813 Z "/><text fill="#000000" font-family="sans-serif" font-size="24" lengthAdjust="spacingAndGlyphs" textLength="586" x="87.6" y="56.3086">RemotePartitioningManagerStepBuilderFactory</text><line style="stroke: #225C4D; stroke-width: 3.0;" x1="14" x2="692" y1="80" y2="80"/><line style="stroke: #225C4D; stroke-width: 3.0;" x1="14" x2="692" y1="96" y2="96"/><text fill="#000000" font-family="sans-serif" font-size="22" lengthAdjust="spacingAndGlyphs" textLength="658" x="24" y="124.4209">get(string: String): RemotePartitioningManagerStepBuilder</text><text fill="#000000" font-family="sans-serif" font-size="22" lengthAdjust="spacingAndGlyphs" textLength="484" x="24" y="150.0303">setBeanFactory(beanFactory: BeanFactory)</text><!--MD5=[8173f5c66fdc19b847aed561ef2558d1]
class RemotePartitioningManagerStepBuilder--><rect fill="#DDEEE8" filter="url(#f1dr4u9kxxi29p)" height="300.875" id="RemotePartitioningManagerStepBuilder" style="stroke: #225C4D; stroke-width: 3.0;" width="746" x="382" y="284"/><ellipse cx="499.5" cy="316" fill="#ADD1B2" rx="22" ry="22" style="stroke: #225C4D; stroke-width: 2.0;"/><path d="M505.4375,327.2813 Q504.2813,327.875 503,328.1563 Q501.7188,328.4688 500.3125,328.4688 Q495.3125,328.4688 492.6563,325.1875 Q490.0313,321.875 490.0313,315.625 Q490.0313,309.375 492.6563,306.0625 Q495.3125,302.75 500.3125,302.75 Q501.7188,302.75 503,303.0625 Q504.3125,303.375 505.4375,303.9688 L505.4375,309.4063 Q504.1875,308.25 503,307.7188 Q501.8125,307.1563 500.5625,307.1563 Q497.875,307.1563 496.5,309.3125 Q495.125,311.4375 495.125,315.625 Q495.125,319.8125 496.5,321.9688 Q497.875,324.0938 500.5625,324.0938 Q501.8125,324.0938 503,323.5625 Q504.1875,323 505.4375,321.8438 L505.4375,327.2813 Z "/><text fill="#000000" font-family="sans-serif" font-size="24" lengthAdjust="spacingAndGlyphs" textLength="494" x="540.5" y="324.3086">RemotePartitioningManagerStepBuilder</text><line style="stroke: #225C4D; stroke-width: 3.0;" x1="384" x2="1126" y1="348" y2="348"/><line style="stroke: #225C4D; stroke-width: 3.0;" x1="384" x2="1126" y1="364" y2="364"/><text fill="#000000" font-family="sans-serif" font-size="22" lengthAdjust="spacingAndGlyphs" textLength="570" x="394" y="392.4209">inputChannel(messageChannel: MessageChannel)</text><text fill="#000000" font-family="sans-serif" font-size="22" lengthAdjust="spacingAndGlyphs" textLength="586" x="394" y="418.0303">outputChannel(messageChannel: MessageChannel)</text><text fill="#000000" font-family="sans-serif" font-size="22" lengthAdjust="spacingAndGlyphs" textLength="722" x="394" y="443.6396">messagingTemplate(messagingTemplate: MessagingTemplate)</text><text fill="#000000" font-family="sans-serif" font-size="22" lengthAdjust="spacingAndGlyphs" textLength="250" x="394" y="469.249">pollInterval(long: long)</text><text fill="#000000" font-family="sans-serif" font-size="22" lengthAdjust="spacingAndGlyphs" textLength="212" x="394" y="494.8584">timeout(long: long)</text><text fill="#000000" font-family="sans-serif" font-size="22" lengthAdjust="spacingAndGlyphs" textLength="414" x="394" y="520.4678">jobExplorer(jobExplorer: JobExplorer)</text><text fill="#000000" font-family="sans-serif" font-size="22" lengthAdjust="spacingAndGlyphs" textLength="446" x="394" y="546.0771">beanFactory(beanFactory: BeanFactory)</text><text fill="#000000" font-family="sans-serif" font-size="22" lengthAdjust="spacingAndGlyphs" textLength="136" x="394" y="571.6865">build(): Step</text><!--MD5=[64cae02ce0c28ddd4d6bc6479b4e1115]
class PartitionStepBuilder--><rect fill="#DDEEE8" filter="url(#f1dr4u9kxxi29p)" height="96" id="PartitionStepBuilder" style="stroke: #225C4D; stroke-width: 3.0;" width="314" x="764" y="42"/><ellipse cx="794" cy="74" fill="#ADD1B2" rx="22" ry="22" style="stroke: #225C4D; stroke-width: 2.0;"/><path d="M799.9375,85.2813 Q798.7813,85.875 797.5,86.1563 Q796.2188,86.4688 794.8125,86.4688 Q789.8125,86.4688 787.1563,83.1875 Q784.5313,79.875 784.5313,73.625 Q784.5313,67.375 787.1563,64.0625 Q789.8125,60.75 794.8125,60.75 Q796.2188,60.75 797.5,61.0625 Q798.8125,61.375 799.9375,61.9688 L799.9375,67.4063 Q798.6875,66.25 797.5,65.7188 Q796.3125,65.1563 795.0625,65.1563 Q792.375,65.1563 791,67.3125 Q789.625,69.4375 789.625,73.625 Q789.625,77.8125 791,79.9688 Q792.375,82.0938 795.0625,82.0938 Q796.3125,82.0938 797.5,81.5625 Q798.6875,81 799.9375,79.8438 L799.9375,85.2813 Z "/><text fill="#000000" font-family="sans-serif" font-size="24" lengthAdjust="spacingAndGlyphs" textLength="250" x="822" y="82.3086">PartitionStepBuilder</text><line style="stroke: #225C4D; stroke-width: 3.0;" x1="766" x2="1076" y1="106" y2="106"/><line style="stroke: #225C4D; stroke-width: 3.0;" x1="766" x2="1076" y1="122" y2="122"/><!--MD5=[27ddcd5e9ce17e2f42897b4022203a59]
class RemotePartitioningWorkerStepBuilderFactory--><rect fill="#DDEEE8" filter="url(#f1dr4u9kxxi29p)" height="147.2188" id="RemotePartitioningWorkerStepBuilderFactory" style="stroke: #225C4D; stroke-width: 3.0;" width="662" x="1242" y="16"/><ellipse cx="1287.3" cy="48" fill="#ADD1B2" rx="22" ry="22" style="stroke: #225C4D; stroke-width: 2.0;"/><path d="M1293.2375,59.2813 Q1292.0813,59.875 1290.8,60.1563 Q1289.5188,60.4688 1288.1125,60.4688 Q1283.1125,60.4688 1280.4563,57.1875 Q1277.8313,53.875 1277.8313,47.625 Q1277.8313,41.375 1280.4563,38.0625 Q1283.1125,34.75 1288.1125,34.75 Q1289.5188,34.75 1290.8,35.0625 Q1292.1125,35.375 1293.2375,35.9688 L1293.2375,41.4063 Q1291.9875,40.25 1290.8,39.7188 Q1289.6125,39.1563 1288.3625,39.1563 Q1285.675,39.1563 1284.3,41.3125 Q1282.925,43.4375 1282.925,47.625 Q1282.925,51.8125 1284.3,53.9688 Q1285.675,56.0938 1288.3625,56.0938 Q1289.6125,56.0938 1290.8,55.5625 Q1291.9875,55 1293.2375,53.8438 L1293.2375,59.2813 Z "/><text fill="#000000" font-family="sans-serif" font-size="24" lengthAdjust="spacingAndGlyphs" textLength="564" x="1318.7" y="56.3086">RemotePartitioningWorkerStepBuilderFactory</text><line style="stroke: #225C4D; stroke-width: 3.0;" x1="1244" x2="1902" y1="80" y2="80"/><line style="stroke: #225C4D; stroke-width: 3.0;" x1="1244" x2="1902" y1="96" y2="96"/><text fill="#000000" font-family="sans-serif" font-size="22" lengthAdjust="spacingAndGlyphs" textLength="638" x="1254" y="124.4209">get(string: String): RemotePartitioningWorkerStepBuilder</text><text fill="#000000" font-family="sans-serif" font-size="22" lengthAdjust="spacingAndGlyphs" textLength="484" x="1254" y="150.0303">setBeanFactory(beanFactory: BeanFactory)</text><!--MD5=[8c89d6beaf7e9b81e8e2b165ca227772]
class RemotePartitioningWorkerStepBuilder--><rect fill="#DDEEE8" filter="url(#f1dr4u9kxxi29p)" height="198.4375" id="RemotePartitioningWorkerStepBuilder" style="stroke: #225C4D; stroke-width: 3.0;" width="610" x="1434" y="335"/><ellipse cx="1497.3" cy="367" fill="#ADD1B2" rx="22" ry="22" style="stroke: #225C4D; stroke-width: 2.0;"/><path d="M1503.2375,378.2813 Q1502.0813,378.875 1500.8,379.1563 Q1499.5188,379.4688 1498.1125,379.4688 Q1493.1125,379.4688 1490.4563,376.1875 Q1487.8313,372.875 1487.8313,366.625 Q1487.8313,360.375 1490.4563,357.0625 Q1493.1125,353.75 1498.1125,353.75 Q1499.5188,353.75 1500.8,354.0625 Q1502.1125,354.375 1503.2375,354.9688 L1503.2375,360.4063 Q1501.9875,359.25 1500.8,358.7188 Q1499.6125,358.1563 1498.3625,358.1563 Q1495.675,358.1563 1494.3,360.3125 Q1492.925,362.4375 1492.925,366.625 Q1492.925,370.8125 1494.3,372.9688 Q1495.675,375.0938 1498.3625,375.0938 Q1499.6125,375.0938 1500.8,374.5625 Q1501.9875,374 1503.2375,372.8438 L1503.2375,378.2813 Z "/><text fill="#000000" font-family="sans-serif" font-size="24" lengthAdjust="spacingAndGlyphs" textLength="472" x="1532.7" y="375.3086">RemotePartitioningWorkerStepBuilder</text><line style="stroke: #225C4D; stroke-width: 3.0;" x1="1436" x2="2042" y1="399" y2="399"/><line style="stroke: #225C4D; stroke-width: 3.0;" x1="1436" x2="2042" y1="415" y2="415"/><text fill="#000000" font-family="sans-serif" font-size="22" lengthAdjust="spacingAndGlyphs" textLength="570" x="1446" y="443.4209">inputChannel(messageChannel: MessageChannel)</text><text fill="#000000" font-family="sans-serif" font-size="22" lengthAdjust="spacingAndGlyphs" textLength="586" x="1446" y="469.0303">outputChannel(messageChannel: MessageChannel)</text><text fill="#000000" font-family="sans-serif" font-size="22" lengthAdjust="spacingAndGlyphs" textLength="414" x="1446" y="494.6396">jobExplorer(jobExplorer: JobExplorer)</text><text fill="#000000" font-family="sans-serif" font-size="22" lengthAdjust="spacingAndGlyphs" textLength="446" x="1446" y="520.249">beanFactory(beanFactory: BeanFactory)</text><!--MD5=[699e3096b5eb3ad7f0ddc83e51685f55]
class StepBuilder--><rect fill="#DDEEE8" filter="url(#f1dr4u9kxxi29p)" height="96" id="StepBuilder" style="stroke: #225C4D; stroke-width: 3.0;" width="208" x="1975" y="42"/><ellipse cx="2005" cy="74" fill="#ADD1B2" rx="22" ry="22" style="stroke: #225C4D; stroke-width: 2.0;"/><path d="M2010.9375,85.2813 Q2009.7813,85.875 2008.5,86.1563 Q2007.2188,86.4688 2005.8125,86.4688 Q2000.8125,86.4688 1998.1563,83.1875 Q1995.5313,79.875 1995.5313,73.625 Q1995.5313,67.375 1998.1563,64.0625 Q2000.8125,60.75 2005.8125,60.75 Q2007.2188,60.75 2008.5,61.0625 Q2009.8125,61.375 2010.9375,61.9688 L2010.9375,67.4063 Q2009.6875,66.25 2008.5,65.7188 Q2007.3125,65.1563 2006.0625,65.1563 Q2003.375,65.1563 2002,67.3125 Q2000.625,69.4375 2000.625,73.625 Q2000.625,77.8125 2002,79.9688 Q2003.375,82.0938 2006.0625,82.0938 Q2007.3125,82.0938 2008.5,81.5625 Q2009.6875,81 2010.9375,79.8438 L2010.9375,85.2813 Z "/><text fill="#000000" font-family="sans-serif" font-size="24" lengthAdjust="spacingAndGlyphs" textLength="144" x="2033" y="82.3086">StepBuilder</text><line style="stroke: #225C4D; stroke-width: 3.0;" x1="1977" x2="2181" y1="106" y2="106"/><line style="stroke: #225C4D; stroke-width: 3.0;" x1="1977" x2="2181" y1="122" y2="122"/><!--MD5=[f1e0e74afa3a5c7221d23d55502f66d7]
link RemotePartitioningManagerStepBuilderFactory to RemotePartitioningManagerStepBuilder--><path d="M438.26,164.1 C477.26,197.08 525.08,237.54 571.62,276.9 " fill="none" id="RemotePartitioningManagerStepBuilderFactory-&gt;RemotePartitioningManagerStepBuilder" style="stroke: #225C4D; stroke-width: 2.0; stroke-dasharray: 7.0,7.0;"/><polygon fill="#225C4D" points="579.68,283.72,571.1096,265.9845,572.0472,277.2593,560.7724,278.197,579.68,283.72" style="stroke: #225C4D; stroke-width: 2.0;"/><!--MD5=[20b5b2381284d199aac66c3aefc0004e]
reverse link PartitionStepBuilder to RemotePartitioningManagerStepBuilder--><path d="M880.68,174.58 C864.64,207.44 845.66,246.32 827.38,283.76 " fill="none" id="PartitionStepBuilder&lt;-RemotePartitioningManagerStepBuilder" style="stroke: #225C4D; stroke-width: 2.0;"/><polygon fill="none" points="868.14,168.36,898.26,138.56,893.3,180.64,868.14,168.36" style="stroke: #225C4D; stroke-width: 2.0;"/><!--MD5=[1a025c1f3413b78000fb3f0959cfb0ec]
link RemotePartitioningWorkerStepBuilderFactory to RemotePartitioningWorkerStepBuilder--><path d="M1608.2,164.1 C1631.14,211.1 1661.48,273.22 1687.16,325.82 " fill="none" id="RemotePartitioningWorkerStepBuilderFactory-&gt;RemotePartitioningWorkerStepBuilder" style="stroke: #225C4D; stroke-width: 2.0; stroke-dasharray: 7.0,7.0;"/><polygon fill="#225C4D" points="1691.56,334.84,1690.8672,315.1545,1687.1797,325.8504,1676.4838,322.1629,1691.56,334.84" style="stroke: #225C4D; stroke-width: 2.0;"/><!--MD5=[47e6504c29103d1e8624f24d57f78470]
reverse link StepBuilder to RemotePartitioningWorkerStepBuilder--><path d="M2004.04,166.96 C1954.78,216.22 1889.84,281.16 1836.56,334.44 " fill="none" id="StepBuilder&lt;-RemotePartitioningWorkerStepBuilder" style="stroke: #225C4D; stroke-width: 2.0;"/><polygon fill="none" points="1994.26,156.94,2032.44,138.56,2014.06,176.74,1994.26,156.94" style="stroke: #225C4D; stroke-width: 2.0;"/><!--MD5=[a26f330bd6e7e0aee374b4f57e97393f]
@startuml
skinparam class {
 BackgroundColor #DDEEE8
 BorderColor #225C4D
 ArrowColor #225C4D
 }
scale 2

class RemotePartitioningManagerStepBuilderFactory {
    get(string: String): RemotePartitioningManagerStepBuilder
    setBeanFactory(beanFactory: BeanFactory)
}

class RemotePartitioningManagerStepBuilder {
    inputChannel(messageChannel: MessageChannel)
    outputChannel(messageChannel: MessageChannel)
    messagingTemplate(messagingTemplate: MessagingTemplate)
    pollInterval(long: long)
    timeout(long: long)
    jobExplorer(jobExplorer: JobExplorer)
    beanFactory(beanFactory: BeanFactory)
    build(): Step
}

RemotePartitioningManagerStepBuilderFactory ..> RemotePartitioningManagerStepBuilder
PartitionStepBuilder <|- - RemotePartitioningManagerStepBuilder

class RemotePartitioningWorkerStepBuilderFactory {
    get(string: String): RemotePartitioningWorkerStepBuilder
    setBeanFactory(beanFactory: BeanFactory)
}

class RemotePartitioningWorkerStepBuilder {
    inputChannel(messageChannel: MessageChannel)
    outputChannel(messageChannel: MessageChannel)
    jobExplorer(jobExplorer: JobExplorer)
    beanFactory(beanFactory: BeanFactory)
}

RemotePartitioningWorkerStepBuilderFactory ..> RemotePartitioningWorkerStepBuilder
StepBuilder <|- - RemotePartitioningWorkerStepBuilder
@enduml

PlantUML version 1.2019.12(Sun Nov 03 11:24:54 CET 2019)
(APACHE source distribution)
Java Runtime: OpenJDK Runtime Environment
JVM: OpenJDK 64-Bit Server VM
Java Version: 17.0.6+10-Debian-1deb11u1
Operating System: Linux
Default Encoding: UTF-8
Language: en
Country: DK
--></g></svg>