<?xml version="1.0" encoding="UTF-8" standalone="no"?><svg xmlns="http://www.w3.org/2000/svg" xmlns:xlink="http://www.w3.org/1999/xlink" contentScriptType="application/ecmascript" contentStyleType="text/css" height="840px" preserveAspectRatio="none" style="width:2188px;height:840px;" version="1.1" viewBox="0 0 2188 840" width="2188px" zoomAndPan="magnify"><defs><filter height="300%" id="fo2kr4p43pzjs" width="300%" x="-1" y="-1"><feGaussianBlur result="blurOut" stdDeviation="4.0"/><feColorMatrix in="blurOut" result="blurOut2" type="matrix" values="0 0 0 0 0 0 0 0 0 0 0 0 0 0 0 0 0 0 .4 0"/><feOffset dx="8.0" dy="8.0" in="blurOut2" result="blurOut3"/><feBlend in="SourceGraphic" in2="blurOut3" mode="normal"/></filter></defs><g><!--MD5=[607d34f76403a7112c19a5b38e796e59]
class RepeatOperations--><rect fill="#DDEEE8" filter="url(#fo2kr4p43pzjs)" height="121.6094" id="RepeatOperations" style="stroke: #225C4D; stroke-width: 3.0;" width="556" x="199" y="29"/><ellipse cx="363.5" cy="61" fill="#B4A7E5" rx="22" ry="22" style="stroke: #225C4D; stroke-width: 2.0;"/><path d="M355.3438,52.5313 L355.3438,48.2188 L370.125,48.2188 L370.125,52.5313 L365.1875,52.5313 L365.1875,68.6875 L370.125,68.6875 L370.125,73 L355.3438,73 L355.3438,68.6875 L360.2813,68.6875 L360.2813,52.5313 L355.3438,52.5313 Z "/><text fill="#000000" font-family="sans-serif" font-size="24" font-style="italic" lengthAdjust="spacingAndGlyphs" textLength="210" x="404.5" y="69.3086">RepeatOperations</text><line style="stroke: #225C4D; stroke-width: 3.0;" x1="201" x2="753" y1="93" y2="93"/><line style="stroke: #225C4D; stroke-width: 3.0;" x1="201" x2="753" y1="109" y2="109"/><text fill="#000000" font-family="sans-serif" font-size="22" lengthAdjust="spacingAndGlyphs" textLength="532" x="211" y="137.4209">iterate(callback: RepeatCallback): RepeatStatus</text><!--MD5=[f8b1ca7456b9e1315d9c5bf8cdf29ff8]
class CompletionPolicy--><rect fill="#DDEEE8" filter="url(#fo2kr4p43pzjs)" height="96" id="CompletionPolicy" style="stroke: #225C4D; stroke-width: 3.0;" width="264" x="757" y="286"/><ellipse cx="787" cy="318" fill="#B4A7E5" rx="22" ry="22" style="stroke: #225C4D; stroke-width: 2.0;"/><path d="M778.8438,309.5313 L778.8438,305.2188 L793.625,305.2188 L793.625,309.5313 L788.6875,309.5313 L788.6875,325.6875 L793.625,325.6875 L793.625,330 L778.8438,330 L778.8438,325.6875 L783.7813,325.6875 L783.7813,309.5313 L778.8438,309.5313 Z "/><text fill="#000000" font-family="sans-serif" font-size="24" font-style="italic" lengthAdjust="spacingAndGlyphs" textLength="200" x="815" y="326.3086">CompletionPolicy</text><line style="stroke: #225C4D; stroke-width: 3.0;" x1="759" x2="1019" y1="350" y2="350"/><line style="stroke: #225C4D; stroke-width: 3.0;" x1="759" x2="1019" y1="366" y2="366"/><!--MD5=[528a86005bc5386c2bbcf0731ebffdbf]
class ExceptionHandler--><rect fill="#DDEEE8" filter="url(#fo2kr4p43pzjs)" height="96" id="ExceptionHandler" style="stroke: #225C4D; stroke-width: 3.0;" width="274" x="12" y="504"/><ellipse cx="42" cy="536" fill="#B4A7E5" rx="22" ry="22" style="stroke: #225C4D; stroke-width: 2.0;"/><path d="M33.8438,527.5313 L33.8438,523.2188 L48.625,523.2188 L48.625,527.5313 L43.6875,527.5313 L43.6875,543.6875 L48.625,543.6875 L48.625,548 L33.8438,548 L33.8438,543.6875 L38.7813,543.6875 L38.7813,527.5313 L33.8438,527.5313 Z "/><text fill="#000000" font-family="sans-serif" font-size="24" font-style="italic" lengthAdjust="spacingAndGlyphs" textLength="210" x="70" y="544.3086">ExceptionHandler</text><line style="stroke: #225C4D; stroke-width: 3.0;" x1="14" x2="284" y1="568" y2="568"/><line style="stroke: #225C4D; stroke-width: 3.0;" x1="14" x2="284" y1="584" y2="584"/><!--MD5=[8be79770423bad82bc7db47523e29d62]
class RepeatListener--><rect fill="#DDEEE8" filter="url(#fo2kr4p43pzjs)" height="96" id="RepeatListener" style="stroke: #225C4D; stroke-width: 3.0;" width="242" x="356" y="504"/><ellipse cx="386" cy="536" fill="#B4A7E5" rx="22" ry="22" style="stroke: #225C4D; stroke-width: 2.0;"/><path d="M377.8438,527.5313 L377.8438,523.2188 L392.625,523.2188 L392.625,527.5313 L387.6875,527.5313 L387.6875,543.6875 L392.625,543.6875 L392.625,548 L377.8438,548 L377.8438,543.6875 L382.7813,543.6875 L382.7813,527.5313 L377.8438,527.5313 Z "/><text fill="#000000" font-family="sans-serif" font-size="24" font-style="italic" lengthAdjust="spacingAndGlyphs" textLength="178" x="414" y="544.3086">RepeatListener</text><line style="stroke: #225C4D; stroke-width: 3.0;" x1="358" x2="596" y1="568" y2="568"/><line style="stroke: #225C4D; stroke-width: 3.0;" x1="358" x2="596" y1="584" y2="584"/><!--MD5=[e2e770ba23caa9d4fb65dba7e5260491]
class RepeatStatus--><rect fill="#DDEEE8" filter="url(#fo2kr4p43pzjs)" height="147.2188" id="RepeatStatus" style="stroke: #225C4D; stroke-width: 3.0;" width="236" x="1931" y="16"/><ellipse cx="1961" cy="48" fill="#EB937F" rx="22" ry="22" style="stroke: #225C4D; stroke-width: 2.0;"/><path d="M1969.2188,60 L1953.7813,60 L1953.7813,35.2188 L1969.2188,35.2188 L1969.2188,39.5313 L1958.6875,39.5313 L1958.6875,44.875 L1968.2188,44.875 L1968.2188,49.1875 L1958.6875,49.1875 L1958.6875,55.6875 L1969.2188,55.6875 L1969.2188,60 Z "/><text fill="#000000" font-family="sans-serif" font-size="24" lengthAdjust="spacingAndGlyphs" textLength="172" x="1989" y="56.3086">RepeatStatus</text><line style="stroke: #225C4D; stroke-width: 3.0;" x1="1933" x2="2165" y1="80" y2="80"/><text fill="#000000" font-family="sans-serif" font-size="22" lengthAdjust="spacingAndGlyphs" textLength="158" x="1943" y="108.4209">CONTINUABLE</text><text fill="#000000" font-family="sans-serif" font-size="22" lengthAdjust="spacingAndGlyphs" textLength="102" x="1943" y="134.0303">FINISHED</text><line style="stroke: #225C4D; stroke-width: 3.0;" x1="1933" x2="2165" y1="147.2188" y2="147.2188"/><!--MD5=[8450d3b8ac0c6ecedee178868bb3ff72]
class RepeatCallback--><rect fill="#DDEEE8" filter="url(#fo2kr4p43pzjs)" height="121.6094" id="RepeatCallback" style="stroke: #225C4D; stroke-width: 3.0;" width="600" x="1261" y="29"/><ellipse cx="1460.5" cy="61" fill="#B4A7E5" rx="22" ry="22" style="stroke: #225C4D; stroke-width: 2.0;"/><path d="M1452.3438,52.5313 L1452.3438,48.2188 L1467.125,48.2188 L1467.125,52.5313 L1462.1875,52.5313 L1462.1875,68.6875 L1467.125,68.6875 L1467.125,73 L1452.3438,73 L1452.3438,68.6875 L1457.2813,68.6875 L1457.2813,52.5313 L1452.3438,52.5313 Z "/><text fill="#000000" font-family="sans-serif" font-size="24" font-style="italic" lengthAdjust="spacingAndGlyphs" textLength="184" x="1501.5" y="69.3086">RepeatCallback</text><line style="stroke: #225C4D; stroke-width: 3.0;" x1="1263" x2="1859" y1="93" y2="93"/><line style="stroke: #225C4D; stroke-width: 3.0;" x1="1263" x2="1859" y1="109" y2="109"/><text fill="#000000" font-family="sans-serif" font-size="22" lengthAdjust="spacingAndGlyphs" textLength="576" x="1273" y="137.4209">doInIteration(RepeatContext context): RepeatStatus</text><!--MD5=[8ed3bd735f28f91cec7bba89c1abcd92]
class RepeatContext--><rect fill="#DDEEE8" filter="url(#fo2kr4p43pzjs)" height="96" id="RepeatContext" style="stroke: #225C4D; stroke-width: 3.0;" width="240" x="1441" y="286"/><ellipse cx="1471" cy="318" fill="#B4A7E5" rx="22" ry="22" style="stroke: #225C4D; stroke-width: 2.0;"/><path d="M1462.8438,309.5313 L1462.8438,305.2188 L1477.625,305.2188 L1477.625,309.5313 L1472.6875,309.5313 L1472.6875,325.6875 L1477.625,325.6875 L1477.625,330 L1462.8438,330 L1462.8438,325.6875 L1467.7813,325.6875 L1467.7813,309.5313 L1462.8438,309.5313 Z "/><text fill="#000000" font-family="sans-serif" font-size="24" font-style="italic" lengthAdjust="spacingAndGlyphs" textLength="176" x="1499" y="326.3086">RepeatContext</text><line style="stroke: #225C4D; stroke-width: 3.0;" x1="1443" x2="1679" y1="350" y2="350"/><line style="stroke: #225C4D; stroke-width: 3.0;" x1="1443" x2="1679" y1="366" y2="366"/><!--MD5=[2d36a0997a4d99e5643e4034feeadd84]
class AttributeAccessor--><rect fill="#DDEEE8" filter="url(#fo2kr4p43pzjs)" height="96" id="AttributeAccessor" style="stroke: #225C4D; stroke-width: 3.0;" width="278" x="1092" y="286"/><ellipse cx="1122" cy="318" fill="#B4A7E5" rx="22" ry="22" style="stroke: #225C4D; stroke-width: 2.0;"/><path d="M1113.8438,309.5313 L1113.8438,305.2188 L1128.625,305.2188 L1128.625,309.5313 L1123.6875,309.5313 L1123.6875,325.6875 L1128.625,325.6875 L1128.625,330 L1113.8438,330 L1113.8438,325.6875 L1118.7813,325.6875 L1118.7813,309.5313 L1113.8438,309.5313 Z "/><text fill="#000000" font-family="sans-serif" font-size="24" font-style="italic" lengthAdjust="spacingAndGlyphs" textLength="214" x="1150" y="326.3086">AttributeAccessor</text><line style="stroke: #225C4D; stroke-width: 3.0;" x1="1094" x2="1368" y1="350" y2="350"/><line style="stroke: #225C4D; stroke-width: 3.0;" x1="1094" x2="1368" y1="366" y2="366"/><!--MD5=[ad5bdc08c0130de47d8907bd5e8b8c93]
class RepeatTemplate--><rect fill="#DDEEE8" filter="url(#fo2kr4p43pzjs)" height="96" id="RepeatTemplate" style="stroke: #225C4D; stroke-width: 3.0;" width="270" x="342" y="286"/><ellipse cx="372" cy="318" fill="#ADD1B2" rx="22" ry="22" style="stroke: #225C4D; stroke-width: 2.0;"/><path d="M377.9375,329.2813 Q376.7813,329.875 375.5,330.1563 Q374.2188,330.4688 372.8125,330.4688 Q367.8125,330.4688 365.1563,327.1875 Q362.5313,323.875 362.5313,317.625 Q362.5313,311.375 365.1563,308.0625 Q367.8125,304.75 372.8125,304.75 Q374.2188,304.75 375.5,305.0625 Q376.8125,305.375 377.9375,305.9688 L377.9375,311.4063 Q376.6875,310.25 375.5,309.7188 Q374.3125,309.1563 373.0625,309.1563 Q370.375,309.1563 369,311.3125 Q367.625,313.4375 367.625,317.625 Q367.625,321.8125 369,323.9688 Q370.375,326.0938 373.0625,326.0938 Q374.3125,326.0938 375.5,325.5625 Q376.6875,325 377.9375,323.8438 L377.9375,329.2813 Z "/><text fill="#000000" font-family="sans-serif" font-size="24" lengthAdjust="spacingAndGlyphs" textLength="206" x="400" y="326.3086">RepeatTemplate</text><line style="stroke: #225C4D; stroke-width: 3.0;" x1="344" x2="610" y1="350" y2="350"/><line style="stroke: #225C4D; stroke-width: 3.0;" x1="344" x2="610" y1="366" y2="366"/><!--MD5=[ea935cbc2f194a7ee6aed3936b2bcdde]
class DefaultResultCompletionPolicy--><rect fill="#DDEEE8" filter="url(#fo2kr4p43pzjs)" height="96" id="DefaultResultCompletionPolicy" style="stroke: #225C4D; stroke-width: 3.0;" width="442" x="668" y="504"/><ellipse cx="698" cy="536" fill="#ADD1B2" rx="22" ry="22" style="stroke: #225C4D; stroke-width: 2.0;"/><path d="M703.9375,547.2813 Q702.7813,547.875 701.5,548.1563 Q700.2188,548.4688 698.8125,548.4688 Q693.8125,548.4688 691.1563,545.1875 Q688.5313,541.875 688.5313,535.625 Q688.5313,529.375 691.1563,526.0625 Q693.8125,522.75 698.8125,522.75 Q700.2188,522.75 701.5,523.0625 Q702.8125,523.375 703.9375,523.9688 L703.9375,529.4063 Q702.6875,528.25 701.5,527.7188 Q700.3125,527.1563 699.0625,527.1563 Q696.375,527.1563 695,529.3125 Q693.625,531.4375 693.625,535.625 Q693.625,539.8125 695,541.9688 Q696.375,544.0938 699.0625,544.0938 Q700.3125,544.0938 701.5,543.5625 Q702.6875,543 703.9375,541.8438 L703.9375,547.2813 Z "/><text fill="#000000" font-family="sans-serif" font-size="24" lengthAdjust="spacingAndGlyphs" textLength="378" x="726" y="544.3086">DefaultResultCompletionPolicy</text><line style="stroke: #225C4D; stroke-width: 3.0;" x1="670" x2="1108" y1="568" y2="568"/><line style="stroke: #225C4D; stroke-width: 3.0;" x1="670" x2="1108" y1="584" y2="584"/><!--MD5=[db7a37ed959426260e1c34331a049159]
class SimpleCompletionPolicy--><rect fill="#DDEEE8" filter="url(#fo2kr4p43pzjs)" height="96" id="SimpleCompletionPolicy" style="stroke: #225C4D; stroke-width: 3.0;" width="356" x="711" y="722"/><ellipse cx="741" cy="754" fill="#ADD1B2" rx="22" ry="22" style="stroke: #225C4D; stroke-width: 2.0;"/><path d="M746.9375,765.2813 Q745.7813,765.875 744.5,766.1563 Q743.2188,766.4688 741.8125,766.4688 Q736.8125,766.4688 734.1563,763.1875 Q731.5313,759.875 731.5313,753.625 Q731.5313,747.375 734.1563,744.0625 Q736.8125,740.75 741.8125,740.75 Q743.2188,740.75 744.5,741.0625 Q745.8125,741.375 746.9375,741.9688 L746.9375,747.4063 Q745.6875,746.25 744.5,745.7188 Q743.3125,745.1563 742.0625,745.1563 Q739.375,745.1563 738,747.3125 Q736.625,749.4375 736.625,753.625 Q736.625,757.8125 738,759.9688 Q739.375,762.0938 742.0625,762.0938 Q743.3125,762.0938 744.5,761.5625 Q745.6875,761 746.9375,759.8438 L746.9375,765.2813 Z "/><text fill="#000000" font-family="sans-serif" font-size="24" lengthAdjust="spacingAndGlyphs" textLength="292" x="769" y="762.3086">SimpleCompletionPolicy</text><line style="stroke: #225C4D; stroke-width: 3.0;" x1="713" x2="1065" y1="786" y2="786"/><line style="stroke: #225C4D; stroke-width: 3.0;" x1="713" x2="1065" y1="802" y2="802"/><path d="M1137,745 L1137,762 L1067.24,770 L1137,778 L1137,795.2656 A0,0 0 0 0 1137,795.2656 L1389,795.2656 A0,0 0 0 0 1389,795.2656 L1389,765 L1369,745 L1137,745 A0,0 0 0 0 1137,745 " fill="#FBFB77" filter="url(#fo2kr4p43pzjs)" style="stroke: #A80036; stroke-width: 2.0;"/><path d="M1369,745 L1369,765 L1389,765 L1369,745 " fill="#FBFB77" style="stroke: #A80036; stroke-width: 2.0;"/><text fill="#000000" font-family="sans-serif" font-size="26" lengthAdjust="spacingAndGlyphs" textLength="210" x="1149" y="779.1338">Einfacher Zähler</text><!--MD5=[8dfdab2cef19677cb18254a1f373fbe2]
class TimeoutTerminationPolicy--><rect fill="#DDEEE8" filter="url(#fo2kr4p43pzjs)" height="96" id="TimeoutTerminationPolicy" style="stroke: #225C4D; stroke-width: 3.0;" width="382" x="1180" y="504"/><ellipse cx="1210" cy="536" fill="#ADD1B2" rx="22" ry="22" style="stroke: #225C4D; stroke-width: 2.0;"/><path d="M1215.9375,547.2813 Q1214.7813,547.875 1213.5,548.1563 Q1212.2188,548.4688 1210.8125,548.4688 Q1205.8125,548.4688 1203.1563,545.1875 Q1200.5313,541.875 1200.5313,535.625 Q1200.5313,529.375 1203.1563,526.0625 Q1205.8125,522.75 1210.8125,522.75 Q1212.2188,522.75 1213.5,523.0625 Q1214.8125,523.375 1215.9375,523.9688 L1215.9375,529.4063 Q1214.6875,528.25 1213.5,527.7188 Q1212.3125,527.1563 1211.0625,527.1563 Q1208.375,527.1563 1207,529.3125 Q1205.625,531.4375 1205.625,535.625 Q1205.625,539.8125 1207,541.9688 Q1208.375,544.0938 1211.0625,544.0938 Q1212.3125,544.0938 1213.5,543.5625 Q1214.6875,543 1215.9375,541.8438 L1215.9375,547.2813 Z "/><text fill="#000000" font-family="sans-serif" font-size="24" lengthAdjust="spacingAndGlyphs" textLength="318" x="1238" y="544.3086">TimeoutTerminationPolicy</text><line style="stroke: #225C4D; stroke-width: 3.0;" x1="1182" x2="1560" y1="568" y2="568"/><line style="stroke: #225C4D; stroke-width: 3.0;" x1="1182" x2="1560" y1="584" y2="584"/><path d="M916,50 L916,130.5313 L1102,130.5313 L1102,70 L1082,50 L916,50 " fill="#FBFB77" filter="url(#fo2kr4p43pzjs)" style="stroke: #A80036; stroke-width: 2.0;"/><path d="M1082,50 L1082,70 L1102,70 L1082,50 " fill="#FBFB77" style="stroke: #A80036; stroke-width: 2.0;"/><text fill="#000000" font-family="sans-serif" font-size="26" lengthAdjust="spacingAndGlyphs" textLength="106" x="928" y="84.1338">gehören</text><text fill="#000000" font-family="sans-serif" font-size="26" lengthAdjust="spacingAndGlyphs" textLength="144" x="928" y="114.3994">zusammen</text><!--MD5=[87aa67d69c00096a6120042d923426ee]
reverse link RepeatOperations to RepeatTemplate--><path d="M477,191.4 C477,223.96 477,258.62 477,285.38 " fill="none" id="RepeatOperations&lt;-RepeatTemplate" style="stroke: #225C4D; stroke-width: 2.0; stroke-dasharray: 7.0,7.0;"/><polygon fill="none" points="463,191.32,477,151.32,491,191.32,463,191.32" style="stroke: #225C4D; stroke-width: 2.0;"/><!--MD5=[98ff8403938266940b4bbbc371856cb3]
link RepeatTemplate to CompletionPolicy--><path d="M636.18,334 C636.18,334 699.46,334 729.84,334 " fill="none" id="RepeatTemplate-CompletionPolicy" style="stroke: #225C4D; stroke-width: 2.0;"/><polygon fill="#225C4D" points="756.54,334,738.54,326,746.54,334,738.54,342,756.54,334" style="stroke: #225C4D; stroke-width: 2.0;"/><line style="stroke: #225C4D; stroke-width: 2.0;" x1="746.54" x2="730.54" y1="334" y2="334"/><polygon fill="#225C4D" points="612.18,334,624.18,342,636.18,334,624.18,326,612.18,334" style="stroke: #225C4D; stroke-width: 2.0;"/><text fill="#000000" font-family="sans-serif" font-size="26" lengthAdjust="spacingAndGlyphs" textLength="16" x="725.1772" y="326.5077">1</text><!--MD5=[42804bfc751838c77882cdb64fc48737]
link RepeatTemplate to ExceptionHandler--><path d="M385.7179,395.5512 C385.7179,395.5512 286.58,460.24 242.32,489.12 " fill="none" id="RepeatTemplate-ExceptionHandler" style="stroke: #225C4D; stroke-width: 2.0;"/><polygon fill="#225C4D" points="220.04,503.66,239.4889,500.539,228.4192,498.202,230.7561,487.1323,220.04,503.66" style="stroke: #225C4D; stroke-width: 2.0;"/><line style="stroke: #225C4D; stroke-width: 2.0;" x1="228.4192" x2="241.81" y1="498.202" y2="489.45"/><polygon fill="#225C4D" points="405.82,382.44,391.3985,382.2949,385.7179,395.5512,400.1393,395.6963,405.82,382.44" style="stroke: #225C4D; stroke-width: 2.0;"/><text fill="#000000" font-family="sans-serif" font-size="26" lengthAdjust="spacingAndGlyphs" textLength="16" x="220.194" y="481.5969">1</text><!--MD5=[5f0dca495d24c60f3de95b4f18c3d087]
link RepeatTemplate to RepeatListener--><path d="M477,406.44 C477,406.44 477,455 477,477.12 " fill="none" id="RepeatTemplate-RepeatListener" style="stroke: #225C4D; stroke-width: 2.0;"/><polygon fill="#225C4D" points="477,503.66,485,485.66,477,493.66,469,485.66,477,503.66" style="stroke: #225C4D; stroke-width: 2.0;"/><line style="stroke: #225C4D; stroke-width: 2.0;" x1="477" x2="477" y1="493.66" y2="477.66"/><polygon fill="#225C4D" points="477,382.44,469,394.44,477,406.44,485,394.44,477,382.44" style="stroke: #225C4D; stroke-width: 2.0;"/><text fill="#000000" font-family="sans-serif" font-size="26" lengthAdjust="spacingAndGlyphs" textLength="48" x="422.85" y="481.5969">0..n</text><!--MD5=[1c581c0e47775d981236d8919b9bf6ee]
reverse link CompletionPolicy to DefaultResultCompletionPolicy--><path d="M889,423.16 C889,450.72 889,480.12 889,503.66 " fill="none" id="CompletionPolicy&lt;-DefaultResultCompletionPolicy" style="stroke: #225C4D; stroke-width: 2.0; stroke-dasharray: 7.0,7.0;"/><polygon fill="none" points="875,422.44,889,382.44,903,422.44,875,422.44" style="stroke: #225C4D; stroke-width: 2.0;"/><!--MD5=[64f62cad630853131d57e653c8454d6c]
reverse link DefaultResultCompletionPolicy to SimpleCompletionPolicy--><path d="M889,641.16 C889,668.72 889,698.12 889,721.66 " fill="none" id="DefaultResultCompletionPolicy&lt;-SimpleCompletionPolicy" style="stroke: #225C4D; stroke-width: 2.0;"/><polygon fill="none" points="875,640.44,889,600.44,903,640.44,875,640.44" style="stroke: #225C4D; stroke-width: 2.0;"/><!--MD5=[c05fb932928977010622bd4f6bfd1e80]
reverse link CompletionPolicy to TimeoutTerminationPolicy--><path d="M1029.9,398.56 C1105.82,432.26 1197.86,473.14 1267.2,503.92 " fill="none" id="CompletionPolicy&lt;-TimeoutTerminationPolicy" style="stroke: #225C4D; stroke-width: 2.0; stroke-dasharray: 7.0,7.0;"/><polygon fill="none" points="1023.88,411.2,993,382.18,1035.24,385.6,1023.88,411.2" style="stroke: #225C4D; stroke-width: 2.0;"/><!--MD5=[bb14bfea55aa43377d8037b11641922c]
link RepeatCallback to RepeatStatus--><path d="M1861.24,90 C1881.02,90 1900.8,90 1920.58,90 " fill="none" id="RepeatCallback-&gt;RepeatStatus" style="stroke: #225C4D; stroke-width: 2.0; stroke-dasharray: 7.0,7.0;"/><polygon fill="#225C4D" points="1930.92,90,1912.92,82,1920.92,90,1912.92,98,1930.92,90" style="stroke: #225C4D; stroke-width: 2.0;"/><!--MD5=[c024a9a9959f8be25b12cbd0500d5799]
link RepeatCallback to RepeatContext--><path d="M1561,151.32 C1561,189.14 1561,237.86 1561,275.16 " fill="none" id="RepeatCallback-&gt;RepeatContext" style="stroke: #225C4D; stroke-width: 2.0; stroke-dasharray: 7.0,7.0;"/><polygon fill="#225C4D" points="1561,285.38,1569,267.38,1561,275.38,1553,267.38,1561,285.38" style="stroke: #225C4D; stroke-width: 2.0;"/><!--MD5=[1901cfc682530166a3dba281b51eac6e]
reverse link AttributeAccessor to RepeatContext--><path d="M1410.72,334 C1420.56,334 1430.42,334 1440.28,334 " fill="none" id="AttributeAccessor&lt;-RepeatContext" style="stroke: #225C4D; stroke-width: 2.0;"/><polygon fill="none" points="1410.22,348,1370.22,334,1410.22,320,1410.22,348" style="stroke: #225C4D; stroke-width: 2.0;"/><!--MD5=[35acf8b16485594668f45b2cb9b062b3]
link RepeatContext to RepeatContext--><path d="M1681.6,313.76 C1720.32,313.96 1751,320.72 1751,334 C1751,346.04 1725.8,352.72 1692.26,354.02 " fill="none" id="RepeatContext-&gt;RepeatContext" style="stroke: #225C4D; stroke-width: 2.0;"/><polygon fill="#225C4D" points="1681.6,354.24,1699.7781,361.8266,1691.5974,354.0115,1699.4125,345.8308,1681.6,354.24" style="stroke: #225C4D; stroke-width: 2.0;"/><text fill="#000000" font-family="sans-serif" font-size="26" lengthAdjust="spacingAndGlyphs" textLength="84" x="1763" y="343.1338">parent</text><!--MD5=[e985c8ec8c4436887a2fa09f8026f622]
link N to RepeatContext--><path d="M1096.46,130.02 C1193.74,172.32 1350.88,240.64 1455.06,285.94 " fill="none" id="N-RepeatContext" style="stroke: #225C4D; stroke-width: 2.0; stroke-dasharray: 7.0,7.0;"/><!--MD5=[29db0a7eab71fd0b7e281f4640d3fb98]
link N to CompletionPolicy--><path d="M989.98,130.02 C968.84,172.32 934.68,240.64 912.04,285.94 " fill="none" id="N-CompletionPolicy" style="stroke: #225C4D; stroke-width: 2.0; stroke-dasharray: 7.0,7.0;"/><!--MD5=[44ad10c1d3d52cab00730b57843309d7]
@startuml
skinparam class {
 BackgroundColor #DDEEE8
 BorderColor #225C4D
 ArrowColor #225C4D
 }
scale 2

interface RepeatOperations {
    iterate(callback: RepeatCallback): RepeatStatus
}

interface CompletionPolicy
interface ExceptionHandler
interface RepeatListener

enum RepeatStatus {
    CONTINUABLE
    FINISHED
}

interface RepeatCallback {
    doInIteration(RepeatContext context): RepeatStatus
}

interface RepeatContext
interface AttributeAccessor

RepeatOperations <|.. RepeatTemplate
RepeatTemplate *-> "1" CompletionPolicy
RepeatTemplate *- -> "1" ExceptionHandler
RepeatTemplate *- -> "0..n" RepeatListener

CompletionPolicy <|.. DefaultResultCompletionPolicy
DefaultResultCompletionPolicy <|- - SimpleCompletionPolicy
note right: Einfacher Zähler

CompletionPolicy <|.. TimeoutTerminationPolicy

RepeatCallback .> RepeatStatus
RepeatCallback ..> RepeatContext
AttributeAccessor <|- RepeatContext
RepeatContext - -> RepeatContext: parent

note as N
gehören
zusammen
end note

N .. RepeatContext
N .. CompletionPolicy
@enduml

PlantUML version 1.2019.12(Sun Nov 03 11:24:54 CET 2019)
(APACHE source distribution)
Java Runtime: OpenJDK Runtime Environment
JVM: OpenJDK 64-Bit Server VM
Java Version: 17.0.6+10-Debian-1deb11u1
Operating System: Linux
Default Encoding: UTF-8
Language: en
Country: DK
--></g></svg>