<?xml version="1.0" encoding="UTF-8" standalone="no"?><svg xmlns="http://www.w3.org/2000/svg" xmlns:xlink="http://www.w3.org/1999/xlink" contentScriptType="application/ecmascript" contentStyleType="text/css" height="761.6667px" preserveAspectRatio="none" style="width:2148px;height:761px;" version="1.1" viewBox="0 0 2148 761" width="2148.3333px" zoomAndPan="magnify"><defs><filter height="300%" id="f1r1td3o06exon" width="300%" x="-1" y="-1"><feGaussianBlur result="blurOut" stdDeviation="3.3333333333333335"/><feColorMatrix in="blurOut" result="blurOut2" type="matrix" values="0 0 0 0 0 0 0 0 0 0 0 0 0 0 0 0 0 0 .4 0"/><feOffset dx="6.666666666666667" dy="6.666666666666667" in="blurOut2" result="blurOut3"/><feBlend in="SourceGraphic" in2="blurOut3" mode="normal"/></filter></defs><g><!--MD5=[a9ead3c7832d7caf457cba276d0f1cee]
class RetryOperations--><rect fill="#DDEEE8" filter="url(#f1r1td3o06exon)" height="165.3646" id="RetryOperations" style="stroke: #225C4D; stroke-width: 2.5;" width="1061.6667" x="184.1667" y="13.3333"/><ellipse cx="628.75" cy="40" fill="#B4A7E5" rx="18.3333" ry="18.3333" style="stroke: #225C4D; stroke-width: 1.6666666666666667;"/><path d="M621.9531,32.9427 L621.9531,29.349 L634.2708,29.349 L634.2708,32.9427 L630.1563,32.9427 L630.1563,46.4063 L634.2708,46.4063 L634.2708,50 L621.9531,50 L621.9531,46.4063 L626.0677,46.4063 L626.0677,32.9427 L621.9531,32.9427 Z "/><text fill="#000000" font-family="sans-serif" font-size="20" font-style="italic" lengthAdjust="spacingAndGlyphs" textLength="158.3333" x="662.9167" y="46.9238">RetryOperations</text><line style="stroke: #225C4D; stroke-width: 2.5;" x1="185.8333" x2="1244.1667" y1="66.6667" y2="66.6667"/><line style="stroke: #225C4D; stroke-width: 2.5;" x1="185.8333" x2="1244.1667" y1="80" y2="80"/><text fill="#000000" font-family="sans-serif" font-size="18.3333" lengthAdjust="spacingAndGlyphs" textLength="436.6667" x="194.1667" y="103.6841">execute(retryCallback: RetryCallback&lt;T, E&gt;): T</text><text fill="#000000" font-family="sans-serif" font-size="18.3333" lengthAdjust="spacingAndGlyphs" textLength="653.3333" x="194.1667" y="125.0252">execute(retryCallback: RetryCallback&lt;T, E&gt;, retryState: RetryState): T</text><text fill="#000000" font-family="sans-serif" font-size="18.3333" lengthAdjust="spacingAndGlyphs" textLength="825" x="194.1667" y="146.3664">execute(retryCallback: RetryCallback&lt;T, E&gt;, recoveryCallback: RecoveryCallback&lt;T&gt;): T</text><text fill="#000000" font-family="sans-serif" font-size="18.3333" lengthAdjust="spacingAndGlyphs" textLength="1041.6667" x="194.1667" y="167.7075">execute(retryCallback: RetryCallback&lt;T, E&gt;, recoveryCallback: RecoveryCallback&lt;T&gt;, retryState: RetryState): T</text><!--MD5=[d387708fde228a9bc92ea0816a917a8e]
class BackOffPolicy--><rect fill="#DDEEE8" filter="url(#f1r1td3o06exon)" height="80" id="BackOffPolicy" style="stroke: #225C4D; stroke-width: 2.5;" width="185" x="610.8333" y="461.6667"/><ellipse cx="635.8333" cy="488.3333" fill="#B4A7E5" rx="18.3333" ry="18.3333" style="stroke: #225C4D; stroke-width: 1.6666666666666667;"/><path d="M629.0365,481.276 L629.0365,477.6823 L641.3542,477.6823 L641.3542,481.276 L637.2396,481.276 L637.2396,494.7396 L641.3542,494.7396 L641.3542,498.3333 L629.0365,498.3333 L629.0365,494.7396 L633.151,494.7396 L633.151,481.276 L629.0365,481.276 Z "/><text fill="#000000" font-family="sans-serif" font-size="20" font-style="italic" lengthAdjust="spacingAndGlyphs" textLength="131.6667" x="659.1667" y="495.2572">BackOffPolicy</text><line style="stroke: #225C4D; stroke-width: 2.5;" x1="612.5" x2="794.1667" y1="515" y2="515"/><line style="stroke: #225C4D; stroke-width: 2.5;" x1="612.5" x2="794.1667" y1="528.3333" y2="528.3333"/><!--MD5=[9d77148753ef947907d11a85869cf3ac]
class RetryPolicy--><rect fill="#DDEEE8" filter="url(#f1r1td3o06exon)" height="80" id="RetryPolicy" style="stroke: #225C4D; stroke-width: 2.5;" width="163.3333" x="346.6667" y="280"/><ellipse cx="371.6667" cy="306.6667" fill="#B4A7E5" rx="18.3333" ry="18.3333" style="stroke: #225C4D; stroke-width: 1.6666666666666667;"/><path d="M364.8698,299.6094 L364.8698,296.0156 L377.1875,296.0156 L377.1875,299.6094 L373.0729,299.6094 L373.0729,313.0729 L377.1875,313.0729 L377.1875,316.6667 L364.8698,316.6667 L364.8698,313.0729 L368.9844,313.0729 L368.9844,299.6094 L364.8698,299.6094 Z "/><text fill="#000000" font-family="sans-serif" font-size="20" font-style="italic" lengthAdjust="spacingAndGlyphs" textLength="110" x="395" y="313.5905">RetryPolicy</text><line style="stroke: #225C4D; stroke-width: 2.5;" x1="348.3333" x2="508.3333" y1="333.3333" y2="333.3333"/><line style="stroke: #225C4D; stroke-width: 2.5;" x1="348.3333" x2="508.3333" y1="346.6667" y2="346.6667"/><!--MD5=[6415c0732c73903ce5879624bf27cc08]
class RetryListener--><rect fill="#DDEEE8" filter="url(#f1r1td3o06exon)" height="80" id="RetryListener" style="stroke: #225C4D; stroke-width: 2.5;" width="185" x="854.1667" y="461.6667"/><ellipse cx="879.1667" cy="488.3333" fill="#B4A7E5" rx="18.3333" ry="18.3333" style="stroke: #225C4D; stroke-width: 1.6666666666666667;"/><path d="M872.3698,481.276 L872.3698,477.6823 L884.6875,477.6823 L884.6875,481.276 L880.5729,481.276 L880.5729,494.7396 L884.6875,494.7396 L884.6875,498.3333 L872.3698,498.3333 L872.3698,494.7396 L876.4844,494.7396 L876.4844,481.276 L872.3698,481.276 Z "/><text fill="#000000" font-family="sans-serif" font-size="20" font-style="italic" lengthAdjust="spacingAndGlyphs" textLength="131.6667" x="902.5" y="495.2572">RetryListener</text><line style="stroke: #225C4D; stroke-width: 2.5;" x1="855.8333" x2="1037.5" y1="515" y2="515"/><line style="stroke: #225C4D; stroke-width: 2.5;" x1="855.8333" x2="1037.5" y1="528.3333" y2="528.3333"/><!--MD5=[229ecbd1234bea1b352bf243d0d32ff1]
class RetryContextCache--><rect fill="#DDEEE8" filter="url(#f1r1td3o06exon)" height="80" id="RetryContextCache" style="stroke: #225C4D; stroke-width: 2.5;" width="243.3333" x="880" y="280"/><ellipse cx="905" cy="306.6667" fill="#B4A7E5" rx="18.3333" ry="18.3333" style="stroke: #225C4D; stroke-width: 1.6666666666666667;"/><path d="M898.2031,299.6094 L898.2031,296.0156 L910.5208,296.0156 L910.5208,299.6094 L906.4063,299.6094 L906.4063,313.0729 L910.5208,313.0729 L910.5208,316.6667 L898.2031,316.6667 L898.2031,313.0729 L902.3177,313.0729 L902.3177,299.6094 L898.2031,299.6094 Z "/><text fill="#000000" font-family="sans-serif" font-size="20" font-style="italic" lengthAdjust="spacingAndGlyphs" textLength="190" x="928.3333" y="313.5905">RetryContextCache</text><line style="stroke: #225C4D; stroke-width: 2.5;" x1="881.6667" x2="1121.6667" y1="333.3333" y2="333.3333"/><line style="stroke: #225C4D; stroke-width: 2.5;" x1="881.6667" x2="1121.6667" y1="346.6667" y2="346.6667"/><!--MD5=[579b2f399dc72902719a7b644cbbd1d0]
class RetryCallback--><rect fill="#DDEEE8" filter="url(#f1r1td3o06exon)" height="101.3411" id="RetryCallback" style="stroke: #225C4D; stroke-width: 2.5;" width="366.6667" x="1371.6667" y="45"/><ellipse cx="1457.0833" cy="71.6667" fill="#B4A7E5" rx="18.3333" ry="18.3333" style="stroke: #225C4D; stroke-width: 1.6666666666666667;"/><path d="M1450.2865,64.6094 L1450.2865,61.0156 L1462.6042,61.0156 L1462.6042,64.6094 L1458.4896,64.6094 L1458.4896,78.0729 L1462.6042,78.0729 L1462.6042,81.6667 L1450.2865,81.6667 L1450.2865,78.0729 L1454.401,78.0729 L1454.401,64.6094 L1450.2865,64.6094 Z "/><text fill="#000000" font-family="sans-serif" font-size="20" font-style="italic" lengthAdjust="spacingAndGlyphs" textLength="136.6667" x="1491.25" y="78.5905">RetryCallback</text><rect fill="#FFFFFF" height="26.6146" style="stroke: #000000; stroke-width: 1.6666666666666667; stroke-dasharray: 2.0,2.0;" width="41.6667" x="1701.6667" y="40"/><text fill="#000000" font-family="sans-serif" font-size="20" font-style="italic" lengthAdjust="spacingAndGlyphs" textLength="38.3333" x="1703.3333" y="60.2311">T, E</text><line style="stroke: #225C4D; stroke-width: 2.5;" x1="1373.3333" x2="1736.6667" y1="98.3333" y2="98.3333"/><line style="stroke: #225C4D; stroke-width: 2.5;" x1="1373.3333" x2="1736.6667" y1="111.6667" y2="111.6667"/><text fill="#000000" font-family="sans-serif" font-size="18.3333" lengthAdjust="spacingAndGlyphs" textLength="346.6667" x="1381.6667" y="135.3507">doWithRetry(context: RetryContext): T</text><!--MD5=[f59d7362f5c36a3aa2a03ab7c404115a]
class RetryContext--><rect fill="#DDEEE8" filter="url(#f1r1td3o06exon)" height="80" id="RetryContext" style="stroke: #225C4D; stroke-width: 2.5;" width="183.3333" x="1503.3333" y="280"/><ellipse cx="1528.3333" cy="306.6667" fill="#B4A7E5" rx="18.3333" ry="18.3333" style="stroke: #225C4D; stroke-width: 1.6666666666666667;"/><path d="M1521.5365,299.6094 L1521.5365,296.0156 L1533.8542,296.0156 L1533.8542,299.6094 L1529.7396,299.6094 L1529.7396,313.0729 L1533.8542,313.0729 L1533.8542,316.6667 L1521.5365,316.6667 L1521.5365,313.0729 L1525.651,313.0729 L1525.651,299.6094 L1521.5365,299.6094 Z "/><text fill="#000000" font-family="sans-serif" font-size="20" font-style="italic" lengthAdjust="spacingAndGlyphs" textLength="130" x="1551.6667" y="313.5905">RetryContext</text><line style="stroke: #225C4D; stroke-width: 2.5;" x1="1505" x2="1685" y1="333.3333" y2="333.3333"/><line style="stroke: #225C4D; stroke-width: 2.5;" x1="1505" x2="1685" y1="346.6667" y2="346.6667"/><!--MD5=[2d36a0997a4d99e5643e4034feeadd84]
class AttributeAccessor--><rect fill="#DDEEE8" filter="url(#f1r1td3o06exon)" height="80" id="AttributeAccessor" style="stroke: #225C4D; stroke-width: 2.5;" width="231.6667" x="1212.5" y="280"/><ellipse cx="1237.5" cy="306.6667" fill="#B4A7E5" rx="18.3333" ry="18.3333" style="stroke: #225C4D; stroke-width: 1.6666666666666667;"/><path d="M1230.7031,299.6094 L1230.7031,296.0156 L1243.0208,296.0156 L1243.0208,299.6094 L1238.9063,299.6094 L1238.9063,313.0729 L1243.0208,313.0729 L1243.0208,316.6667 L1230.7031,316.6667 L1230.7031,313.0729 L1234.8177,313.0729 L1234.8177,299.6094 L1230.7031,299.6094 Z "/><text fill="#000000" font-family="sans-serif" font-size="20" font-style="italic" lengthAdjust="spacingAndGlyphs" textLength="178.3333" x="1260.8333" y="313.5905">AttributeAccessor</text><line style="stroke: #225C4D; stroke-width: 2.5;" x1="1214.1667" x2="1442.5" y1="333.3333" y2="333.3333"/><line style="stroke: #225C4D; stroke-width: 2.5;" x1="1214.1667" x2="1442.5" y1="346.6667" y2="346.6667"/><!--MD5=[233d68d79fcd1e4e831588f9a7505c8e]
class RetryState--><rect fill="#DDEEE8" filter="url(#f1r1td3o06exon)" height="80" id="RetryState" style="stroke: #225C4D; stroke-width: 2.5;" width="160" x="1591.6667" y="461.6667"/><ellipse cx="1616.6667" cy="488.3333" fill="#B4A7E5" rx="18.3333" ry="18.3333" style="stroke: #225C4D; stroke-width: 1.6666666666666667;"/><path d="M1609.8698,481.276 L1609.8698,477.6823 L1622.1875,477.6823 L1622.1875,481.276 L1618.0729,481.276 L1618.0729,494.7396 L1622.1875,494.7396 L1622.1875,498.3333 L1609.8698,498.3333 L1609.8698,494.7396 L1613.9844,494.7396 L1613.9844,481.276 L1609.8698,481.276 Z "/><text fill="#000000" font-family="sans-serif" font-size="20" font-style="italic" lengthAdjust="spacingAndGlyphs" textLength="106.6667" x="1640" y="495.2572">RetryState</text><line style="stroke: #225C4D; stroke-width: 2.5;" x1="1593.3333" x2="1750" y1="515" y2="515"/><line style="stroke: #225C4D; stroke-width: 2.5;" x1="1593.3333" x2="1750" y1="528.3333" y2="528.3333"/><!--MD5=[d746b4ae7eeb5973e02a237be8ec9ad5]
class DefaultRetryState--><rect fill="#DDEEE8" filter="url(#f1r1td3o06exon)" height="101.3411" id="DefaultRetryState" style="stroke: #225C4D; stroke-width: 2.5;" width="238.3333" x="1552.5" y="643.3333"/><ellipse cx="1577.5" cy="670" fill="#ADD1B2" rx="18.3333" ry="18.3333" style="stroke: #225C4D; stroke-width: 1.6666666666666667;"/><path d="M1582.4479,679.401 Q1581.4844,679.8958 1580.4167,680.1302 Q1579.349,680.3906 1578.1771,680.3906 Q1574.0104,680.3906 1571.7969,677.6563 Q1569.6094,674.8958 1569.6094,669.6875 Q1569.6094,664.4792 1571.7969,661.7188 Q1574.0104,658.9583 1578.1771,658.9583 Q1579.349,658.9583 1580.4167,659.2188 Q1581.5104,659.4792 1582.4479,659.974 L1582.4479,664.5052 Q1581.4063,663.5417 1580.4167,663.099 Q1579.4271,662.6302 1578.3854,662.6302 Q1576.1458,662.6302 1575,664.4271 Q1573.8542,666.1979 1573.8542,669.6875 Q1573.8542,673.1771 1575,674.974 Q1576.1458,676.7448 1578.3854,676.7448 Q1579.4271,676.7448 1580.4167,676.3021 Q1581.4063,675.8333 1582.4479,674.8698 L1582.4479,679.401 Z "/><text fill="#000000" font-family="sans-serif" font-size="20" lengthAdjust="spacingAndGlyphs" textLength="185" x="1600.8333" y="676.9238">DefaultRetryState</text><line style="stroke: #225C4D; stroke-width: 2.5;" x1="1554.1667" x2="1789.1667" y1="696.6667" y2="696.6667"/><text fill="#000000" font-family="sans-serif" font-size="18.3333" lengthAdjust="spacingAndGlyphs" textLength="103.3333" x="1562.5" y="720.3507">key: Object</text><line style="stroke: #225C4D; stroke-width: 2.5;" x1="1554.1667" x2="1789.1667" y1="731.3411" y2="731.3411"/><path d="M1849.1667,673.3333 L1849.1667,687.5 L1791.2,694.1667 L1849.1667,700.8333 L1849.1667,715.2214 A0,0 0 0 0 1849.1667,715.2214 L2060.8333,715.2214 A0,0 0 0 0 2060.8333,715.2214 L2060.8333,690 L2044.1667,673.3333 L1849.1667,673.3333 A0,0 0 0 0 1849.1667,673.3333 " fill="#FBFB77" filter="url(#f1r1td3o06exon)" style="stroke: #A80036; stroke-width: 1.6666666666666667;"/><path d="M2044.1667,673.3333 L2044.1667,690 L2060.8333,690 L2044.1667,673.3333 " fill="#FBFB77" style="stroke: #A80036; stroke-width: 1.6666666666666667;"/><text fill="#000000" font-family="sans-serif" font-size="21.6667" lengthAdjust="spacingAndGlyphs" textLength="176.6667" x="1859.1667" y="701.7782">Enthält Item-Key</text><!--MD5=[f584676a78fa921eaf6d54be43b04c1f]
class RecoveryCallback--><rect fill="#DDEEE8" filter="url(#f1r1td3o06exon)" height="101.3411" id="RecoveryCallback" style="stroke: #225C4D; stroke-width: 2.5;" width="328.3333" x="1797.5" y="45"/><ellipse cx="1860" cy="71.6667" fill="#B4A7E5" rx="18.3333" ry="18.3333" style="stroke: #225C4D; stroke-width: 1.6666666666666667;"/><path d="M1853.2031,64.6094 L1853.2031,61.0156 L1865.5208,61.0156 L1865.5208,64.6094 L1861.4063,64.6094 L1861.4063,78.0729 L1865.5208,78.0729 L1865.5208,81.6667 L1853.2031,81.6667 L1853.2031,78.0729 L1857.3177,78.0729 L1857.3177,64.6094 L1853.2031,64.6094 Z "/><text fill="#000000" font-family="sans-serif" font-size="20" font-style="italic" lengthAdjust="spacingAndGlyphs" textLength="173.3333" x="1891.6667" y="78.5905">RecoveryCallback</text><rect fill="#FFFFFF" height="26.6146" style="stroke: #000000; stroke-width: 1.6666666666666667; stroke-dasharray: 2.0,2.0;" width="15" x="2115.8333" y="40"/><text fill="#000000" font-family="sans-serif" font-size="20" font-style="italic" lengthAdjust="spacingAndGlyphs" textLength="11.6667" x="2117.5" y="60.2311">T</text><line style="stroke: #225C4D; stroke-width: 2.5;" x1="1799.1667" x2="2124.1667" y1="98.3333" y2="98.3333"/><line style="stroke: #225C4D; stroke-width: 2.5;" x1="1799.1667" x2="2124.1667" y1="111.6667" y2="111.6667"/><text fill="#000000" font-family="sans-serif" font-size="18.3333" lengthAdjust="spacingAndGlyphs" textLength="308.3333" x="1807.5" y="135.3507">recover(context: RetryContext): T</text><!--MD5=[3f829539e74108e12a05f72889ec0adc]
class RetryTemplate--><rect fill="#DDEEE8" filter="url(#f1r1td3o06exon)" height="80" id="RetryTemplate" style="stroke: #225C4D; stroke-width: 2.5;" width="203.3333" x="613.3333" y="280"/><ellipse cx="638.3333" cy="306.6667" fill="#ADD1B2" rx="18.3333" ry="18.3333" style="stroke: #225C4D; stroke-width: 1.6666666666666667;"/><path d="M643.2813,316.0677 Q642.3177,316.5625 641.25,316.7969 Q640.1823,317.0573 639.0104,317.0573 Q634.8438,317.0573 632.6302,314.3229 Q630.4427,311.5625 630.4427,306.3542 Q630.4427,301.1458 632.6302,298.3854 Q634.8438,295.625 639.0104,295.625 Q640.1823,295.625 641.25,295.8854 Q642.3438,296.1458 643.2813,296.6406 L643.2813,301.1719 Q642.2396,300.2083 641.25,299.7656 Q640.2604,299.2969 639.2188,299.2969 Q636.9792,299.2969 635.8333,301.0938 Q634.6875,302.8646 634.6875,306.3542 Q634.6875,309.8438 635.8333,311.6406 Q636.9792,313.4115 639.2188,313.4115 Q640.2604,313.4115 641.25,312.9688 Q642.2396,312.5 643.2813,311.5365 L643.2813,316.0677 Z "/><text fill="#000000" font-family="sans-serif" font-size="20" lengthAdjust="spacingAndGlyphs" textLength="150" x="661.6667" y="313.5905">RetryTemplate</text><line style="stroke: #225C4D; stroke-width: 2.5;" x1="615" x2="815" y1="333.3333" y2="333.3333"/><line style="stroke: #225C4D; stroke-width: 2.5;" x1="615" x2="815" y1="346.6667" y2="346.6667"/><!--MD5=[3edd09f8a5b102d2e8458cbba40b0fe1]
class SimpleRetryPolicy--><rect fill="#DDEEE8" filter="url(#f1r1td3o06exon)" height="80" id="SimpleRetryPolicy" style="stroke: #225C4D; stroke-width: 2.5;" width="233.3333" x="11.6667" y="461.6667"/><ellipse cx="36.6667" cy="488.3333" fill="#ADD1B2" rx="18.3333" ry="18.3333" style="stroke: #225C4D; stroke-width: 1.6666666666666667;"/><path d="M41.6146,497.7344 Q40.651,498.2292 39.5833,498.4635 Q38.5156,498.724 37.3438,498.724 Q33.1771,498.724 30.9635,495.9896 Q28.776,493.2292 28.776,488.0208 Q28.776,482.8125 30.9635,480.0521 Q33.1771,477.2917 37.3438,477.2917 Q38.5156,477.2917 39.5833,477.5521 Q40.6771,477.8125 41.6146,478.3073 L41.6146,482.8385 Q40.5729,481.875 39.5833,481.4323 Q38.5938,480.9635 37.5521,480.9635 Q35.3125,480.9635 34.1667,482.7604 Q33.0208,484.5313 33.0208,488.0208 Q33.0208,491.5104 34.1667,493.3073 Q35.3125,495.0781 37.5521,495.0781 Q38.5938,495.0781 39.5833,494.6354 Q40.5729,494.1667 41.6146,493.2031 L41.6146,497.7344 Z "/><text fill="#000000" font-family="sans-serif" font-size="20" lengthAdjust="spacingAndGlyphs" textLength="180" x="60" y="495.2572">SimpleRetryPolicy</text><line style="stroke: #225C4D; stroke-width: 2.5;" x1="13.3333" x2="243.3333" y1="515" y2="515"/><line style="stroke: #225C4D; stroke-width: 2.5;" x1="13.3333" x2="243.3333" y1="528.3333" y2="528.3333"/><!--MD5=[59c0ce1c979e55f4cfca7978553b474e]
class TimeoutRetryPolicy--><rect fill="#DDEEE8" filter="url(#f1r1td3o06exon)" height="80" id="TimeoutRetryPolicy" style="stroke: #225C4D; stroke-width: 2.5;" width="248.3333" x="304.1667" y="461.6667"/><ellipse cx="329.1667" cy="488.3333" fill="#ADD1B2" rx="18.3333" ry="18.3333" style="stroke: #225C4D; stroke-width: 1.6666666666666667;"/><path d="M334.1146,497.7344 Q333.151,498.2292 332.0833,498.4635 Q331.0156,498.724 329.8438,498.724 Q325.6771,498.724 323.4635,495.9896 Q321.276,493.2292 321.276,488.0208 Q321.276,482.8125 323.4635,480.0521 Q325.6771,477.2917 329.8438,477.2917 Q331.0156,477.2917 332.0833,477.5521 Q333.1771,477.8125 334.1146,478.3073 L334.1146,482.8385 Q333.0729,481.875 332.0833,481.4323 Q331.0938,480.9635 330.0521,480.9635 Q327.8125,480.9635 326.6667,482.7604 Q325.5208,484.5313 325.5208,488.0208 Q325.5208,491.5104 326.6667,493.3073 Q327.8125,495.0781 330.0521,495.0781 Q331.0938,495.0781 332.0833,494.6354 Q333.0729,494.1667 334.1146,493.2031 L334.1146,497.7344 Z "/><text fill="#000000" font-family="sans-serif" font-size="20" lengthAdjust="spacingAndGlyphs" textLength="195" x="352.5" y="495.2572">TimeoutRetryPolicy</text><line style="stroke: #225C4D; stroke-width: 2.5;" x1="305.8333" x2="550.8333" y1="515" y2="515"/><line style="stroke: #225C4D; stroke-width: 2.5;" x1="305.8333" x2="550.8333" y1="528.3333" y2="528.3333"/><!--MD5=[923ada8203007fbe2431edfe063991ca]
class NoBackOffPolicy--><rect fill="#DDEEE8" filter="url(#f1r1td3o06exon)" height="80" id="NoBackOffPolicy" style="stroke: #225C4D; stroke-width: 2.5;" width="218.3333" x="1095.8333" y="654.1667"/><ellipse cx="1120.8333" cy="680.8333" fill="#ADD1B2" rx="18.3333" ry="18.3333" style="stroke: #225C4D; stroke-width: 1.6666666666666667;"/><path d="M1125.7813,690.2344 Q1124.8177,690.7292 1123.75,690.9635 Q1122.6823,691.224 1121.5104,691.224 Q1117.3438,691.224 1115.1302,688.4896 Q1112.9427,685.7292 1112.9427,680.5208 Q1112.9427,675.3125 1115.1302,672.5521 Q1117.3438,669.7917 1121.5104,669.7917 Q1122.6823,669.7917 1123.75,670.0521 Q1124.8438,670.3125 1125.7813,670.8073 L1125.7813,675.3385 Q1124.7396,674.375 1123.75,673.9323 Q1122.7604,673.4635 1121.7188,673.4635 Q1119.4792,673.4635 1118.3333,675.2604 Q1117.1875,677.0313 1117.1875,680.5208 Q1117.1875,684.0104 1118.3333,685.8073 Q1119.4792,687.5781 1121.7188,687.5781 Q1122.7604,687.5781 1123.75,687.1354 Q1124.7396,686.6667 1125.7813,685.7031 L1125.7813,690.2344 Z "/><text fill="#000000" font-family="sans-serif" font-size="20" lengthAdjust="spacingAndGlyphs" textLength="165" x="1144.1667" y="687.7572">NoBackOffPolicy</text><line style="stroke: #225C4D; stroke-width: 2.5;" x1="1097.5" x2="1312.5" y1="707.5" y2="707.5"/><line style="stroke: #225C4D; stroke-width: 2.5;" x1="1097.5" x2="1312.5" y1="720.8333" y2="720.8333"/><!--MD5=[dfd231bb4a6412f646e76d272ccc986b]
class FixedBackOffPolicy--><rect fill="#DDEEE8" filter="url(#f1r1td3o06exon)" height="80" id="FixedBackOffPolicy" style="stroke: #225C4D; stroke-width: 2.5;" width="243.3333" x="10" y="654.1667"/><ellipse cx="35" cy="680.8333" fill="#ADD1B2" rx="18.3333" ry="18.3333" style="stroke: #225C4D; stroke-width: 1.6666666666666667;"/><path d="M39.9479,690.2344 Q38.9844,690.7292 37.9167,690.9635 Q36.849,691.224 35.6771,691.224 Q31.5104,691.224 29.2969,688.4896 Q27.1094,685.7292 27.1094,680.5208 Q27.1094,675.3125 29.2969,672.5521 Q31.5104,669.7917 35.6771,669.7917 Q36.849,669.7917 37.9167,670.0521 Q39.0104,670.3125 39.9479,670.8073 L39.9479,675.3385 Q38.9063,674.375 37.9167,673.9323 Q36.9271,673.4635 35.8854,673.4635 Q33.6458,673.4635 32.5,675.2604 Q31.3542,677.0313 31.3542,680.5208 Q31.3542,684.0104 32.5,685.8073 Q33.6458,687.5781 35.8854,687.5781 Q36.9271,687.5781 37.9167,687.1354 Q38.9063,686.6667 39.9479,685.7031 L39.9479,690.2344 Z "/><text fill="#000000" font-family="sans-serif" font-size="20" lengthAdjust="spacingAndGlyphs" textLength="190" x="58.3333" y="687.7572">FixedBackOffPolicy</text><line style="stroke: #225C4D; stroke-width: 2.5;" x1="11.6667" x2="251.6667" y1="707.5" y2="707.5"/><line style="stroke: #225C4D; stroke-width: 2.5;" x1="11.6667" x2="251.6667" y1="720.8333" y2="720.8333"/><!--MD5=[7c4f5ad717a57129ff8967a9ff4fba9f]
class UniformRandomBackOffPolicy--><rect fill="#DDEEE8" filter="url(#f1r1td3o06exon)" height="80" id="UniformRandomBackOffPolicy" style="stroke: #225C4D; stroke-width: 2.5;" width="355" x="312.5" y="654.1667"/><ellipse cx="337.5" cy="680.8333" fill="#ADD1B2" rx="18.3333" ry="18.3333" style="stroke: #225C4D; stroke-width: 1.6666666666666667;"/><path d="M342.4479,690.2344 Q341.4844,690.7292 340.4167,690.9635 Q339.349,691.224 338.1771,691.224 Q334.0104,691.224 331.7969,688.4896 Q329.6094,685.7292 329.6094,680.5208 Q329.6094,675.3125 331.7969,672.5521 Q334.0104,669.7917 338.1771,669.7917 Q339.349,669.7917 340.4167,670.0521 Q341.5104,670.3125 342.4479,670.8073 L342.4479,675.3385 Q341.4063,674.375 340.4167,673.9323 Q339.4271,673.4635 338.3854,673.4635 Q336.1458,673.4635 335,675.2604 Q333.8542,677.0313 333.8542,680.5208 Q333.8542,684.0104 335,685.8073 Q336.1458,687.5781 338.3854,687.5781 Q339.4271,687.5781 340.4167,687.1354 Q341.4063,686.6667 342.4479,685.7031 L342.4479,690.2344 Z "/><text fill="#000000" font-family="sans-serif" font-size="20" lengthAdjust="spacingAndGlyphs" textLength="301.6667" x="360.8333" y="687.7572">UniformRandomBackOffPolicy</text><line style="stroke: #225C4D; stroke-width: 2.5;" x1="314.1667" x2="665.8333" y1="707.5" y2="707.5"/><line style="stroke: #225C4D; stroke-width: 2.5;" x1="314.1667" x2="665.8333" y1="720.8333" y2="720.8333"/><!--MD5=[4633677062fe52f9cf017d730d9837d9]
class ExponentialBackOffPolicy--><rect fill="#DDEEE8" filter="url(#f1r1td3o06exon)" height="80" id="ExponentialBackOffPolicy" style="stroke: #225C4D; stroke-width: 2.5;" width="311.6667" x="725.8333" y="654.1667"/><ellipse cx="750.8333" cy="680.8333" fill="#ADD1B2" rx="18.3333" ry="18.3333" style="stroke: #225C4D; stroke-width: 1.6666666666666667;"/><path d="M755.7813,690.2344 Q754.8177,690.7292 753.75,690.9635 Q752.6823,691.224 751.5104,691.224 Q747.3438,691.224 745.1302,688.4896 Q742.9427,685.7292 742.9427,680.5208 Q742.9427,675.3125 745.1302,672.5521 Q747.3438,669.7917 751.5104,669.7917 Q752.6823,669.7917 753.75,670.0521 Q754.8438,670.3125 755.7813,670.8073 L755.7813,675.3385 Q754.7396,674.375 753.75,673.9323 Q752.7604,673.4635 751.7188,673.4635 Q749.4792,673.4635 748.3333,675.2604 Q747.1875,677.0313 747.1875,680.5208 Q747.1875,684.0104 748.3333,685.8073 Q749.4792,687.5781 751.7188,687.5781 Q752.7604,687.5781 753.75,687.1354 Q754.7396,686.6667 755.7813,685.7031 L755.7813,690.2344 Z "/><text fill="#000000" font-family="sans-serif" font-size="20" lengthAdjust="spacingAndGlyphs" textLength="258.3333" x="774.1667" y="687.7572">ExponentialBackOffPolicy</text><line style="stroke: #225C4D; stroke-width: 2.5;" x1="727.5" x2="1035.8333" y1="707.5" y2="707.5"/><line style="stroke: #225C4D; stroke-width: 2.5;" x1="727.5" x2="1035.8333" y1="720.8333" y2="720.8333"/><path d="M1097.5,468.3333 L1097.5,535.4427 L1532.5,535.4427 L1532.5,485 L1515.8333,468.3333 L1097.5,468.3333 " fill="#FBFB77" filter="url(#f1r1td3o06exon)" style="stroke: #A80036; stroke-width: 1.6666666666666667;"/><path d="M1515.8333,468.3333 L1515.8333,485 L1532.5,485 L1515.8333,468.3333 " fill="#FBFB77" style="stroke: #A80036; stroke-width: 1.6666666666666667;"/><text fill="#000000" font-family="sans-serif" font-size="21.6667" lengthAdjust="spacingAndGlyphs" textLength="400" x="1107.5" y="496.7782">ContextCache speichert RetryContext</text><text fill="#000000" font-family="sans-serif" font-size="21.6667" lengthAdjust="spacingAndGlyphs" textLength="308.3333" x="1107.5" y="521.9995">mit RetryState (Item) als Key</text><!--MD5=[e1a8ab06fb3c8a75baf69a1ab4382a3a]
reverse link RetryOperations to RetryTemplate--><path d="M715,211.9667 C715,236.3 715,260.3667 715,279.4333 " fill="none" id="RetryOperations&lt;-RetryTemplate" style="stroke: #225C4D; stroke-width: 1.6666666666666667; stroke-dasharray: 7.0,7.0;"/><polygon fill="none" points="703.3333,211.8167,715,178.4833,726.6667,211.8167,703.3333,211.8167" style="stroke: #225C4D; stroke-width: 1.6666666666666667;"/><!--MD5=[270c996a5db72e9e56146a0188e73b7c]
link RetryPolicy to RetryTemplate--><path d="M532.4833,320 C551.8833,320 592.5333,320 592.5333,320 " fill="none" id="RetryPolicy-RetryTemplate" style="stroke: #225C4D; stroke-width: 1.6666666666666667;"/><polygon fill="#225C4D" points="612.5333,320,602.5333,313.3333,592.5333,320,602.5333,326.6667,612.5333,320" style="stroke: #225C4D; stroke-width: 1.6666666666666667;"/><polygon fill="#225C4D" points="510.0833,320,525.0833,326.6667,518.4167,320,525.0833,313.3333,510.0833,320" style="stroke: #225C4D; stroke-width: 1.6666666666666667;"/><line style="stroke: #225C4D; stroke-width: 1.6666666666666667;" x1="518.4167" x2="531.75" y1="320" y2="320"/><text fill="#000000" font-family="sans-serif" font-size="21.6667" lengthAdjust="spacingAndGlyphs" textLength="13.3333" x="523.0695" y="313.2918">1</text><!--MD5=[6b9ea92ec2ef4ff9a5e0f87a84384d47]
link RetryTemplate to BackOffPolicy--><path d="M711.148,380.3231 C711.148,380.3231 708.5167,420.8333 707.3,439.2667 " fill="none" id="RetryTemplate-BackOffPolicy" style="stroke: #225C4D; stroke-width: 1.6666666666666667;"/><polygon fill="#225C4D" points="705.8667,461.3833,713.4919,446.8472,706.407,453.0675,700.1866,445.9826,705.8667,461.3833" style="stroke: #225C4D; stroke-width: 1.6666666666666667;"/><line style="stroke: #225C4D; stroke-width: 1.6666666666666667;" x1="706.407" x2="707.2667" y1="453.0675" y2="439.7583"/><polygon fill="#225C4D" points="712.4667,360.3667,705.1552,369.9053,711.148,380.3231,718.4595,370.7845,712.4667,360.3667" style="stroke: #225C4D; stroke-width: 1.6666666666666667;"/><text fill="#000000" font-family="sans-serif" font-size="21.6667" lengthAdjust="spacingAndGlyphs" textLength="13.3333" x="691.4742" y="442.9975">1</text><!--MD5=[6fd853fe21a671776883b92bbcee6dff]
link RetryTemplate to RetryListener--><path d="M781.1151,372.5662 C781.1151,372.5662 848.8167,424.6833 879.2833,448.1167 " fill="none" id="RetryTemplate-RetryListener" style="stroke: #225C4D; stroke-width: 1.6666666666666667;"/><polygon fill="#225C4D" points="896.5,461.3833,888.6802,446.9509,889.8965,456.3002,880.5472,457.5165,896.5,461.3833" style="stroke: #225C4D; stroke-width: 1.6666666666666667;"/><line style="stroke: #225C4D; stroke-width: 1.6666666666666667;" x1="889.8965" x2="879.325" y1="456.3002" y2="448.1583"/><polygon fill="#225C4D" points="765.2667,360.3667,769.1244,371.7492,781.1151,372.5662,777.2574,361.1836,765.2667,360.3667" style="stroke: #225C4D; stroke-width: 1.6666666666666667;"/><text fill="#000000" font-family="sans-serif" font-size="21.6667" lengthAdjust="spacingAndGlyphs" textLength="40" x="838.5198" y="442.9975">0..n</text><!--MD5=[14cf636bcb439835b7484d626d1bafc9]
link RetryTemplate to RetryContextCache--><path d="M836.9,320 C836.9,320 851.2833,320 857.4333,320 " fill="none" id="RetryTemplate-RetryContextCache" style="stroke: #225C4D; stroke-width: 1.6666666666666667;"/><polygon fill="#225C4D" points="879.7,320,864.7,313.3333,871.3667,320,864.7,326.6667,879.7,320" style="stroke: #225C4D; stroke-width: 1.6666666666666667;"/><line style="stroke: #225C4D; stroke-width: 1.6666666666666667;" x1="871.3667" x2="858.0333" y1="320" y2="320"/><polygon fill="#225C4D" points="816.9,320,826.9,326.6667,836.9,320,826.9,313.3333,816.9,320" style="stroke: #225C4D; stroke-width: 1.6666666666666667;"/><text fill="#000000" font-family="sans-serif" font-size="21.6667" lengthAdjust="spacingAndGlyphs" textLength="13.3333" x="853.1014" y="313.8338">1</text><!--MD5=[2967c0b189016cee3a009d13343a0f8c]
reverse link RetryPolicy to SimpleRetryPolicy--><path d="M334.5,377.45 C288.6167,404.7167 234.55,436.85 193.3,461.3833 " fill="none" id="RetryPolicy&lt;-SimpleRetryPolicy" style="stroke: #225C4D; stroke-width: 1.6666666666666667; stroke-dasharray: 7.0,7.0;"/><polygon fill="none" points="328.6167,367.3667,363.2333,360.3667,340.55,387.4167,328.6167,367.3667" style="stroke: #225C4D; stroke-width: 1.6666666666666667;"/><!--MD5=[bf3298f71122190cc17e0a8f53dc073e]
reverse link RetryPolicy to TimeoutRetryPolicy--><path d="M428.3333,394.3 C428.3333,417.2667 428.3333,441.7667 428.3333,461.3833 " fill="none" id="RetryPolicy&lt;-TimeoutRetryPolicy" style="stroke: #225C4D; stroke-width: 1.6666666666666667; stroke-dasharray: 7.0,7.0;"/><polygon fill="none" points="416.6667,393.7,428.3333,360.3667,440,393.7,416.6667,393.7" style="stroke: #225C4D; stroke-width: 1.6666666666666667;"/><!--MD5=[b82a780a2b4dd97642e80952d79dd6a2]
reverse link BackOffPolicy to NoBackOffPolicy--><path d="M827.6167,550.2 C912.4333,582.1833 1023.4,624.0167 1103.0167,654.05 " fill="none" id="BackOffPolicy&lt;-NoBackOffPolicy" style="stroke: #225C4D; stroke-width: 1.6666666666666667; stroke-dasharray: 7.0,7.0;"/><polygon fill="none" points="823,560.9333,795.9333,538.25,831.2333,539.1,823,560.9333" style="stroke: #225C4D; stroke-width: 1.6666666666666667;"/><!--MD5=[cf76fdd2e8e6c73b1178a2b15acbd49e]
reverse link BackOffPolicy to FixedBackOffPolicy--><path d="M578.4167,544.6667 C480.0667,577.2167 344.0333,622.2333 247.9833,654.0167 " fill="none" id="BackOffPolicy&lt;-FixedBackOffPolicy" style="stroke: #225C4D; stroke-width: 1.6666666666666667; stroke-dasharray: 7.0,7.0;"/><polygon fill="none" points="574.9,533.55,610.2167,534.15,582.2333,555.7,574.9,533.55" style="stroke: #225C4D; stroke-width: 1.6666666666666667;"/><!--MD5=[3495823fef3ed0721ec835854fef7a24]
reverse link BackOffPolicy to UniformRandomBackOffPolicy--><path d="M634.5667,564.3167 C601.4167,593.7 562.6667,628.0667 533.6333,653.8167 " fill="none" id="BackOffPolicy&lt;-UniformRandomBackOffPolicy" style="stroke: #225C4D; stroke-width: 1.6666666666666667; stroke-dasharray: 7.0,7.0;"/><polygon fill="none" points="626.9667,555.45,659.65,542.0667,642.45,572.9167,626.9667,555.45" style="stroke: #225C4D; stroke-width: 1.6666666666666667;"/><!--MD5=[3e5d2fcbdf4bda9322033ddd30a5ab83]
reverse link BackOffPolicy to ExponentialBackOffPolicy--><path d="M762.8833,566.5 C790.1333,595.4 821.5333,628.7 845.2,653.8167 " fill="none" id="BackOffPolicy&lt;-ExponentialBackOffPolicy" style="stroke: #225C4D; stroke-width: 1.6666666666666667; stroke-dasharray: 7.0,7.0;"/><polygon fill="none" points="754.2333,574.3333,739.85,542.0667,771.2,558.3167,754.2333,574.3333" style="stroke: #225C4D; stroke-width: 1.6666666666666667;"/><!--MD5=[b34569e24e2679033302b34fa4074772]
link RetryCallback to RetryContext--><path d="M1563.9833,147.0667 C1570.7167,184.2667 1579.8833,234.8667 1586.5,271.4167 " fill="none" id="RetryCallback-&gt;RetryContext" style="stroke: #225C4D; stroke-width: 1.6666666666666667; stroke-dasharray: 7.0,7.0;"/><polygon fill="#225C4D" points="1588.05,279.9167,1591.9584,263.974,1586.576,271.7147,1578.8353,266.3323,1588.05,279.9167" style="stroke: #225C4D; stroke-width: 1.6666666666666667;"/><!--MD5=[e5ef739035314dcadb2113d829940303]
link RecoveryCallback to RetryContext--><path d="M1879.8333,146.7833 C1815.75,185.3833 1727.4833,238.5333 1666.2667,275.4167 " fill="none" id="RecoveryCallback-&gt;RetryContext" style="stroke: #225C4D; stroke-width: 1.6666666666666667; stroke-dasharray: 7.0,7.0;"/><polygon fill="#225C4D" points="1658.95,279.8167,1675.2424,277.8158,1666.0958,275.5292,1668.3824,266.3826,1658.95,279.8167" style="stroke: #225C4D; stroke-width: 1.6666666666666667;"/><!--MD5=[80888dcad875b28b787fa87eb4d24075]
reverse link AttributeAccessor to RetryContext--><path d="M1478.0167,320 C1486.4333,320 1494.85,320 1503.2833,320 " fill="none" id="AttributeAccessor&lt;-RetryContext" style="stroke: #225C4D; stroke-width: 1.6666666666666667;"/><polygon fill="none" points="1477.8167,331.6667,1444.4833,320,1477.8167,308.3333,1477.8167,331.6667" style="stroke: #225C4D; stroke-width: 1.6666666666666667;"/><!--MD5=[c3698b69e7a642e436304714679c0166]
link RetryContext to RetryContext--><path d="M1687.2833,303.1333 C1719.2167,302.95 1745,308.5667 1745,320 C1745,330.35 1723.8167,335.95 1696.0833,336.7667 " fill="none" id="RetryContext-&gt;RetryContext" style="stroke: #225C4D; stroke-width: 1.6666666666666667;"/><polygon fill="#225C4D" points="1687.2833,336.8667,1702.3585,343.3615,1695.6161,336.7714,1702.2062,330.029,1687.2833,336.8667" style="stroke: #225C4D; stroke-width: 1.6666666666666667;"/><text fill="#000000" font-family="sans-serif" font-size="21.6667" lengthAdjust="spacingAndGlyphs" textLength="70" x="1755" y="327.6115">parent</text><!--MD5=[3c841a8dde5560bf581f730f8fc12a8f]
link RetryContext to RetryState--><path d="M1611.6333,360.3667 C1624.5,390.2667 1642.2167,431.4833 1655.0667,461.3833 " fill="none" id="RetryContext-RetryState" style="stroke: #225C4D; stroke-width: 1.6666666666666667;"/><!--MD5=[804ea153309097193d6da9f4872addde]
reverse link RetryState to DefaultRetryState--><path d="M1671.6667,550.55 C1671.6667,578.7167 1671.6667,614.45 1671.6667,643.0167 " fill="none" id="RetryState&lt;-DefaultRetryState" style="stroke: #225C4D; stroke-width: 1.6666666666666667; stroke-dasharray: 7.0,7.0;"/><polygon fill="#225C4D" points="1671.6667,542.0667,1665,557.0667,1671.6667,550.4,1678.3333,557.0667,1671.6667,542.0667" style="stroke: #225C4D; stroke-width: 1.6666666666666667;"/><!--MD5=[0c9ac92df52cbbf314356bb92222f591]
link RetryContextCache to N--><path d="M1069.65,360.3667 C1126.35,392.6333 1206.15,438.05 1259.1667,468.2167 " fill="none" id="RetryContextCache-N" style="stroke: #225C4D; stroke-width: 1.6666666666666667; stroke-dasharray: 7.0,7.0;"/><!--MD5=[be0378440c6eeb338123956783d7d34d]
link RetryContext to N--><path d="M1534.25,360.3667 C1483.5833,392.6333 1412.2667,438.05 1364.9,468.2167 " fill="none" id="RetryContext-N" style="stroke: #225C4D; stroke-width: 1.6666666666666667; stroke-dasharray: 7.0,7.0;"/><!--MD5=[676c37cfc6aa73455dd029eecc95e73b]
link N to RetryState--><path d="M1533.0333,501.6667 C1552.5333,501.6667 1572.0333,501.6667 1591.5167,501.6667 " fill="none" id="N-RetryState" style="stroke: #225C4D; stroke-width: 1.6666666666666667; stroke-dasharray: 7.0,7.0;"/><!--MD5=[dee5fe2e2ae1be461b72dfe5e55c39fe]
@startuml
skinparam class {
 BackgroundColor #DDEEE8
 BorderColor #225C4D
 ArrowColor #225C4D
 }
scale 5/3

interface RetryOperations {
    execute(retryCallback: RetryCallback<T, E>): T
    execute(retryCallback: RetryCallback<T, E>, retryState: RetryState): T
    execute(retryCallback: RetryCallback<T, E>, recoveryCallback: RecoveryCallback<T>): T
    execute(retryCallback: RetryCallback<T, E>, recoveryCallback: RecoveryCallback<T>, retryState: RetryState): T
}

interface BackOffPolicy
interface RetryPolicy
interface RetryListener
interface RetryContextCache

interface RetryCallback<T, E> {
    doWithRetry(context: RetryContext): T
}

interface RetryContext
interface AttributeAccessor
interface RetryState
class DefaultRetryState {
    key: Object
}
note right: Enthält Item-Key

interface RecoveryCallback<T> {
    recover(context: RetryContext): T
}

RetryOperations <|.. RetryTemplate
RetryPolicy "1" <-* RetryTemplate
RetryTemplate *- -> "1" BackOffPolicy
RetryTemplate *- -> "0..n" RetryListener
RetryTemplate *-> "1" RetryContextCache

RetryPolicy <|.. SimpleRetryPolicy
RetryPolicy <|.. TimeoutRetryPolicy

BackOffPolicy <|.. NoBackOffPolicy
BackOffPolicy <|.. FixedBackOffPolicy
BackOffPolicy <|.. UniformRandomBackOffPolicy
BackOffPolicy <|.. ExponentialBackOffPolicy

RetryCallback ..> RetryContext
RecoveryCallback ..> RetryContext
AttributeAccessor <|- RetryContext
RetryContext - -> RetryContext: parent

RetryContext - - RetryState
RetryState <.. DefaultRetryState

note as N
ContextCache speichert RetryContext
mit RetryState (Item) als Key
end note

RetryContextCache .. N
RetryContext .. N
N . RetryState
@enduml

PlantUML version 1.2019.12(Sun Nov 03 11:24:54 CET 2019)
(APACHE source distribution)
Java Runtime: OpenJDK Runtime Environment
JVM: OpenJDK 64-Bit Server VM
Java Version: 17.0.6+10-Debian-1deb11u1
Operating System: Linux
Default Encoding: UTF-8
Language: en
Country: DK
--></g></svg>