<?xml version="1.0" encoding="UTF-8" standalone="no"?><svg xmlns="http://www.w3.org/2000/svg" xmlns:xlink="http://www.w3.org/1999/xlink" contentScriptType="application/ecmascript" contentStyleType="text/css" height="748px" preserveAspectRatio="none" style="width:1932px;height:748px;" version="1.1" viewBox="0 0 1932 748" width="1932px" zoomAndPan="magnify"><defs><filter height="300%" id="f1qobx5djdraiy" width="300%" x="-1" y="-1"><feGaussianBlur result="blurOut" stdDeviation="4.0"/><feColorMatrix in="blurOut" result="blurOut2" type="matrix" values="0 0 0 0 0 0 0 0 0 0 0 0 0 0 0 0 0 0 .4 0"/><feOffset dx="8.0" dy="8.0" in="blurOut2" result="blurOut3"/><feBlend in="SourceGraphic" in2="blurOut3" mode="normal"/></filter></defs><g><!--MD5=[9714e9079d7370fd1f82f8df32718ecc]
class ExecutionContextPromotionListener--><rect fill="#DDEEE8" filter="url(#f1qobx5djdraiy)" height="172.8281" id="ExecutionContextPromotionListener" style="stroke: #225C4D; stroke-width: 3.0;" width="510" x="126" y="232"/><ellipse cx="156" cy="264" fill="#ADD1B2" rx="22" ry="22" style="stroke: #225C4D; stroke-width: 2.0;"/><path d="M161.9375,275.2813 Q160.7813,275.875 159.5,276.1563 Q158.2188,276.4688 156.8125,276.4688 Q151.8125,276.4688 149.1563,273.1875 Q146.5313,269.875 146.5313,263.625 Q146.5313,257.375 149.1563,254.0625 Q151.8125,250.75 156.8125,250.75 Q158.2188,250.75 159.5,251.0625 Q160.8125,251.375 161.9375,251.9688 L161.9375,257.4063 Q160.6875,256.25 159.5,255.7188 Q158.3125,255.1563 157.0625,255.1563 Q154.375,255.1563 153,257.3125 Q151.625,259.4375 151.625,263.625 Q151.625,267.8125 153,269.9688 Q154.375,272.0938 157.0625,272.0938 Q158.3125,272.0938 159.5,271.5625 Q160.6875,271 161.9375,269.8438 L161.9375,275.2813 Z "/><text fill="#000000" font-family="sans-serif" font-size="24" lengthAdjust="spacingAndGlyphs" textLength="446" x="184" y="272.3086">ExecutionContextPromotionListener</text><line style="stroke: #225C4D; stroke-width: 3.0;" x1="128" x2="634" y1="296" y2="296"/><text fill="#000000" font-family="sans-serif" font-size="22" lengthAdjust="spacingAndGlyphs" textLength="220" x="138" y="324.4209">keys: String[] = null</text><text fill="#000000" font-family="sans-serif" font-size="22" lengthAdjust="spacingAndGlyphs" textLength="400" x="138" y="350.0303">statuses: String[] = ["COMPLETED"]</text><text fill="#000000" font-family="sans-serif" font-size="22" lengthAdjust="spacingAndGlyphs" textLength="248" x="138" y="375.6396">strict: boolean = false</text><line style="stroke: #225C4D; stroke-width: 3.0;" x1="128" x2="634" y1="388.8281" y2="388.8281"/><path d="M12,524 L12,725.5938 A0,0 0 0 0 12,725.5938 L750,725.5938 A0,0 0 0 0 750,725.5938 L750,544 L730,524 L389,524 L381,404.4 L373,524 L12,524 A0,0 0 0 0 12,524 " fill="#FBFB77" filter="url(#f1qobx5djdraiy)" style="stroke: #A80036; stroke-width: 2.0;"/><path d="M730,524 L730,544 L750,544 L730,524 " fill="#FBFB77" style="stroke: #A80036; stroke-width: 2.0;"/><text fill="#000000" font-family="sans-serif" font-size="26" lengthAdjust="spacingAndGlyphs" textLength="594" x="24" y="558.1338">Kopiert Werte aus dem Step-ExecutionContext</text><text fill="#000000" font-family="sans-serif" font-size="26" lengthAdjust="spacingAndGlyphs" textLength="366" x="24" y="588.3994">in den Job-ExecutionContext.</text><text fill="#000000" font-family="sans-serif" font-size="26" lengthAdjust="spacingAndGlyphs" textLength="604" x="24" y="618.665">Damit kann man Ergebisse von einem Step zur</text><text fill="#000000" font-family="sans-serif" font-size="26" lengthAdjust="spacingAndGlyphs" textLength="696" x="24" y="648.9307">Weiterverarbeitung an einen anderen Step 端bergeben.</text><text fill="#000000" font-family="sans-serif" font-size="26" lengthAdjust="spacingAndGlyphs" textLength="558" x="24" y="679.1963">Jener muss diese Ergebnisse dann aus dem</text><text fill="#000000" font-family="sans-serif" font-size="26" lengthAdjust="spacingAndGlyphs" textLength="466" x="24" y="709.4619">Job-ExecutionContext herausfischen.</text><!--MD5=[0a277b661b27d518d6275372f33250c1]
class JobParameterExecutionContextCopyListener--><rect fill="#DDEEE8" filter="url(#f1qobx5djdraiy)" height="121.6094" id="JobParameterExecutionContextCopyListener" style="stroke: #225C4D; stroke-width: 3.0;" width="612" x="707" y="257"/><ellipse cx="737" cy="289" fill="#ADD1B2" rx="22" ry="22" style="stroke: #225C4D; stroke-width: 2.0;"/><path d="M742.9375,300.2813 Q741.7813,300.875 740.5,301.1563 Q739.2188,301.4688 737.8125,301.4688 Q732.8125,301.4688 730.1563,298.1875 Q727.5313,294.875 727.5313,288.625 Q727.5313,282.375 730.1563,279.0625 Q732.8125,275.75 737.8125,275.75 Q739.2188,275.75 740.5,276.0625 Q741.8125,276.375 742.9375,276.9688 L742.9375,282.4063 Q741.6875,281.25 740.5,280.7188 Q739.3125,280.1563 738.0625,280.1563 Q735.375,280.1563 734,282.3125 Q732.625,284.4375 732.625,288.625 Q732.625,292.8125 734,294.9688 Q735.375,297.0938 738.0625,297.0938 Q739.3125,297.0938 740.5,296.5625 Q741.6875,296 742.9375,294.8438 L742.9375,300.2813 Z "/><text fill="#000000" font-family="sans-serif" font-size="24" lengthAdjust="spacingAndGlyphs" textLength="548" x="765" y="297.3086">JobParameterExecutionContextCopyListener</text><line style="stroke: #225C4D; stroke-width: 3.0;" x1="709" x2="1317" y1="321" y2="321"/><text fill="#000000" font-family="sans-serif" font-size="22" lengthAdjust="spacingAndGlyphs" textLength="350" x="719" y="349.4209">keys: Collection&lt;String&gt; = null</text><line style="stroke: #225C4D; stroke-width: 3.0;" x1="709" x2="1317" y1="362.6094" y2="362.6094"/><path d="M832,585 L832,665.5313 A0,0 0 0 0 832,665.5313 L1194,665.5313 A0,0 0 0 0 1194,665.5313 L1194,605 L1174,585 L1021,585 L1013,379.14 L1005,585 L832,585 A0,0 0 0 0 832,585 " fill="#FBFB77" filter="url(#f1qobx5djdraiy)" style="stroke: #A80036; stroke-width: 2.0;"/><path d="M1174,585 L1174,605 L1194,605 L1174,585 " fill="#FBFB77" style="stroke: #A80036; stroke-width: 2.0;"/><text fill="#000000" font-family="sans-serif" font-size="26" lengthAdjust="spacingAndGlyphs" textLength="320" x="844" y="619.1338">Kopiert Parameter in den</text><text fill="#000000" font-family="sans-serif" font-size="26" lengthAdjust="spacingAndGlyphs" textLength="294" x="844" y="649.3994">Step-ExecutionContext</text><!--MD5=[1c20fee8d5007745b1d0079520a43b15]
class NoWorkFoundStepExecutionListener--><rect fill="#DDEEE8" filter="url(#f1qobx5djdraiy)" height="96" id="NoWorkFoundStepExecutionListener" style="stroke: #225C4D; stroke-width: 3.0;" width="518" x="1390" y="270"/><ellipse cx="1420" cy="302" fill="#ADD1B2" rx="22" ry="22" style="stroke: #225C4D; stroke-width: 2.0;"/><path d="M1425.9375,313.2813 Q1424.7813,313.875 1423.5,314.1563 Q1422.2188,314.4688 1420.8125,314.4688 Q1415.8125,314.4688 1413.1563,311.1875 Q1410.5313,307.875 1410.5313,301.625 Q1410.5313,295.375 1413.1563,292.0625 Q1415.8125,288.75 1420.8125,288.75 Q1422.2188,288.75 1423.5,289.0625 Q1424.8125,289.375 1425.9375,289.9688 L1425.9375,295.4063 Q1424.6875,294.25 1423.5,293.7188 Q1422.3125,293.1563 1421.0625,293.1563 Q1418.375,293.1563 1417,295.3125 Q1415.625,297.4375 1415.625,301.625 Q1415.625,305.8125 1417,307.9688 Q1418.375,310.0938 1421.0625,310.0938 Q1422.3125,310.0938 1423.5,309.5625 Q1424.6875,309 1425.9375,307.8438 L1425.9375,313.2813 Z "/><text fill="#000000" font-family="sans-serif" font-size="24" lengthAdjust="spacingAndGlyphs" textLength="454" x="1448" y="310.3086">NoWorkFoundStepExecutionListener</text><line style="stroke: #225C4D; stroke-width: 3.0;" x1="1392" x2="1906" y1="334" y2="334"/><line style="stroke: #225C4D; stroke-width: 3.0;" x1="1392" x2="1906" y1="350" y2="350"/><path d="M1389,554 L1389,695.0625 A0,0 0 0 0 1389,695.0625 L1909,695.0625 A0,0 0 0 0 1909,695.0625 L1909,574 L1889,554 L1657,554 L1649,366.02 L1641,554 L1389,554 A0,0 0 0 0 1389,554 " fill="#FBFB77" filter="url(#f1qobx5djdraiy)" style="stroke: #A80036; stroke-width: 2.0;"/><path d="M1889,554 L1889,574 L1909,574 L1889,554 " fill="#FBFB77" style="stroke: #A80036; stroke-width: 2.0;"/><text fill="#000000" font-family="sans-serif" font-size="26" lengthAdjust="spacingAndGlyphs" textLength="432" x="1401" y="588.1338">Setzt exitStatus auf FAILED, wenn</text><text fill="#000000" font-family="sans-serif" font-size="26" lengthAdjust="spacingAndGlyphs" textLength="478" x="1401" y="618.3994">der Step keine Daten verarbeitet hat,</text><text fill="#000000" font-family="sans-serif" font-size="26" lengthAdjust="spacingAndGlyphs" textLength="474" x="1401" y="648.665">also wenn der erste Aufruf von read()</text><text fill="#000000" font-family="sans-serif" font-size="26" lengthAdjust="spacingAndGlyphs" textLength="306" x="1401" y="678.9307">null zur端ckgegeben hat.</text><!--MD5=[bd7b404dde9515437559308ac3a65cb1]
class StepExecutionListenerSupport--><rect fill="#DDEEE8" filter="url(#f1qobx5djdraiy)" height="96" id="StepExecutionListenerSupport" style="stroke: #225C4D; stroke-width: 3.0;" width="444" x="791" y="16"/><ellipse cx="821" cy="48" fill="#ADD1B2" rx="22" ry="22" style="stroke: #225C4D; stroke-width: 2.0;"/><path d="M826.9375,59.2813 Q825.7813,59.875 824.5,60.1563 Q823.2188,60.4688 821.8125,60.4688 Q816.8125,60.4688 814.1563,57.1875 Q811.5313,53.875 811.5313,47.625 Q811.5313,41.375 814.1563,38.0625 Q816.8125,34.75 821.8125,34.75 Q823.2188,34.75 824.5,35.0625 Q825.8125,35.375 826.9375,35.9688 L826.9375,41.4063 Q825.6875,40.25 824.5,39.7188 Q823.3125,39.1563 822.0625,39.1563 Q819.375,39.1563 818,41.3125 Q816.625,43.4375 816.625,47.625 Q816.625,51.8125 818,53.9688 Q819.375,56.0938 822.0625,56.0938 Q823.3125,56.0938 824.5,55.5625 Q825.6875,55 826.9375,53.8438 L826.9375,59.2813 Z "/><text fill="#000000" font-family="sans-serif" font-size="24" lengthAdjust="spacingAndGlyphs" textLength="380" x="849" y="56.3086">StepExecutionListenerSupport</text><line style="stroke: #225C4D; stroke-width: 3.0;" x1="793" x2="1233" y1="80" y2="80"/><line style="stroke: #225C4D; stroke-width: 3.0;" x1="793" x2="1233" y1="96" y2="96"/><!--MD5=[6626caffe1403ddb3a8cf9787b73cd69]
reverse link StepExecutionListenerSupport to ExecutionContextPromotionListener--><path d="M858.82,126.98 C779.04,158.54 680.4,197.56 593.52,231.94 " fill="none" id="StepExecutionListenerSupport&lt;-ExecutionContextPromotionListener" style="stroke: #225C4D; stroke-width: 2.0;"/><polygon fill="none" points="854,113.84,896.34,112.14,864.3,139.88,854,113.84" style="stroke: #225C4D; stroke-width: 2.0;"/><!--MD5=[96db88973d4699645e6e97c369257346]
reverse link StepExecutionListenerSupport to JobParameterExecutionContextCopyListener--><path d="M1013,152.7 C1013,186.98 1013,225.52 1013,256.56 " fill="none" id="StepExecutionListenerSupport&lt;-JobParameterExecutionContextCopyListener" style="stroke: #225C4D; stroke-width: 2.0;"/><polygon fill="none" points="999,152.44,1013,112.44,1027,152.44,999,152.44" style="stroke: #225C4D; stroke-width: 2.0;"/><!--MD5=[4b49ab81debdf7f1f2c03d2f0c0c4ecd]
reverse link StepExecutionListenerSupport to NoWorkFoundStepExecutionListener--><path d="M1167.64,126.78 C1279.86,170.9 1429.32,229.64 1531.76,269.92 " fill="none" id="StepExecutionListenerSupport&lt;-NoWorkFoundStepExecutionListener" style="stroke: #225C4D; stroke-width: 2.0;"/><polygon fill="none" points="1162.5,139.8,1130.4,112.14,1172.74,113.74,1162.5,139.8" style="stroke: #225C4D; stroke-width: 2.0;"/><!--MD5=[304f93dedb53e9322e36b80f9801bbaf]
@startuml
skinparam class {
 BackgroundColor #DDEEE8
 BorderColor #225C4D
 ArrowColor #225C4D
 }
scale 2

class ExecutionContextPromotionListener {
    keys: String[] = null
    statuses: String[] = ["COMPLETED"]
    strict: boolean = false
}
note bottom
    Kopiert Werte aus dem Step-ExecutionContext
    in den Job-ExecutionContext.
    Damit kann man Ergebisse von einem Step zur
    Weiterverarbeitung an einen anderen Step 端bergeben.
    Jener muss diese Ergebnisse dann aus dem
    Job-ExecutionContext herausfischen.
end note

class JobParameterExecutionContextCopyListener {
    keys: Collection<String> = null
}
note bottom
    Kopiert Parameter in den
    Step-ExecutionContext
end note

class NoWorkFoundStepExecutionListener
note bottom
    Setzt exitStatus auf FAILED, wenn
    der Step keine Daten verarbeitet hat,
    also wenn der erste Aufruf von read()
    null zur端ckgegeben hat.
end note

StepExecutionListenerSupport <|- - ExecutionContextPromotionListener
StepExecutionListenerSupport <|- - JobParameterExecutionContextCopyListener
StepExecutionListenerSupport <|- - NoWorkFoundStepExecutionListener
@enduml

PlantUML version 1.2019.12(Sun Nov 03 11:24:54 CET 2019)
(APACHE source distribution)
Java Runtime: OpenJDK Runtime Environment
JVM: OpenJDK 64-Bit Server VM
Java Version: 17.0.6+10-Debian-1deb11u1
Operating System: Linux
Default Encoding: UTF-8
Language: en
Country: DK
--></g></svg>