<?xml version="1.0" encoding="UTF-8" standalone="no"?><svg xmlns="http://www.w3.org/2000/svg" xmlns:xlink="http://www.w3.org/1999/xlink" contentScriptType="application/ecmascript" contentStyleType="text/css" height="342px" preserveAspectRatio="none" style="width:648px;height:342px;" version="1.1" viewBox="0 0 648 342" width="648px" zoomAndPan="magnify"><defs><filter height="300%" id="f1d1dekckcr87e" width="300%" x="-1" y="-1"><feGaussianBlur result="blurOut" stdDeviation="4.0"/><feColorMatrix in="blurOut" result="blurOut2" type="matrix" values="0 0 0 0 0 0 0 0 0 0 0 0 0 0 0 0 0 0 .4 0"/><feOffset dx="8.0" dy="8.0" in="blurOut2" result="blurOut3"/><feBlend in="SourceGraphic" in2="blurOut3" mode="normal"/></filter></defs><g><!--MD5=[0d482ad21d5c7c11aa976e45da5ecfe6]
entity core--><rect fill="#FEFECE" filter="url(#f1d1dekckcr87e)" height="72.5938" style="stroke: #A80036; stroke-width: 3.0;" width="286" x="73" y="16"/><rect fill="#FEFECE" height="10" style="stroke: #A80036; stroke-width: 3.0;" width="20" x="63" y="26"/><rect fill="#FEFECE" height="10" style="stroke: #A80036; stroke-width: 3.0;" width="20" x="63" y="68.5938"/><text fill="#000000" font-family="sans-serif" font-size="28" lengthAdjust="spacingAndGlyphs" textLength="246" x="93" y="61.9902">spring-batch-core</text><!--MD5=[1bf6c14d8b468624c8bf6af0e2bcba95]
entity infra--><rect fill="#FEFECE" filter="url(#f1d1dekckcr87e)" height="72.5938" style="stroke: #A80036; stroke-width: 3.0;" width="408" x="12" y="227"/><rect fill="#FEFECE" height="10" style="stroke: #A80036; stroke-width: 3.0;" width="20" x="2" y="237"/><rect fill="#FEFECE" height="10" style="stroke: #A80036; stroke-width: 3.0;" width="20" x="2" y="279.5938"/><text fill="#000000" font-family="sans-serif" font-size="28" lengthAdjust="spacingAndGlyphs" textLength="368" x="32" y="272.9902">spring-batch-infrastructure</text><path d="M491,208 L491,255 L420.4,263 L491,271 L491,318.7969 A0,0 0 0 0 491,318.7969 L625,318.7969 A0,0 0 0 0 625,318.7969 L625,228 L605,208 L491,208 A0,0 0 0 0 491,208 " fill="#FBFB77" filter="url(#f1d1dekckcr87e)" style="stroke: #A80036; stroke-width: 2.0;"/><path d="M605,208 L605,228 L625,228 L605,208 " fill="#FBFB77" style="stroke: #A80036; stroke-width: 2.0;"/><text fill="#000000" font-family="sans-serif" font-size="26" lengthAdjust="spacingAndGlyphs" textLength="88" x="503" y="242.1338">Thema</text><text fill="#000000" font-family="sans-serif" font-size="26" lengthAdjust="spacingAndGlyphs" textLength="78" x="503" y="272.3994">dieser</text><text fill="#000000" font-family="sans-serif" font-size="26" lengthAdjust="spacingAndGlyphs" textLength="92" x="503" y="302.665">Lektion</text><!--MD5=[0739542554f0b27b612a5ef995f3c3d1]
link core to infra--><path d="M216,88.18 C216,123.24 216,177.94 216,216.38 " fill="none" id="core-&gt;infra" style="stroke: #225C4D; stroke-width: 2.0;"/><polygon fill="#225C4D" points="216,226.76,224,208.76,216,216.76,208,208.76,216,226.76" style="stroke: #225C4D; stroke-width: 2.0;"/><!--MD5=[6933706243a0b9fd84bf64a902e93a9d]
@startuml
skinparam class {
 BackgroundColor #DDEEE8
 BorderColor #225C4D
 ArrowColor #225C4D
 }
scale 2

component "spring-batch-core" as core
component "spring-batch-infrastructure" as infra
note right
    Thema
    dieser
    Lektion
end note

core - -> infra
@enduml

PlantUML version 1.2019.12(Sun Nov 03 11:24:54 CET 2019)
(APACHE source distribution)
Java Runtime: OpenJDK Runtime Environment
JVM: OpenJDK 64-Bit Server VM
Java Version: 17.0.6+10-Debian-1deb11u1
Operating System: Linux
Default Encoding: UTF-8
Language: en
Country: DK
--></g></svg>