<?xml version="1.0" encoding="UTF-8" standalone="no"?><svg xmlns="http://www.w3.org/2000/svg" xmlns:xlink="http://www.w3.org/1999/xlink" contentScriptType="application/ecmascript" contentStyleType="text/css" height="481.6667px" preserveAspectRatio="none" style="width:751px;height:481px;" version="1.1" viewBox="0 0 751 481" width="751.6667px" zoomAndPan="magnify"><defs><filter height="300%" id="f1bc9m6ln07ihq" width="300%" x="-1" y="-1"><feGaussianBlur result="blurOut" stdDeviation="3.3333333333333335"/><feColorMatrix in="blurOut" result="blurOut2" type="matrix" values="0 0 0 0 0 0 0 0 0 0 0 0 0 0 0 0 0 0 .4 0"/><feOffset dx="6.666666666666667" dy="6.666666666666667" in="blurOut2" result="blurOut3"/><feBlend in="SourceGraphic" in2="blurOut3" mode="normal"/></filter></defs><g><ellipse cx="59.1667" cy="55" fill="#000000" filter="url(#f1bc9m6ln07ihq)" rx="16.6667" ry="16.6667" style="stroke: none; stroke-width: 1.6666666666666667;"/><rect fill="#FEFECE" filter="url(#f1bc9m6ln07ihq)" height="83.3333" rx="20.8333" ry="20.8333" style="stroke: #A80036; stroke-width: 2.5;" width="150" x="134.1667" y="13.3333"/><line style="stroke: #A80036; stroke-width: 2.5;" x1="134.1667" x2="284.1667" y1="57.1615" y2="57.1615"/><text fill="#000000" font-family="sans-serif" font-size="23.3333" lengthAdjust="spacingAndGlyphs" textLength="116.6667" x="150.8333" y="43.3252">STARTING</text><rect fill="#FEFECE" filter="url(#f1bc9m6ln07ihq)" height="83.3333" rx="20.8333" ry="20.8333" style="stroke: #A80036; stroke-width: 2.5;" width="143.3333" x="342.5" y="13.3333"/><line style="stroke: #A80036; stroke-width: 2.5;" x1="342.5" x2="485.8333" y1="57.1615" y2="57.1615"/><text fill="#000000" font-family="sans-serif" font-size="23.3333" lengthAdjust="spacingAndGlyphs" textLength="110" x="359.1667" y="43.3252">STARTED</text><rect fill="#FEFECE" filter="url(#f1bc9m6ln07ihq)" height="83.3333" rx="20.8333" ry="20.8333" style="stroke: #A80036; stroke-width: 2.5;" width="178.3333" x="545" y="13.3333"/><line style="stroke: #A80036; stroke-width: 2.5;" x1="545" x2="723.3333" y1="57.1615" y2="57.1615"/><text fill="#000000" font-family="sans-serif" font-size="23.3333" lengthAdjust="spacingAndGlyphs" textLength="145" x="561.6667" y="43.3252">COMPLETED</text><rect fill="#FEFECE" filter="url(#f1bc9m6ln07ihq)" height="83.3333" rx="20.8333" ry="20.8333" style="stroke: #A80036; stroke-width: 2.5;" width="111.6667" x="358.3333" y="196.6667"/><line style="stroke: #A80036; stroke-width: 2.5;" x1="358.3333" x2="470" y1="240.4948" y2="240.4948"/><text fill="#000000" font-family="sans-serif" font-size="23.3333" lengthAdjust="spacingAndGlyphs" textLength="78.3333" x="375" y="226.6585">FAILED</text><rect fill="#FEFECE" filter="url(#f1bc9m6ln07ihq)" height="83.3333" rx="20.8333" ry="20.8333" style="stroke: #A80036; stroke-width: 2.5;" width="151.6667" x="10" y="380"/><line style="stroke: #A80036; stroke-width: 2.5;" x1="10" x2="161.6667" y1="423.8281" y2="423.8281"/><text fill="#000000" font-family="sans-serif" font-size="23.3333" lengthAdjust="spacingAndGlyphs" textLength="118.3333" x="26.6667" y="409.9919">STOPPING</text><rect fill="#FEFECE" filter="url(#f1bc9m6ln07ihq)" height="83.3333" rx="20.8333" ry="20.8333" style="stroke: #A80036; stroke-width: 2.5;" width="145" x="220" y="380"/><line style="stroke: #A80036; stroke-width: 2.5;" x1="220" x2="365" y1="423.8281" y2="423.8281"/><text fill="#000000" font-family="sans-serif" font-size="23.3333" lengthAdjust="spacingAndGlyphs" textLength="111.6667" x="236.6667" y="409.9919">STOPPED</text><rect fill="#FEFECE" filter="url(#f1bc9m6ln07ihq)" height="83.3333" rx="20.8333" ry="20.8333" style="stroke: #A80036; stroke-width: 2.5;" width="183.3333" x="424.1667" y="380"/><line style="stroke: #A80036; stroke-width: 2.5;" x1="424.1667" x2="607.5" y1="423.8281" y2="423.8281"/><text fill="#000000" font-family="sans-serif" font-size="23.3333" lengthAdjust="spacingAndGlyphs" textLength="150" x="440.8333" y="409.9919">ABANDONED</text><rect fill="#FEFECE" filter="url(#f1bc9m6ln07ihq)" height="83.3333" rx="20.8333" ry="20.8333" style="stroke: #A80036; stroke-width: 2.5;" width="155" x="528.3333" y="196.6667"/><line style="stroke: #A80036; stroke-width: 2.5;" x1="528.3333" x2="683.3333" y1="240.4948" y2="240.4948"/><text fill="#000000" font-family="sans-serif" font-size="23.3333" lengthAdjust="spacingAndGlyphs" textLength="121.6667" x="545" y="226.6585">UNKNOWN</text><!--MD5=[d6dd90c413a933bf0f77ab3b83801a28]
link *start to STARTING--><path d="M76.1667,55 C92.5333,55 108.9,55 125.2667,55 " fill="none" id="*start-&gt;STARTING" style="stroke: #225C4D; stroke-width: 1.6666666666666667;"/><polygon fill="#225C4D" points="133.8333,55,118.8333,48.3333,125.5,55,118.8333,61.6667,133.8333,55" style="stroke: #225C4D; stroke-width: 1.6666666666666667;"/><!--MD5=[f9c6d39269a1898d6a6ebb56571e8c32]
link STARTING to STARTED--><path d="M284.4333,55 C300.8333,55 317.2333,55 333.6333,55 " fill="none" id="STARTING-&gt;STARTED" style="stroke: #225C4D; stroke-width: 1.6666666666666667;"/><polygon fill="#225C4D" points="342.2167,55,327.2167,48.3333,333.8833,55,327.2167,61.6667,342.2167,55" style="stroke: #225C4D; stroke-width: 1.6666666666666667;"/><!--MD5=[7ffbcb2efcc39884852a3c3a34b426c6]
link STARTED to COMPLETED--><path d="M485.9167,55 C502.6833,55 519.45,55 536.2167,55 " fill="none" id="STARTED-&gt;COMPLETED" style="stroke: #225C4D; stroke-width: 1.6666666666666667;"/><polygon fill="#225C4D" points="544.9833,55,529.9833,48.3333,536.65,55,529.9833,61.6667,544.9833,55" style="stroke: #225C4D; stroke-width: 1.6666666666666667;"/><!--MD5=[6447378c2387b46d293c72d1d694a7de]
link STARTED to FAILED--><path d="M414.1667,97.0667 C414.1667,123.9333 414.1667,159.3667 414.1667,187.8167 " fill="none" id="STARTED-&gt;FAILED" style="stroke: #225C4D; stroke-width: 1.6666666666666667;"/><polygon fill="#225C4D" points="414.1667,196.4,420.8333,181.4,414.1667,188.0667,407.5,181.4,414.1667,196.4" style="stroke: #225C4D; stroke-width: 1.6666666666666667;"/><!--MD5=[ed6050b810fa9f706a367c3ff1a0286e]
link STARTED to STOPPING--><path d="M377.7667,96.9333 C316.5167,164.7333 193.1167,301.2833 128.1167,373.2167 " fill="none" id="STARTED-&gt;STOPPING" style="stroke: #225C4D; stroke-width: 1.6666666666666667;"/><polygon fill="#225C4D" points="122.3833,379.55,137.3859,372.8891,127.9699,373.3666,127.4924,363.9506,122.3833,379.55" style="stroke: #225C4D; stroke-width: 1.6666666666666667;"/><!--MD5=[97554414fd517474d5fd5a9e9f8c9668]
link STOPPING to STOPPED--><path d="M161.7167,421.6667 C178.25,421.6667 194.7833,421.6667 211.3167,421.6667 " fill="none" id="STOPPING-&gt;STOPPED" style="stroke: #225C4D; stroke-width: 1.6666666666666667;"/><polygon fill="#225C4D" points="219.95,421.6667,204.95,415,211.6167,421.6667,204.95,428.3333,219.95,421.6667" style="stroke: #225C4D; stroke-width: 1.6666666666666667;"/><!--MD5=[f8c5331cd72a0cbf06e68e590f6a0b35]
link STARTED to ABANDONED--><path d="M485.9167,85.5833 C569.9333,120.1667 699.35,175.9667 712.5,196.6667 C732.3667,227.9333 729.4667,247.0833 712.5,280 C691.3333,321.0333 651.9833,352.6833 614,375.4167 " fill="none" id="STARTED-&gt;ABANDONED" style="stroke: #225C4D; stroke-width: 1.6666666666666667;"/><polygon fill="#225C4D" points="606.4167,379.8333,622.7332,378.0405,613.6166,375.6374,616.0197,366.5207,606.4167,379.8333" style="stroke: #225C4D; stroke-width: 1.6666666666666667;"/><!--MD5=[f28176439fbbe836600e6cb3936a4174]
link STOPPED to ABANDONED--><path d="M365.35,421.6667 C382.0333,421.6667 398.7167,421.6667 415.4,421.6667 " fill="none" id="STOPPED-&gt;ABANDONED" style="stroke: #225C4D; stroke-width: 1.6666666666666667;"/><polygon fill="#225C4D" points="424.1333,421.6667,409.1333,415,415.8,421.6667,409.1333,428.3333,424.1333,421.6667" style="stroke: #225C4D; stroke-width: 1.6666666666666667;"/><!--MD5=[8faaa3c1454f39f314516137fa213afa]
link FAILED to ABANDONED--><path d="M436.9833,280.4 C452.2833,307.5 472.5167,343.3167 488.65,371.8833 " fill="none" id="FAILED-&gt;ABANDONED" style="stroke: #225C4D; stroke-width: 1.6666666666666667;"/><polygon fill="#225C4D" points="493.1,379.7333,491.5388,363.393,489.0066,372.4747,479.9249,369.9425,493.1,379.7333" style="stroke: #225C4D; stroke-width: 1.6666666666666667;"/><!--MD5=[c9464353d254c80f267ec9f08b2f7fd9]
link STOPPED to STARTED--><path d="M294.5167,379.2833 C297.85,333.5833 306.55,257.85 329.1667,196.6667 C341.3333,163.75 361.5167,130.05 379.1667,103.95 " fill="none" id="STOPPED-&gt;STARTED" style="stroke: #225C4D; stroke-width: 1.6666666666666667;"/><polygon fill="#225C4D" points="384.0667,96.8,370.089,105.4064,379.3567,103.6746,381.0884,112.9423,384.0667,96.8" style="stroke: #225C4D; stroke-width: 1.6666666666666667;"/><!--MD5=[adf998337d4b50742a108d2f99766390]
link STARTED to UNKNOWN--><path d="M457.1833,97.0667 C486.5333,124.6167 525.4833,161.2 556.15,190.0167 " fill="none" id="STARTED-&gt;UNKNOWN" style="stroke: #225C4D; stroke-width: 1.6666666666666667;"/><polygon fill="#225C4D" points="562.9667,196.4,556.5812,181.2781,556.8864,190.7013,547.4633,191.0065,562.9667,196.4" style="stroke: #225C4D; stroke-width: 1.6666666666666667;"/><!--MD5=[3b07fa446ab6da5c0fa5ec9f6a35f311]
@startuml
skinparam class {
 BackgroundColor #DDEEE8
 BorderColor #225C4D
 ArrowColor #225C4D
 }
scale 5/3

[*] -> STARTING
STARTING -> STARTED
STARTED -> COMPLETED
STARTED - -> FAILED
STARTED - - -> STOPPING
STOPPING -> STOPPED
STARTED - -> ABANDONED
STOPPED -> ABANDONED
FAILED -> ABANDONED
STOPPED -> STARTED
STARTED - -> UNKNOWN
@enduml

PlantUML version 1.2019.12(Sun Nov 03 11:24:54 CET 2019)
(APACHE source distribution)
Java Runtime: OpenJDK Runtime Environment
JVM: OpenJDK 64-Bit Server VM
Java Version: 17.0.6+10-Debian-1deb11u1
Operating System: Linux
Default Encoding: UTF-8
Language: en
Country: DK
--></g></svg>