<?xml version="1.0" encoding="UTF-8" standalone="no"?><svg xmlns="http://www.w3.org/2000/svg" xmlns:xlink="http://www.w3.org/1999/xlink" contentScriptType="application/ecmascript" contentStyleType="text/css" height="850px" preserveAspectRatio="none" style="width:2302px;height:850px;" version="1.1" viewBox="0 0 2302 850" width="2302px" zoomAndPan="magnify"><defs><filter height="300%" id="fuw5899g5dnbv" width="300%" x="-1" y="-1"><feGaussianBlur result="blurOut" stdDeviation="4.0"/><feColorMatrix in="blurOut" result="blurOut2" type="matrix" values="0 0 0 0 0 0 0 0 0 0 0 0 0 0 0 0 0 0 .4 0"/><feOffset dx="8.0" dy="8.0" in="blurOut2" result="blurOut3"/><feBlend in="SourceGraphic" in2="blurOut3" mode="normal"/></filter></defs><g><ellipse cx="33" cy="320" fill="#000000" filter="url(#fuw5899g5dnbv)" rx="20" ry="20" style="stroke: none; stroke-width: 2.0;"/><rect fill="#FEFECE" filter="url(#fuw5899g5dnbv)" height="80" rx="25" ry="25" style="stroke: #A80036; stroke-width: 3.0;" width="280" x="253" y="280"/><text fill="#000000" font-family="sans-serif" font-size="28" lengthAdjust="spacingAndGlyphs" textLength="260" x="263" y="329.6934">StepBuilderFactory</text><rect fill="#FEFECE" filter="url(#fuw5899g5dnbv)" height="80" rx="25" ry="25" style="stroke: #A80036; stroke-width: 3.0;" width="180" x="779" y="280"/><text fill="#000000" font-family="sans-serif" font-size="28" lengthAdjust="spacingAndGlyphs" textLength="160" x="789" y="329.6934">StepBuilder</text><rect fill="#FEFECE" filter="url(#fuw5899g5dnbv)" height="80" rx="25" ry="25" style="stroke: #A80036; stroke-width: 3.0;" width="272" x="1239" y="280"/><text fill="#000000" font-family="sans-serif" font-size="28" lengthAdjust="spacingAndGlyphs" textLength="252" x="1249" y="329.6934">SimpleStepBuilder</text><path d="M1185,16 L1185,157.0625 A0,0 0 0 0 1185,157.0625 L1367,157.0625 L1375,279.52 L1383,157.0625 L1565,157.0625 A0,0 0 0 0 1565,157.0625 L1565,36 L1545,16 L1185,16 A0,0 0 0 0 1185,16 " fill="#FBFB77" filter="url(#fuw5899g5dnbv)" style="stroke: #A80036; stroke-width: 2.0;"/><path d="M1545,16 L1545,36 L1565,36 L1545,16 " fill="#FBFB77" style="stroke: #A80036; stroke-width: 2.0;"/><text fill="#000000" font-family="sans-serif" font-size="26" lengthAdjust="spacingAndGlyphs" textLength="256" x="1197" y="50.1338">Erzeugt TaskletStep</text><text fill="#000000" font-family="sans-serif" font-size="26" lengthAdjust="spacingAndGlyphs" textLength="338" x="1197" y="80.3994">mit ChunkOrientedTasklet,</text><text fill="#000000" font-family="sans-serif" font-size="26" lengthAdjust="spacingAndGlyphs" textLength="328" x="1197" y="110.665">und SimpleChunkProvider</text><text fill="#000000" font-family="sans-serif" font-size="26" lengthAdjust="spacingAndGlyphs" textLength="294" x="1197" y="140.9307">SimpleChunkProcessor</text><rect fill="#FEFECE" filter="url(#fuw5899g5dnbv)" height="80" rx="25" ry="25" style="stroke: #A80036; stroke-width: 3.0;" width="360" x="1875" y="280"/><text fill="#000000" font-family="sans-serif" font-size="28" lengthAdjust="spacingAndGlyphs" textLength="340" x="1885" y="329.6934">FaultTolerantStepBuilder</text><path d="M1831,16 L1831,157.0625 A0,0 0 0 0 1831,157.0625 L2047,157.0625 L2055,279.52 L2063,157.0625 L2279,157.0625 A0,0 0 0 0 2279,157.0625 L2279,36 L2259,16 L1831,16 A0,0 0 0 0 1831,16 " fill="#FBFB77" filter="url(#fuw5899g5dnbv)" style="stroke: #A80036; stroke-width: 2.0;"/><path d="M2259,16 L2259,36 L2279,36 L2259,16 " fill="#FBFB77" style="stroke: #A80036; stroke-width: 2.0;"/><text fill="#000000" font-family="sans-serif" font-size="26" lengthAdjust="spacingAndGlyphs" textLength="256" x="1843" y="50.1338">Erzeugt TaskletStep</text><text fill="#000000" font-family="sans-serif" font-size="26" lengthAdjust="spacingAndGlyphs" textLength="338" x="1843" y="80.3994">mit ChunkOrientedTasklet,</text><text fill="#000000" font-family="sans-serif" font-size="26" lengthAdjust="spacingAndGlyphs" textLength="406" x="1843" y="110.665">und FaultTolerantChunkProvider</text><text fill="#000000" font-family="sans-serif" font-size="26" lengthAdjust="spacingAndGlyphs" textLength="372" x="1843" y="140.9307">FaultTolerantChunkProcessor</text><rect fill="#FEFECE" filter="url(#fuw5899g5dnbv)" height="80" rx="25" ry="25" style="stroke: #A80036; stroke-width: 3.0;" width="280" x="37" y="514"/><text fill="#000000" font-family="sans-serif" font-size="28" lengthAdjust="spacingAndGlyphs" textLength="260" x="47" y="563.6934">TaskletStepBuilder</text><path d="M12,746 L12,796.2656 A0,0 0 0 0 12,796.2656 L310,796.2656 A0,0 0 0 0 310,796.2656 L310,766 L290,746 L170.74,746 L174.14,594.08 L154.74,746 L12,746 A0,0 0 0 0 12,746 " fill="#FBFB77" filter="url(#fuw5899g5dnbv)" style="stroke: #A80036; stroke-width: 2.0;"/><path d="M290,746 L290,766 L310,766 L290,746 " fill="#FBFB77" style="stroke: #A80036; stroke-width: 2.0;"/><text fill="#000000" font-family="sans-serif" font-size="26" lengthAdjust="spacingAndGlyphs" textLength="256" x="24" y="780.1338">Erzeugt TaskletStep</text><rect fill="#FEFECE" filter="url(#fuw5899g5dnbv)" height="80" rx="25" ry="25" style="stroke: #A80036; stroke-width: 3.0;" width="222" x="528" y="514"/><text fill="#000000" font-family="sans-serif" font-size="28" lengthAdjust="spacingAndGlyphs" textLength="202" x="538" y="563.6934">JobStepBuilder</text><path d="M510,746 L510,796.2656 A0,0 0 0 0 510,796.2656 L756,796.2656 A0,0 0 0 0 756,796.2656 L756,766 L736,746 L641.66,746 L637.92,594.08 L625.66,746 L510,746 A0,0 0 0 0 510,746 " fill="#FBFB77" filter="url(#fuw5899g5dnbv)" style="stroke: #A80036; stroke-width: 2.0;"/><path d="M736,746 L736,766 L756,766 L736,746 " fill="#FBFB77" style="stroke: #A80036; stroke-width: 2.0;"/><text fill="#000000" font-family="sans-serif" font-size="26" lengthAdjust="spacingAndGlyphs" textLength="204" x="522" y="780.1338">Erzeugt JobStep</text><rect fill="#FEFECE" filter="url(#fuw5899g5dnbv)" height="80" rx="25" ry="25" style="stroke: #A80036; stroke-width: 3.0;" width="292" x="957" y="514"/><text fill="#000000" font-family="sans-serif" font-size="28" lengthAdjust="spacingAndGlyphs" textLength="272" x="967" y="563.6934">PartitionStepBuilder</text><path d="M956,746 L956,796.2656 A0,0 0 0 0 956,796.2656 L1270,796.2656 A0,0 0 0 0 1270,796.2656 L1270,766 L1250,746 L1119.9,746 L1104.78,594.08 L1103.9,746 L956,746 A0,0 0 0 0 956,746 " fill="#FBFB77" filter="url(#fuw5899g5dnbv)" style="stroke: #A80036; stroke-width: 2.0;"/><path d="M1250,746 L1250,766 L1270,766 L1250,746 " fill="#FBFB77" style="stroke: #A80036; stroke-width: 2.0;"/><text fill="#000000" font-family="sans-serif" font-size="26" lengthAdjust="spacingAndGlyphs" textLength="272" x="968" y="780.1338">Erzeugt PartitionStep</text><rect fill="#FEFECE" filter="url(#fuw5899g5dnbv)" height="80" rx="25" ry="25" style="stroke: #A80036; stroke-width: 3.0;" width="242" x="1574" y="514"/><text fill="#000000" font-family="sans-serif" font-size="28" lengthAdjust="spacingAndGlyphs" textLength="222" x="1584" y="563.6934">FlowStepBuilder</text><path d="M1470,716 L1470,826.7969 A0,0 0 0 0 1470,826.7969 L2080,826.7969 A0,0 0 0 0 2080,826.7969 L2080,736 L2060,716 L1762.82,716 L1709.3,594.08 L1746.82,716 L1470,716 A0,0 0 0 0 1470,716 " fill="#FBFB77" filter="url(#fuw5899g5dnbv)" style="stroke: #A80036; stroke-width: 2.0;"/><path d="M2060,716 L2060,736 L2080,736 L2060,716 " fill="#FBFB77" style="stroke: #A80036; stroke-width: 2.0;"/><text fill="#000000" font-family="sans-serif" font-size="26" lengthAdjust="spacingAndGlyphs" textLength="474" x="1482" y="750.1338">Erzeugt FlowStep mit Flow, der selbst</text><text fill="#000000" font-family="sans-serif" font-size="26" lengthAdjust="spacingAndGlyphs" textLength="568" x="1482" y="780.3994">wiederum beliebige Steps (z. B. TaskletStep,</text><text fill="#000000" font-family="sans-serif" font-size="26" lengthAdjust="spacingAndGlyphs" textLength="548" x="1482" y="810.665">DecisionStep, FlowStep, ...) enthalten kann</text><!--MD5=[14bd8b828f23e4f92275f8f2399e3674]
link *start to StepBuilderFactory--><path d="M53.4,320 C116.36,320 179.32,320 242.28,320 " fill="none" id="*start-&gt;StepBuilderFactory" style="stroke: #225C4D; stroke-width: 2.0;"/><polygon fill="#225C4D" points="252.38,320,234.38,312,242.38,320,234.38,328,252.38,320" style="stroke: #225C4D; stroke-width: 2.0;"/><!--MD5=[cde8d6e33adb81c919fad1dff237076e]
link StepBuilderFactory to StepBuilder--><path d="M533.24,320 C608.48,320 699.48,320 767.74,320 " fill="none" id="StepBuilderFactory-&gt;StepBuilder" style="stroke: #225C4D; stroke-width: 2.0;"/><polygon fill="#225C4D" points="778.5,320,760.5,312,768.5,320,760.5,328,778.5,320" style="stroke: #225C4D; stroke-width: 2.0;"/><text fill="#000000" font-family="sans-serif" font-size="26" lengthAdjust="spacingAndGlyphs" textLength="42" x="635" y="306.1338">get</text><!--MD5=[27112eec0169eed460493c8ad44ebaae]
link StepBuilder to SimpleStepBuilder--><path d="M959.46,320 C1034.04,320 1141.28,320 1228.14,320 " fill="none" id="StepBuilder-&gt;SimpleStepBuilder" style="stroke: #225C4D; stroke-width: 2.0;"/><polygon fill="#225C4D" points="1238.62,320,1220.62,312,1228.62,320,1220.62,328,1238.62,320" style="stroke: #225C4D; stroke-width: 2.0;"/><text fill="#000000" font-family="sans-serif" font-size="26" lengthAdjust="spacingAndGlyphs" textLength="76" x="1061" y="306.1338">chunk</text><!--MD5=[47299708ff6d408097da47eea235f29a]
link SimpleStepBuilder to FaultTolerantStepBuilder--><path d="M1511.8,320 C1613.06,320 1752.32,320 1864.48,320 " fill="none" id="SimpleStepBuilder-&gt;FaultTolerantStepBuilder" style="stroke: #225C4D; stroke-width: 2.0;"/><polygon fill="#225C4D" points="1874.56,320,1856.56,312,1864.56,320,1856.56,328,1874.56,320" style="stroke: #225C4D; stroke-width: 2.0;"/><text fill="#000000" font-family="sans-serif" font-size="26" lengthAdjust="spacingAndGlyphs" textLength="160" x="1613" y="306.1338">faultTolerant</text><!--MD5=[c49ad811e453af4055833575f1295ec2]
link StepBuilder to TaskletStepBuilder--><path d="M778.54,352.06 C656.54,392.62 438.76,465 301.42,510.64 " fill="none" id="StepBuilder-&gt;TaskletStepBuilder" style="stroke: #225C4D; stroke-width: 2.0;"/><polygon fill="#225C4D" points="291.68,513.88,311.2827,515.8128,301.1725,510.7349,306.2505,500.6248,291.68,513.88" style="stroke: #225C4D; stroke-width: 2.0;"/><text fill="#000000" font-family="sans-serif" font-size="26" lengthAdjust="spacingAndGlyphs" textLength="86" x="567" y="446.1338">tasklet</text><!--MD5=[19807dcacae4b95a79175628f2d2962a]
link StepBuilder to JobStepBuilder--><path d="M825.1,360.26 C805.16,378.02 781.5,399.68 761,420 C733.08,447.66 703.1,480.06 679.84,505.84 " fill="none" id="StepBuilder-&gt;JobStepBuilder" style="stroke: #225C4D; stroke-width: 2.0;"/><polygon fill="#225C4D" points="672.84,513.62,690.8277,505.5924,679.5296,506.1871,678.935,494.889,672.84,513.62" style="stroke: #225C4D; stroke-width: 2.0;"/><text fill="#000000" font-family="sans-serif" font-size="26" lengthAdjust="spacingAndGlyphs" textLength="38" x="763" y="446.1338">job</text><!--MD5=[599a22db64bbec790e183937019c7695]
link StepBuilder to PartitionStepBuilder--><path d="M908.16,360.5 C949,400.64 1012.98,463.52 1056.38,506.18 " fill="none" id="StepBuilder-&gt;PartitionStepBuilder" style="stroke: #225C4D; stroke-width: 2.0;"/><polygon fill="#225C4D" points="1063.7,513.38,1056.4803,495.0531,1056.5719,506.3664,1045.2586,506.458,1063.7,513.38" style="stroke: #225C4D; stroke-width: 2.0;"/><text fill="#000000" font-family="sans-serif" font-size="26" lengthAdjust="spacingAndGlyphs" textLength="132" x="1003" y="446.1338">partitioner</text><!--MD5=[0abab95403bc782b109717ad61d043f7]
link StepBuilder to FlowStepBuilder--><path d="M959.76,347.28 C1106.04,388 1394.58,468.34 1563.44,515.36 " fill="none" id="StepBuilder-&gt;FlowStepBuilder" style="stroke: #225C4D; stroke-width: 2.0;"/><polygon fill="#225C4D" points="1573.38,518.14,1558.1913,505.598,1563.7477,515.4532,1553.8924,521.0097,1573.38,518.14" style="stroke: #225C4D; stroke-width: 2.0;"/><text fill="#000000" font-family="sans-serif" font-size="26" lengthAdjust="spacingAndGlyphs" textLength="48" x="1335" y="446.1338">flow</text><!--MD5=[d77ee0741ee4b719f8c87f6c2c1692e7]
@startuml
skinparam class {
 BackgroundColor #DDEEE8
 BorderColor #225C4D
 ArrowColor #225C4D
 }
scale 2
skinparam nodesep 100

hide empty description
[*] -> StepBuilderFactory
StepBuilderFactory -> StepBuilder: get
StepBuilder -> SimpleStepBuilder: chunk
note top
    Erzeugt TaskletStep
    mit ChunkOrientedTasklet,
    und SimpleChunkProvider
    SimpleChunkProcessor
end note

SimpleStepBuilder -> FaultTolerantStepBuilder: faultTolerant
note top
    Erzeugt TaskletStep
    mit ChunkOrientedTasklet,
    und FaultTolerantChunkProvider
    FaultTolerantChunkProcessor
end note


StepBuilder - -> TaskletStepBuilder: tasklet
note bottom: Erzeugt TaskletStep

StepBuilder - -> JobStepBuilder: job
note bottom: Erzeugt JobStep

StepBuilder - -> PartitionStepBuilder: partitioner
note bottom: Erzeugt PartitionStep

StepBuilder - -> FlowStepBuilder: flow
note bottom
    Erzeugt FlowStep mit Flow, der selbst
    wiederum beliebige Steps (z. B. TaskletStep,
    DecisionStep, FlowStep, ...) enthalten kann
end note
@enduml

PlantUML version 1.2019.12(Sun Nov 03 11:24:54 CET 2019)
(APACHE source distribution)
Java Runtime: OpenJDK Runtime Environment
JVM: OpenJDK 64-Bit Server VM
Java Version: 17.0.6+10-Debian-1deb11u1
Operating System: Linux
Default Encoding: UTF-8
Language: en
Country: DK
--></g></svg>