<?xml version="1.0" encoding="UTF-8" standalone="no"?><svg xmlns="http://www.w3.org/2000/svg" xmlns:xlink="http://www.w3.org/1999/xlink" contentScriptType="application/ecmascript" contentStyleType="text/css" height="592px" preserveAspectRatio="none" style="width:1952px;height:592px;" version="1.1" viewBox="0 0 1952 592" width="1952px" zoomAndPan="magnify"><defs><filter height="300%" id="f48zfq4d6ep89" width="300%" x="-1" y="-1"><feGaussianBlur result="blurOut" stdDeviation="4.0"/><feColorMatrix in="blurOut" result="blurOut2" type="matrix" values="0 0 0 0 0 0 0 0 0 0 0 0 0 0 0 0 0 0 .4 0"/><feOffset dx="8.0" dy="8.0" in="blurOut2" result="blurOut3"/><feBlend in="SourceGraphic" in2="blurOut3" mode="normal"/></filter></defs><g><!--MD5=[5a2ba6e4c7f78036fecb159f353da9e9]
class Step--><rect fill="#DDEEE8" filter="url(#f48zfq4d6ep89)" height="96" id="Step" style="stroke: #225C4D; stroke-width: 3.0;" width="120" x="726" y="16"/><ellipse cx="756" cy="48" fill="#B4A7E5" rx="22" ry="22" style="stroke: #225C4D; stroke-width: 2.0;"/><path d="M747.8438,39.5313 L747.8438,35.2188 L762.625,35.2188 L762.625,39.5313 L757.6875,39.5313 L757.6875,55.6875 L762.625,55.6875 L762.625,60 L747.8438,60 L747.8438,55.6875 L752.7813,55.6875 L752.7813,39.5313 L747.8438,39.5313 Z "/><text fill="#000000" font-family="sans-serif" font-size="24" font-style="italic" lengthAdjust="spacingAndGlyphs" textLength="56" x="784" y="56.3086">Step</text><line style="stroke: #225C4D; stroke-width: 3.0;" x1="728" x2="844" y1="80" y2="80"/><line style="stroke: #225C4D; stroke-width: 3.0;" x1="728" x2="844" y1="96" y2="96"/><!--MD5=[607d34f76403a7112c19a5b38e796e59]
class RepeatOperations--><rect fill="#DDEEE8" filter="url(#f48zfq4d6ep89)" height="96" id="RepeatOperations" style="stroke: #225C4D; stroke-width: 3.0;" width="274" x="335" y="245"/><ellipse cx="365" cy="277" fill="#B4A7E5" rx="22" ry="22" style="stroke: #225C4D; stroke-width: 2.0;"/><path d="M356.8438,268.5313 L356.8438,264.2188 L371.625,264.2188 L371.625,268.5313 L366.6875,268.5313 L366.6875,284.6875 L371.625,284.6875 L371.625,289 L356.8438,289 L356.8438,284.6875 L361.7813,284.6875 L361.7813,268.5313 L356.8438,268.5313 Z "/><text fill="#000000" font-family="sans-serif" font-size="24" font-style="italic" lengthAdjust="spacingAndGlyphs" textLength="210" x="393" y="285.3086">RepeatOperations</text><line style="stroke: #225C4D; stroke-width: 3.0;" x1="337" x2="607" y1="309" y2="309"/><line style="stroke: #225C4D; stroke-width: 3.0;" x1="337" x2="607" y1="325" y2="325"/><path d="M12,268 L12,318.2656 A0,0 0 0 0 12,318.2656 L264,318.2656 A0,0 0 0 0 264,318.2656 L264,304 L334.24,293 L264,288 L264,288 L244,268 L12,268 A0,0 0 0 0 12,268 " fill="#FBFB77" filter="url(#f48zfq4d6ep89)" style="stroke: #A80036; stroke-width: 2.0;"/><path d="M244,268 L244,288 L264,288 L244,268 " fill="#FBFB77" style="stroke: #A80036; stroke-width: 2.0;"/><text fill="#000000" font-family="sans-serif" font-size="26" lengthAdjust="spacingAndGlyphs" textLength="210" x="24" y="302.1338">RepeatTemplate</text><!--MD5=[7fa27d7515fd28ae64a1c743985a4c75]
class Tasklet--><rect fill="#DDEEE8" filter="url(#f48zfq4d6ep89)" height="121.6094" id="Tasklet" style="stroke: #225C4D; stroke-width: 3.0;" width="968" x="962" y="232"/><ellipse cx="1395.5" cy="264" fill="#B4A7E5" rx="22" ry="22" style="stroke: #225C4D; stroke-width: 2.0;"/><path d="M1387.3438,255.5313 L1387.3438,251.2188 L1402.125,251.2188 L1402.125,255.5313 L1397.1875,255.5313 L1397.1875,271.6875 L1402.125,271.6875 L1402.125,276 L1387.3438,276 L1387.3438,271.6875 L1392.2813,271.6875 L1392.2813,255.5313 L1387.3438,255.5313 Z "/><text fill="#000000" font-family="sans-serif" font-size="24" font-style="italic" lengthAdjust="spacingAndGlyphs" textLength="84" x="1436.5" y="272.3086">Tasklet</text><line style="stroke: #225C4D; stroke-width: 3.0;" x1="964" x2="1928" y1="296" y2="296"/><line style="stroke: #225C4D; stroke-width: 3.0;" x1="964" x2="1928" y1="312" y2="312"/><text fill="#000000" font-family="sans-serif" font-size="22" lengthAdjust="spacingAndGlyphs" textLength="944" x="974" y="340.4209">execute(contribution: StepContribution, chunkContext: ChunkContext): RepeatStatus</text><!--MD5=[ab5a9db233ea6184a0fb7442d6f052df]
class PlatformTransactionManager--><rect fill="#DDEEE8" filter="url(#f48zfq4d6ep89)" height="96" id="PlatformTransactionManager" style="stroke: #225C4D; stroke-width: 3.0;" width="400" x="586" y="474"/><ellipse cx="616" cy="506" fill="#B4A7E5" rx="22" ry="22" style="stroke: #225C4D; stroke-width: 2.0;"/><path d="M607.8438,497.5313 L607.8438,493.2188 L622.625,493.2188 L622.625,497.5313 L617.6875,497.5313 L617.6875,513.6875 L622.625,513.6875 L622.625,518 L607.8438,518 L607.8438,513.6875 L612.7813,513.6875 L612.7813,497.5313 L607.8438,497.5313 Z "/><text fill="#000000" font-family="sans-serif" font-size="24" font-style="italic" lengthAdjust="spacingAndGlyphs" textLength="336" x="644" y="514.3086">PlatformTransactionManager</text><line style="stroke: #225C4D; stroke-width: 3.0;" x1="588" x2="984" y1="538" y2="538"/><line style="stroke: #225C4D; stroke-width: 3.0;" x1="588" x2="984" y1="554" y2="554"/><!--MD5=[58aa8c2c7715c0e47628e32940b1f746]
class TaskletStep--><rect fill="#DDEEE8" filter="url(#f48zfq4d6ep89)" height="96" id="TaskletStep" style="stroke: #225C4D; stroke-width: 3.0;" width="212" x="680" y="245"/><ellipse cx="710" cy="277" fill="#ADD1B2" rx="22" ry="22" style="stroke: #225C4D; stroke-width: 2.0;"/><path d="M715.9375,288.2813 Q714.7813,288.875 713.5,289.1563 Q712.2188,289.4688 710.8125,289.4688 Q705.8125,289.4688 703.1563,286.1875 Q700.5313,282.875 700.5313,276.625 Q700.5313,270.375 703.1563,267.0625 Q705.8125,263.75 710.8125,263.75 Q712.2188,263.75 713.5,264.0625 Q714.8125,264.375 715.9375,264.9688 L715.9375,270.4063 Q714.6875,269.25 713.5,268.7188 Q712.3125,268.1563 711.0625,268.1563 Q708.375,268.1563 707,270.3125 Q705.625,272.4375 705.625,276.625 Q705.625,280.8125 707,282.9688 Q708.375,285.0938 711.0625,285.0938 Q712.3125,285.0938 713.5,284.5625 Q714.6875,284 715.9375,282.8438 L715.9375,288.2813 Z "/><text fill="#000000" font-family="sans-serif" font-size="24" lengthAdjust="spacingAndGlyphs" textLength="148" x="738" y="285.3086">TaskletStep</text><line style="stroke: #225C4D; stroke-width: 3.0;" x1="682" x2="890" y1="309" y2="309"/><line style="stroke: #225C4D; stroke-width: 3.0;" x1="682" x2="890" y1="325" y2="325"/><!--MD5=[ba52ab75121c151a3e80b337e28882b4]
reverse link Step to TaskletStep--><path d="M786,152.28 C786,183.84 786,218.3 786,244.98 " fill="none" id="Step&lt;-TaskletStep" style="stroke: #225C4D; stroke-width: 2.0; stroke-dasharray: 7.0,7.0;"/><polygon fill="none" points="772,152.08,786,112.08,800,152.08,772,152.08" style="stroke: #225C4D; stroke-width: 2.0;"/><!--MD5=[88c7e6b7b5fda4fb6e5b12df23925335]
link RepeatOperations to TaskletStep--><path d="M635.76,293 C641.72,293 655.74,293 655.74,293 " fill="none" id="RepeatOperations-TaskletStep" style="stroke: #225C4D; stroke-width: 2.0;"/><polygon fill="#225C4D" points="679.74,293,667.74,285,655.74,293,667.74,301,679.74,293" style="stroke: #225C4D; stroke-width: 2.0;"/><polygon fill="#225C4D" points="609.38,293,627.38,301,619.38,293,627.38,285,609.38,293" style="stroke: #225C4D; stroke-width: 2.0;"/><line style="stroke: #225C4D; stroke-width: 2.0;" x1="619.38" x2="635.38" y1="293" y2="293"/><text fill="#000000" font-family="sans-serif" font-size="26" lengthAdjust="spacingAndGlyphs" textLength="16" x="625.2809" y="285.5077">1</text><!--MD5=[3cbbb8e386fe6136e6e20b15f0d88411]
link TaskletStep to Tasklet--><path d="M916.34,293 C916.34,293 929.96,293 935.52,293 " fill="none" id="TaskletStep-Tasklet" style="stroke: #225C4D; stroke-width: 2.0;"/><polygon fill="#225C4D" points="961.56,293,943.56,285,951.56,293,943.56,301,961.56,293" style="stroke: #225C4D; stroke-width: 2.0;"/><line style="stroke: #225C4D; stroke-width: 2.0;" x1="951.56" x2="935.56" y1="293" y2="293"/><polygon fill="#225C4D" points="892.34,293,904.34,301,916.34,293,904.34,285,892.34,293" style="stroke: #225C4D; stroke-width: 2.0;"/><text fill="#000000" font-family="sans-serif" font-size="26" lengthAdjust="spacingAndGlyphs" textLength="16" x="929.4018" y="286.6524">1</text><!--MD5=[b19574b2e7d63010e2e49f67589effa5]
link TaskletStep to PlatformTransactionManager--><path d="M786,341.08 C786,376.56 786,425.8 786,463.64 " fill="none" id="TaskletStep-&gt;PlatformTransactionManager" style="stroke: #225C4D; stroke-width: 2.0;"/><polygon fill="#225C4D" points="786,473.98,794,455.98,786,463.98,778,455.98,786,473.98" style="stroke: #225C4D; stroke-width: 2.0;"/><text fill="#000000" font-family="sans-serif" font-size="26" lengthAdjust="spacingAndGlyphs" textLength="16" x="767.95" y="451.9989">1</text><!--MD5=[64a3d2b2dbe88ac1e1dae4e8e2f00523]
@startuml
skinparam class {
 BackgroundColor #DDEEE8
 BorderColor #225C4D
 ArrowColor #225C4D
 }
scale 2

interface Step
interface RepeatOperations
note left: RepeatTemplate
interface Tasklet {
    execute(contribution: StepContribution, chunkContext: ChunkContext): RepeatStatus
}
interface PlatformTransactionManager

Step <|.. TaskletStep
RepeatOperations "1" <-* TaskletStep
TaskletStep *-> "1" Tasklet
TaskletStep - -> "1" PlatformTransactionManager
@enduml

PlantUML version 1.2019.12(Sun Nov 03 11:24:54 CET 2019)
(APACHE source distribution)
Java Runtime: OpenJDK Runtime Environment
JVM: OpenJDK 64-Bit Server VM
Java Version: 17.0.6+10-Debian-1deb11u1
Operating System: Linux
Default Encoding: UTF-8
Language: en
Country: DK
--></g></svg>