<?xml version="1.0" encoding="UTF-8" standalone="no"?><svg xmlns="http://www.w3.org/2000/svg" xmlns:xlink="http://www.w3.org/1999/xlink" contentScriptType="application/ecmascript" contentStyleType="text/css" height="184px" preserveAspectRatio="none" style="width:2110px;height:184px;" version="1.1" viewBox="0 0 2110 184" width="2110px" zoomAndPan="magnify"><defs><filter height="300%" id="f1jh5go9hf0897" width="300%" x="-1" y="-1"><feGaussianBlur result="blurOut" stdDeviation="4.0"/><feColorMatrix in="blurOut" result="blurOut2" type="matrix" values="0 0 0 0 0 0 0 0 0 0 0 0 0 0 0 0 0 0 .4 0"/><feOffset dx="8.0" dy="8.0" in="blurOut2" result="blurOut3"/><feBlend in="SourceGraphic" in2="blurOut3" mode="normal"/></filter></defs><g><!--MD5=[7fa27d7515fd28ae64a1c743985a4c75]
class Tasklet--><rect fill="#DDEEE8" filter="url(#f1jh5go9hf0897)" height="121.6094" id="Tasklet" style="stroke: #225C4D; stroke-width: 3.0;" width="1166" x="12" y="29"/><ellipse cx="544.5" cy="61" fill="#B4A7E5" rx="22" ry="22" style="stroke: #225C4D; stroke-width: 2.0;"/><path d="M536.3438,52.5313 L536.3438,48.2188 L551.125,48.2188 L551.125,52.5313 L546.1875,52.5313 L546.1875,68.6875 L551.125,68.6875 L551.125,73 L536.3438,73 L536.3438,68.6875 L541.2813,68.6875 L541.2813,52.5313 L536.3438,52.5313 Z "/><text fill="#000000" font-family="sans-serif" font-size="24" font-style="italic" lengthAdjust="spacingAndGlyphs" textLength="84" x="585.5" y="69.3086">Tasklet</text><line style="stroke: #225C4D; stroke-width: 3.0;" x1="14" x2="1176" y1="93" y2="93"/><line style="stroke: #225C4D; stroke-width: 3.0;" x1="14" x2="1176" y1="109" y2="109"/><text fill="#000000" font-family="sans-serif" font-size="22" lengthAdjust="spacingAndGlyphs" textLength="1142" x="24" y="137.4209">execute(contribution: StepContribution, chunkContext: ChunkContext): RepeatStatus throws Exception</text><!--MD5=[e2e770ba23caa9d4fb65dba7e5260491]
class RepeatStatus--><rect fill="#DDEEE8" filter="url(#f1jh5go9hf0897)" height="147.2188" id="RepeatStatus" style="stroke: #225C4D; stroke-width: 3.0;" width="236" x="1249" y="16"/><ellipse cx="1279" cy="48" fill="#EB937F" rx="22" ry="22" style="stroke: #225C4D; stroke-width: 2.0;"/><path d="M1287.2188,60 L1271.7813,60 L1271.7813,35.2188 L1287.2188,35.2188 L1287.2188,39.5313 L1276.6875,39.5313 L1276.6875,44.875 L1286.2188,44.875 L1286.2188,49.1875 L1276.6875,49.1875 L1276.6875,55.6875 L1287.2188,55.6875 L1287.2188,60 Z "/><text fill="#000000" font-family="sans-serif" font-size="24" lengthAdjust="spacingAndGlyphs" textLength="172" x="1307" y="56.3086">RepeatStatus</text><line style="stroke: #225C4D; stroke-width: 3.0;" x1="1251" x2="1483" y1="80" y2="80"/><text fill="#000000" font-family="sans-serif" font-size="22" lengthAdjust="spacingAndGlyphs" textLength="158" x="1261" y="108.4209">CONTINUABLE</text><text fill="#000000" font-family="sans-serif" font-size="22" lengthAdjust="spacingAndGlyphs" textLength="102" x="1261" y="134.0303">FINISHED</text><line style="stroke: #225C4D; stroke-width: 3.0;" x1="1251" x2="1483" y1="147.2188" y2="147.2188"/><path d="M1556,35 L1556,82 L1485.82,90 L1556,98 L1556,145.7969 A0,0 0 0 0 1556,145.7969 L2086,145.7969 A0,0 0 0 0 2086,145.7969 L2086,55 L2066,35 L1556,35 A0,0 0 0 0 1556,35 " fill="#FBFB77" filter="url(#f1jh5go9hf0897)" style="stroke: #A80036; stroke-width: 2.0;"/><path d="M2066,35 L2066,55 L2086,55 L2066,35 " fill="#FBFB77" style="stroke: #A80036; stroke-width: 2.0;"/><text fill="#000000" font-family="sans-serif" font-size="26" lengthAdjust="spacingAndGlyphs" textLength="488" x="1568" y="69.1338">Über den RepeatStatus-Rückgabewert</text><text fill="#000000" font-family="sans-serif" font-size="26" lengthAdjust="spacingAndGlyphs" textLength="460" x="1568" y="99.3994">steuert man die Wiederholung eines</text><text fill="#000000" font-family="sans-serif" font-size="26" lengthAdjust="spacingAndGlyphs" textLength="104" x="1568" y="129.665">Tasklets</text><!--MD5=[9608f86f7a6da8edc1c19c0fdb1f7c46]
link Tasklet to RepeatStatus--><!--MD5=[3abb75064a3380ba33440f09752da9ec]
@startuml
skinparam class {
 BackgroundColor #DDEEE8
 BorderColor #225C4D
 ArrowColor #225C4D
 }
scale 2

interface Tasklet {
    execute(contribution: StepContribution, chunkContext: ChunkContext): RepeatStatus throws Exception
}

enum RepeatStatus {
    CONTINUABLE
    FINISHED
}

Tasklet -[hidden]> RepeatStatus

note right of RepeatStatus
    Über den RepeatStatus-Rückgabewert
    steuert man die Wiederholung eines
    Tasklets
end note
@enduml

PlantUML version 1.2019.12(Sun Nov 03 11:24:54 CET 2019)
(APACHE source distribution)
Java Runtime: OpenJDK Runtime Environment
JVM: OpenJDK 64-Bit Server VM
Java Version: 17.0.6+10-Debian-1deb11u1
Operating System: Linux
Default Encoding: UTF-8
Language: en
Country: DK
--></g></svg>