<?xml version="1.0" encoding="UTF-8" standalone="no"?><svg xmlns="http://www.w3.org/2000/svg" xmlns:xlink="http://www.w3.org/1999/xlink" contentScriptType="application/ecmascript" contentStyleType="text/css" height="732px" preserveAspectRatio="none" style="width:2476px;height:732px;" version="1.1" viewBox="0 0 2476 732" width="2476px" zoomAndPan="magnify"><defs><filter height="300%" id="fd6ijyrrkm6hu" width="300%" x="-1" y="-1"><feGaussianBlur result="blurOut" stdDeviation="4.0"/><feColorMatrix in="blurOut" result="blurOut2" type="matrix" values="0 0 0 0 0 0 0 0 0 0 0 0 0 0 0 0 0 0 .4 0"/><feOffset dx="8.0" dy="8.0" in="blurOut2" result="blurOut3"/><feBlend in="SourceGraphic" in2="blurOut3" mode="normal"/></filter></defs><g><!--MD5=[092ee6d6c772012017b4c728005e6592]
class StepBuilderHelper--><rect fill="#DDEEE8" filter="url(#fd6ijyrrkm6hu)" height="172.8281" id="StepBuilderHelper" style="stroke: #225C4D; stroke-width: 3.0;" width="834" x="12" y="16"/><ellipse cx="307.5" cy="48" fill="#ADD1B2" rx="22" ry="22" style="stroke: #225C4D; stroke-width: 2.0;"/><path d="M313.4375,59.2813 Q312.2813,59.875 311,60.1563 Q309.7188,60.4688 308.3125,60.4688 Q303.3125,60.4688 300.6563,57.1875 Q298.0313,53.875 298.0313,47.625 Q298.0313,41.375 300.6563,38.0625 Q303.3125,34.75 308.3125,34.75 Q309.7188,34.75 311,35.0625 Q312.3125,35.375 313.4375,35.9688 L313.4375,41.4063 Q312.1875,40.25 311,39.7188 Q309.8125,39.1563 308.5625,39.1563 Q305.875,39.1563 304.5,41.3125 Q303.125,43.4375 303.125,47.625 Q303.125,51.8125 304.5,53.9688 Q305.875,56.0938 308.5625,56.0938 Q309.8125,56.0938 311,55.5625 Q312.1875,55 313.4375,53.8438 L313.4375,59.2813 Z "/><text fill="#000000" font-family="sans-serif" font-size="24" lengthAdjust="spacingAndGlyphs" textLength="226" x="348.5" y="56.3086">StepBuilderHelper</text><line style="stroke: #225C4D; stroke-width: 3.0;" x1="14" x2="844" y1="80" y2="80"/><line style="stroke: #225C4D; stroke-width: 3.0;" x1="14" x2="844" y1="96" y2="96"/><text fill="#000000" font-family="sans-serif" font-size="22" lengthAdjust="spacingAndGlyphs" textLength="592" x="24" y="124.4209">allowStartIfComplete(allowStartIfComplete: boolean)</text><text fill="#000000" font-family="sans-serif" font-size="22" lengthAdjust="spacingAndGlyphs" textLength="274" x="24" y="150.0303">startLimit(startLimit: int)</text><text fill="#000000" font-family="sans-serif" font-size="22" lengthAdjust="spacingAndGlyphs" textLength="810" x="24" y="175.6396">transactionManager(transactionManager: PlatformTransactionManager)</text><!--MD5=[c2278b845466dbf465347e80a0d408b9]
class AbstractTaskletStepBuilder--><rect fill="#DDEEE8" filter="url(#fd6ijyrrkm6hu)" height="147.2188" id="AbstractTaskletStepBuilder" style="stroke: #225C4D; stroke-width: 3.0;" width="732" x="1047" y="28"/><ellipse cx="1234.5" cy="60" fill="#ADD1B2" rx="22" ry="22" style="stroke: #225C4D; stroke-width: 2.0;"/><path d="M1240.4375,71.2813 Q1239.2813,71.875 1238,72.1563 Q1236.7188,72.4688 1235.3125,72.4688 Q1230.3125,72.4688 1227.6563,69.1875 Q1225.0313,65.875 1225.0313,59.625 Q1225.0313,53.375 1227.6563,50.0625 Q1230.3125,46.75 1235.3125,46.75 Q1236.7188,46.75 1238,47.0625 Q1239.3125,47.375 1240.4375,47.9688 L1240.4375,53.4063 Q1239.1875,52.25 1238,51.7188 Q1236.8125,51.1563 1235.5625,51.1563 Q1232.875,51.1563 1231.5,53.3125 Q1230.125,55.4375 1230.125,59.625 Q1230.125,63.8125 1231.5,65.9688 Q1232.875,68.0938 1235.5625,68.0938 Q1236.8125,68.0938 1238,67.5625 Q1239.1875,67 1240.4375,65.8438 L1240.4375,71.2813 Z "/><text fill="#000000" font-family="sans-serif" font-size="24" lengthAdjust="spacingAndGlyphs" textLength="340" x="1275.5" y="68.3086">AbstractTaskletStepBuilder</text><line style="stroke: #225C4D; stroke-width: 3.0;" x1="1049" x2="1777" y1="92" y2="92"/><line style="stroke: #225C4D; stroke-width: 3.0;" x1="1049" x2="1777" y1="108" y2="108"/><text fill="#000000" font-family="sans-serif" font-size="22" lengthAdjust="spacingAndGlyphs" textLength="708" x="1059" y="136.4209">transactionAttribute(transactionAttribute: TransactionAttribute)</text><text fill="#000000" font-family="sans-serif" font-size="22" lengthAdjust="spacingAndGlyphs" textLength="618" x="1059" y="162.0303">exceptionHandler(exceptionHandler: ExceptionHandler)</text><!--MD5=[83ea499f4e9a6c95d1c3ca4387867ed6]
class SimpleStepBuilder--><rect fill="#DDEEE8" filter="url(#fd6ijyrrkm6hu)" height="121.6094" id="SimpleStepBuilder" style="stroke: #225C4D; stroke-width: 3.0;" width="364" x="1231" y="449"/><ellipse cx="1294.3" cy="481" fill="#ADD1B2" rx="22" ry="22" style="stroke: #225C4D; stroke-width: 2.0;"/><path d="M1300.2375,492.2813 Q1299.0813,492.875 1297.8,493.1563 Q1296.5188,493.4688 1295.1125,493.4688 Q1290.1125,493.4688 1287.4563,490.1875 Q1284.8313,486.875 1284.8313,480.625 Q1284.8313,474.375 1287.4563,471.0625 Q1290.1125,467.75 1295.1125,467.75 Q1296.5188,467.75 1297.8,468.0625 Q1299.1125,468.375 1300.2375,468.9688 L1300.2375,474.4063 Q1298.9875,473.25 1297.8,472.7188 Q1296.6125,472.1563 1295.3625,472.1563 Q1292.675,472.1563 1291.3,474.3125 Q1289.925,476.4375 1289.925,480.625 Q1289.925,484.8125 1291.3,486.9688 Q1292.675,489.0938 1295.3625,489.0938 Q1296.6125,489.0938 1297.8,488.5625 Q1298.9875,488 1300.2375,486.8438 L1300.2375,492.2813 Z "/><text fill="#000000" font-family="sans-serif" font-size="24" lengthAdjust="spacingAndGlyphs" textLength="226" x="1329.7" y="489.3086">SimpleStepBuilder</text><line style="stroke: #225C4D; stroke-width: 3.0;" x1="1233" x2="1593" y1="513" y2="513"/><line style="stroke: #225C4D; stroke-width: 3.0;" x1="1233" x2="1593" y1="529" y2="529"/><text fill="#000000" font-family="sans-serif" font-size="22" lengthAdjust="spacingAndGlyphs" textLength="340" x="1243" y="557.4209">readerIsTransactionalQueue()</text><!--MD5=[d371f894aea762b778f6fcc848502fad]
class FaultTolerantStepBuilder--><rect fill="#DDEEE8" filter="url(#fd6ijyrrkm6hu)" height="403.3125" id="FaultTolerantStepBuilder" style="stroke: #225C4D; stroke-width: 3.0;" width="554" x="476" y="308"/><ellipse cx="589.5" cy="340" fill="#ADD1B2" rx="22" ry="22" style="stroke: #225C4D; stroke-width: 2.0;"/><path d="M595.4375,351.2813 Q594.2813,351.875 593,352.1563 Q591.7188,352.4688 590.3125,352.4688 Q585.3125,352.4688 582.6563,349.1875 Q580.0313,345.875 580.0313,339.625 Q580.0313,333.375 582.6563,330.0625 Q585.3125,326.75 590.3125,326.75 Q591.7188,326.75 593,327.0625 Q594.3125,327.375 595.4375,327.9688 L595.4375,333.4063 Q594.1875,332.25 593,331.7188 Q591.8125,331.1563 590.5625,331.1563 Q587.875,331.1563 586.5,333.3125 Q585.125,335.4375 585.125,339.625 Q585.125,343.8125 586.5,345.9688 Q587.875,348.0938 590.5625,348.0938 Q591.8125,348.0938 593,347.5625 Q594.1875,347 595.4375,345.8438 L595.4375,351.2813 Z "/><text fill="#000000" font-family="sans-serif" font-size="24" lengthAdjust="spacingAndGlyphs" textLength="310" x="630.5" y="348.3086">FaultTolerantStepBuilder</text><line style="stroke: #225C4D; stroke-width: 3.0;" x1="478" x2="1028" y1="372" y2="372"/><line style="stroke: #225C4D; stroke-width: 3.0;" x1="478" x2="1028" y1="388" y2="388"/><text fill="#000000" font-family="sans-serif" font-size="22" lengthAdjust="spacingAndGlyphs" textLength="330" x="488" y="416.4209">processorNonTransactional()</text><text fill="#000000" font-family="sans-serif" font-size="22" lengthAdjust="spacingAndGlyphs" textLength="456" x="488" y="442.0303">skip(type: Class&lt;? extends Throwable&gt;)</text><text fill="#000000" font-family="sans-serif" font-size="22" lengthAdjust="spacingAndGlyphs" textLength="486" x="488" y="467.6396">noSkip(type: Class&lt;? extends Throwable&gt;)</text><text fill="#000000" font-family="sans-serif" font-size="22" lengthAdjust="spacingAndGlyphs" textLength="258" x="488" y="493.249">skipLimit(skipLimit: int)</text><text fill="#000000" font-family="sans-serif" font-size="22" lengthAdjust="spacingAndGlyphs" textLength="362" x="488" y="518.8584">skipPolicy(skipPolicy: SkipPolicy)</text><text fill="#000000" font-family="sans-serif" font-size="22" lengthAdjust="spacingAndGlyphs" textLength="464" x="488" y="544.4678">retry(type: Class&lt;? extends Throwable&gt;)</text><text fill="#000000" font-family="sans-serif" font-size="22" lengthAdjust="spacingAndGlyphs" textLength="496" x="488" y="570.0771">noRetry(type: Class&lt;? extends Throwable&gt;)</text><text fill="#000000" font-family="sans-serif" font-size="22" lengthAdjust="spacingAndGlyphs" textLength="530" x="488" y="595.6865">noRollback(type: Class&lt;? extends Throwable&gt;)</text><text fill="#000000" font-family="sans-serif" font-size="22" lengthAdjust="spacingAndGlyphs" textLength="274" x="488" y="621.2959">retryLimit(retryLimit: int)</text><text fill="#000000" font-family="sans-serif" font-size="22" lengthAdjust="spacingAndGlyphs" textLength="388" x="488" y="646.9053">retryPolicy(retryPolicy: RetryPolicy)</text><text fill="#000000" font-family="sans-serif" font-size="22" lengthAdjust="spacingAndGlyphs" textLength="482" x="488" y="672.5146">backOffPolicy(backOffPolicy: BackOffPolicy)</text><text fill="#000000" font-family="sans-serif" font-size="22" lengthAdjust="spacingAndGlyphs" textLength="494" x="488" y="698.124">keyGenerator(keyGenerator: KeyGenerator)</text><!--MD5=[1bd4e86675835cdec76f5ab7f33ec30e]
class JobBuilderHelper--><rect fill="#DDEEE8" filter="url(#fd6ijyrrkm6hu)" height="121.6094" id="JobBuilderHelper" style="stroke: #225C4D; stroke-width: 3.0;" width="270" x="2082" y="41"/><ellipse cx="2112" cy="73" fill="#ADD1B2" rx="22" ry="22" style="stroke: #225C4D; stroke-width: 2.0;"/><path d="M2117.9375,84.2813 Q2116.7813,84.875 2115.5,85.1563 Q2114.2188,85.4688 2112.8125,85.4688 Q2107.8125,85.4688 2105.1563,82.1875 Q2102.5313,78.875 2102.5313,72.625 Q2102.5313,66.375 2105.1563,63.0625 Q2107.8125,59.75 2112.8125,59.75 Q2114.2188,59.75 2115.5,60.0625 Q2116.8125,60.375 2117.9375,60.9688 L2117.9375,66.4063 Q2116.6875,65.25 2115.5,64.7188 Q2114.3125,64.1563 2113.0625,64.1563 Q2110.375,64.1563 2109,66.3125 Q2107.625,68.4375 2107.625,72.625 Q2107.625,76.8125 2109,78.9688 Q2110.375,81.0938 2113.0625,81.0938 Q2114.3125,81.0938 2115.5,80.5625 Q2116.6875,80 2117.9375,78.8438 L2117.9375,84.2813 Z "/><text fill="#000000" font-family="sans-serif" font-size="24" lengthAdjust="spacingAndGlyphs" textLength="206" x="2140" y="81.3086">JobBuilderHelper</text><line style="stroke: #225C4D; stroke-width: 3.0;" x1="2084" x2="2350" y1="105" y2="105"/><line style="stroke: #225C4D; stroke-width: 3.0;" x1="2084" x2="2350" y1="121" y2="121"/><text fill="#000000" font-family="sans-serif" font-size="22" lengthAdjust="spacingAndGlyphs" textLength="184" x="2094" y="149.4209">preventRestart()</text><!--MD5=[bbe636785d2d9c0b92776279c5915541]
class JobBuilder--><rect fill="#DDEEE8" filter="url(#fd6ijyrrkm6hu)" height="96" id="JobBuilder" style="stroke: #225C4D; stroke-width: 3.0;" width="188" x="1795" y="462"/><ellipse cx="1825" cy="494" fill="#ADD1B2" rx="22" ry="22" style="stroke: #225C4D; stroke-width: 2.0;"/><path d="M1830.9375,505.2813 Q1829.7813,505.875 1828.5,506.1563 Q1827.2188,506.4688 1825.8125,506.4688 Q1820.8125,506.4688 1818.1563,503.1875 Q1815.5313,499.875 1815.5313,493.625 Q1815.5313,487.375 1818.1563,484.0625 Q1820.8125,480.75 1825.8125,480.75 Q1827.2188,480.75 1828.5,481.0625 Q1829.8125,481.375 1830.9375,481.9688 L1830.9375,487.4063 Q1829.6875,486.25 1828.5,485.7188 Q1827.3125,485.1563 1826.0625,485.1563 Q1823.375,485.1563 1822,487.3125 Q1820.625,489.4375 1820.625,493.625 Q1820.625,497.8125 1822,499.9688 Q1823.375,502.0938 1826.0625,502.0938 Q1827.3125,502.0938 1828.5,501.5625 Q1829.6875,501 1830.9375,499.8438 L1830.9375,505.2813 Z "/><text fill="#000000" font-family="sans-serif" font-size="24" lengthAdjust="spacingAndGlyphs" textLength="124" x="1853" y="502.3086">JobBuilder</text><line style="stroke: #225C4D; stroke-width: 3.0;" x1="1797" x2="1981" y1="526" y2="526"/><line style="stroke: #225C4D; stroke-width: 3.0;" x1="1797" x2="1981" y1="542" y2="542"/><!--MD5=[8ad9cb2573c9e1d87ebe0501f50c80f7]
class SimpleJobBuilder--><rect fill="#DDEEE8" filter="url(#fd6ijyrrkm6hu)" height="96" id="SimpleJobBuilder" style="stroke: #225C4D; stroke-width: 3.0;" width="270" x="2184" y="462"/><ellipse cx="2214" cy="494" fill="#ADD1B2" rx="22" ry="22" style="stroke: #225C4D; stroke-width: 2.0;"/><path d="M2219.9375,505.2813 Q2218.7813,505.875 2217.5,506.1563 Q2216.2188,506.4688 2214.8125,506.4688 Q2209.8125,506.4688 2207.1563,503.1875 Q2204.5313,499.875 2204.5313,493.625 Q2204.5313,487.375 2207.1563,484.0625 Q2209.8125,480.75 2214.8125,480.75 Q2216.2188,480.75 2217.5,481.0625 Q2218.8125,481.375 2219.9375,481.9688 L2219.9375,487.4063 Q2218.6875,486.25 2217.5,485.7188 Q2216.3125,485.1563 2215.0625,485.1563 Q2212.375,485.1563 2211,487.3125 Q2209.625,489.4375 2209.625,493.625 Q2209.625,497.8125 2211,499.9688 Q2212.375,502.0938 2215.0625,502.0938 Q2216.3125,502.0938 2217.5,501.5625 Q2218.6875,501 2219.9375,499.8438 L2219.9375,505.2813 Z "/><text fill="#000000" font-family="sans-serif" font-size="24" lengthAdjust="spacingAndGlyphs" textLength="206" x="2242" y="502.3086">SimpleJobBuilder</text><line style="stroke: #225C4D; stroke-width: 3.0;" x1="2186" x2="2452" y1="526" y2="526"/><line style="stroke: #225C4D; stroke-width: 3.0;" x1="2186" x2="2452" y1="542" y2="542"/><!--MD5=[66b86cb857d12b893eb7cbe317458e5f]
reverse link StepBuilderHelper to AbstractTaskletStepBuilder--><path d="M886.76,102 C940,102 993.24,102 1046.48,102 " fill="none" id="StepBuilderHelper&lt;-AbstractTaskletStepBuilder" style="stroke: #225C4D; stroke-width: 2.0;"/><polygon fill="none" points="886.04,116,846.04,102,886.04,88,886.04,116" style="stroke: #225C4D; stroke-width: 2.0;"/><!--MD5=[1bf462a00b4f5e4c7b612c7bac525a3d]
reverse link AbstractTaskletStepBuilder to SimpleStepBuilder--><path d="M1413,216.68 C1413,292 1413,388.1 1413,448.86 " fill="none" id="AbstractTaskletStepBuilder&lt;-SimpleStepBuilder" style="stroke: #225C4D; stroke-width: 2.0;"/><polygon fill="none" points="1399,216.22,1413,176.22,1427,216.22,1399,216.22" style="stroke: #225C4D; stroke-width: 2.0;"/><!--MD5=[075ea660003c15fc874a1c5583d7a2f5]
link FaultTolerantStepBuilder to SimpleStepBuilder--><path d="M1030.14,510 C1083.38,510 1136.62,510 1189.84,510 " fill="none" id="FaultTolerantStepBuilder-&gt;SimpleStepBuilder" style="stroke: #225C4D; stroke-width: 2.0;"/><polygon fill="none" points="1190.54,496,1230.54,510,1190.54,524,1190.54,496" style="stroke: #225C4D; stroke-width: 2.0;"/><!--MD5=[b1013610666b3f960dd5a5b6eb1cc5e6]
reverse link JobBuilderHelper to JobBuilder--><path d="M2143.06,195.08 C2075.68,278.06 1978.9,397.26 1926.38,461.96 " fill="none" id="JobBuilderHelper&lt;-JobBuilder" style="stroke: #225C4D; stroke-width: 2.0;"/><polygon fill="none" points="2132.52,185.84,2168.6,163.62,2154.26,203.48,2132.52,185.84" style="stroke: #225C4D; stroke-width: 2.0;"/><!--MD5=[d1364ec0bf4c3ac140f49eac7631691f]
reverse link JobBuilderHelper to SimpleJobBuilder--><path d="M2241.98,202.9 C2262.8,285.42 2291.54,399.26 2307.38,461.96 " fill="none" id="JobBuilderHelper&lt;-SimpleJobBuilder" style="stroke: #225C4D; stroke-width: 2.0;"/><polygon fill="none" points="2228.26,205.82,2232.06,163.62,2255.42,198.96,2228.26,205.82" style="stroke: #225C4D; stroke-width: 2.0;"/><!--MD5=[d320cb91a7f13df2cb8fe527bda1defe]
@startuml
skinparam class {
 BackgroundColor #DDEEE8
 BorderColor #225C4D
 ArrowColor #225C4D
 }
scale 2
skinparam nodesep 100

class StepBuilderHelper {
    allowStartIfComplete(allowStartIfComplete: boolean)
    startLimit(startLimit: int)
    transactionManager(transactionManager: PlatformTransactionManager)
}

class AbstractTaskletStepBuilder {
    transactionAttribute(transactionAttribute: TransactionAttribute)
    exceptionHandler(exceptionHandler: ExceptionHandler)
}

StepBuilderHelper <|- AbstractTaskletStepBuilder

class SimpleStepBuilder {
    readerIsTransactionalQueue()
}

AbstractTaskletStepBuilder <|- - SimpleStepBuilder

class FaultTolerantStepBuilder {
    processorNonTransactional()
    skip(type: Class<? extends Throwable>)
    noSkip(type: Class<? extends Throwable>)
    skipLimit(skipLimit: int)
    skipPolicy(skipPolicy: SkipPolicy)
    retry(type: Class<? extends Throwable>)
    noRetry(type: Class<? extends Throwable>)
    noRollback(type: Class<? extends Throwable>)
    retryLimit(retryLimit: int)
    retryPolicy(retryPolicy: RetryPolicy)
    backOffPolicy(backOffPolicy: BackOffPolicy)
    keyGenerator(keyGenerator: KeyGenerator)
}

FaultTolerantStepBuilder -|> SimpleStepBuilder

class JobBuilderHelper {
    preventRestart()
}

JobBuilderHelper <|- - JobBuilder
JobBuilderHelper <|- - SimpleJobBuilder
@enduml

PlantUML version 1.2019.12(Sun Nov 03 11:24:54 CET 2019)
(APACHE source distribution)
Java Runtime: OpenJDK Runtime Environment
JVM: OpenJDK 64-Bit Server VM
Java Version: 17.0.6+10-Debian-1deb11u1
Operating System: Linux
Default Encoding: UTF-8
Language: en
Country: DK
--></g></svg>